<svg xmlns="http://www.w3.org/2000/svg" width="1004" height="1024" viewBox="0 0 1004 1024"><title></title><path d="M823.555 3.265c2.877 1.044 6.013 2.348 8.889 3.392 28.236 9.131 47.321 34.177 47.843 63.658 0.524 46.7 0.263 93.139 0 139.84 0 10.696-5.75 17.217-14.378 17.217s-14.117-6.521-14.117-17.478c0-43.57 0-87.4 0-130.97 0-5.74 0-11.74-1.307-17.48-3.921-16.176-18.563-27.916-35.294-29.22-3.66-0.261-7.060-0.261-10.72-0.261-200.262 0-400.523 0-600.785 0-32.679 0-47.32 14.61-47.32 47.222 0 206.889 0 414.040 0 620.928 0 4.174 0 8.61-0.523 12.523-1.307 7.307-6.275 11.481-13.595 11.481-7.843 0-12.811-4.435-14.118-12.262-0.523-3.132-0.261-6.523-0.261-9.654 0-207.671 0-415.344 0-623.016 0-40.439 16.471-62.615 55.425-74.616 0.523-0.261 1.046-0.783 1.569-1.304 212.55 0 425.62 0 638.692 0z"></path><path d="M184.328 1005.104c-2.876-1.044-6.013-2.349-8.889-3.391-28.235-9.132-47.582-34.439-47.843-63.92-0.523-44.873-0.261-90.010 0-134.883 0-10.174 5.49-16.697 13.856-16.958 8.628-0.261 14.641 6.262 14.641 16.958 0.261 43.048 0.261 86.096 0 129.142 0 13.045 3.137 24.526 12.81 33.655 8.889 8.349 19.608 10.698 31.634 10.698 63.791-0.261 127.32 0 191.111 0 137.517 0 275.032 0 412.811 0 32.68 0 47.321-14.611 47.321-46.961 0-205.324 0-410.909 0-616.233 0-4.174 0-8.61 0.785-12.523 1.568-7.305 6.797-11.218 14.117-11.218 7.321 0.261 12.025 4.696 13.595 11.74 0.522 2.869 0.261 5.74 0.261 8.871 0 207.149 0 414.039 0 621.191 0 38.089-18.040 61.832-54.38 72.527-0.783 0.261-1.568 1.044-2.351 1.566-213.333-0.261-426.406-0.261-639.478-0.261z"></path><path d="M503.806 384.954c-88.104 0-176.469-0.783-264.575 0.522-30.587 0.522-50.195-20.090-49.934-49.311 1.046-70.441 0.261-140.882 0.261-211.323 0-31.046 16.732-47.744 47.843-47.744 177.778 0 355.294 0 533.072 0 30.587 0 47.582 16.697 47.582 46.961 0 71.485 0 142.709 0 214.194 0 29.742-16.994 46.7-46.799 46.7-89.15 0-178.3 0-267.451 0zM504.852 105.796c-88.628 0-176.993 0-265.622 0-17.253 0-21.438 3.913-21.438 21.393 0 69.398 0 138.795 0 208.194 0 17.219 4.184 21.653 21.177 21.653 176.471 0 352.941 0 529.151 0 17.255 0 21.438-4.174 21.438-21.392 0-69.138 0-138.275 0-207.412 0-18.784-3.66-22.437-22.223-22.437-87.319 0-174.901 0-262.483 0z"></path><path d="M818.066 742.902c0 37.83 0 75.66 0 113.489 0 24.263-12.549 36.525-36.862 36.525-19.348 0-38.432 0.261-57.778 0-22.484-0.261-35.033-13.045-35.033-35.481 0-76.182 0-152.624 0-228.806 0-21.916 12.549-34.7 34.509-34.7 20.655-0.259 41.046-0.259 61.699 0 20.655 0.261 33.465 12.784 33.465 33.655 0.261 38.352 0 76.965 0 115.316zM789.829 743.685c0-37.047-0.261-74.354 0-111.403 0-7.305-1.829-10.696-9.933-10.435-18.301 0.522-36.603 0.261-54.902 0-6.275 0-8.889 1.825-8.889 8.349 0.261 75.138 0.261 150.536 0 225.674 0 6.523 2.353 8.349 8.628 8.349 18.038-0.261 35.816-0.522 53.856 0 8.889 0.261 10.979-2.869 10.979-11.218 0-36.266 0.261-72.79 0.261-109.315z"></path><path d="M486.039 827.952c0 10.696 0.263 21.394 0 32.35-0.522 18.785-13.332 32.091-32.156 32.613-21.962 0.52-43.661 0.52-65.622 0-19.085-0.522-31.895-13.045-32.417-32.352-0.524-21.916-0.524-43.568 0-65.484 0.522-19.046 13.332-31.83 32.417-32.091 21.438-0.52 43.139-0.52 64.576 0 19.87 0.522 32.68 13.828 33.202 33.655 0.263 10.437 0 20.872 0 31.308zM421.725 791.428c-10.196 0-20.131-0.522-30.326 0.261-2.353 0.261-6.536 4.174-6.799 6.521-0.522 19.566-0.261 39.135-0.261 58.44 0 5.479 1.831 7.566 7.321 7.566 19.609-0.261 39.215-0.261 58.563 0 4.967 0 7.058-1.825 7.058-6.782-0.261-19.566-0.261-39.135 0-58.44 0-5.479-1.829-7.566-7.319-7.566-9.413 0.261-18.824 0-28.236 0z"></path><path d="M521.842 827.687c0-10.435-0.263-20.872 0-31.306 0.261-19.829 13.332-33.133 33.202-33.655 21.177-0.522 42.353-0.522 63.791 0 19.609 0.261 32.68 12.784 33.202 32.35 0.524 21.916 0.524 43.57 0 65.484-0.522 19.307-13.856 31.83-33.463 32.091-20.916 0.261-41.831 0.261-62.745 0-20.916-0.261-33.726-13.567-33.987-34.7-0.263-9.915 0-20.088 0-30.264zM587.202 791.423c-9.152 0-18.301 0.261-27.451 0-6.536-0.261-9.413 1.564-9.15 8.61 0.522 18.522 0.261 37.047 0 55.571 0 5.999 1.307 8.869 8.104 8.61 18.824-0.261 37.908-0.261 56.732 0 5.491 0 8.367-1.566 8.367-7.568-0.261-19.305-0.261-38.352 0-57.657 0-6.26-2.614-7.827-8.106-7.566-9.672 0.261-19.085 0-28.495 0z"></path><path d="M521.842 489.574c0-10.435-0.263-20.872 0-31.308 0.261-19.566 12.549-32.872 32.156-33.655 21.962-0.781 43.661-0.52 65.622 0 19.085 0.522 31.895 13.045 32.417 32.091 0.524 21.916 0.524 43.568 0 65.484-0.522 19.568-13.856 32.091-33.463 32.352-20.916 0.261-41.831 0.261-62.745 0-20.394-0.261-33.726-13.567-33.987-33.655-0.263-10.698 0-21.133 0-31.308zM587.463 453.050c-9.413 0-18.824 0.261-28.236 0-6.275-0.261-8.626 1.825-8.626 8.349 0.261 18.783 0.261 37.83 0 56.613 0 5.74 1.568 8.088 7.843 8.088 19.346-0.261 38.43-0.261 57.778 0 5.228 0 7.582-1.564 7.582-7.305-0.261-19.566-0.261-39.135 0-58.44 0-5.74-2.614-7.305-7.843-7.044-9.674 0-19.087-0.261-28.497-0.261z"></path><path d="M486.025 489.829c0 10.437 0.261 20.872 0 31.308-0.522 19.827-13.595 33.133-33.465 33.394-21.177 0.261-42.351 0.261-63.791 0-19.085-0.261-32.417-12.784-32.941-31.569-0.783-22.175-0.522-44.351 0-66.528 0.524-18.783 13.073-31.306 31.634-31.828 22.223-0.783 44.446-0.783 66.668 0 18.824 0.522 31.373 14.089 31.895 32.872 0.261 10.698 0 21.394 0 32.35zM457.266 490.351c0-9.652-0.261-19.566 0-29.22 0.261-5.738-1.568-8.088-7.843-8.088-18.824 0.261-37.908 0.261-56.732 0-6.275 0-8.628 1.827-8.628 8.349 0.261 18.785 0.261 37.83 0 56.615 0 5.738 1.829 8.088 7.843 8.088 19.346-0.261 38.432-0.261 57.778 0 5.489 0 7.582-1.827 7.582-7.307-0.261-9.652 0-19.044 0-28.437z"></path><path d="M319.751 490.094c0 10.435 0 20.872 0 31.306-0.261 19.307-13.071 32.874-32.419 33.135-21.438 0.52-43.137 0.52-64.574 0-19.609-0.261-32.418-13.306-32.68-32.874-0.261-21.392-0.261-43.046 0-64.44 0.261-18.263 11.764-31.569 29.804-32.35 23.006-1.044 46.275-1.044 69.542 0 18.563 0.781 30.065 14.348 30.326 32.872 0 10.696 0 21.394 0 32.35zM254.392 525.836c9.674 0 19.609-0.259 29.282 0 5.489 0.261 7.582-1.825 7.582-7.305-0.263-19.305-0.263-38.352 0-57.657 0-5.74-1.831-8.088-7.845-8.088-18.824 0.261-37.908 0.261-56.732 0-6.275 0-8.889 1.827-8.628 8.349 0.261 18.783 0.261 37.83 0 56.613 0 5.74 2.092 8.088 8.106 8.088 9.15-0.259 18.824 0 28.234 0z"></path><path d="M818.052 489.827c0 10.698 0.263 21.394 0 32.352-0.522 18.261-12.81 31.828-31.11 32.35-22.484 0.522-44.968 0.783-67.713 0-18.301-0.522-30.851-14.089-31.112-32.35-0.261-21.394-0.261-43.048 0-64.442 0.261-18.524 12.025-32.089 30.587-32.611 22.745-0.783 45.753-0.783 68.498 0 18.563 0.783 30.326 14.087 30.587 32.872 0.524 10.176 0.261 20.872 0.261 31.828zM716.876 525.832c23.267 0 44.968 0.261 66.405-0.261 2.353 0 6.275-4.435 6.536-6.785 0.522-19.566 0.522-39.133 0-58.44 0-2.347-4.182-6.521-6.536-6.521-19.87-0.522-39.739-0.522-59.609 0-2.092 0-6.275 3.13-6.275 4.957-0.783 21.655-0.522 43.568-0.522 67.050z"></path><path d="M189.802 826.91c0-10.437-0.261-20.872 0-31.308 0.523-19.044 12.55-32.089 31.635-32.872 22.221-0.522 44.444-0.783 66.666 0 18.824 0.522 31.373 14.089 31.634 33.133 0.261 21.133 0.261 42.265 0 63.659-0.261 19.305-13.071 32.872-32.419 33.394-21.96 0.522-43.661 0.522-65.62 0-19.085-0.522-31.373-13.567-31.896-32.613-0.261-11.218 0-22.175 0-33.392zM291.24 827.952c0-9.391-0.261-18.783 0-28.176 0-5.479-1.307-8.349-7.843-8.088-19.346 0.261-38.432 0.261-57.778 0-6.013 0-7.843 2.347-7.843 8.088 0.261 18.785 0.261 37.83 0 56.613 0 5.74 1.568 8.349 7.843 8.088 19.346-0.259 38.432-0.259 57.778 0 6.275 0 7.843-2.608 7.843-8.088-0.261-9.652 0-19.044 0-28.437z"></path><path d="M421.189 593.93c10.72 0 21.438-0.261 32.419 0 18.301 0.522 31.895 12.784 32.419 31.045 0.522 22.438 0.522 44.875 0 67.572-0.524 18.002-14.117 30.786-32.419 31.047-21.962 0.261-43.661 0.261-65.62 0-17.516-0.261-30.851-12.001-31.636-29.481-1.044-23.482-1.044-46.961 0-70.441 0.785-17.48 14.119-29.22 31.636-29.481 10.979-0.522 21.96-0.261 33.202-0.261zM457.268 658.631c0-9.132-0.261-18.261 0-27.393 0.261-6.523-1.568-9.393-8.628-9.393-18.563 0.261-37.125 0.261-55.686 0-6.013 0-8.889 1.827-8.628 8.349 0.261 18.785 0.261 37.83 0 56.613 0 5.74 1.568 8.349 7.582 8.349 19.346-0.259 38.43-0.259 57.778 0 6.275 0 7.843-2.869 7.582-8.349-0.261-9.391 0-18.783 0-28.176z"></path><path d="M586.68 723.336c-10.72 0-21.438 0.261-32.419 0-18.299-0.261-31.895-13.045-32.419-31.047-0.522-22.438-0.522-44.873 0-67.572 0.524-17.741 13.856-30.525 31.636-30.786 22.221-0.259 44.444-0.259 66.666 0 17.516 0.261 30.849 12.003 31.634 29.742 1.046 23.482 1.046 46.961 0 70.443-0.785 17.48-14.117 28.959-31.634 29.481-11.242 0-22.484-0.261-33.465-0.261zM623.542 658.894c0-9.654-0.261-19.566 0-29.22 0.263-5.479-1.829-7.566-7.319-7.566-19.609 0-39.217 0-58.563 0-4.967 0-7.060 1.825-7.060 7.044 0.261 19.566 0.261 39.135 0 58.44 0 6.262 2.877 7.827 8.367 7.827 18.824-0.261 37.908-0.261 56.732 0 5.752 0 8.367-2.086 8.106-8.088-0.524-9.391-0.263-18.783-0.263-28.437z"></path><path d="M254.392 723.332c-10.981 0-22.221 0.261-33.202 0-17.777-0.522-30.85-13.306-31.112-31.047-0.523-22.438-0.523-44.873 0-67.572 0.261-17.741 13.334-30.523 31.373-31.045 22.223-0.261 44.444-0.261 66.666 0 18.301 0.261 31.634 13.304 31.897 31.567 0.261 22.177 0.261 44.351 0 66.528-0.263 18.002-13.595 31.047-31.897 31.569-11.503 0.261-22.484 0-33.726 0zM291.256 659.412c0-10.176 0.522-20.088-0.263-30.264-0.261-2.608-4.182-6.782-6.536-6.782-19.607-0.522-39.215-0.261-58.561-0.261-5.23 0-7.584 2.086-7.584 7.566 0.263 19.305 0.263 38.352 0 57.657 0 5.74 2.353 8.088 8.106 8.088 19.346-0.261 38.432-0.261 57.778 0 5.489 0 7.582-2.347 7.582-7.566-0.785-9.654-0.522-19.044-0.522-28.437z"></path><path d="M626.154 312.687c-11.242-4.435-22.745-8.088-33.204-13.306-4.443-2.347-8.628-7.827-9.672-12.523-1.046-3.652 1.829-9.913 4.967-12.523 2.090-1.825 8.365 0.261 11.764 1.827 8.628 4.435 16.992 9.652 27.712 15.653 0-19.305 0.261-34.961-0.261-50.614 0-2.086-2.877-4.435-5.228-5.738-4.184-2.349-8.889-3.654-13.334-6.001-17.255-8.871-24.313-21.394-22.484-40.439 1.568-16.175 12.549-28.176 30.065-33.134 3.138-0.783 6.275-1.304 8.367-3.652 3.136-3.392 6.275-6.522 9.411-9.914 2.877 2.87 5.752 5.74 10.459 10.175 5.75 1.565 14.639 3.391 23.006 6.261 7.321 2.609 10.981 8.088 7.060 16.175-3.923 7.566-9.413 6.261-15.687 3.392-5.228-2.348-10.981-3.913-18.301-6.261 0 15.393-0.522 29.221 0.524 43.047 0.261 2.349 5.489 4.696 8.889 6.262 25.62 11.479 35.294 31.045 28.497 56.874-4.445 16.175-15.426 25.046-30.851 29.481-2.353 0.783-6.013 2.349-6.536 4.174-1.046 4.696-1.568 10.437-7.582 8.871-3.399 0-5.491-5.479-7.582-8.088zM639.486 287.903c13.073-2.869 19.087-9.654 19.087-21.133-0.263-11.479-7.060-19.827-19.087-22.177 0 14.089 0 28.178 0 43.309zM628.507 212.765c0-12.784 0-25.046 0-37.047-12.288 0.261-19.609 6.001-20.394 15.393-1.044 10.437 5.752 17.741 20.394 21.654z"></path><path d="M358.713 216.676c0-15.915 0-30.786 0-45.657 0-11.479 4.967-17.219 13.856-17.48 9.15 0 14.117 5.74 14.38 16.958 0.261 14.871 0 30.003 0 46.179 12.81 0 24.835 0 36.862 0 3.921 0 7.843-0.261 11.764 0 9.413 0.781 15.426 6.521 15.163 14.609-0.261 8.088-6.275 13.828-15.685 14.089-13.073 0.261-26.144 0-39.215 0-2.614 0-5.23 0.261-8.889 0.522 0 13.045 0 25.568 0 38.35 0 3.915 0.261 7.829-0.263 11.742-1.044 8.349-6.011 13.045-14.378 12.784-8.628-0.261-13.073-5.218-13.595-13.828-0.261-8.088 0-16.175-0.261-24.524 0-7.827 0-15.653 0-25.046-13.334 0-26.144 0-39.215 0-2.614 0-5.23 0-7.845 0-10.196-0.261-16.47-5.479-16.992-13.828-0.261-8.61 6.275-14.609 16.992-14.87 15.687 0 31.112 0 47.321 0z"></path></svg>