<svg xmlns="http://www.w3.org/2000/svg" width="1024" height="1024" viewBox="0 0 1024 1024"><title></title><path d="M1017.286 764.053c-2.349 7.843-4.174 15.687-7.305 23.008-15.394 35.555-42.787 53.854-80.878 56.732-2.869 0.261-5.74 0.261-8.871 0.261-268.722 0-537.441 0-806.164 0-44.874 0-80.355-24.052-93.661-63.53-1.826-5.489-3.392-10.979-4.957-16.731 0-65.359 0-130.719 0-196.078 0.522-0.261 1.304-0.524 1.565-0.785 4.435-7.060 10.958-9.411 18.523-6.536 7.305 2.875 9.392 9.15 9.131 16.731 0 55.949 0 111.634 0 167.583 0 43.137 26.611 69.803 69.398 69.803 268.722 0 537.442 0 806.164 0 41.743 0 67.572-25.881 67.572-67.974 0-116.338 0-232.679 0-349.019 0-14.117 8.871-22.223 19.566-17.777 3.652 1.568 6.523 4.967 9.654 7.582 0.261 125.751 0.261 251.241 0.261 376.732z"></path><path d="M15.451 246.403c5.218-20.131 12.784-38.693 28.437-53.595 19.045-18.039 41.482-26.405 67.311-26.405 162.016 0 324.031 0 486.046 0 12.523 0 19.307 4.967 19.568 14.379 0.259 9.935-6.262 15.163-19.568 15.163-161.493 0-322.727 0-484.219 0-35.743 0-61.832 20.915-67.572 54.118-0.783 5.228-0.783 10.457-0.783 15.685 0 78.432 0 156.863 0 235.295 0 13.071-6.522 20.653-16.697 18.299-4.435-1.046-8.349-5.228-12.523-8.104 0-88.367 0-176.732 0-264.837z"></path><path d="M1017.296 330.587c-1.044 0.785-2.088 1.568-2.608 2.614-4.696 6.013-11.481 8.367-17.219 4.706-4.435-2.875-8.871-9.411-8.871-14.378-1.044-20.131-0.261-40.524-0.522-60.655-0.261-40.783-26.090-66.927-66.528-66.927-80.356 0-160.973 0-241.329 0-3.652 0-7.305 0.261-10.696-0.262-7.305-1.046-11.74-5.49-12.523-12.81-0.783-7.843 3.13-13.333 10.696-15.425 3.654-1.046 7.829-0.784 11.742-0.784 80.095 0 160.449 0 240.544 0 51.919 0 85.313 26.928 96.531 77.646 0.261 0.785 1.044 1.57 1.305 2.616-0.522 27.449-0.522 55.686-0.522 83.659z"></path><path d="M242.433 330.587c21.394 0 43.048-0.261 64.442 0 32.611 0.261 57.657 23.267 59.223 55.686 1.044 22.745 1.044 45.753 0 68.498-1.566 31.112-25.046 53.856-56.354 55.686-10.174 0.524-20.088 0.261-30.262 0-10.437-0.261-16.697-6.536-16.438-15.424 0.261-8.628 6.262-13.595 16.697-13.856 8.349-0.261 16.958 0 25.307 0 19.307-0.261 31.308-11.766 31.83-30.851 0.522-19.87 0.522-39.737 0-59.87-0.522-19.085-12.523-30.587-32.091-30.587-41.743 0-83.486 0-125.228 0-19.828 0-31.829 11.764-31.829 31.373-0.261 19.609-0.261 39.215 0 58.824 0.261 18.563 12.262 30.326 30.786 30.851 9.653 0.261 19.567 0 29.221 0.261 9.652 0.261 15.131 5.75 15.392 14.117s-5.479 14.641-14.87 14.902c-13.307 0.261-26.873 0.785-39.918-1.046-28.959-3.921-49.309-27.19-49.831-56.21-0.522-21.96-0.522-43.661 0-65.62 0.783-31.895 26.090-56.471 58.179-56.732 21.915-0.261 43.831 0 65.745 0z"></path><path d="M205.631 735.025c-14.349 0-28.698 0.261-43.047 0-24.263-0.522-42.787-18.038-43.83-41.046-1.043-24.837 15.132-45.229 40.178-46.536 31.568-1.568 63.136-1.307 94.706 0 24.263 1.046 42.004 21.962 40.96 45.229-1.044 24.052-19.827 41.831-44.873 42.353-14.611 0.261-29.481 0-44.092 0zM205.892 705.484c14.089 0 27.915 0 42.004 0 10.696 0 17.219-5.752 17.219-14.38s-6.785-14.641-17.219-14.902c-27.654-0.261-55.31-0.261-82.964 0-10.958 0-16.958 5.752-16.958 14.641 0 9.15 5.74 14.378 16.958 14.641 13.567 0.261 27.394 0 40.96 0z"></path><path d="M422.169 735.033c-14.609 0-29.22 0.261-44.090 0-24.785-0.522-43.309-18.301-44.092-41.829-0.783-24.576 15.914-44.707 40.96-45.753 31.308-1.307 62.615-1.307 93.662 0 24.263 1.046 42.004 21.96 41.221 44.968-1.044 24.052-19.827 42.092-44.612 42.614-14.35 0.261-28.698 0-43.048 0zM421.125 705.49c14.089 0 27.917 0 42.004 0 10.698 0 17.219-5.75 17.219-14.378s-6.782-14.641-17.219-14.902c-27.654-0.261-55.308-0.261-82.964 0-10.957 0-16.958 5.752-16.958 14.641 0 9.15 5.74 14.378 16.958 14.639 13.567 0.263 27.395 0 40.96 0z"></path><path d="M636.101 735.025c-14.348 0-28.698 0.261-43.046 0-24.265-0.522-42.787-18.038-43.831-41.046-1.044-24.837 15.392-45.229 40.177-46.536 31.569-1.568 63.137-1.307 94.706 0 24.263 1.046 42.004 22.223 40.96 45.229-1.305 24.052-19.827 41.831-44.873 42.353-14.872 0.261-29.481 0-44.092 0zM636.623 705.484c14.089 0 27.915 0 42.004 0 10.696 0 17.219-5.752 17.219-14.641 0-8.628-6.785-14.641-17.219-14.641-27.654-0.261-55.31-0.261-82.964 0-10.957 0-16.958 5.752-16.958 14.902s5.74 14.38 16.958 14.38c13.567 0.261 27.132 0 40.96 0z"></path><path d="M852.127 735.035c-14.611 0-29.22 0.261-44.090 0-24.265-0.522-42.787-18.038-43.831-41.307-1.044-24.313 14.87-44.966 39.396-46.012 32.089-1.568 64.44-1.568 96.79 0 24.004 1.307 40.962 22.484 39.657 45.229-1.305 23.791-19.827 41.568-44.092 42.090-14.348 0.261-29.22 0-43.829 0zM852.127 705.494c14.348 0 28.698 0.261 43.048 0 9.391-0.263 15.392-5.752 15.914-13.856 0.522-8.106-6.001-15.163-15.653-15.426-28.7-0.261-57.137-0.261-85.835 0-10.174 0-15.653 6.275-15.653 15.163 0.261 8.891 5.999 14.119 16.175 14.119 14.089 0.261 27.915 0 42.004 0z"></path><path d="M882.909 431.765c-0.52 54.902-21.392 108.235-58.44 155.817-6.521 8.628-14.87 9.935-21.914 4.445-6.785-5.228-7.566-14.117-1.044-22.484 25.046-32.419 42.787-67.974 49.048-108.496 9.915-63.53-6.521-120.262-43.829-171.765-2.349-3.138-4.957-6.275-6.785-9.674-3.913-7.060-2.347-13.595 3.652-18.301 6.262-4.965 12.784-4.443 18.785 0.524 1.305 1.046 2.347 2.353 3.391 3.66 36.264 47.319 57.135 100.131 57.135 166.274z"></path><path d="M824.238 425.482c-1.825 44.444-17.219 83.137-42.785 118.431-6.262 8.889-14.611 10.457-21.916 4.967-7.044-5.228-7.827-13.595-1.566-22.484 18.263-25.62 31.047-53.332 34.178-85.229 3.913-40-7.044-76.077-29.22-109.281-1.305-1.829-2.608-3.66-3.913-5.75-6.001-9.152-5.218-17.255 1.825-22.484 7.307-5.23 16.438-3.923 21.655 5.489 11.22 20.131 22.96 40.261 30.786 61.699 6.521 17.516 7.566 36.601 10.957 54.641z"></path><path d="M761.589 423.663c0.261 29.802-8.61 54.378-23.743 77.123-5.477 8.106-13.826 9.935-20.872 5.228-6.782-4.704-8.61-12.81-3.652-20.653 13.828-21.438 22.96-44.707 18.002-70.066-2.869-15.687-11.218-30.326-15.914-45.49-1.827-5.752-3.13-13.073-0.783-18.040 4.957-9.935 18.002-8.889 24.524 1.57 14.35 21.699 22.699 45.751 22.438 70.327z"></path><path d="M702.635 426.012c-2.871 9.935-4.957 19.346-8.349 28.497-3.391 8.889-11.22 12.025-19.046 8.889-7.566-2.877-11.479-10.981-8.088-19.348 4.957-11.764 5.218-23.006 0.522-35.033-3.13-7.843 1.044-15.685 8.61-18.299 7.827-2.877 14.872-0.261 18.002 7.321 3.652 8.626 5.477 18.299 8.349 27.973z"></path></svg>