<svg xmlns="http://www.w3.org/2000/svg" width="1024" height="1024" viewBox="0 0 1024 1024"><title></title><g id="icomoon-ignore">
</g><path d="M189.743 1023.998c-2.927-5.589-7.451-10.912-7.984-16.765-0.798-7.453 5.322-11.71 12.507-12.773 3.193-0.532 6.653-0.266 9.846-0.266 166.587 0 333.174 0 499.758 0 38.322 0 58.546-19.96 58.546-58.28 0-127.734 0-255.468 0-383.201 0-37.521-20.224-57.479-58.014-57.745-204.906 0-409.813 0-614.719 0-37.522 0-57.746 20.224-57.746 57.745 0 128 0 256 0 384 0 36.458 20.49 56.949 56.682 56.949 13.572 0 27.143 0.266 40.981 0 8.516-0.266 16.233 0.532 19.958 9.581 3.459 9.046-1.597 14.901-7.717 20.49-23.418 0-46.57 0-69.721 0-2.395-0.799-5.056-1.597-7.451-2.13-26.079-6.918-44.707-22.354-55.617-47.102-2.927-6.652-4.524-13.838-6.653-20.49 0-140.507 0-280.748 0-421.255 0.532-0.799 1.331-1.597 1.597-2.396 11.443-43.375 40.449-65.462 85.422-65.462 44.441 0 89.148 0 133.588 0 3.459 0 6.92 0 10.912 0 0-5.589 0-9.581 0-13.572 0-122.145 0-244.025 0-366.171 0-36.99 21.289-67.326 54.553-78.769 5.057-1.597 10.111-2.927 15.167-4.524 19.427 0 38.586 0 58.014 0 5.587 5.854 11.176 11.709 7.451 20.757-3.725 8.782-11.708 9.58-20.224 9.314-9.048-0.266-18.096 0.532-26.878-0.266-33.264-2.927-65.198 22.62-56.949 68.923 242.694 0 485.655 0 728.351 0 7.717-46.037-23.419-69.455-58.28-69.189-171.11 1.064-342.485 0.532-513.595 0.532-8.249 0-16.234-0.532-19.96-9.58-3.725-9.314 1.864-14.902 7.983-20.225 181.756 0 363.244 0 544.999 0 2.394 0.798 5.057 1.597 7.451 2.129 26.079 6.919 44.708 22.353 55.618 47.102 2.927 6.653 4.524 13.838 6.652 20.757 0 139.709 0 279.417 0 419.128-0.53 1.063-1.063 2.394-1.329 3.459-12.507 45.238-40.184 66.261-86.753 66.261-43.909 0-87.816 0-131.725 0-3.459 0-7.184 0-11.708 0 0 4.79 0 8.782 0 12.773 0 122.413 0 244.558 0 366.969 0 39.119-23.951 70.787-60.408 80.632-3.193 0.799-6.388 1.864-9.581 2.662-177.762 0-355.527 0-533.023 0zM791.423 530.891c3.459 0 6.652 0 9.847 0 45.505 0 91.009 0 136.782 0 34.859 0 55.884-21.023 55.884-55.884 0-77.703 0-155.675 0-233.38 0-3.459-0.266-6.918-0.532-10.643-243.759 0-486.187 0-729.414 0 0 78.236 0 155.675 0 234.179 4.524 0 8.516 0 12.241 0 144.232 0 288.731 0 432.964 0 36.192 0 65.997 20.49 77.971 53.221 1.597 3.725 2.927 7.983 4.258 12.507zM263.989 199.581c243.757 0 486.453 0 729.414 0 0-22.886 0-44.973 0-67.593-243.227 0-486.187 0-729.414 0 0 22.354 0 44.707 0 67.593z"></path><path d="M164.984 692.957c-15.967 0-31.933 0.266-47.9 0-29.272-0.264-48.698-19.692-48.965-48.964-0.266-21.555-0.266-43.11 0-64.932 0.266-28.207 20.225-48.167 48.699-48.433 32.466-0.264 65.197-0.264 97.663 0 29.006 0.266 48.699 19.96 48.966 48.966 0.266 21.555 0.266 43.11 0 64.932-0.266 27.941-19.694 47.634-47.634 48.165-17.031 0.532-34.063 0.266-50.828 0.266zM150.348 560.966c-12.507 0-23.684-0.266-34.861 0-10.644 0.266-17.297 6.92-17.297 17.83-0.266 22.354-0.266 44.442 0 66.796 0 8.516 4.258 15.7 12.773 16.765 13.039 1.329 26.079 0.266 39.651 0.266-0.266-34.329-0.266-67.328-0.266-101.657zM181.75 627.229c0 12.241 0 23.683 0 35.66 12.773 0 24.748 0.264 36.457 0 8.516-0.266 13.572-5.855 14.903-13.572 1.065-6.92 0.266-14.371 0.266-21.821-17.83-0.266-34.329-0.266-51.626-0.266zM181.483 560.966c0 12.507 0 23.951 0 35.394 17.563 0 34.329 0 51.626 0 0.266-2.128 0.266-3.725 0.266-5.323 0-4.258 0.266-8.516 0-13.040-0.532-10.111-6.92-16.765-17.031-17.031-11.178-0.266-22.62 0-34.861 0z"></path><path d="M578.798 660.216c-37.255 0-74.51 0-111.766 0-22.62 0-35.127-12.507-35.394-35.127 0-9.312-0.266-18.627 0-27.941 0.532-19.958 12.507-32.731 32.199-32.997 76.906-0.266 153.547-0.266 230.453 0 19.161 0 31.402 13.040 31.668 32.199 0.266 9.847 0 19.958 0 29.805-0.266 20.756-13.040 33.53-33.796 33.53-37.521 0.799-75.309 0.532-113.365 0.532zM696.154 594.751c-78.504 0-155.943 0-233.646 0 0 12.243 0 23.419 0 34.595 78.502 0 155.941 0 233.646 0 0-11.708 0-22.618 0-34.595z"></path><path d="M149.284 957.731c-15.967 0-31.933 0.266-47.9 0-20.224-0.266-32.998-13.040-33.264-32.999-0.266-10.643-0.266-21.289 0-31.932 0.532-17.83 13.306-30.603 31.135-30.87 33.264-0.266 66.528-0.266 99.792 0 17.83 0.266 30.337 12.241 30.87 29.805 0.53 11.975 0.53 23.949 0 35.926-0.799 17.297-13.306 29.805-30.87 30.071-16.499 0.266-33.264 0-49.763 0zM98.19 927.394c34.062 0 67.592 0 101.123 0 0-11.975 0-23.419 0-34.595-34.062 0-67.593 0-101.123 0 0 11.442 0 22.354 0 34.595z"></path><path d="M331.864 861.938c10.912 0 21.821-0.266 32.997 0 18.096 0.532 30.337 13.040 30.603 31.136 0.266 11.176 0.266 22.62 0 33.796-0.532 17.297-12.773 30.337-30.071 30.87-22.884 0.532-45.771 0.532-68.657 0-16.499-0.532-28.74-12.773-29.538-29.272-0.532-12.507-0.532-25.281 0-37.788 0.799-16.501 13.306-28.209 30.071-28.742 11.178-0.266 22.886 0 34.595 0zM365.128 892.541c-23.417 0-45.771 0-67.858 0 0 11.975 0 23.153 0 34.595 22.886 0 45.24 0 67.858 0 0-11.708 0-22.886 0-34.595z"></path><path d="M182.548 825.475c-31.667 0-63.069 0.266-94.736-0.266-5.322 0-12.241-2.396-15.967-5.855-7.717-7.717-2.661-20.756 7.984-23.151 2.927-0.532 5.854-0.532 9.048-0.532 62.27 0 124.275 0 186.544 0 2.927 0 6.121 0 9.048 0.532 7.184 1.329 11.176 5.853 11.708 13.040 0.532 7.451-2.66 13.038-10.111 15.167-3.725 1.065-7.983 1.065-11.71 1.331-30.601 0-61.204 0-91.808-0.266z"></path><path d="M413.819 795.671c20.49 0 41.247 0 61.737 0 12.241 0 19.427 5.853 19.161 15.167-0.266 9.048-7.186 14.637-18.895 14.637-41.513 0-83.026 0-124.541 0-11.975 0-18.36-5.323-18.36-14.903 0-9.578 5.853-14.901 18.094-14.901 21.023 0 42.045 0 62.804 0z"></path><path d="M596.099 795.668c15.7 0 31.136-0.266 46.836 0 10.643 0.266 17.564 6.386 17.297 15.167-0.266 8.516-6.654 14.637-16.765 14.637-31.934 0.266-63.601 0.266-95.535 0-10.111 0-16.499-6.388-16.765-14.637-0.266-8.782 6.654-14.901 17.297-14.901 15.7-0.266 31.668-0.266 47.634-0.266z"></path><path d="M877.922 266.643c44.972 0.799 80.898 37.788 79.833 82.229-0.799 44.44-38.586 80.898-82.76 79.833-44.974-1.065-80.101-38.054-79.303-83.028 1.065-44.44 37.788-79.833 82.229-79.034zM825.764 347.542c0 28.207 22.354 50.827 50.561 51.36 27.943 0.266 51.626-23.153 51.626-51.36s-23.151-51.36-51.626-51.094c-28.473 0.532-50.561 22.886-50.561 51.094z"></path><path d="M381.069 332.909c16.232 0 32.467-0.266 48.966 0 18.893 0.266 31.134 12.507 31.666 31.136 0.266 11.176 0.266 22.618 0 33.796-0.532 17.295-12.773 30.335-30.337 30.601-33.53 0.532-67.060 0.532-100.856 0-17.83-0.266-30.337-13.57-30.87-31.4-0.266-11.178-0.266-22.62 0-33.796 0.532-17.297 13.306-30.071 30.603-30.337 16.765-0.266 33.796 0 50.827 0zM329.71 398.371c34.329 0 67.592 0 101.124 0 0-11.975 0-23.417 0-34.593-34.062 0-67.594 0-101.124 0 0 11.442 0 22.352 0 34.593z"></path><path d="M562.305 332.906c11.178 0 22.62-0.266 33.796 0 18.096 0.532 30.337 13.040 30.87 31.136 0.266 11.176 0.266 22.618 0 33.796-0.266 17.297-12.773 30.337-30.071 30.867-22.884 0.532-45.771 0.532-68.657 0-16.499-0.53-28.74-12.773-29.805-29.272-0.799-12.241-0.799-24.482 0-36.989 0.799-17.564 13.306-29.272 31.136-29.805 10.646 0 21.555 0.266 32.731 0.266zM596.367 398.635c0-12.241 0-23.683 0-35.125-22.884 0-45.238 0-67.326 0 0 12.241 0 23.417 0 35.125 22.62 0 44.442 0 67.326 0z"></path></svg>