<svg xmlns="http://www.w3.org/2000/svg" id="e8s3PCahyqf1" viewBox="0 0 25 25"><style>@keyframes e8s3PCahyqf2_tr__tr{0%,30%,83.333333%{transform:translate(12.073944px,13.917155px) rotate(0deg);animation-timing-function:cubic-bezier(.445,.05,.55,.95)}43.333333%{transform:translate(12.073944px,13.917155px) rotate(-5deg);animation-timing-function:cubic-bezier(.445,.05,.55,.95)}70%{transform:translate(12.073944px,13.917155px) rotate(5deg);animation-timing-function:cubic-bezier(.445,.05,.55,.95)}to{transform:translate(12.073944px,13.917155px) rotate(0deg)}}</style><g transform="translate(12.074 13.917)" style="animation:e8s3PCahyqf2_tr__tr 3000ms linear infinite normal forwards"><path id="e8s3PCahyqf2" d="M6.61 4.243a1.75 1.75 0 0 0-1.457.78l-3.59 5.383c-.219.33-.245.752-.068 1.106a32.951 32.951 0 0 0 8.028 10.283l1.75 1.5a1.23 1.23 0 0 0 1.601 0l1.75-1.5a32.95 32.95 0 0 0 8.029-10.283c.177-.354.15-.776-.069-1.106l-3.59-5.384a1.75 1.75 0 0 0-1.455-.779H6.609ZM6.4 5.854a.25.25 0 0 1 .208-.11h2.34l-1.915 4.595a1.75 1.75 0 0 0-.1.326 69.087 69.087 0 0 1-2.11-.19l-1.405-.147L6.4 5.854ZM3.353 11.83a31.452 31.452 0 0 0 6.994 8.695L7.222 12.19a70.78 70.78 0 0 1-2.555-.222l-1.314-.139Zm5.506.454 3.215 8.574 3.215-8.574a70.72 70.72 0 0 1-6.43 0Zm8.067-.093-3.125 8.334a31.453 31.453 0 0 0 6.994-8.695l-1.315.139c-.85.09-1.701.163-2.554.222Zm3.803-1.862-1.406.148c-.702.074-1.405.137-2.11.19a1.748 1.748 0 0 0-.099-.327L15.2 5.743h2.34a.25.25 0 0 1 .208.111l2.982 4.474Zm-5.063.435c-2.393.124-4.79.124-7.184 0l2.092-5.02h3l2.092 5.02Z" transform="translate(-12.074 -13.917)" clip-rule="evenodd" fill="#FB506C" fill-rule="evenodd" stroke="none" stroke-width="1"></path></g></svg>