<svg xmlns="http://www.w3.org/2000/svg" width="1024" height="1024" viewBox="0 0 1024 1024"><title></title><path d="M302.277 3c20.611 4.435 41.743 7.305 61.832 13.567 117.403 37.308 194.889 151.058 187.061 274.199-8.349 132.536-109.835 238.98-241.849 253.852-147.405 16.697-282.809-92.096-298.984-239.502-0.261-2.869-1.304-5.74-1.826-8.349 0-15.131 0-30.003 0-45.134 0.522-2.61 1.565-4.957 1.826-7.566 10.958-106.707 89.226-200.107 192.54-229.588 17.741-4.696 36.264-7.566 54.266-11.479 15.131 0.261 30.003 0.261 45.134 0zM280.361 32.22c-134.099-0.261-242.631 108.271-242.631 242.37 0 133.317 108.271 242.11 241.587 242.632 133.319 0.522 243.154-108.793 243.415-242.11 0.522-133.578-108.271-242.632-242.371-242.892z"></path><path d="M717.113 1005.094c-18-3.652-36.786-5.74-54.266-11.479-108.793-35.483-175.321-109.576-192.018-222.804-21.133-142.187 72.007-272.374 212.109-302.899 149.753-32.611 300.55 70.702 324.030 221.76 1.044 7.307 2.349 14.611 3.652 22.177 0 14.35 0 28.698 0 43.048-0.522 2.869-1.303 5.479-1.825 8.349-12.523 111.923-91.052 203.497-200.106 232.717-15.394 4.174-31.047 6.262-46.7 9.393-14.872-0.261-30.003-0.261-44.875-0.261zM738.768 975.874c134.1 0 242.632-108.532 242.371-242.632 0-133.578-108.532-242.11-241.849-242.371-133.578-0.261-242.893 108.793-243.154 242.371 0 133.578 109.054 242.632 242.632 242.632z"></path><path d="M609.872 112.843c9.913 7.827 19.566 15.654 29.481 23.741 5.738 4.696 9.132 10.436 5.999 18.002-3.652 8.87-13.826 12.523-21.914 6.261-23.482-18.263-46.439-36.786-69.399-55.831-8.088-6.783-7.044-17.219 1.827-23.22 22.958-15.393 46.178-30.264 69.658-45.396 8.349-5.479 16.958-3.653 21.394 3.652 4.435 7.044 2.088 15.132-6.001 20.872-9.652 6.522-19.566 12.784-30.784 20.35 17.219 2.87 32.611 4.696 47.742 8.088 130.187 29.22 226.979 100.966 282.811 223.847 21.655 47.745 31.045 98.619 32.089 150.797 0.261 11.481-5.218 18.263-14.348 18.263-9.132 0-14.35-6.262-14.611-18.002-1.825-89.747-31.306-169.058-92.096-235.847-58.179-63.398-131.231-99.401-215.239-114.012-8.608-1.565-17.217-2.348-25.566-3.652-0.522 1.043-0.783 1.565-1.044 2.087z"></path><path d="M408.474 937.269c-39.918-6.523-78.529-14.611-115.055-29.742-142.708-59.745-225.151-165.408-243.935-319.857-1.565-12.001-1.565-24.002-1.826-36.003-0.261-10.437 4.957-16.436 13.567-16.697 8.87-0.261 14.088 5.218 15.132 15.653 3.131 27.134 3.392 55.049 9.914 81.4 31.568 127.576 111.924 211.323 234.805 254.633 24.002 8.61 49.831 12.262 74.876 18.002 3.913 1.042 8.349 0.781 13.306-0.522-6.262-5.218-12.784-10.437-19.046-15.655-3.13-2.347-6.26-4.694-9.132-7.305-8.088-6.782-9.391-15.392-3.913-22.177 5.218-6.26 13.828-6.782 21.655-0.52 13.306 10.435 26.351 21.133 39.657 31.828 8.61 7.044 17.48 13.828 25.829 20.872 9.391 7.827 8.869 18.524-1.305 25.307-22.699 15.131-45.656 30.003-68.877 44.873-8.349 5.218-16.958 3.391-21.394-3.652-4.694-7.305-2.347-14.87 6.262-20.872 9.915-6.782 19.827-13.045 29.481-19.566z"></path><path d="M270.169 362.773c0-28.178 0.261-52.702-0.261-76.965 0-2.347-3.13-5.218-5.477-6.521-9.132-4.435-18.785-7.568-27.656-12.264-23.219-12.523-32.611-32.872-30.264-58.701 2.349-24.523 15.655-40.699 38.352-49.569 4.435-1.826 9.132-3.652 14.089-4.174 7.566-0.783 13.045-2.609 12.001-12.262-0.261-2.087 5.218-6.522 7.827-6.522 3.913 0.261 8.088 3.131 10.698 6.001 1.564 1.565 0.781 5.479 1.042 8.87 10.698 2.087 21.655 3.913 32.091 6.522 4.955 1.304 9.913 3.392 14.087 6.261 9.132 5.74 10.698 14.088 4.957 23.741-4.696 8.349-10.435 9.392-20.872 5.218-9.393-3.913-19.305-7.044-30.786-11.479 0 24.002-0.261 45.917 0.261 67.572 0 1.825 3.652 3.913 6.001 4.957 7.827 4.174 16.175 7.044 23.48 11.74 24.785 15.131 35.222 40.699 30.264 70.702-4.957 29.22-22.438 46.7-50.875 54.005-2.869 0.783-5.738 1.305-9.393 2.088 0 3.391 1.305 7.305-0.259 9.652-2.61 3.652-6.523 8.088-10.698 8.871-5.218 1.044-9.393-2.869-8.871-8.871 0.783-7.566-2.608-8.871-9.393-9.652-20.349-1.566-38.872-7.829-53.483-23.221-8.087-8.61-9.392-17.219-4.435-25.829 5.479-9.652 12.784-11.218 21.655-4.696 4.957 3.654 9.393 8.349 14.872 11.22 9.391 4.957 19.044 8.349 31.045 13.306zM288.694 358.858c18-2.869 27.654-13.304 28.959-29.74 1.303-18.524-9.393-33.133-28.959-38.874 0 22.958 0 45.395 0 68.614zM272.258 185.625c-17.48-1.043-30.786 9.131-32.352 23.741-1.825 16.436 11.481 31.047 31.83 34.178 0.261-2.869 0.522-5.74 0.522-8.349 0-16.697 0-33.394 0-49.57z"></path><path d="M279.588 496.61c-103.053-0.261-192.8-71.485-215.759-171.147-3.392-14.348 0-22.438 9.653-24.524 9.131-2.088 15.393 3.913 18.784 17.741 15.915 63.398 53.744 108.793 113.75 134.361 109.315 46.698 235.327-18.002 262.459-134.1 0.261-1.044 0.261-1.827 0.522-2.871 2.869-11.74 9.654-17.48 18.785-15.131 8.869 2.086 12.262 10.176 9.652 22.177-22.436 101.486-113.228 174.016-217.847 173.494z"></path><path d="M280.636 52.314c99.402 0.261 186.802 66.528 213.412 162.538 3.393 11.74 0 19.566-9.13 21.916-8.61 2.347-14.872-2.61-18.524-14.089-22.438-72.007-69.919-118.707-143.493-136.448-98.095-23.481-198.801 36.003-227.76 132.796-4.435 15.131-10.175 20.088-19.828 17.219-9.914-2.61-12.262-10.176-8.088-25.046 27.133-93.401 115.054-158.885 213.411-158.885z"></path><path d="M792.757 736.372c20.872 8.349 28.698 24.263 28.437 44.612-0.261 12.003-0.783 24.265-3.391 35.744-3.652 15.392-14.089 26.61-29.481 31.306-6.262 2.088-8.088 5.218-7.566 11.22 0.261 3.13 0.522 7.566-1.305 9.391-3.652 3.913-8.871 8.871-13.306 8.61-4.174-0.261-9.393-5.477-12.001-9.913-2.088-3.652-1.044-9.393-1.566-14.611-4.696 0-8.869 0-13.565 0-1.827 10.437 2.086 24.785-15.394 25.046-9.391 0.261-11.74-4.957-13.306-25.568-4.955 0-9.913-0.261-15.131 0-8.871 0.261-16.697-1.303-19.044-11.218-2.61-10.437 3.913-15.653 13.045-18.783 0-51.658 0-103.055 0-155.232-0.783-0.522-1.827-1.044-2.871-1.566-8.088-3.13-12.262-8.871-10.435-17.48 1.825-8.088 8.088-11.218 16.175-11.218 5.738 0 11.74 0 18.002 0 1.303-10.957-1.305-24.524 15.131-25.046 8.871-0.261 11.74 5.479 13.828 24.524 4.435 0 8.61 0 13.826 0 0.261-4.174 0.261-8.088 0.783-11.74 0.783-8.088 5.74-12.523 13.567-12.784 7.305 0 13.828 4.696 13.045 11.74-1.566 13.306 5.999 17.48 15.914 22.177 10.957 4.957 16.436 15.392 18.783 27.132 5.218 26.873-1.303 45.656-22.175 63.659zM721.010 824.816c12.001 0 22.697 0 33.394 0 2.347 0 4.435 0 6.782-0.261 15.133-1.566 24.004-8.871 27.656-22.177 5.216-19.827 0.522-41.482-10.698-48.787-2.347-1.566-5.216-3.391-7.827-3.391-16.436-1.044-32.611-1.566-49.309-2.349 0 26.612 0 51.136 0 76.965zM721.010 723.327c11.218 0 21.394 0 31.828 0 2.871 0 6.001 0 8.871-0.261 14.872-2.086 22.438-10.957 23.482-27.654 0.781-16.175-6.001-27.395-20.872-28.959-14.089-1.566-28.439-0.261-43.048-0.261-0.261 18.263-0.261 37.047-0.261 57.135z"></path><path d="M749.185 955.786c-113.75-0.261-203.76-72.007-226.718-172.191-2.608-11.218 0.783-19.046 9.393-21.133 9.391-2.349 15.653 2.869 18.783 14.87 23.221 91.315 100.444 151.058 193.584 149.233 85.052-1.566 161.754-62.876 181.842-145.581 0.783-3.13 1.305-6.521 2.349-9.391 2.869-7.827 8.349-11.74 16.436-10.176 7.827 1.305 13.567 8.61 11.218 16.697-4.957 17.219-8.871 34.961-16.958 50.614-41.221 82.181-109.313 123.404-189.93 127.056z"></path><path d="M738.74 511.49c101.747 0 190.191 68.355 215.237 166.45 2.088 8.349 1.305 14.87-6.521 19.305-8.61 4.957-18.263 0.261-21.394-11.218-6.523-24.524-16.436-47.483-32.089-67.572-48.528-62.354-112.967-88.964-190.454-74.876-75.66 13.828-125.229 60.267-149.753 133.317-1.305 3.652-2.088 7.566-3.391 11.218-3.132 7.829-9.132 10.959-17.219 9.132-7.566-1.564-12.523-9.13-10.176-17.478 4.174-14.35 8.61-28.7 14.872-42.265 37.308-77.487 114.792-126.012 200.889-126.012z"></path></svg>