<svg xmlns="http://www.w3.org/2000/svg" id="efUaz3QgrET1" viewBox="0 0 25 25"><style>@keyframes efUaz3QgrET2_to__to{0%{transform:translate(12.073984px,12.88px)}23.333333%{transform:translate(12.073985px,12.88px)}33.333333%{transform:translate(12.073984px,12px)}40%,53.333333%,66.666667%,to{transform:translate(12.073984px,12.879055px)}46.666667%{transform:translate(12.073984px,12.5px)}60%{transform:translate(12.073984px,12.7px);animation-timing-function:cubic-bezier(.39,.575,.565,1)}}</style><g transform="translate(12.074 12.88)" style="animation:efUaz3QgrET2_to__to 3000ms linear infinite normal forwards"><path id="efUaz3QgrET2" d="M6.324 6.493a3.25 3.25 0 0 1 5.75-2.077 3.25 3.25 0 0 1 5.24 3.827h.76a2.75 2.75 0 0 1 2.75 2.75v2a1.75 1.75 0 0 1-1.281 1.687c.144 1.826.06 3.665-.25 5.473a2.459 2.459 0 0 1-2.15 2.028l-.915.102a37.402 37.402 0 0 1-8.309 0l-.914-.102a2.459 2.459 0 0 1-2.15-2.028 22.112 22.112 0 0 1-.25-5.473 1.75 1.75 0 0 1-1.281-1.687v-2a2.75 2.75 0 0 1 2.75-2.75h.76a3.235 3.235 0 0 1-.51-1.75Zm5 0a1.75 1.75 0 1 0-3.5 0 1.75 1.75 0 0 0 3.5 0Zm3.25 1.75a1.75 1.75 0 1 0 0-3.5 1.75 1.75 0 0 0 0 3.5Zm-9.75 2.75c0-.69.56-1.25 1.25-1.25h5.25v3.5h-6.25a.25.25 0 0 1-.25-.25v-2Zm8 3.75h5.219a20.61 20.61 0 0 1-.228 5.156.959.959 0 0 1-.839.792l-.914.102c-1.076.12-2.157.192-3.238.214v-6.264Zm0-1.5h6.25a.25.25 0 0 0 .25-.25v-2c0-.69-.56-1.25-1.25-1.25h-5.25v3.5Zm-1.5 1.5v6.264a35.905 35.905 0 0 1-3.238-.214l-.914-.102a.959.959 0 0 1-.84-.791 20.611 20.611 0 0 1-.227-5.157h5.219Z" transform="translate(-12.074 -12.88)" clip-rule="evenodd" fill="#FB506C" fill-rule="evenodd" stroke="none" stroke-width="1"></path></g></svg>