<svg xmlns="http://www.w3.org/2000/svg" width="1024" height="1024" viewBox="0 0 1024 1024"><title></title><path d="M2.12 110.135c6.653-15.467 18.628-20 35.127-20.533 35.127-1.067 42.046 11.733 42.046 42.134-0.532 240.266-0.266 480.533-0.266 720.801 0 4.532 0 9.066 0 14.399 20.225 0 39.385 0 60.141 0 0-4 0-7.733 0-11.733 0-72.268 0-144.534 0-217.068 0-28.533 11.709-40.266 39.651-40.266 34.595 0 69.19 0 103.783 0 23.951 0 36.725 13.066 36.725 37.333 0 73.066 0 145.867 0 218.933 0 4 0 7.999 0 12.534 31.4 0 62.003 0 93.938 0 0-4.268 0-8.268 0-12.268 0-111.733 0.532-223.199-0.266-334.934-0.266-27.732 14.901-43.198 42.578-42.131 32.997 1.333 65.729 0.266 98.728 0.266 27.675 0 39.119 11.733 39.119 39.733 0 112.267 0 224.532 0 337.066 0 4 0 7.733 0 12.268 30.335 0 59.343 0 90.21 0-3.193-2.666-5.587-4.801-7.983-6.666-93.405-72.8-91.275-212.802 4.258-282.135 5.589-4 7.453-7.999 7.453-14.666-0.266-59.202-0.266-118.667-0.266-177.867 0-27.734 11.708-39.733 39.117-39.733 34.861 0 69.722 0 104.849 0 23.683 0 36.456 12.8 36.723 36.266 0 9.599 0.266 19.466 0 29.067-0.266 11.198-5.853 17.867-14.635 17.867-9.048 0-14.637-6.668-14.637-17.601-0.266-11.733 0-23.2 0-35.467-3.725-0.532-6.652-1.067-9.581-1.067-34.329 0-68.391 0-102.719 0-6.119 0-9.845 0.801-9.845 8.534 0.266 56.267 0.266 112.534 0.266 169.066 0 1.333 0.266 2.666 0.532 4.801 39.916-14.934 80.099-16.534 121.346-3.201 0-14.666 0-28.266 0-41.865 0-12.001 5.589-18.401 14.903-18.401 9.048 0.266 14.369 6.4 14.369 17.867 0.266 16.001-0.266 32 0.266 48.001 0 3.465 2.396 8.532 5.057 10.4 106.977 65.333 114.428 217.866 12.507 293.067-1.065 0.799-2.128 2.132-4.79 4.532 18.895 0 35.66 0 52.691 0 18.629 0 37.255 0.801 55.884-0.266 16.499-0.799 28.473 4.801 34.595 20.533 0 13.335 0 26.667 0 39.999-6.92 15.2-18.895 20.267-35.127 20.267-317.207-0.266-634.411-0.266-951.352 0-16.499 0-28.208-5.067-35.127-20.267 0-206.666 0-413.331 0-619.999 4.524-6.666 9.846-11.999 18.894-9.066 8.782 2.933 10.644 10.134 10.378 18.399 0 2.935 0 5.868 0 9.066 0 192.535 0 385.333 0 577.868 0 4.532 0 9.066 0 13.601 321.996 0 642.13 0 962.529 0 0-7.201 0-13.867 0-21.334-5.057 0-9.581 0-13.838 0-268.773 0-537.547 0-806.32 0-30.869 0-62.004 0.266-92.873-0.266-6.919 0-14.636-2.134-20.491-5.601-9.846-5.865-10.644-16.534-10.644-27.466 0-243.2 0-486.666 0-729.867 0-4.267 0-8.533 0-13.333-6.387 0-11.975 0-18.628 0 0 4 0 7.733 0 11.2 0 27.733 0 55.2 0 82.934 0 8.266-0.532 16.534-9.846 19.999-8.782 3.201-14.37-1.866-19.426-7.999 0-38.4 0-77.066 0-115.733zM636 720.802c0 81.066 65.995 146.934 146.627 146.665 80.632-0.266 145.564-65.599 145.83-146.665 0.266-81.334-65.198-147.2-146.096-146.934-81.164 0.266-146.36 65.599-146.36 146.934zM563.882 866.935c0.266-2.666 0.532-5.067 0.532-7.201 0-114.133 0-228.532 0.266-342.665 0-7.467-2.394-9.867-9.845-9.601-33.532 0.266-67.062 0.535-100.592 0-9.847-0.266-11.975 2.933-11.975 12.534 0.266 112.267 0.266 224.532 0.266 336.8 0 3.467 0.532 6.932 0.532 10.666 40.714-0.532 80.366-0.532 120.814-0.532zM288.989 867.201c0.266-2.134 0.799-3.467 0.799-4.801 0-75.467 0-151.2 0.266-226.666 0-6.932-2.929-8.266-9.048-8.266-33.796 0.266-67.858 0.266-101.655 0-9.314-0.266-11.709 2.666-11.709 11.733 0.266 72.534 0.266 145.066 0.266 217.866 0 3.201 0.266 6.4 0.532 10.134 40.183 0 80.099 0 120.549 0z"></path><path d="M773.829 114.937c-15.436 2.4-27.943 4-40.184 5.867-2.394 0.267-4.524 0.8-6.918 1.067-9.581 0.8-16.499-3.733-17.83-12-1.331-8 3.725-14.933 13.306-16.8 19.692-3.467 39.385-6.133 59.077-9.333 7.451-1.067 15.167-2.4 22.62-3.467 9.312-1.333 16.499 2.933 17.828 11.733 3.994 25.867 7.453 52 10.646 78.133 1.065 8.533-3.992 14.133-12.241 15.467-8.516 1.067-13.838-3.2-15.966-11.733-0.799-3.467-1.331-7.2-1.864-10.933-1.331-9.6-2.66-19.2-4.524-31.2-4.79 5.867-8.516 10.133-11.975 14.4-59.343 71.467-124.275 137.067-198.521 193.334-93.938 71.199-196.125 126.401-311.884 152.533-32.199 7.467-65.729 9.333-98.461 13.867-1.863 0.266-3.992 0-5.855 0-11.177-0.266-17.563-5.868-17.563-14.668 0.266-8.532 6.387-13.066 17.031-14.399 34.595-4.266 69.456-6.666 103.518-14.666 98.462-22.667 186.81-68.268 268.773-126.401 85.156-60.533 158.87-133.334 225.13-213.867 1.331-1.067 2.66-2.933 5.855-6.933z"></path><path d="M789.023 653.332c0 18.133-0.266 34.134 0.264 49.867 0 1.866 2.929 4 5.057 5.067 3.725 2.134 7.983 3.467 11.71 5.599 21.555 11.201 31.666 29.067 29.538 52.001-2.396 25.334-14.371 39.201-39.385 46.666-2.662 0.801-6.388 4-6.654 6.4-0.797 5.333-2.128 9.335-8.249 9.066-6.386 0-7.184-4.798-7.184-9.865 0-1.067-0.532-1.868-0.532-2.134-9.847-2.666-19.958-3.734-28.74-7.999-7.717-3.734-15.17-9.601-21.023-16.001-5.855-6.4-3.195-13.867 2.927-19.466s10.91-1.333 15.7 2.666c9.048 7.467 18.629 13.867 31.934 13.867 0-18.668 0.266-36.801-0.266-55.2 0-2.134-2.927-4.801-5.057-5.868-5.853-3.199-12.241-5.067-18.096-8.266-18.893-9.867-26.61-24.533-24.748-45.867 1.864-20.533 13.572-32.532 32.201-38.932 4.79-1.602 9.578-2.4 15.167-3.734 0.266-1.868 0-4.534 1.065-6.134 1.597-2.4 4.258-6.4 6.119-6.134 2.929 0.266 7.719 3.201 7.719 5.333 0.266 7.467 5.054 6.935 10.111 8.002 8.249 1.866 17.031 3.734 24.75 6.932 7.983 3.467 9.578 10.934 5.587 18.399-4.258 7.733-9.845 7.201-16.765 4.002-7.184-3.201-14.371-5.067-23.151-8.268zM775.184 656.265c-15.968 1.333-24.484 9.066-24.218 20.802 0.266 11.999 10.646 21.866 24.218 22.399 0-14.399 0-28.533 0-43.201zM788.224 787.732c14.103-2.4 21.023-10.134 21.821-22.667 0.797-13.599-6.92-23.732-21.821-28.533 0 17.066 0 33.866 0 51.2z"></path></svg>