<svg xmlns="http://www.w3.org/2000/svg" width="1024" height="1024" viewBox="0 0 1024 1024"><title></title><path d="M907.985 1024.002c-278.667 0-557.332 0-836 0-1.867-0.799-3.467-1.597-5.333-2.13-29.333-8.249-48.533-32.731-48.533-63.334 0-165.255-0.267-330.512 0-495.768 0-23.683 10.667-42.312 30.933-54.819 5.333-3.193 6.933-6.388 6.933-12.507 0-33.796 20.267-53.49 54.4-53.756 10.667 0 21.067 0 31.467 0 0.8-3.193 1.333-5.054 1.6-7.184 6.934-69.19 13.867-138.112 20.267-207.301 3.2-34.328 24.8-52.424 59.2-48.699 71.467 7.451 143.2 14.37 214.667 21.289 11.733 1.064 18.399 6.919 17.867 15.967-0.801 9.58-8.534 14.37-20.802 13.040-72.532-7.185-145.066-14.37-217.866-21.289-15.466-1.597-21.866 3.726-23.466 18.628-6.667 65.197-13.067 130.394-19.467 195.326-2.4 25.014-4.8 50.029-7.467 75.045 17.6 3.459 18.133 3.193 19.733-13.040 5.333-53.223 10.667-106.445 15.733-159.668 1.333-14.371 8.001-25.281 21.868-30.869 16.8-6.919 30.398-17.829 40.532-32.732 7.999-11.709 19.466-16.499 33.599-15.169 35.467 3.459 70.935 6.919 106.402 10.378 11.733 1.065 18.133 7.451 17.066 16.499s-8.268 13.572-20.267 12.241c-33.866-3.193-67.734-6.387-101.333-10.112-6.4-0.798-10.4 0.799-14.133 6.387-11.201 16.499-26.401 29.005-45.066 36.724-6.935 2.927-9.335 7.184-9.867 14.103-2.666 28.742-5.599 57.481-8.534 86.221-2.666 26.345-5.067 52.691-7.733 80.632 20.802 0 40.8-0.266 60.535 0.266 7.999 0.266 12.532-2.394 17.066-9.048 80.8-118.686 162.134-237.372 242.665-356.058 9.601-14.104 20.267-26.079 37.335-31.135 6.132 0 11.999 0 18.133 0 5.865 2.661 12.534 4.79 17.867 8.516 98.933 67.060 197.865 134.121 296.532 201.447 22.667 15.434 27.734 42.844 12.8 65.995-11.999 18.362-24.799 36.192-37.067 54.555-1.866 2.66-3.465 5.321-5.865 9.312 5.067 0 8.266-0.266 11.467 0 24.267 1.331 43.201 17.031 47.466 39.651 1.333 7.184 0.266 14.637 1.067 21.821 0.266 3.193 1.599 7.451 3.734 9.314 17.066 14.901 23.998 33.53 23.732 55.884-0.266 40.182 0 80.366 0 120.814 0 3.461 0 7.186 0 11.444 4.801 0 8.534 0 12.001 0 22.934 0.266 36 13.306 36 35.924 0 49.764 0 99.793 0 149.555 0 21.555-13.066 34.595-34.935 35.127-4.266 0-8.266 0-13.332 0 0 5.057 0 8.782 0 12.241 0 41.513 0.266 83.028 0 124.807-0.266 30.603-19.2 55.085-48.534 63.334-1.599 0.532-3.199 1.331-5.067 2.13zM48.252 918.62c0 17.297-1.333 33.53 0.533 49.498 0.8 7.184 7.467 15.7 13.867 19.425 7.733 4.524 18.133 6.654 27.2 6.654 266.666 0.264 533.334 0.266 800 0.266 4 0 7.999-0.002 11.999-0.532 14.402-1.597 28-12.773 29.6-27.144 1.602-15.7 0.268-31.668 0.268-48.433-4.801 0-9.066 0-13.335 0-229.599 0-459.198 0-688.8 0-4 0-7.999 0.266-11.999-0.266-8.268-1.063-12.534-6.386-12.534-14.369 0-7.717 4.534-13.040 12.8-14.105 4-0.532 7.999-0.266 11.999-0.266 229.601 0 459.201 0 688.8 0 4.268 0 8.534 0 13.068 0 0-23.151 0-45.238 0-68.391-4.534 0-8.534 0-12.534 0-40.534 0-81.334 0.266-121.866 0-68.268-0.532-117.068-51.36-113.601-118.153 2.666-54.553 50.133-101.388 105.066-102.453 43.999-0.799 88.001-0.266 132-0.266 3.467 0 7.201 0 11.733 0 0-11.975 0-22.886 0-33.796 0-11.178 0-22.354 0-33.53-295.733 0-590.133 0-884.266 0 0 118.952 0 237.371 0 356.323 4.267 0 8 0 11.467 0 21.333 0 42.667 0 64 0 10.667 0 16.533 5.589 16.533 14.371 0 9.048-5.866 13.838-16.8 14.369-4.267 0-8.533 0-13.067 0-20.533 0.799-41.067 0.799-62.133 0.799zM932.518 502.688c0-11.71 0-22.088 0-32.733 0-29.805-12.8-42.578-42.4-42.578-266.666 0-533.332 0-800 0-3.2 0-6.667-0.266-9.867 0-15.467 1.331-30.133 12.773-31.467 27.41-1.6 15.7-0.267 31.668-0.267 47.901 294.132 0 588.532 0 883.999 0zM692.785 398.105c15.733 0 30.134 0.266 44.8-0.266 2.933 0 6.4-2.927 8.266-5.587 16.802-24.218 33.602-48.699 49.867-73.447 2.134-3.193 2.935-9.581 1.067-13.040-9.066-18.895-13.332-38.32-11.198-59.077 0.532-6.654-1.602-10.379-6.935-13.838-48.267-32.466-96.532-65.464-144.534-98.195-5.067-3.459-9.066-3.992-14.666-1.065-17.867 9.048-37.067 12.773-57.068 10.644-7.201-0.798-11.467 1.065-15.733 7.451-53.866 79.567-108.268 158.87-162.4 238.17-1.599 2.396-2.666 4.79-4.801 8.516 22.667 0 43.467-0.266 64.535 0.266 6.932 0 8.8-2.66 9.865-9.048 11.735-87.816 115.468-132.524 187.468-81.164 30.667 21.289 47.2 51.36 51.466 89.68zM879.985 792.218c29.6 0 59.199-0.266 88.801 0.266 9.066 0.266 11.999-2.13 11.999-11.708-0.532-46.572-0.532-93.141 0-139.444 0-10.111-3.467-11.975-12.534-11.975-56.001 0.266-111.999 0-167.733 0.266-8.266 0-16.8 0.532-24.799 2.394-39.467 9.048-67.201 46.836-62.933 85.422 4.532 42.844 37.865 74.246 80.534 75.045 28.799 0.266 57.6-0.266 86.665-0.266zM321.851 396.775c13.601 3.193 22.667 1.063 30.401-10.912 23.734-36.989 49.066-72.649 73.867-109.105 32.799-48.167 65.599-96.067 98.4-144.233 7.999-11.975 18.665-19.426 33.333-17.563 18.932 2.129 36.266-1.065 53.066-9.58 11.733-5.854 23.466-5.588 34.134 1.863 51.732 35.127 103.467 70.254 155.199 105.647 10.666 7.451 15.733 18.36 14.133 31.134-2.134 18.096 1.333 35.127 9.601 51.094 6.666 13.040 5.865 25.547-2.4 37.523-9.601 14.103-19.2 27.941-28.535 42.045-5.067 7.184-9.865 14.635-15.2 22.352 13.601 2.929 22.401 1.065 30.401-11.176 25.866-39.918 53.334-78.768 80.001-118.153 11.198-16.499 9.865-24.218-6.4-35.394-94.401-64.665-189.334-129.33-284.266-193.73-17.068-11.443-24.267-10.112-36 7.185-70.668 103.518-141.335 207.035-212.001 310.553-9.066 13.040-17.867 26.345-27.734 40.45zM482.652 397.306c60.533 0 120.267 0 179.732 0-1.866-43.907-42.666-81.428-88.267-81.695-47.466-0.799-88.533 35.658-91.466 81.695zM904.518 397.838c1.333-13.040-1.866-22.352-11.198-24.216-12.534-2.394-25.6-1.597-38.4-2.13-1.067 0-2.134 1.331-2.935 2.396-5.067 7.451-10.4 15.167-16.265 23.949 23.998 0 45.867 0 68.798 0zM139.452 371.759c-1.867-0.266-3.2-0.53-4.533-0.53-9.867 0-20-0.266-29.867 0-14.4 0.53-21.867 11.442-18.133 26.876 8.533 0 17.6 0 26.4 0 24.533 0 24.533 0 26.133-26.345z"></path><path d="M856.252 711.051c0 32.465-26.665 59.077-58.933 59.077-32.532 0-59.199-26.878-59.199-59.077 0-32.467 26.667-58.81 59.199-58.81 33.067 0 58.933 25.813 58.933 58.81zM797.319 740.59c16.534 0 30.134-13.306 30.134-29.805 0-15.966-13.867-30.071-30.134-30.071-16.265 0-29.866 13.572-29.866 30.071 0 16.765 13.335 29.805 29.866 29.805z"></path></svg>