<svg xmlns="http://www.w3.org/2000/svg" width="81" height="80" viewBox="0 0 81 80" fill="none"><rect x="0.666748" width="80" height="80" rx="10" fill="url(#paint0_linear_1394_17100)"></rect><g clip-path="url(#clip0_1394_17100)"><path d="M15.7317 39.453C16.0699 37.7733 16.9023 36.328 17.8129 34.9218C18.8274 33.3332 19.0876 31.5754 19.2567 29.7655C19.3347 28.9713 19.4648 28.19 19.6339 27.4088C20.0631 25.4426 21.3769 24.2447 23.1198 23.4244C23.497 23.2421 23.8222 23.3593 24.0433 23.7108C24.2515 24.0364 24.1474 24.453 23.8092 24.7004C23.7312 24.7525 23.6401 24.8046 23.5491 24.8437C21.7931 25.6249 20.9866 27.0702 20.8045 28.9322C20.7135 29.9088 20.5964 30.8723 20.4793 31.8358C20.3103 33.203 19.777 34.427 19.0876 35.5989C18.6583 36.315 18.2551 37.0312 17.8649 37.7603C17.0064 39.3228 16.9934 40.8853 17.8649 42.4608C18.151 42.9687 18.3982 43.5025 18.7234 43.9843C20.0501 45.9244 20.5964 48.0989 20.7265 50.4166C20.7525 50.9635 20.8566 51.5103 20.9476 52.0572C21.1947 53.5155 21.9882 54.5963 23.3149 55.2603C24.1474 55.677 24.9799 56.0676 25.8383 56.4322C27.4513 57.1093 28.791 58.1119 29.9096 59.453C30.3779 60.0129 30.8852 60.5338 31.3795 61.0806C32.6672 62.4999 34.2541 62.9556 36.1141 62.539C37.1287 62.3176 38.1432 62.1093 39.1708 61.914C40.6146 61.6405 42.0454 61.8228 43.4762 62.1353C44.2697 62.3046 45.0631 62.4608 45.8696 62.6041C47.3914 62.8905 48.7052 62.4608 49.7848 61.3671C50.3961 60.7551 50.9814 60.1301 51.5407 59.4661C52.6854 58.1119 54.0511 57.0832 55.7031 56.4062C56.3795 56.1327 57.0298 55.8072 57.7062 55.5077C59.5402 54.7004 60.4637 53.2681 60.6458 51.302C60.7369 50.3254 60.841 49.3619 60.971 48.3983C61.1401 47.0051 61.6994 45.7421 62.4148 44.5442C62.8571 43.789 63.2863 43.0207 63.7026 42.2525C64.457 40.8202 64.444 39.3879 63.7026 37.9556C63.4164 37.3957 63.1432 36.8098 62.779 36.289C61.4523 34.3358 60.88 32.1483 60.7499 29.8176C60.7109 29.1536 60.5808 28.4895 60.4507 27.8385C60.2036 26.6666 59.5662 25.7291 58.5126 25.1692C57.4981 24.6223 56.4575 24.1275 55.4039 23.6718C53.9211 23.0338 52.6984 22.0832 51.6578 20.8593C51.2936 20.4426 50.9034 20.039 50.5652 19.6093C49.0694 17.7473 47.1703 17.1874 44.868 17.7733C43.6713 18.0728 42.4487 18.2812 41.226 18.4114C39.6781 18.5806 38.2083 18.0858 36.7124 17.7994C36.2312 17.7082 35.7499 17.6171 35.2686 17.565C33.8769 17.3957 32.7062 17.8645 31.7306 18.8541C30.9112 19.6874 30.1828 20.6119 29.3243 21.4062C28.6219 22.0702 27.8155 22.6301 27.035 23.19C26.6708 23.4504 26.2416 23.2812 26.0335 22.9166C25.8383 22.565 25.9294 22.1614 26.3196 21.953C27.5553 21.302 28.4398 20.2603 29.3503 19.2317C29.7405 18.802 30.1438 18.3723 30.547 17.9426C32.0688 16.315 34.0069 15.7942 36.2312 16.2499C36.8945 16.3801 37.5709 16.4973 38.2343 16.6666C39.9252 17.0963 41.6032 17.0572 43.2941 16.6405C44.1136 16.4452 44.9461 16.302 45.7785 16.1718C47.6386 15.8723 49.2645 16.3801 50.6172 17.6822C51.3066 18.3463 51.97 19.0364 52.5943 19.7786C53.6349 21.0155 54.8836 21.927 56.3795 22.539C57.1859 22.8775 57.9793 23.2551 58.7598 23.6457C60.6458 24.5963 61.6994 26.1588 61.9856 28.2291C62.1287 29.2317 62.2457 30.2343 62.3368 31.2369C62.4539 32.565 62.9221 33.7629 63.5985 34.8827C64.0277 35.5989 64.431 36.315 64.8342 37.0442C65.9528 39.0885 65.9528 41.1457 64.8472 43.19C64.561 43.7239 64.3009 44.2707 63.9627 44.7525C62.766 46.4843 62.2978 48.4244 62.1807 50.4947C62.1417 51.2239 62.0116 51.953 61.8685 52.6692C61.4783 54.5832 60.2946 55.8723 58.5777 56.7187C57.8103 57.0963 57.0298 57.4608 56.2234 57.7864C54.8446 58.3593 53.6869 59.2056 52.7114 60.3515C52.1391 61.0286 51.5147 61.6796 50.8904 62.3306C49.3165 63.9582 47.4044 64.453 45.2192 64.0103C44.1656 63.802 43.125 63.5806 42.0714 63.3723C40.6016 63.0858 39.1708 63.3853 37.727 63.6978C36.9206 63.8671 36.1011 64.0364 35.2816 64.1275C33.5257 64.3228 32.0038 63.7499 30.7551 62.526C30.0787 61.8749 29.4284 61.1848 28.817 60.4556C27.7634 59.2056 26.4887 58.2942 24.9929 57.6822C24.1994 57.3567 23.419 56.9791 22.6516 56.5884C20.7785 55.6379 19.7379 54.1015 19.4518 52.0442C19.3087 51.0416 19.1786 50.039 19.1006 49.0364C18.9835 47.6562 18.4632 46.4322 17.7738 45.2473C17.2015 44.2968 16.6812 43.3072 16.1869 42.2916C15.9658 41.8358 15.8748 41.302 15.7317 40.8072C15.7317 40.3645 15.7317 39.9088 15.7317 39.453Z" fill="white"></path><path d="M45.5315 59.8175C44.6991 59.6743 43.8536 59.5831 43.0471 59.3618C41.3952 58.9191 39.7693 58.9712 38.1434 59.4139C37.5711 59.5701 36.9597 59.6613 36.3744 59.7264C34.9306 59.8956 33.6689 59.4529 32.6283 58.4633C32.069 57.9295 31.5227 57.3566 31.0154 56.7576C30.1569 55.742 29.1293 54.9738 27.8937 54.492C27.3604 54.2837 26.8531 54.0363 26.3328 53.7889C24.3817 52.9035 23.4191 51.3279 23.237 49.2316C23.185 48.5675 23.107 47.9035 23.0289 47.2394C22.9249 46.2889 22.5997 45.4165 22.1184 44.5831C21.6762 43.8279 21.2339 43.0727 20.8437 42.2785C20.1413 40.8462 20.1543 39.3878 20.8437 37.9555C21.1299 37.3566 21.442 36.7576 21.8062 36.2107C22.6777 34.8956 23.068 33.4503 23.159 31.8878C23.198 31.2758 23.3021 30.6639 23.4191 30.0519C23.7053 28.5285 24.5638 27.4087 25.9165 26.6925C26.6319 26.3279 27.3734 25.9894 28.1148 25.6769C29.1684 25.2212 30.0659 24.5962 30.8073 23.7238C31.1325 23.3331 31.4837 22.9816 31.8088 22.591C33.3697 20.729 35.2948 20.13 37.6231 20.729C38.1564 20.8722 38.7027 20.9503 39.236 21.0805C40.7709 21.4712 42.2277 21.0545 43.7105 20.755C44.1918 20.6508 44.6731 20.5727 45.1543 20.5337C46.5461 20.4035 47.7558 20.8331 48.7703 21.7967C49.3427 22.3436 49.902 22.9295 50.4093 23.5285C51.2417 24.505 52.2173 25.2472 53.4009 25.729C53.9472 25.9503 54.4675 26.2107 55.0008 26.4581C56.9779 27.3305 57.9665 28.9061 58.1616 31.0154C58.2266 31.6795 58.2917 32.3436 58.3697 33.0076C58.4738 34.0232 58.851 34.9477 59.3713 35.8331C59.7875 36.5363 60.1907 37.2394 60.5549 37.9686C61.2703 39.4139 61.2703 40.8852 60.5549 42.3436C60.2558 42.9555 59.9436 43.5675 59.5664 44.1404C58.7209 45.4165 58.3567 46.8227 58.2527 48.3201C58.2136 48.9712 58.0966 49.6092 57.9795 50.2472C57.7063 51.7316 56.8739 52.8384 55.5471 53.5415C54.8447 53.9191 54.1293 54.2706 53.3879 54.5701C52.2173 55.0519 51.2547 55.7811 50.4223 56.7316C49.902 57.3305 49.3557 57.9165 48.7834 58.4633C47.8989 59.3097 46.8193 59.7785 45.5315 59.8175ZM35.8801 21.9269C34.9696 21.9399 34.2152 22.2785 33.5908 22.8904C33.0315 23.4373 32.4982 24.0102 31.9909 24.5962C31.0544 25.6899 29.9228 26.4972 28.583 27.0571C27.8416 27.3696 27.1002 27.7342 26.3978 28.1118C25.5914 28.5545 25.0711 29.2576 24.889 30.1691C24.7719 30.755 24.6548 31.354 24.6158 31.9529C24.5118 33.7628 24.0565 35.4425 23.0549 36.966C22.6647 37.5649 22.3526 38.216 22.0534 38.867C21.6762 39.6873 21.6632 40.5467 22.0534 41.38C22.4046 42.1352 22.7948 42.8644 23.211 43.5675C23.8614 44.6613 24.3427 45.7941 24.4727 47.0701C24.5508 47.7472 24.6418 48.4243 24.6939 49.1144C24.8239 50.716 25.5654 51.8748 27.0612 52.5259C27.5945 52.7602 28.1278 53.0076 28.6611 53.242C29.9098 53.7628 30.9894 54.518 31.8739 55.5597C32.2901 56.0415 32.7324 56.4972 33.1486 56.979C34.1502 58.1118 35.3859 58.5415 36.8817 58.2029C37.1028 58.1508 37.3239 58.1118 37.5451 58.0597C38.8978 57.7863 40.2376 57.4087 41.6424 57.643C42.5659 57.7993 43.4894 57.9816 44.4129 58.1899C45.9087 58.5285 47.1835 58.1899 48.211 57.018C48.7053 56.4581 49.2256 55.9113 49.7199 55.3514C50.4613 54.518 51.3588 53.88 52.3734 53.4113C53.2058 53.0337 54.0253 52.6561 54.8447 52.2524C55.8593 51.7316 56.4186 50.8722 56.6007 49.7654C56.6788 49.2576 56.7698 48.7368 56.7958 48.216C56.8999 46.4842 57.3291 44.8566 58.3047 43.3852C58.6429 42.8774 58.929 42.3175 59.2022 41.7706C59.7485 40.7029 59.7485 39.6092 59.2022 38.5415C58.864 37.8774 58.4998 37.2264 58.1096 36.5884C57.4852 35.5467 57.043 34.4269 56.9129 33.216C56.8349 32.5258 56.7568 31.8227 56.6918 31.1326C56.5617 29.5701 55.8333 28.4243 54.3765 27.7993C53.8952 27.591 53.44 27.3566 52.9587 27.1613C51.5409 26.5883 50.3442 25.742 49.3557 24.5701C48.8614 23.9842 48.3411 23.4243 47.7818 22.9035C46.9883 22.1482 46.0388 21.8748 44.9462 22.0571C44.556 22.1222 44.1658 22.1613 43.8016 22.2654C41.7984 22.8123 39.8083 22.8774 37.7922 22.3045C37.1809 22.0962 36.5305 22.0441 35.8801 21.9269Z" fill="white"></path><path d="M38.0523 49.8305C36.9727 49.8175 36.0232 49.4529 35.3208 48.6326C34.007 47.1092 32.7193 45.5597 31.4576 43.9842C30.7162 43.0597 30.8723 41.7446 31.7568 40.9373C32.108 40.6248 32.4722 40.3253 32.8364 40.0258C33.864 39.2055 35.2037 39.3357 36.0622 40.3253C36.5955 40.9373 37.1028 41.5753 37.6231 42.2003C38.1304 42.8123 38.2084 42.8253 38.8067 42.2524C41.7854 39.3488 44.7641 36.4321 47.7427 33.5284C48.8744 32.4217 50.1101 32.4086 51.2677 33.4894C51.5279 33.7368 51.788 33.9842 52.0481 34.2316C52.9977 35.1821 53.0237 36.5623 52.0872 37.5128C50.4873 39.1274 48.8614 40.729 47.2354 42.3175C46.8582 42.6821 46.416 42.6951 46.1168 42.3826C45.8046 42.0571 45.8307 41.6534 46.2209 41.2628C47.7557 39.7394 49.2906 38.2159 50.8255 36.6925C51.4628 36.0675 51.4628 35.6769 50.7994 35.0649C50.6043 34.8696 50.3962 34.6873 50.2011 34.492C49.6938 34.0232 49.3166 34.0232 48.8093 34.518C47.3395 35.9503 45.8827 37.3826 44.4129 38.8149C42.839 40.3514 41.2781 41.8878 39.7042 43.4112C38.6637 44.4269 37.532 44.3618 36.6085 43.242C36.0882 42.617 35.5679 41.992 35.0476 41.367C34.6184 40.8461 34.1891 40.8201 33.6559 41.2368C33.3827 41.4581 33.0965 41.6925 32.8364 41.9269C32.4072 42.3045 32.3421 42.7342 32.6933 43.1639C33.916 44.6482 35.1127 46.1326 36.3744 47.5909C37.2589 48.6066 38.7547 48.6066 39.7563 47.63C41.044 46.38 42.3057 45.117 43.5674 43.854C43.6584 43.7628 43.7495 43.6717 43.8406 43.5805C44.2048 43.268 44.582 43.255 44.8811 43.5415C45.1803 43.8279 45.1933 44.2836 44.8421 44.6222C43.4113 46.0415 41.9935 47.4738 40.5367 48.867C39.8603 49.5571 39.0018 49.8435 38.0523 49.8305Z" fill="white"></path></g><defs><linearGradient id="paint0_linear_1394_17100" x1="0.666748" y1="40" x2="80.6667" y2="40" gradientUnits="userSpaceOnUse"><stop stop-color="#A049F7"></stop><stop offset="1" stop-color="#806BFF"></stop></linearGradient><clipPath id="clip0_1394_17100"><rect width="50" height="50" fill="white" transform="translate(15.6667 15)"></rect></clipPath></defs></svg>