<svg xmlns="http://www.w3.org/2000/svg" width="1044" height="1024" viewBox="0 0 1044 1024"><title></title><path d="M14.985 500.797c6.926-34.4 23.975-64 42.622-92.799 20.778-32.535 26.106-68.534 29.569-105.601 1.598-16.265 4.262-32.266 7.725-48.265 8.791-40.268 35.696-64.801 71.392-81.601 7.725-3.733 14.385-1.333 18.913 5.867 4.262 6.667 2.131 15.2-4.795 20.267-1.598 1.067-3.463 2.133-5.328 2.933-35.963 16-52.479 45.6-56.208 83.733-1.865 20.001-4.262 39.733-6.66 59.466-3.463 28-14.385 53.068-28.504 77.068-8.791 14.666-17.049 29.334-25.041 44.265-17.582 32-17.848 64 0 96.266 5.861 10.402 10.922 21.334 17.582 31.201 27.172 39.733 38.36 84.267 41.024 131.734 0.533 11.201 2.664 22.399 4.529 33.599 5.061 29.866 21.311 52.001 48.483 65.599 17.049 8.534 34.098 16.534 51.678 24.001 33.034 13.867 60.471 34.4 83.38 61.866 9.591 11.467 19.98 22.135 30.104 33.333 26.372 29.067 58.872 38.4 96.965 29.868 20.779-4.534 41.556-8.8 62.601-12.8 29.569-5.601 58.872-1.868 88.175 4.532 16.251 3.467 32.5 6.666 49.017 9.601 31.166 5.865 58.073-2.935 80.183-25.334 12.519-12.534 24.506-25.334 35.961-38.932 23.443-27.734 51.413-48.802 85.246-62.667 13.853-5.601 27.171-12.268 41.023-18.401 37.56-16.534 56.474-45.867 60.203-86.133 1.866-20.001 3.998-39.733 6.66-59.468 3.463-28.533 14.918-54.399 29.569-78.932 9.058-15.466 17.848-31.201 26.374-46.934 15.45-29.334 15.184-58.667 0-88.001-5.861-11.467-11.457-23.466-18.915-34.132-27.171-40.002-38.892-84.802-41.556-132.534-0.799-13.599-3.463-27.199-6.128-40.532-5.061-24.001-18.115-43.201-39.692-54.667-20.777-11.2-42.088-21.334-63.666-30.667-30.368-13.067-55.409-32.533-76.72-57.6-7.459-8.533-15.45-16.8-22.376-25.6-30.634-38.133-69.528-49.6-116.679-37.6-24.508 6.133-49.547 10.4-74.588 13.067-31.701 3.467-61.802-6.667-92.439-12.533-9.855-1.867-19.712-3.733-29.569-4.8-28.502-3.467-52.478 6.133-72.458 26.4-16.781 17.067-31.699 36-49.281 52.267-14.385 13.6-30.9 25.067-46.885 36.533-7.459 5.333-16.249 1.867-20.511-5.6-3.998-7.2-2.132-15.467 5.859-19.733 25.307-13.334 43.422-34.667 62.069-55.733 7.991-8.8 16.251-17.6 24.508-26.4 31.166-33.333 70.859-44 116.412-34.667 13.584 2.667 27.437 5.067 41.023 8.533 34.63 8.8 68.995 8 103.625-0.533 16.783-4 33.833-6.934 50.881-9.6 38.095-6.133 71.393 4.267 99.097 30.933 14.119 13.6 27.705 27.733 40.491 42.933 21.311 25.333 46.885 44 77.521 56.533 16.515 6.933 32.764 14.667 48.749 22.667 38.625 19.467 60.203 51.467 66.064 93.867 2.931 20.533 5.327 41.066 7.193 61.6 2.398 27.199 11.987 51.732 25.84 74.666 8.79 14.668 17.050 29.334 25.307 44.268 22.909 41.867 22.909 83.999 0.266 125.866-5.861 10.934-11.188 22.133-18.115 32-24.508 35.467-34.097 75.201-36.495 117.6-0.799 14.934-3.463 29.866-6.394 44.534-7.991 39.199-32.233 65.599-67.396 82.934-15.716 7.733-31.701 15.198-48.216 21.866-28.238 11.733-51.948 29.065-71.926 52.533-11.721 13.867-24.508 27.199-37.294 40.532-32.233 33.333-71.393 43.467-116.146 34.4-21.578-4.266-42.889-8.8-64.467-13.066-30.102-5.868-59.404 0.266-88.973 6.666-16.515 3.467-33.298 6.935-50.082 8.8-35.961 4-67.129-7.733-92.703-32.799-13.853-13.335-27.171-27.468-39.692-42.402-21.578-25.6-47.684-44.265-78.318-56.799-16.25-6.666-32.233-14.399-47.95-22.401-38.36-19.466-59.671-50.932-65.532-93.065-2.93-20.533-5.594-41.066-7.192-61.6-2.398-28.266-13.053-53.334-27.172-77.601-11.721-19.466-22.377-39.733-32.5-60.533-4.529-9.335-6.393-20.267-9.324-30.401 0-9.066 0-18.399 0-27.734z"></path><path d="M625.285 917.862c-17.048-2.933-34.363-4.801-50.881-9.333-33.831-9.066-67.129-7.999-100.428 1.067-11.721 3.199-24.242 5.067-36.229 6.4-29.569 3.465-55.409-5.601-76.72-25.868-11.454-10.932-22.643-22.665-33.032-34.933-17.582-20.799-38.627-36.532-63.932-46.399-10.922-4.266-21.311-9.333-31.967-14.399-39.959-18.133-59.672-50.401-63.401-93.334-1.066-13.601-2.664-27.199-4.262-40.8-2.131-19.466-8.791-37.333-18.647-54.401-9.057-15.466-18.115-30.933-26.106-47.198-14.385-29.334-14.119-59.202 0-88.535 5.861-12.265 12.254-24.533 19.713-35.734 17.848-26.933 25.84-56.533 27.704-88.533 0.799-12.534 2.93-25.065 5.328-37.599 5.861-31.199 23.442-54.133 51.146-68.801 14.651-7.467 29.837-14.399 45.021-20.799 21.578-9.333 39.959-22.134 55.142-40 6.66-8 13.853-15.2 20.511-23.2 31.967-38.133 71.393-50.4 119.077-38.133 10.922 2.933 22.11 4.533 33.032 7.2 31.435 8 61.27-0.534 91.638-6.667 9.857-2.133 19.714-3.734 29.569-4.533 28.504-2.667 53.279 6.133 74.056 25.867 11.723 11.2 23.177 23.2 33.567 35.467 17.048 20 37.028 35.2 61.268 45.067 11.188 4.532 21.844 9.865 32.766 14.932 40.491 17.867 60.738 50.135 64.733 93.334 1.331 13.601 2.664 27.202 4.262 40.8 2.132 20.799 9.857 39.733 20.513 57.866 8.524 14.402 16.781 28.801 24.24 43.735 14.651 29.6 14.651 59.732 0 89.6-6.126 12.532-12.519 25.065-20.244 36.798-17.316 26.135-24.775 54.934-26.905 85.6-0.801 13.335-3.197 26.401-5.595 39.467-5.595 30.401-22.643 53.068-49.816 67.467-14.385 7.733-29.037 14.932-44.22 21.066-23.974 9.867-43.688 24.801-60.735 44.268-10.656 12.265-21.844 24.267-33.565 35.465-18.115 17.334-40.225 26.935-66.599 27.734zM427.624 141.863c-18.647 0.267-34.097 7.2-46.885 19.733-11.454 11.2-22.376 22.933-32.766 34.933-19.18 22.4-42.355 38.933-69.794 50.4-15.184 6.4-30.368 13.867-44.753 21.6-16.515 9.066-27.171 23.466-30.901 42.134-2.397 11.999-4.795 24.267-5.594 36.532-2.131 37.067-11.455 71.467-31.967 102.668-7.992 12.265-14.385 25.6-20.512 38.932-7.725 16.8-7.992 34.4 0 51.466 7.193 15.466 15.184 30.401 23.709 44.8 13.32 22.401 23.176 45.601 25.84 71.733 1.598 13.867 3.463 27.734 4.529 41.867 2.664 32.801 17.849 56.533 48.483 69.868 10.922 4.798 21.844 9.865 32.766 14.666 25.573 10.666 47.684 26.132 65.798 47.466 8.524 9.867 17.582 19.2 26.106 29.067 20.513 23.2 45.82 32 76.454 25.065 4.528-1.067 9.056-1.866 13.586-2.933 27.703-5.599 55.142-13.332 83.913-8.534 18.913 3.201 37.827 6.935 56.74 11.201 30.634 6.935 56.742 0 77.785-24.001 10.123-11.467 20.779-22.665 30.902-34.132 15.184-17.068 33.565-30.134 54.344-39.733 17.048-7.733 33.831-15.466 50.612-23.734 20.779-10.666 32.233-28.266 35.963-50.934 1.599-10.4 3.463-21.066 3.996-31.732 2.132-35.467 10.922-68.801 30.902-98.935 6.926-10.4 12.786-21.866 18.381-33.067 11.188-21.866 11.188-44.265 0-66.132-6.926-13.601-14.385-26.933-22.376-39.999-12.788-21.334-21.844-44.268-24.508-69.067-1.597-14.135-3.197-28.535-4.528-42.668-2.664-32-17.582-55.466-47.417-68.266-9.857-4.266-19.18-9.066-29.037-13.066-29.037-11.735-53.545-29.067-73.789-53.067-10.123-12-20.779-23.467-32.233-34.133-16.251-15.467-35.697-21.067-58.073-17.333-7.991 1.333-15.983 2.133-23.441 4.267-41.026 11.2-81.783 12.533-123.073 0.8-12.519-4.267-25.84-5.333-39.16-7.733z"></path><path d="M472.111 713.329c-22.11-0.266-41.556-7.733-55.941-24.533-26.907-31.199-53.279-62.933-79.118-95.199-15.184-18.934-11.987-45.867 6.128-62.401 7.193-6.4 14.651-12.534 22.11-18.668 21.045-16.8 48.482-14.133 66.064 6.134 10.922 12.534 21.311 25.6 31.967 38.4 10.39 12.534 11.987 12.8 24.24 1.067 61.004-59.466 122.008-119.2 183.009-178.668 23.177-22.665 48.484-22.934 72.192-0.799 5.329 5.067 10.656 10.134 15.983 15.2 19.448 19.466 19.98 47.733 0.801 67.199-32.766 33.067-66.064 65.868-99.365 98.4-7.725 7.467-16.781 7.733-22.909 1.333-6.394-6.666-5.859-14.934 2.132-22.934 31.433-31.199 62.867-62.401 94.302-93.6 13.052-12.8 13.052-20.799-0.535-33.333-3.996-4-8.258-7.733-12.253-11.733-10.39-9.601-18.115-9.601-28.504 0.532-30.102 29.334-59.937 58.667-90.038 88.001-32.233 31.468-64.201 62.933-96.434 94.132-21.309 20.802-44.487 19.468-63.4-3.465-10.656-12.8-21.311-25.6-31.967-38.4-8.79-10.668-17.582-11.201-28.502-2.666-5.595 4.532-11.457 9.333-16.783 14.133-8.79 7.733-10.123 16.534-2.931 25.334 25.041 30.398 49.549 60.799 75.389 90.665 18.115 20.802 48.749 20.802 69.261 0.801 26.372-25.6 52.212-51.466 78.051-77.332 1.864-1.868 3.729-3.734 5.595-5.601 7.459-6.4 15.184-6.666 21.309-0.799 6.128 5.865 6.394 15.198-0.799 22.133-29.303 29.067-58.339 58.401-88.175 86.934-13.853 14.133-31.435 19.999-50.881 19.732z"></path></svg>