<svg xmlns="http://www.w3.org/2000/svg" width="1024" height="1024" viewBox="0 0 1024 1024"><title></title><path d="M24.239 1023.734c-17.274-6.398-23.125-18.661-23.125-35.992 0.279-151.161 0.279-302.588 0.279-453.749 0-2.933-0.279-6.132 0.279-9.064 1.393-7.731 6.408-12.53 14.766-12.796 8.916-0.266 14.209 4.532 15.881 12.796 0.557 3.201 0.279 6.666 0.279 9.865 0 148.494 0 297.255 0 445.751 0 3.998 0 7.997 0 12.263 264.68 0 528.245 0 792.927 0 0-114.104 0-227.942 0-343.91-1.673 3.731-2.787 5.863-3.344 7.997-12.538 39.457-24.517 79.18-37.333 118.368-2.509 7.731-6.687 15.462-11.981 21.594-27.582 32.526-55.722 64.784-83.862 97.042-13.652 15.729-24.519 18.395-44.857 11.731-13.095-4.266-22.567-13.064-30.368-23.462-3.066-3.998-5.851-8.264-8.915-12.796-6.13 9.064-11.145 17.594-17.275 25.594-18.108 23.726-40.399 25.858-63.244 6.398-1.114-0.801-2.228-1.599-3.064-2.666-6.687-7.997-12.259-7.199-20.339-0.532-21.733 18.129-42.072 17.861-62.13 0-7.803-6.932-8.917-15.196-2.787-22.129 5.573-6.398 14.209-6.93 22.288-1.333 12.538 8.532 12.538 8.532 24.519-1.065 22.010-17.596 36.219-17.33 57.672 1.331 2.23 2.134 4.737 4 6.965 5.865 4.458 3.734 8.638 3.734 12.259-1.333 3.623-4.798 6.965-9.863 10.588-14.928 4.178-6.132 7.522-12.798 12.257-18.395 13.095-15.462 31.484-15.196 44.022 0.532 3.621 4.532 6.408 9.597 9.751 14.129 3.066 4.266 6.687 8.266 11.981 11.731 0-1.599 0.279-3.465 0-5.065-4.458-38.124-9.193-75.981-13.652-114.104-0.557-4.798 0-10.131 1.393-14.664 28.697-92.242 57.115-184.218 86.37-276.193 1.671-5.599 6.965-12.263 12.257-14.397 12.538-4.798 22.29 7.199 18.11 21.328-9.751 32.258-20.060 64.25-30.089 96.508-17.832 56.785-35.383 113.304-53.494 171.155 28.975 8.266 57.393 16.529 86.649 24.795 61.85-198.083 123.423-395.098 185.553-593.98-28.697-8.264-56.836-16.262-86.090-24.793-1.671 3.999-3.064 7.731-4.18 11.197-25.074 79.978-50.149 159.959-75.225 239.938-0.836 2.933-1.671 5.865-3.342 8.532-4.18 6.398-10.31 8.796-17.832 6.93-7.244-1.866-11.143-6.93-10.865-14.129 0-3.465 1.114-7.199 2.228-10.664 19.503-63.183 39.285-126.368 59.066-189.284 0.836-2.933 1.671-5.598 2.507-9.598-3.899-0.266-7.244-0.533-10.586-0.533-22.569 0-45.136 0.267-67.981 0-44.022-0.267-74.668-29.859-74.947-71.981 0-27.46 0-55.186 0-83.178-207.843 0-414.573 0-622.695 0 0 3.732 0 7.731 0 11.464 0 135.698 0 271.13 0 406.828 0 3.731 0.279 7.463-0.279 10.93-1.672 7.731-6.687 12.263-15.324 12.263s-13.652-4.532-15.324-12.263c-0.836-3.199-0.279-6.666-0.279-9.865 0-137.83 0.279-275.928-0.279-413.758 0-17.329 5.851-29.592 23.125-35.991 216.76 0 433.239 0 650 0 5.849 4.532 12.257 8.531 17.83 13.596 28.418 25.593 56.558 51.453 84.697 77.047 15.882 14.396 31.762 28.792 45.693 41.589 9.472-6.132 17.832-11.197 25.911-17.062 2.507-1.866 3.899-5.332 5.016-8.265 4.735-14.929 9.193-29.859 14.209-44.788 10.308-32.525 41.791-49.32 73.83-39.989 31.205 9.331 47.086 39.989 37.335 72.248-4.737 14.93-9.753 29.859-13.93 45.055-0.836 3.466-0.279 8.531 1.671 11.464 5.851 9.331 8.079 18.928 4.737 29.592-3.066 9.331-5.851 18.928-8.917 29.059 15.325 4.266 30.091 8.532 44.579 12.796 18.108 5.333 21.174 10.664 15.88 27.728-15.88 50.919-31.762 101.839-47.921 153.027-5.851 19.194-11.981 38.124-18.11 57.317-3.064 9.064-11.143 13.33-19.223 11.198-8.638-2.4-12.816-10.131-10.588-19.728 0.279-1.599 0.836-3.199 1.393-4.798 15.325-49.056 30.648-98.109 45.971-147.163 5.294-16.796 10.31-33.591 15.602-50.919-12.816-3.465-24.795-6.932-36.776-10.131-1.393 3.734-2.228 6.132-3.064 8.798-30.091 95.975-59.902 191.683-89.713 287.658-1.952 5.865-2.509 12.53-2.509 18.661-0.279 144.23-0.279 288.459 0 432.689 0 17.594-5.294 30.39-22.845 37.323-269.138-0.266-539.39-0.266-809.643-0.266zM802.677 155.426c-39.561-35.991-76.896-70.115-115.9-105.839 0 23.727-0.281 44.788 0 65.85 0.279 22.128 16.437 38.923 39.561 39.723 24.24 0.8 48.478 0.267 76.339 0.267zM933.345 134.365c5.851-18.662 11.702-35.991 16.439-53.586 3.342-13.33-3.901-25.060-16.718-29.592-11.979-4.266-27.304 0-32.039 11.464-7.522 18.395-12.816 37.59-19.225 57.052 17.83 4.799 33.991 9.598 51.542 14.663zM678.973 858.71c21.174-24.261 40.399-46.655 60.738-70.115-24.238-6.932-47.086-13.33-71.324-20.261 3.621 30.925 6.965 59.183 10.586 90.376z"></path><path d="M418.195 193.55c55.722 0 111.446 0 167.168 0 22.567 0 32.039 9.064 32.317 31.191 0 17.062 0.279 33.858 0 50.921-0.279 18.661-10.308 28.525-29.811 28.525-112.837 0-225.675 0-338.512 0-19.225 0-28.975-9.331-29.254-27.726-0.279-18.661-0.279-37.323 0-55.986 0.279-17.595 10.586-26.925 28.975-26.925 56.279 0 112.558 0 169.116 0zM585.642 273.795c0-16.796 0-32.791 0-49.586-111.446 0-222.333 0-333.777 0 0 16.796 0 32.791 0 49.586 111.444 0 222.331 0 333.777 0z"></path><path d="M428.505 389.767c67.981 0 135.682 0 203.663 0 3.344 0 6.965-0.266 10.31 0.266 8.358 1.333 13.373 6.132 13.652 14.129 0.279 8.532-4.737 13.863-13.095 15.462-3.344 0.535-6.965 0.266-10.31 0.266-136.518 0-272.759 0-409.278 0-1.114 0-1.95 0-3.066 0-13.093 0-20.338-5.331-20.616-14.928 0-9.599 7.245-15.196 20.059-15.196 40.677 0 81.355 0 122.032 0 28.975 0 57.95 0 86.649 0z"></path><path d="M414.57 536.13c-63.801 0-127.324 0-191.126 0-3.344 0-6.965 0.266-10.31-0.266-7.801-1.067-12.537-5.865-13.095-13.33s3.065-13.064 10.588-15.196c3.899-1.067 8.358-1.067 12.257-1.067 128.162 0 256.045 0 384.205 0 4.18 0 8.358 0 12.259 1.067 7.522 2.132 11.424 7.731 10.588 15.196-0.559 7.465-5.294 12.263-13.095 13.33-3.344 0.532-6.965 0.266-10.31 0.266-63.801 0-127.881 0-191.963 0z"></path><path d="M399.251 652.902c-58.509 0-116.738 0-175.247 0-4.178 0-8.358 0-12.538-0.801-7.8-1.866-11.701-6.93-11.422-14.664 0.279-7.463 4.458-12.53 12.538-13.863 3.621-0.799 7.522-0.532 11.422-0.532 117.295 0 234.312 0 351.607 0 16.996 0 24.24 4.532 23.962 15.462-0.279 10.398-7.244 14.664-23.683 14.664-59.064-0.266-117.852-0.266-176.638-0.266z"></path><path d="M340.744 739.537c40.675 0 81.353 0 122.309 0 13.095 0 20.617 5.597 20.339 14.93 0 9.331-7.522 14.928-20.617 14.928-81.074 0-162.15 0-243.505 0-12.816 0-20.060-5.863-19.781-15.729 0.279-9.064 6.965-14.395 18.946-14.395 40.956 0.266 81.633 0.266 122.311 0.266z"></path></svg>