<svg xmlns="http://www.w3.org/2000/svg" width="80" height="80" viewBox="0 0 80 80" fill="none"><rect width="80" height="80" rx="10" fill="url(#paint0_linear_1394_17094)"></rect><path d="M16.1836 64.987C15.3401 64.6746 15.0544 64.0758 15.0544 63.2296C15.068 55.8487 15.068 48.4548 15.068 41.0739C15.068 40.9307 15.0544 40.7745 15.0816 40.6313C15.1496 40.2538 15.3945 40.0195 15.8026 40.0065C16.238 39.9935 16.4964 40.2278 16.5781 40.6313C16.6053 40.7876 16.5917 40.9568 16.5917 41.113C16.5917 48.3637 16.5917 55.6274 16.5917 62.8782C16.5917 63.0734 16.5917 63.2687 16.5917 63.477C29.5155 63.477 42.3849 63.477 55.3088 63.477C55.3088 57.9055 55.3088 52.347 55.3088 46.6845C55.2271 46.8667 55.1727 46.9708 55.1455 47.075C54.5333 49.0016 53.9484 50.9412 53.3226 52.8547C53.2001 53.2322 52.9961 53.6097 52.7376 53.9091C51.3908 55.4973 50.0168 57.0724 48.6428 58.6475C47.9762 59.4155 47.4456 59.5457 46.4525 59.2203C45.8131 59.012 45.3506 58.5824 44.9697 58.0747C44.82 57.8795 44.684 57.6712 44.5344 57.4499C44.2351 57.8925 43.9902 58.309 43.6909 58.6996C42.8067 59.8581 41.7183 59.9622 40.6028 59.012C40.5484 58.9729 40.494 58.9339 40.4532 58.8818C40.1267 58.4913 39.8546 58.5303 39.4601 58.8558C38.3989 59.741 37.4058 59.7279 36.4264 58.8558C36.0454 58.5173 35.991 58.1138 36.2903 57.7753C36.5624 57.4629 36.9841 57.4369 37.3786 57.7102C37.9908 58.1268 37.9908 58.1268 38.5758 57.6582C39.6505 56.799 40.3443 56.812 41.3918 57.7232C41.5007 57.8274 41.6231 57.9185 41.7319 58.0096C41.9496 58.1919 42.1537 58.1919 42.3305 57.9445C42.5074 57.7102 42.6706 57.4629 42.8475 57.2156C43.0515 56.9162 43.2148 56.5907 43.446 56.3174C44.0854 55.5624 44.9833 55.5754 45.5955 56.3434C45.7723 56.5647 45.9084 56.812 46.0716 57.0333C46.2213 57.2416 46.3981 57.4369 46.6566 57.6061C46.6566 57.528 46.6702 57.4369 46.6566 57.3588C46.4389 55.4973 46.2077 53.6488 45.99 51.7873C45.9628 51.553 45.99 51.2926 46.058 51.0713C47.4592 46.5673 48.8468 42.0763 50.2753 37.5853C50.3569 37.3119 50.6154 36.9865 50.8738 36.8823C51.486 36.648 51.9622 37.2338 51.7581 37.9237C51.282 39.4988 50.7786 41.0609 50.2889 42.636C49.4182 45.4087 48.5612 48.1684 47.6769 50.9932C49.0917 51.3968 50.4793 51.8003 51.9078 52.2039C54.9278 42.5319 57.9343 32.912 60.968 23.201C59.5668 22.7974 58.1928 22.4069 56.7644 21.9904C56.6828 22.1856 56.6148 22.3679 56.5603 22.5371C55.336 26.4423 54.1116 30.3476 52.8872 34.2528C52.8464 34.396 52.8056 34.5392 52.724 34.6694C52.5199 34.9818 52.2206 35.0989 51.8533 35.0078C51.4996 34.9167 51.3092 34.6694 51.3228 34.3179C51.3228 34.1487 51.3772 33.9664 51.4316 33.7972C52.3839 30.7121 53.3498 27.6269 54.3157 24.5548C54.3565 24.4116 54.3973 24.2814 54.4381 24.0862C54.2477 24.0732 54.0844 24.0601 53.9212 24.0601C52.8192 24.0601 51.7173 24.0732 50.6018 24.0601C48.4523 24.0471 46.9559 22.6022 46.9423 20.5454C46.9423 19.2046 46.9423 17.8508 46.9423 16.484C36.7937 16.484 26.6995 16.484 16.5373 16.484C16.5373 16.6662 16.5373 16.8615 16.5373 17.0437C16.5373 23.6696 16.5373 30.2825 16.5373 36.9084C16.5373 37.0906 16.5509 37.2728 16.5237 37.4421C16.442 37.8196 16.1972 38.0409 15.7754 38.0409C15.3537 38.0409 15.1088 37.8196 15.0272 37.4421C14.9864 37.2859 15.0136 37.1166 15.0136 36.9604C15.0136 30.2304 15.0272 23.4874 15 16.7574C15 15.9112 15.2857 15.3124 16.1291 15C26.7131 15 37.2834 15 47.8674 15C48.153 15.2213 48.4659 15.4166 48.738 15.6639C50.1256 16.9136 51.4996 18.1763 52.8736 19.4259C53.6491 20.1289 54.4245 20.8318 55.1047 21.4567C55.5672 21.1573 55.9754 20.9099 56.3699 20.6235C56.4923 20.5324 56.5603 20.3632 56.6148 20.22C56.846 19.491 57.0637 18.762 57.3086 18.0331C57.8119 16.4449 59.3492 15.6248 60.9136 16.0804C62.4373 16.5361 63.2127 18.0331 62.7366 19.6082C62.5053 20.3372 62.2604 21.0661 62.0564 21.8081C62.0156 21.9773 62.0428 22.2247 62.138 22.3679C62.4237 22.8235 62.5325 23.2921 62.3693 23.8128C62.2196 24.2684 62.0836 24.737 61.9339 25.2317C62.6822 25.44 63.4032 25.6483 64.1106 25.8565C64.9948 26.1169 65.1445 26.3772 64.886 27.2104C64.1106 29.6967 63.3351 32.183 62.5461 34.6824C62.2604 35.6196 61.9611 36.5439 61.6618 37.4811C61.5122 37.9237 61.1177 38.132 60.7232 38.0279C60.3014 37.9107 60.0974 37.5332 60.2062 37.0646C60.2198 36.9865 60.247 36.9084 60.2742 36.8303C61.0225 34.435 61.7707 32.0398 62.5189 29.6446C62.7774 28.8245 63.0223 28.0044 63.2807 27.1583C62.6549 26.9891 62.07 26.8198 61.485 26.6636C61.417 26.8459 61.3762 26.963 61.3354 27.0932C59.8661 31.7795 58.4105 36.4527 56.9549 41.139C56.8596 41.4254 56.8324 41.7508 56.8324 42.0502C56.8188 49.0927 56.8188 56.1351 56.8324 63.1776C56.8324 64.0367 56.5739 64.6615 55.7169 65C42.5754 64.987 29.3795 64.987 16.1836 64.987ZM54.1932 22.5892C52.2615 20.8318 50.4385 19.1656 48.534 17.4212C48.534 18.5798 48.5203 19.6082 48.534 20.6366C48.5476 21.717 49.3366 22.5371 50.4657 22.5762C51.6493 22.6152 52.8328 22.5892 54.1932 22.5892ZM60.5735 21.5608C60.8592 20.6496 61.1449 19.8034 61.3762 18.9443C61.5394 18.2934 61.1857 17.7206 60.5599 17.4993C59.975 17.2911 59.2267 17.4993 58.9955 18.0591C58.6282 18.9573 58.3697 19.8946 58.0568 20.8448C58.9274 21.0791 59.7165 21.3135 60.5735 21.5608ZM48.153 56.9292C49.1869 55.7446 50.1256 54.6511 51.1187 53.5056C49.9352 53.1671 48.8196 52.8547 47.6361 52.5163C47.8129 54.0263 47.9762 55.4061 48.153 56.9292Z" fill="white"></path><path d="M35.4197 24.4507C38.1405 24.4507 40.8614 24.4507 43.5822 24.4507C44.6841 24.4507 45.1466 24.8933 45.1602 25.9737C45.1602 26.8068 45.1738 27.6269 45.1602 28.4601C45.1466 29.3713 44.6569 29.8529 43.7046 29.8529C38.195 29.8529 32.6853 29.8529 27.1757 29.8529C26.237 29.8529 25.7609 29.3973 25.7473 28.4991C25.7337 27.5879 25.7337 26.6767 25.7473 25.7654C25.7609 24.9063 26.2642 24.4507 27.1621 24.4507C29.9101 24.4507 32.6581 24.4507 35.4197 24.4507ZM43.5958 28.3689C43.5958 27.5488 43.5958 26.7678 43.5958 25.9477C38.1541 25.9477 32.7397 25.9477 27.2981 25.9477C27.2981 26.7678 27.2981 27.5488 27.2981 28.3689C32.7397 28.3689 38.1541 28.3689 43.5958 28.3689Z" fill="white"></path><path d="M35.9231 34.0316C39.2425 34.0316 42.5482 34.0316 45.8676 34.0316C46.0309 34.0316 46.2077 34.0186 46.371 34.0446C46.7791 34.1097 47.024 34.344 47.0376 34.7345C47.0512 35.1511 46.8063 35.4114 46.3982 35.4895C46.2349 35.5156 46.0581 35.5025 45.8948 35.5025C39.2289 35.5025 32.5765 35.5025 25.9105 35.5025C25.8561 35.5025 25.8153 35.5025 25.7608 35.5025C25.1215 35.5025 24.7678 35.2422 24.7542 34.7736C24.7542 34.3049 25.1079 34.0316 25.7336 34.0316C27.7198 34.0316 29.706 34.0316 31.6922 34.0316C33.107 34.0316 34.5218 34.0316 35.9231 34.0316Z" fill="white"></path><path d="M35.2427 41.1782C32.1274 41.1782 29.0257 41.1782 25.9104 41.1782C25.7471 41.1782 25.5703 41.1912 25.407 41.1652C25.0261 41.1131 24.7948 40.8788 24.7676 40.5143C24.7404 40.1498 24.9173 39.8764 25.2846 39.7723C25.475 39.7202 25.6927 39.7202 25.8831 39.7202C32.141 39.7202 38.3853 39.7202 44.6431 39.7202C44.8472 39.7202 45.0512 39.7202 45.2417 39.7723C45.609 39.8764 45.7995 40.1498 45.7587 40.5143C45.7314 40.8788 45.5002 41.1131 45.1193 41.1652C44.956 41.1912 44.7792 41.1782 44.6159 41.1782C41.5006 41.1782 38.3717 41.1782 35.2427 41.1782Z" fill="white"></path><path d="M34.4947 46.88C31.6378 46.88 28.7946 46.88 25.9377 46.88C25.7337 46.88 25.5296 46.88 25.3255 46.8409C24.9446 46.7498 24.7542 46.5025 24.7678 46.1249C24.7814 45.7605 24.9854 45.5131 25.38 45.448C25.5568 45.409 25.7473 45.422 25.9377 45.422C31.665 45.422 37.3787 45.422 43.106 45.422C43.9359 45.422 44.2896 45.6433 44.276 46.177C44.2624 46.6847 43.9223 46.893 43.1196 46.893C40.2356 46.88 37.3651 46.88 34.4947 46.88Z" fill="white"></path><path d="M31.6379 51.1102C33.624 51.1102 35.6102 51.1102 37.61 51.1102C38.2494 51.1102 38.6167 51.3835 38.6031 51.8392C38.6031 52.2948 38.2358 52.5681 37.5964 52.5681C33.6377 52.5681 29.6789 52.5681 25.7065 52.5681C25.0807 52.5681 24.727 52.2818 24.7406 51.8001C24.7542 51.3575 25.0807 51.0972 25.6657 51.0972C27.6655 51.1102 29.6517 51.1102 31.6379 51.1102Z" fill="white"></path><defs><linearGradient id="paint0_linear_1394_17094" x1="1.11677e-05" y1="80" x2="80" y2="6.39935e-06" gradientUnits="userSpaceOnUse"><stop stop-color="#A049F7"></stop><stop offset="1" stop-color="#806BFF"></stop></linearGradient></defs></svg>