<svg xmlns="http://www.w3.org/2000/svg" width="81" height="80" viewBox="0 0 81 80" fill="none"><rect x="0.666748" width="80" height="80" rx="10" fill="url(#paint0_linear_1394_17096)"></rect><g clip-path="url(#clip0_1394_17096)"><path d="M15.7576 49.2839C16.9011 48.125 18.0445 46.9401 19.201 45.7943C20.8512 44.1536 22.5144 42.526 24.1646 40.8984C24.2166 40.8464 24.2815 40.7812 24.3335 40.7292C25.1131 39.9219 25.1131 39.9219 26.0617 40.5469C26.0617 40.3385 26.0617 40.1693 26.0617 40C26.0617 36.9531 26.0617 33.9193 26.0617 30.8724C26.0617 30.7161 26.0487 30.5469 26.0747 30.3906C26.1137 30.013 26.3216 29.7917 26.6984 29.7526C27.0622 29.7005 27.3351 29.8698 27.452 30.2214C27.517 30.4167 27.53 30.638 27.53 30.8464C27.53 34.375 27.543 37.9036 27.517 41.4453C27.517 41.9141 27.6339 42.2526 27.9848 42.5911C30.1027 44.6484 32.2077 46.7448 34.3127 48.8151C34.6635 49.1667 34.8455 49.5573 34.6506 50.0521C34.4556 50.5339 34.0658 50.7292 33.5721 50.7161C33.4421 50.7161 33.3122 50.7292 33.1303 50.7422C33.1173 50.9245 33.1043 51.0937 33.1043 51.263C33.1043 53.6198 33.1043 55.9766 33.1043 58.3464C33.1043 59.7656 32.4806 60.3906 31.0513 60.3906C29.8948 60.3906 28.7514 60.3906 27.543 60.3906C27.543 61.1979 27.53 61.9531 27.556 62.7083C27.556 62.8125 27.7509 62.9297 27.8678 62.9948C27.9588 63.0469 28.0887 63.0078 28.2056 63.0078C35.4432 63.0078 42.6937 63.0078 49.9312 63.0078C50.0871 63.0078 50.2431 62.9948 50.451 62.9818C50.451 62.7734 50.451 62.6042 50.451 62.4349C50.451 60.625 50.451 58.8281 50.451 57.0182C50.451 55.625 51.1137 54.9609 52.517 54.9609C54.2192 54.9609 55.9213 54.9609 57.6365 54.9609C57.8054 54.9609 57.9874 54.9609 58.1953 54.9609C58.1953 51.7318 58.1953 48.5417 58.1953 45.3776C57.8444 45.4297 57.4936 45.4687 57.1558 45.5469C57.0518 45.5729 56.9219 45.7031 56.8829 45.8073C56.74 46.1849 56.649 46.5885 56.5061 46.9661C56.3501 47.4089 55.9993 47.5911 55.5965 47.474C55.2327 47.3698 55.0248 47.0182 55.1157 46.5755C55.2067 46.1589 55.3756 45.7682 55.4666 45.3646C55.4925 45.2214 55.4406 44.987 55.3366 44.8828C54.6739 44.2318 54.518 43.5026 54.7909 42.6042C55.9084 39.0885 56.9868 35.5599 58.0783 32.0443C58.1693 31.7708 58.2082 31.4714 58.2082 31.1849C58.2212 26.7969 58.2082 22.3958 58.2082 18.0078C58.2082 17.2917 58.1953 17.2786 57.4676 17.2786C57.2207 17.2786 56.9738 17.2917 56.74 17.2526C56.3371 17.1745 56.1163 16.901 56.1552 16.4844C56.1812 16.0937 56.4281 15.8464 56.8179 15.8333C57.2857 15.8073 57.7665 15.7943 58.2342 15.8464C59.0918 15.9505 59.6895 16.7318 59.6895 17.7083C59.6895 20.2734 59.6895 22.8516 59.6895 25.4167C59.6895 25.8333 59.6895 26.263 59.6895 26.8099C60.1443 26.1979 60.6381 25.7161 61.3138 25.7813C61.9375 25.8333 62.6001 25.9896 63.1589 26.276C64.0684 26.7578 64.2114 27.5651 63.8216 29.1406C64.7961 29.5573 65.3418 30.3646 65.6537 31.3672C65.6537 31.6927 65.6537 32.0182 65.6537 32.3437C65.6277 32.4219 65.5887 32.487 65.5627 32.5651C65.1729 33.8151 64.7831 35.0781 64.3933 36.3281C64.2763 36.6927 64.0165 36.9141 63.6396 36.888C63.2758 36.875 63.0159 36.6536 62.964 36.2891C62.938 36.0937 62.99 35.8724 63.0549 35.6771C63.4058 34.5312 63.7826 33.3854 64.1204 32.2266C64.3283 31.5234 63.9905 30.8594 63.3538 30.612C63.3148 30.7031 63.2758 30.7943 63.2498 30.8854C62.0934 34.5964 60.9369 38.2943 59.7935 42.0052C59.7285 42.2266 59.7025 42.487 59.7025 42.7214C59.7025 46.9661 59.7025 51.2109 59.6765 55.4687C59.6765 55.8464 59.5466 56.3151 59.2997 56.5755C56.9349 59.0625 54.544 61.5234 52.1532 63.9844C51.8283 64.3229 51.4385 64.5052 50.9447 64.4922C43.2914 64.4792 35.6511 64.4922 27.9977 64.4792C26.7763 64.4792 26.0747 63.776 26.0617 62.5391C26.0617 61.849 26.0617 61.1458 26.0617 60.3906C25.8148 60.3906 25.6329 60.3906 25.438 60.3906C23.346 60.3906 21.254 60.4036 19.149 60.3906C18.0835 60.3776 17.4078 59.7005 17.3688 58.6589C17.3559 58.3333 17.3688 58.0078 17.3688 57.6823C17.3688 55.5208 17.3688 53.3594 17.3688 51.1849C17.3688 50.9245 17.3818 50.6771 17.005 50.7161C16.4203 50.7812 16.0305 50.4818 15.7446 50C15.7706 49.7396 15.7706 49.5052 15.7576 49.2839ZM18.8631 50.7031C18.8631 51.4453 18.8631 52.1484 18.8631 52.8516C18.8631 54.6875 18.8631 56.5234 18.8631 58.3724C18.8631 58.5937 18.8112 58.8802 19.162 58.8802C20.1365 58.8932 21.0981 58.8802 22.1116 58.8802C22.1116 58.6458 22.1116 58.4766 22.1116 58.2943C22.1116 56.9141 22.1116 55.5339 22.1116 54.1406C22.1116 53.2422 22.5664 52.7865 23.4499 52.7734C24.6194 52.7604 25.7888 52.7734 26.9582 52.7734C27.9718 52.7734 28.4135 53.2031 28.4135 54.2318C28.4135 55.599 28.4135 56.9661 28.4135 58.3333C28.4135 58.5026 28.4135 58.6719 28.4135 58.8802C29.3621 58.8802 30.2457 58.8672 31.1163 58.8932C31.545 58.9062 31.675 58.75 31.675 58.3333C31.662 55.9245 31.662 53.5156 31.662 51.1068C31.662 50.9766 31.636 50.8594 31.623 50.7161C27.374 50.7031 23.1511 50.7031 18.8631 50.7031ZM25.321 41.8229C22.8132 44.3099 20.3704 46.7057 17.8886 49.1667C22.8392 49.1667 27.6859 49.1667 32.3377 49.1667C30.0508 46.7839 27.6989 44.3229 25.321 41.8229ZM26.9063 54.2839C25.7758 54.2839 24.6843 54.2839 23.6059 54.2839C23.6059 55.8333 23.6059 57.3307 23.6059 58.8542C24.7233 58.8542 25.8018 58.8542 26.9063 58.8542C26.9063 57.3177 26.9063 55.8203 26.9063 54.2839ZM51.9712 62.0312C53.8164 60.1302 55.5835 58.2943 57.4416 56.3802C55.7134 56.3802 54.1282 56.3932 52.543 56.3672C52.0492 56.3542 51.9323 56.5625 51.9453 57.0052C51.9582 58.5156 51.9453 60.026 51.9582 61.5365C51.9453 61.6667 51.9582 61.7969 51.9712 62.0312ZM59.9754 36.3672C60.0274 36.237 60.0664 36.1589 60.1053 36.0677C60.9239 33.4505 61.7425 30.8333 62.5482 28.2031C62.7171 27.6432 62.6131 27.474 61.9764 27.2786C61.3527 27.0833 61.1708 27.1615 60.9889 27.7474C60.4562 29.4531 59.9234 31.1589 59.3907 32.8646C59.0788 33.8672 58.767 34.8698 58.4551 35.8854C58.9749 36.0417 59.4427 36.1979 59.9754 36.3672ZM56.9998 40.4818C57.5586 40.651 58.0393 40.8073 58.5591 40.9635C58.8969 39.8828 59.2218 38.8542 59.5596 37.7734C59.0269 37.6042 58.5331 37.4479 58.0003 37.2917C57.6625 38.3724 57.3377 39.401 56.9998 40.4818ZM56.571 41.888C56.4281 42.3568 56.2592 42.7604 56.1812 43.1771C56.1552 43.3464 56.2592 43.6458 56.4021 43.737C56.636 43.8932 56.9349 43.9714 57.2207 43.9844C57.3637 43.9974 57.6105 43.8542 57.6755 43.7109C57.8574 43.2943 57.9744 42.8385 58.1173 42.3568C57.5716 42.2135 57.0908 42.0573 56.571 41.888Z" fill="white"></path><path d="M42.9016 21.4453C45.8901 21.4453 48.8787 21.4453 51.8673 21.4453C53.0757 21.4453 53.6734 22.0443 53.6734 23.2292C53.6734 24.1536 53.6864 25.0781 53.6734 26.0156C53.6604 26.9531 53.0887 27.5651 52.1531 27.6432C52.0752 27.6432 51.9972 27.6562 51.9062 27.6562C45.9031 27.6562 39.887 27.6562 33.8839 27.6562C33.637 27.6562 33.3901 27.6432 33.1562 27.5651C32.5325 27.3828 32.1167 26.7969 32.1037 26.0807C32.0907 25.0911 32.0907 24.1016 32.1037 23.099C32.1167 22.0573 32.7534 21.4453 33.7929 21.4453C36.8335 21.4453 39.874 21.4453 42.9016 21.4453ZM52.1921 22.9557C45.9811 22.9557 39.796 22.9557 33.611 22.9557C33.611 24.0365 33.611 25.0781 33.611 26.1458C39.822 26.1458 45.9941 26.1458 52.1921 26.1458C52.1921 25.0651 52.1921 24.0365 52.1921 22.9557Z" fill="white"></path><path d="M40.6407 15.7552C44.8117 15.7552 48.9827 15.7552 53.1537 15.7552C53.3096 15.7552 53.4785 15.7552 53.6345 15.7682C54.0113 15.8073 54.2322 16.0286 54.2712 16.3932C54.3101 16.7839 54.1412 17.0703 53.7644 17.1745C53.5435 17.2266 53.3096 17.2266 53.0887 17.2266C44.8247 17.2266 36.5607 17.2266 28.2966 17.2266C27.543 17.2266 27.543 17.2266 27.543 17.9818C27.543 20.9245 27.543 23.8672 27.543 26.8099C27.543 27.0052 27.543 27.2005 27.478 27.3828C27.3611 27.7344 27.0882 27.9036 26.7244 27.8646C26.3606 27.8255 26.1397 27.6042 26.0877 27.2396C26.0747 27.1094 26.0747 26.9792 26.0747 26.849C26.0747 23.8281 26.0747 20.7943 26.0747 17.7734C26.0747 16.4193 26.7504 15.7422 28.1147 15.7422C32.2857 15.7552 36.4567 15.7552 40.6407 15.7552Z" fill="white"></path><path d="M44.9417 50.0265C44.305 50.7035 43.6813 51.4327 43.0056 52.1098C42.304 52.8129 41.6932 52.6567 41.3814 51.7061C41.2645 51.3546 41.1735 51.003 41.0436 50.5473C40.8357 51.1072 40.6797 51.5629 40.5108 52.0056C40.3029 52.5395 39.9391 52.7478 39.5103 52.6046C39.0815 52.4483 38.9386 52.0577 39.1335 51.5108C39.5753 50.2738 40.03 49.0369 40.4718 47.7999C40.6148 47.4093 40.8357 47.1358 41.2774 47.1619C41.7192 47.2009 41.9011 47.5134 41.9791 47.9171C42.148 48.7374 42.3299 49.5577 42.5378 50.4952C43.1356 49.8051 43.6683 49.1931 44.201 48.5942C44.8118 47.891 45.1496 47.9171 45.7733 48.5942C46.2541 49.115 46.7868 49.5968 47.3325 50.0525C47.7483 50.4041 48.1901 50.378 48.6059 50.0265C48.9438 49.74 49.2816 49.4666 49.6324 49.2061C50.581 48.5421 51.3736 48.5811 52.2182 49.3754C52.8029 49.9223 53.4136 50.0395 54.1283 49.6749C54.5831 49.4535 54.9859 49.5577 55.1808 49.9353C55.3887 50.3259 55.2328 50.7296 54.778 50.99C53.6735 51.615 52.2962 51.4587 51.3216 50.5212C50.9708 50.1827 50.7109 50.1827 50.3601 50.4822C50.0612 50.7426 49.7494 50.977 49.4505 51.2113C48.554 51.9145 47.6054 51.9796 46.6569 51.3416C46.0592 50.9509 45.5134 50.4692 44.9417 50.0265Z" fill="white"></path><path d="M42.3819 31.888C45.4354 31.888 48.4889 31.888 51.5425 31.888C51.6984 31.888 51.8673 31.875 52.0232 31.901C52.439 31.9661 52.6729 32.2266 52.6729 32.6302C52.6729 33.0078 52.439 33.2682 52.0622 33.3463C51.9323 33.3724 51.8024 33.3594 51.6724 33.3594C45.4874 33.3594 39.3024 33.3594 33.1173 33.3594C32.9744 33.3594 32.8185 33.3724 32.6755 33.3333C32.3117 33.2292 32.0908 32.9818 32.1038 32.5911C32.1168 32.2005 32.3507 31.9661 32.7275 31.901C32.8834 31.875 33.0524 31.888 33.2083 31.888C36.2748 31.888 39.3283 31.888 42.3819 31.888Z" fill="white"></path><path d="M42.3817 37.6692C39.3022 37.6692 36.2097 37.6692 33.1302 37.6692C32.9093 37.6692 32.6234 37.6823 32.4805 37.5651C32.2986 37.4088 32.1166 37.1093 32.1426 36.888C32.1556 36.6666 32.3895 36.4192 32.5974 36.289C32.7533 36.1849 33.0002 36.2109 33.2081 36.2109C39.3282 36.2109 45.4482 36.2109 51.5683 36.2109C51.6592 36.2109 51.7632 36.2109 51.8541 36.2109C52.3349 36.2369 52.6598 36.5364 52.6728 36.9401C52.6857 37.3698 52.3479 37.6692 51.8282 37.6692C48.6837 37.6692 45.5262 37.6692 42.3817 37.6692Z" fill="white"></path><path d="M38.1328 40.247C39.822 40.247 41.5112 40.234 43.1874 40.26C43.4472 40.26 43.7851 40.3642 43.967 40.5465C44.3178 40.885 44.1229 41.497 43.6681 41.6533C43.4862 41.7184 43.2913 41.7184 43.0964 41.7184C39.783 41.7184 36.4826 41.7184 33.1692 41.7184C33.0912 41.7184 33.0132 41.7184 32.9223 41.7184C32.3895 41.6923 32.0907 41.4059 32.1037 40.9501C32.1167 40.5204 32.4025 40.247 32.9223 40.247C34.2866 40.234 35.651 40.247 37.0153 40.247C37.3921 40.247 37.769 40.247 38.1328 40.247Z" fill="white"></path></g><defs><linearGradient id="paint0_linear_1394_17096" x1="0.666748" y1="40" x2="80.6667" y2="40" gradientUnits="userSpaceOnUse"><stop stop-color="#A049F7"></stop><stop offset="1" stop-color="#806BFF"></stop></linearGradient><clipPath id="clip0_1394_17096"><rect width="50" height="50" fill="white" transform="translate(15.6667 15)"></rect></clipPath></defs></svg>