<svg xmlns="http://www.w3.org/2000/svg" width="1044" height="1024" viewBox="0 0 1044 1024"><title></title><path d="M15.516 702.134c23.418-23.734 46.836-48.001 70.52-71.467 33.796-33.602 67.859-66.935 101.655-100.268 1.064-1.065 2.395-2.4 3.459-3.465 15.966-16.534 15.966-16.534 35.393-3.734 0-4.268 0-7.733 0-11.201 0-62.401 0-124.533 0-186.933 0-3.201-0.266-6.666 0.266-9.867 0.799-7.733 5.057-12.265 12.773-13.066 7.451-1.067 13.040 2.4 15.434 9.601 1.331 4 1.597 8.532 1.597 12.8 0 72.266 0.266 144.531-0.266 217.065 0 9.601 2.394 16.534 9.581 23.466 43.375 42.134 86.485 85.068 129.595 127.468 7.184 7.201 10.912 15.2 6.92 25.334-3.994 9.867-11.977 13.867-22.088 13.599-2.662 0-5.323 0.268-9.048 0.535-0.266 3.734-0.532 7.199-0.532 10.666 0 48.267 0 96.535 0 145.068 0 29.065-12.773 41.865-42.045 41.865-23.685 0-47.102 0-71.85 0 0 16.534-0.266 32 0.266 47.466 0 2.134 3.992 4.534 6.386 5.868 1.864 1.067 4.524 0.266 6.918 0.266 148.226 0 296.716 0 444.94 0 3.193 0 6.388-0.266 10.646-0.532 0-4.268 0-7.733 0-11.201 0-37.067 0-73.867 0-110.934 0-28.533 13.572-42.134 42.312-42.134 34.861 0 69.72 0 104.847 0 3.459 0 7.186 0 11.444 0 0-66.132 0-131.465 0-196.266-7.186 1.067-14.371 1.866-21.289 3.467-2.13 0.532-4.79 3.199-5.589 5.333-2.927 7.733-4.79 15.999-7.717 23.732-3.195 9.069-10.379 12.8-18.629 10.402-7.451-2.134-11.708-9.335-9.847-18.401 1.864-8.532 5.323-16.534 7.186-24.799 0.53-2.933-0.532-7.733-2.662-9.867-13.572-13.332-16.765-28.266-11.176-46.666 22.886-72.002 44.972-144.267 67.326-216.267 1.864-5.601 2.66-11.733 2.66-17.601 0.266-89.866 0-180 0-269.867 0-14.667-0.264-14.933-15.167-14.933-5.057 0-10.113 0.267-14.901-0.534-8.251-1.6-12.773-7.2-11.977-15.733 0.532-8 5.589-13.067 13.572-13.333 9.581-0.533 19.427-0.8 29.006 0.267 17.564 2.133 29.805 18.133 29.805 38.133 0 52.533 0 105.333 0 157.867 0 8.532 0 17.332 0 28.533 9.314-12.534 19.427-22.401 33.266-21.066 12.773 1.065 26.343 4.266 37.788 10.131 18.627 9.867 21.555 26.401 13.572 58.667 19.958 8.534 31.134 25.068 37.521 45.601 0 6.666 0 13.332 0 19.999-0.532 1.602-1.331 2.935-1.864 4.534-7.983 25.6-15.966 51.466-23.949 77.066-2.396 7.467-7.717 12.001-15.436 11.467-7.451-0.266-12.773-4.801-13.836-12.265-0.532-4.002 0.532-8.534 1.862-12.534 7.186-23.468 14.903-46.934 21.821-70.666 4.258-14.402-2.66-28-15.7-33.067-0.799 1.866-1.597 3.734-2.13 5.599-23.683 76.001-47.368 151.734-70.785 227.734-1.331 4.534-1.864 9.867-1.864 14.668 0 86.931 0 173.865-0.532 261.065 0 7.735-2.66 17.334-7.717 22.667-48.431 50.934-97.397 101.333-146.36 151.734-6.654 6.932-14.637 10.666-24.75 10.4-156.74-0.266-313.213 0-469.955-0.266-25.014 0-39.383-14.402-39.649-39.733 0-14.133 0-28.535 0-44.001-5.057 0-8.782 0-12.773 0-42.845 0-85.689 0.266-128.799 0-21.821-0.266-35.659-14.133-36.457-35.465-0.266-6.668 0-13.335 0-20.001 0-44.268 0-88.533 0-133.067 0-5.333 0.266-10.4-7.451-9.601-11.975 1.333-19.958-4.798-25.813-14.666 0.532-5.333 0.532-10.134 0.266-14.666zM79.117 731.199c0 15.2 0 29.6 0 44.001 0 37.599 0 75.198 0 113.066 0 4.532-1.064 10.4 6.121 10.4 19.958 0.266 39.651 0 60.407 0 0-4.801 0-8.266 0-11.999 0-28.266 0-56.533 0-85.068 0-18.399 9.314-27.732 27.41-28 23.95-0.266 47.9 0 71.849 0 20.759 0 29.805 8.8 29.805 29.868 0 28 0 55.998 0 83.999 0 3.467 0 6.935 0 11.201 19.427 0 37.523-0.266 55.353 0.266 8.78 0.266 11.442-2.933 11.442-11.467-0.266-49.332-0.266-98.666-0.266-147.999 0-2.666-0.532-5.067-0.799-8.002-87.020-0.266-173.505-0.266-261.322-0.266zM211.374 549.333c-51.359 50.934-101.388 100-152.216 150.401 101.389 0 200.649 0 295.918 0-46.836-48.8-95.003-99.201-143.702-150.401zM243.841 804.534c-23.153 0-45.506 0-67.593 0 0 31.732 0 62.398 0 93.6 22.886 0 44.973 0 67.593 0 0-31.468 0-62.134 0-93.6zM757.17 963.199c37.79-38.932 73.98-76.532 112.034-115.732-35.394 0-67.858 0.266-100.323-0.266-10.113-0.266-12.507 4-12.241 13.066 0.264 30.933 0 61.866 0.264 92.801-0.264 2.666 0 5.333 0.266 10.131zM921.096 437.6c1.065-2.666 1.864-4.266 2.66-6.134 16.765-53.6 33.53-107.201 50.031-161.067 3.459-11.467 1.329-14.932-11.71-18.934-12.773-4-16.499-2.398-20.224 9.601-10.91 34.933-21.821 69.868-32.731 104.8-6.388 20.533-12.773 41.066-19.161 61.866 10.646 3.201 20.226 6.4 31.136 9.867zM860.156 521.867c11.444 3.465 21.289 6.666 31.934 9.865 6.918-22.133 13.572-43.198 20.49-65.333-10.91-3.465-21.023-6.666-31.934-9.865-6.918 22.133-13.57 43.198-20.49 65.333zM851.374 550.666c-2.927 9.601-6.386 17.867-7.983 26.401-0.532 3.467 1.597 9.599 4.524 11.467 4.79 3.199 10.912 4.801 16.765 5.067 2.929 0.266 7.983-2.666 9.314-5.601 3.725-8.532 6.121-17.867 9.048-27.732-11.176-2.935-21.023-6.134-31.668-9.601z"></path><path d="M571.425 132c61.204 0 122.411 0 183.618 0 24.748 0 36.989 12.267 36.989 36.533 0 18.933 0.266 37.866 0 57.066s-11.975 31.734-31.136 33.333c-1.595 0-3.193 0.266-5.057 0.266-122.943 0-246.153 0-369.097 0-5.057 0-10.113-0.266-14.903-1.866-12.773-3.734-21.289-15.733-21.555-30.401-0.266-20.267-0.266-40.533 0-61.066 0.266-21.333 13.306-33.867 34.595-33.867 62.271 0 124.541 0 186.546 0zM761.694 162.933c-127.201 0-253.872 0-380.541 0 0 22.133 0 43.466 0 65.333 127.201 0 253.606 0 380.541 0 0-22.133 0-43.199 0-65.333z"></path><path d="M525.122 15.467c85.422 0 170.844 0 256.266 0 3.193 0 6.652 0 9.847 0.267 7.717 0.8 12.241 5.333 13.040 12.8 0.797 8-2.662 13.867-10.379 16-4.524 1.067-9.314 1.067-13.838 1.067-169.247 0-338.493 0-507.742 0-15.434 0-15.434 0-15.434 15.467 0 60.267 0 120.533 0 180.8 0 4 0 7.999-1.331 11.733-2.394 7.201-7.983 10.666-15.434 9.867-7.451-0.801-11.975-5.333-13.040-12.8-0.266-2.666-0.266-5.333-0.266-7.999 0-61.867 0-124.001 0-185.867 0-27.733 13.838-41.6 41.779-41.6 85.422 0.267 170.844 0.267 256.532 0.267z"></path><path d="M613.206 717.343c-13.040 13.865-25.813 28.799-39.651 42.666-14.369 14.399-26.878 11.201-33.264-8.268-2.394-7.199-4.258-14.399-6.918-23.732-4.258 11.467-7.453 20.799-10.912 29.866-4.258 10.934-11.708 15.2-20.49 12.268-8.782-3.201-11.708-11.201-7.717-22.401 9.048-25.334 18.36-50.665 27.408-75.999 2.929-7.999 7.453-13.601 16.499-13.066 9.048 0.799 12.773 7.199 14.371 15.466 3.459 16.8 7.184 33.599 11.442 52.799 12.243-14.133 23.153-26.667 34.062-38.932 12.509-14.402 19.427-13.867 32.201 0 9.847 10.666 20.756 20.533 31.932 29.866 8.516 7.201 17.564 6.666 26.079-0.532 6.92-5.868 13.838-11.467 21.023-16.802 19.427-13.599 35.66-12.8 52.957 3.467 11.975 11.201 24.482 13.601 39.119 6.134 9.314-4.534 17.564-2.4 21.555 5.333 4.258 7.999 1.065 16.267-8.249 21.6-22.62 12.8-50.827 9.599-70.787-9.601-7.184-6.932-12.507-6.932-19.692-0.799-6.121 5.333-12.507 10.134-18.629 14.932-18.36 14.402-37.788 15.735-57.213 2.669-12.241-8.002-23.419-17.867-35.127-26.933z"></path><path d="M560.781 345.866c62.536 0 125.071 0 187.609 0 3.193 0 6.652-0.266 9.845 0.266 8.516 1.333 13.306 6.668 13.306 14.934 0 7.733-4.79 13.066-12.507 14.666-2.66 0.535-5.321 0.268-7.983 0.268-126.669 0-253.338 0-380.008 0-2.927 0-6.119 0.266-9.048-0.535-7.451-2.132-11.975-7.199-11.708-15.2 0.266-7.999 5.057-12.8 12.773-14.133 3.193-0.532 6.654-0.266 9.847-0.266 62.802 0 125.338 0 187.875 0z"></path><path d="M560.777 464.265c-63.068 0-126.403 0-189.471 0-4.524 0-10.379 0.268-13.306-2.132-3.725-3.201-7.453-9.335-6.92-13.867 0.266-4.534 5.057-9.601 9.314-12.268 3.193-2.132 8.249-1.599 12.507-1.599 125.34 0 250.677 0 376.017 0 1.862 0 3.992 0 5.853 0 9.847 0.532 16.501 6.666 16.767 14.934 0.264 8.8-6.654 14.932-17.297 14.932-64.399 0-129.065 0-193.464 0z"></path><path d="M473.76 517.059c34.595 0 69.19-0.266 103.518 0.266 5.321 0 12.241 2.134 15.966 5.868 7.184 6.932 3.193 19.466-6.121 22.667-3.725 1.333-7.717 1.333-11.708 1.333-67.858 0-135.451 0-203.309 0-1.597 0-3.195 0-5.057 0-10.912-0.535-17.031-6.4-16.765-15.735 0.266-8.8 6.119-14.399 16.765-14.399 27.941-0.266 55.884 0 83.825 0 7.717 0 15.436 0 22.886 0z"></path></svg>