<svg xmlns="http://www.w3.org/2000/svg" width="81" height="80" viewBox="0 0 81 80" fill="none"><rect x="0.666748" width="80" height="80" rx="10" fill="url(#paint0_linear_1394_17098)"></rect><path d="M15.6667 31.601C15.7579 31.3276 15.836 31.0413 15.9531 30.7809C16.5259 29.375 17.8407 28.5029 19.4418 28.5029C21.9281 28.4898 24.4145 28.5029 26.9138 28.5029C31.8865 28.5029 36.8722 28.5029 41.8448 28.5029C42.0401 28.5029 42.2354 28.5029 42.4176 28.5549C42.7691 28.6591 42.9513 28.9194 42.9123 29.2969C42.8862 29.6744 42.6649 29.8957 42.3004 29.9478C42.1312 29.9738 41.949 29.9608 41.7667 29.9608C34.3989 29.9608 27.031 29.9608 19.6631 29.9608C17.9969 29.9608 17.1247 30.82 17.1247 32.4732C17.1247 40.0754 17.1247 47.6645 17.1247 55.2667C17.1247 56.8939 17.9969 57.7531 19.6371 57.7531C31.6912 57.7531 43.7454 57.7531 55.7995 57.7531C57.4658 57.7531 58.3249 56.8939 58.3249 55.2277C58.3249 50.8148 58.3249 46.4149 58.3249 42.0019C58.3249 41.8457 58.3119 41.6765 58.3379 41.5203C58.403 41.1428 58.6503 40.9085 59.0409 40.8955C59.4574 40.8824 59.7048 41.1298 59.7829 41.5333C59.8089 41.6765 59.7959 41.8197 59.7959 41.9759C59.7959 46.4149 59.7959 50.8538 59.7959 55.3058C59.7959 57.701 58.2598 59.237 55.8516 59.237C43.8105 59.237 31.7693 59.237 19.7282 59.237C17.5543 59.237 16.3176 58.3128 15.7188 56.204C15.7058 56.1779 15.6798 56.1519 15.6667 56.1259C15.6798 47.9379 15.6798 39.7629 15.6667 31.601Z" fill="white"></path><path d="M65.6667 30.6245C65.5365 31.2233 65.4454 31.8351 65.2892 32.4209C63.2064 40.0491 53.8338 42.8218 47.9369 37.5498C47.7547 37.3936 47.4553 37.2764 47.2079 37.2764C44.8778 37.2504 42.5607 37.2634 40.2306 37.2634C40.0744 37.2634 39.9051 37.2764 39.7489 37.2504C39.3844 37.1983 39.1632 36.964 39.1241 36.5995C39.085 36.235 39.2673 35.9617 39.6188 35.8575C39.788 35.8054 39.9702 35.8054 40.1525 35.8054C42.027 35.8054 43.8885 35.8054 45.763 35.8054C45.9322 35.8054 46.1145 35.8054 46.3488 35.8054C46.0754 35.3368 45.8541 34.9072 45.5808 34.5167C45.5026 34.4126 45.2814 34.3475 45.1251 34.3475C43.537 34.3345 41.9359 34.3345 40.3477 34.3345C40.2176 34.3345 40.0874 34.3345 39.9572 34.3345C39.4365 34.3215 39.1111 34.0351 39.1111 33.5925C39.1241 33.1499 39.4365 32.8765 39.9833 32.8635C41.298 32.8505 42.6128 32.8635 43.9406 32.8635C44.253 32.8635 44.5524 32.8635 44.8518 32.8635C44.7216 32.0694 44.5394 31.3274 44.4873 30.5724C44.0577 25.1181 47.5204 20.4449 52.8445 19.2473C58.7935 17.9065 64.8336 22.1762 65.5755 28.2423C65.5886 28.3855 65.6406 28.5287 65.6667 28.6589C65.6667 29.3228 65.6667 29.9736 65.6667 30.6245ZM45.8802 29.9476C46.1405 35.1155 50.3972 39.0468 55.448 38.7995C60.5508 38.5521 64.443 34.2434 64.1957 29.1405C63.9614 24.1939 59.5875 20.2366 54.6409 20.4839C49.5901 20.7443 45.6198 25.04 45.8802 29.9476Z" fill="white"></path><path d="M20.0667 40.8822C20.0667 39.4633 20.0667 38.0574 20.0667 36.6385C20.0797 34.4646 21.6548 32.8765 23.8287 32.8765C26.6795 32.8634 29.5173 32.8634 32.3681 32.8765C34.529 32.8895 36.1172 34.4125 36.1432 36.5734C36.1822 39.4893 36.1822 42.3922 36.1432 45.3081C36.1172 47.3779 34.477 48.953 32.4072 48.953C29.5564 48.966 26.7186 48.966 23.8677 48.953C21.6418 48.94 20.0797 47.3649 20.0667 45.1259C20.0667 43.72 20.0667 42.3011 20.0667 40.8822ZM33.8001 47.0264C34.3989 46.5708 34.6722 45.998 34.6722 45.3211C34.6852 42.3922 34.6983 39.4633 34.6722 36.5344C34.6592 35.2977 33.748 34.3735 32.5504 34.3605C29.5954 34.3344 26.6274 34.3344 23.6725 34.3605C22.5139 34.3735 21.5637 35.2977 21.5506 36.4302C21.5246 39.4242 21.5376 42.4182 21.5506 45.4123C21.5506 46.1022 21.9151 46.688 22.4488 46.9744C22.9956 45.4123 24.024 44.2667 25.4819 43.4987C23.0346 41.3118 23.7115 38.3959 25.1304 37.042C26.7837 35.4539 29.3741 35.4149 31.0404 37.003C31.8474 37.758 32.29 38.7083 32.3681 39.8017C32.4723 41.2987 31.8735 42.5094 30.741 43.4727C32.6285 44.7484 33.0581 45.243 33.8001 47.0264ZM25.3127 40.0751C25.3127 41.6242 26.5493 42.8739 28.0854 42.8869C29.6084 42.8999 30.8972 41.6372 30.9102 40.1142C30.9232 38.5521 29.6475 37.2764 28.0984 37.2764C26.5624 37.2764 25.3127 38.526 25.3127 40.0751ZM23.9068 47.456C26.7186 47.456 29.5303 47.456 32.3421 47.456C31.8084 45.5034 29.8037 44.2016 27.6298 44.3709C25.9245 44.5141 24.05 46.0631 23.9068 47.456Z" fill="white"></path><path d="M37.7314 50.4242C43.2247 50.4242 48.7311 50.4242 54.2245 50.4242C54.3807 50.4242 54.5499 50.4111 54.7061 50.4372C55.1227 50.4762 55.37 50.7236 55.383 51.1271C55.396 51.5176 55.1748 51.7649 54.7972 51.8561C54.641 51.8951 54.4718 51.8821 54.3156 51.8821C43.2508 51.8821 32.1859 51.8821 21.1341 51.8821C20.9779 51.8821 20.8087 51.8951 20.6525 51.8561C20.275 51.7649 20.0537 51.5176 20.0667 51.1271C20.0927 50.7236 20.3271 50.4762 20.7436 50.4372C20.8998 50.4242 21.069 50.4242 21.2253 50.4242C26.7447 50.4242 32.238 50.4242 37.7314 50.4242Z" fill="white"></path><path d="M37.7573 54.8239C32.2639 54.8239 26.7575 54.8239 21.2642 54.8239C21.108 54.8239 20.9387 54.8369 20.7825 54.8109C20.353 54.7719 20.0796 54.4725 20.0796 54.0819C20.0796 53.6784 20.379 53.379 20.8346 53.353C20.9778 53.3399 21.121 53.353 21.2772 53.353C32.2639 53.353 43.2376 53.353 54.2243 53.353C54.3675 53.353 54.5237 53.353 54.6669 53.353C55.1225 53.379 55.422 53.6654 55.422 54.0819C55.422 54.4725 55.1356 54.7719 54.706 54.8109C54.5498 54.8239 54.3806 54.8239 54.2243 54.8239C48.731 54.8239 43.2376 54.8239 37.7573 54.8239Z" fill="white"></path><path d="M47.2862 44.5662C49.6814 44.5662 52.0636 44.5532 54.4588 44.5793C54.7192 44.5793 55.0576 44.6834 55.2399 44.8656C55.6044 45.2171 55.3961 45.842 54.8884 45.9851C54.7061 46.0372 54.4979 46.0372 54.3156 46.0372C49.6163 46.0372 44.917 46.0372 40.2177 46.0372C40.1396 46.0372 40.0485 46.0372 39.9704 46.0372C39.4497 46.0112 39.1243 45.7378 39.1243 45.2952C39.1243 44.8656 39.4497 44.5793 39.9834 44.5793C42.4047 44.5662 44.8519 44.5662 47.2862 44.5662Z" fill="white"></path><path d="M47.2472 48.9662C44.878 48.9662 42.4958 48.9662 40.1266 48.9662C39.9314 48.9662 39.671 48.9922 39.5669 48.875C39.3716 48.6798 39.1243 48.3804 39.1503 48.1591C39.1764 47.9248 39.4758 47.7035 39.7101 47.5342C39.8142 47.4561 40.0225 47.5082 40.1917 47.5082C44.904 47.5082 49.6294 47.5082 54.3417 47.5082C54.4719 47.5082 54.602 47.4952 54.7322 47.5212C55.1488 47.5603 55.3831 47.8076 55.4091 48.2242C55.4221 48.6147 55.2008 48.862 54.8233 48.9531C54.6671 48.9922 54.4979 48.9792 54.3417 48.9792C51.9725 48.9662 49.6164 48.9662 47.2472 48.9662Z" fill="white"></path><path d="M53.4304 33.7616C53.0659 33.5793 52.6493 33.4491 52.3499 33.1888C51.673 32.59 51.0482 31.9261 50.4103 31.2752C50.0588 30.9238 50.0458 30.4942 50.3452 30.1948C50.6446 29.8824 51.0612 29.8954 51.4257 30.2469C52.0115 30.8066 52.5842 31.3794 53.144 31.9652C53.3913 32.2385 53.5605 32.2125 53.8079 31.9652C55.37 30.377 56.9451 28.8019 58.5332 27.2398C58.7154 27.0576 59.0018 26.9014 59.2361 26.9014C59.4444 26.9014 59.7699 27.1096 59.8219 27.2919C59.9 27.5262 59.8349 27.8777 59.6917 28.086C59.4574 28.4244 59.119 28.6978 58.8196 28.9972C57.4658 30.351 56.112 31.7048 54.7581 33.0716C54.4067 33.4231 54.0031 33.6704 53.4304 33.7616Z" fill="white"></path><defs><linearGradient id="paint0_linear_1394_17098" x1="0.666748" y1="40" x2="80.6667" y2="40" gradientUnits="userSpaceOnUse"><stop stop-color="#A049F7"></stop><stop offset="1" stop-color="#806BFF"></stop></linearGradient></defs></svg>