<svg xmlns="http://www.w3.org/2000/svg" width="1044" height="1024" viewBox="0 0 1044 1024"><title></title><path d="M13.655 339.988c1.866-5.599 3.466-11.463 5.865-16.796 11.73-28.793 38.657-46.653 71.448-46.653 50.92-0.268 101.84 0 153.026 0 101.841 0 203.948 0 305.787 0 4 0 7.999 0 11.731 1.065 7.199 2.134 10.93 7.465 10.131 15.196-0.535 7.731-5.067 12.263-12.532 13.33-3.465 0.532-7.197 0.266-10.93 0.266-150.893 0-301.787 0-452.682 0-34.124 0-51.986 17.596-51.986 51.454 0 155.693 0 311.118 0 466.811 0 33.325 17.862 50.921 51.453 50.921 246.869 0 493.739 0 740.607 0 34.126 0 51.72-17.596 51.72-51.72 0-90.376 0-180.486 0-270.864 0-3.199-0.266-6.664 0.266-9.863 1.333-7.731 6.398-12.53 14.397-12.796 8.53-0.268 13.597 4.798 15.196 13.062 0.532 2.933 0.266 5.865 0.266 9.064 0 90.911 0 181.819 0 272.996 0 49.054-31.459 80.511-80.779 80.511-246.602 0-493.206 0-739.807 0-44.522 0-69.848-18.928-82.112-62.116-0.267-0.535-0.8-1.067-1.066-1.599 0.267-167.69 0.267-335.114 0-502.27z"></path><path d="M1037.654 319.99c-2.666 12.263-4.532 24.793-7.731 36.79-42.656 156.226-234.607 213.010-355.375 105.040-3.731-3.199-9.863-5.599-14.93-5.599-47.72-0.532-95.175-0.266-142.895-0.266-3.199 0-6.666 0.266-9.865-0.266-7.465-1.067-11.995-5.865-12.796-13.33s2.933-13.062 10.131-15.196c3.465-1.067 7.197-1.067 10.93-1.067 38.39 0 76.513 0 114.903 0 3.465 0 7.199 0 11.997 0-5.599-9.597-10.131-18.395-15.729-26.393-1.602-2.132-6.132-3.465-9.333-3.465-32.524-0.266-65.315-0.266-97.841-0.266-2.664 0-5.331 0-7.997 0-10.664-0.266-17.328-6.132-17.328-15.196 0.266-9.064 6.664-14.664 17.863-14.93 26.925-0.266 53.852 0 81.046 0 6.398 0 12.53 0 18.661 0-2.666-16.263-6.398-31.459-7.465-46.922-8.798-111.704 62.118-207.412 171.155-231.939 121.836-27.46 245.537 59.984 260.731 184.218 0.268 2.933 1.333 5.865 1.868 8.532 0 13.597 0 26.925 0 40.255zM632.426 306.127c5.331 105.839 92.508 186.352 195.949 181.287 104.505-5.067 184.218-93.309 179.153-197.816-4.798-101.307-94.376-182.352-195.682-177.287-103.44 5.332-184.752 93.309-179.419 193.816z"></path><path d="M103.765 530.067c0-29.059 0-57.852 0-86.911 0.267-44.521 32.525-77.046 77.047-77.046 58.385-0.268 116.503-0.268 174.887 0 44.255 0.266 76.782 31.457 77.314 75.713 0.799 59.718 0.799 119.169 0 178.887-0.532 42.39-34.124 74.648-76.513 74.648-58.384 0.266-116.503 0.266-174.888 0-45.588-0.266-77.58-32.524-77.846-78.379 0-28.793 0-57.852 0-86.911zM385.026 655.901c12.263-9.331 17.861-21.062 17.861-34.925 0.266-59.984 0.535-119.968 0-179.952-0.266-25.328-18.928-44.255-43.454-44.521-60.518-0.535-121.303-0.535-181.82 0-23.727 0.266-43.189 19.194-43.455 42.387-0.533 61.317-0.267 122.634 0 183.953 0 14.129 7.465 26.126 18.395 31.992 11.197-31.992 32.258-55.454 62.117-71.182-50.12-44.788-36.257-104.505-7.199-132.233 33.86-32.524 86.911-33.323 121.037-0.799 16.527 15.462 25.592 34.925 27.191 57.317 2.134 30.659-10.129 55.454-33.323 75.182 38.656 26.126 47.454 36.256 62.65 72.78zM211.204 513.538c0 31.726 25.326 57.319 56.785 57.586 31.191 0.266 57.586-25.594 57.852-56.785 0.266-31.992-25.86-58.118-57.586-58.118-31.457 0-57.051 25.592-57.051 57.317zM182.411 664.699c57.586 0 115.169 0 172.755 0-10.93-39.989-51.986-66.65-96.508-63.183-34.925 2.933-73.315 34.656-76.247 63.183z"></path><path d="M465.539 725.488c112.503 0 225.274 0 337.779 0 3.199 0 6.664-0.268 9.863 0.266 8.532 0.799 13.597 5.865 13.863 14.129 0.266 7.997-4.264 13.062-11.997 14.93-3.199 0.799-6.664 0.532-9.863 0.532-226.607 0-453.216 0-679.556 0-3.199 0-6.665 0.266-9.864-0.532-7.731-1.868-12.263-6.932-11.997-14.93 0.533-8.264 5.332-13.33 13.863-14.129 3.199-0.266 6.665-0.266 9.864-0.266 113.038 0 225.541 0 338.046 0z"></path><path d="M466.070 815.593c-112.505 0-225.276 0-337.779 0-3.199 0-6.665 0.266-9.864-0.266-8.798-0.799-14.396-6.93-14.396-14.93 0-8.264 6.132-14.395 15.463-14.928 2.933-0.268 5.865 0 9.064 0 225.008 0 449.749 0 674.757 0 2.933 0 6.132 0 9.064 0 9.331 0.532 15.464 6.398 15.464 14.928 0 7.999-5.865 14.131-14.664 14.93-3.199 0.266-6.664 0.266-9.865 0.266-112.503 0-225.008 0-337.244 0z"></path><path d="M661.221 605.516c49.054 0 97.841-0.266 146.895 0.268 5.333 0 12.263 2.132 15.997 5.863 7.465 7.199 3.199 19.997-7.199 22.927-3.734 1.067-7.997 1.067-11.731 1.067-96.242 0-192.483 0-288.725 0-1.599 0-3.465 0-5.065 0-10.664-0.532-17.328-6.132-17.328-15.196 0-8.798 6.664-14.662 17.594-14.662 49.588-0.268 99.707-0.268 149.561-0.268z"></path><path d="M660.423 695.628c-48.521 0-97.309 0-145.83 0-3.998 0-9.331 0.532-11.463-1.868-4-3.998-9.064-10.129-8.532-14.662 0.535-4.798 6.666-9.331 11.465-12.798 2.132-1.599 6.398-0.532 9.863-0.532 96.508 0 193.284 0 289.792 0 2.666 0 5.331-0.266 7.997 0.266 8.532 0.801 13.33 5.865 13.863 14.397 0.266 7.997-4.266 13.062-11.997 14.928-3.199 0.801-6.664 0.535-9.863 0.535-48.521-0.266-96.774-0.266-145.295-0.266z"></path><path d="M787.055 384.238c-7.465-3.734-15.997-6.4-22.129-11.731-13.863-12.263-26.659-25.86-39.723-39.191-7.199-7.197-7.465-15.995-1.333-22.127 6.132-6.398 14.664-6.132 22.129 1.067 11.997 11.463 23.726 23.194 35.191 35.191 5.065 5.597 8.53 5.065 13.597 0 31.992-32.526 64.25-64.784 96.774-96.776 3.731-3.731 9.597-6.93 14.395-6.93 4.266 0 10.932 4.264 11.997 7.997 1.599 4.798 0.266 11.997-2.666 16.263-4.798 6.93-11.729 12.53-17.861 18.661-27.726 27.726-55.452 55.452-83.18 83.444-7.197 7.199-15.462 12.263-27.191 14.131z"></path></svg>