<svg xmlns="http://www.w3.org/2000/svg" xmlns:xlink="http://www.w3.org/1999/xlink" id="eu1ahzq5cOg1" viewBox="0 0 375 812"><style><![CDATA[#eu1ahzq5cOg9_to {animation: eu1ahzq5cOg9_to__to 6000ms linear infinite normal forwards}@keyframes eu1ahzq5cOg9_to__to { 0% {transform: translate(133.5px,598px)} 6.666667% {transform: translate(170px,598px)} 21.666667% {transform: translate(170px,598px)} 30% {transform: translate(133.5px,598px)} 100% {transform: translate(133.5px,598px)}} #eu1ahzq5cOg29_to {animation: eu1ahzq5cOg29_to__to 6000ms linear infinite normal forwards}@keyframes eu1ahzq5cOg29_to__to { 0% {transform: translate(141.5px,670px)} 31.666667% {transform: translate(141.5px,670px)} 40% {transform: translate(180px,670px)} 55% {transform: translate(180px,670px)} 63.333333% {transform: translate(141.5px,670px)} 100% {transform: translate(141.5px,670px)}} #eu1ahzq5cOg49_to {animation: eu1ahzq5cOg49_to__to 6000ms linear infinite normal forwards}@keyframes eu1ahzq5cOg49_to__to { 0% {transform: translate(177.5px,742px)} 65% {transform: translate(177.5px,742px)} 73.333333% {transform: translate(210px,742px)} 91.666667% {transform: translate(210px,742px)} 100% {transform: translate(177.5px,742px)}} #eu1ahzq5cOg83_to {animation: eu1ahzq5cOg83_to__to 6000ms linear infinite normal forwards}@keyframes eu1ahzq5cOg83_to__to { 0% {transform: translate(187.5px,215px)} 21.666667% {transform: translate(187.5px,215px)} 30% {transform: translate(187.5px,209px)} 71.666667% {transform: translate(187.5px,209px)} 80% {transform: translate(187.5px,215px)} 93.333333% {transform: translate(187.5px,215px)} 100% {transform: translate(187.5px,215px)}}]]></style><defs><radialGradient id="eu1ahzq5cOg72-fill" cx="0" cy="0" r="1" spreadMethod="pad" gradientUnits="userSpaceOnUse" gradientTransform="matrix(79 32.0001 -19.568 48.3084 156 43)"><stop id="eu1ahzq5cOg72-fill-0" offset="0%" stop-color="#32d74b"></stop><stop id="eu1ahzq5cOg72-fill-1" offset="100%" stop-color="#ffd60a"></stop></radialGradient><radialGradient id="eu1ahzq5cOg73-fill" cx="0" cy="0" r="1" spreadMethod="pad" gradientUnits="userSpaceOnUse" gradientTransform="matrix(0 50 -50 0 0 0)"><stop id="eu1ahzq5cOg73-fill-0" offset="0%" stop-color="#ffd60a"></stop><stop id="eu1ahzq5cOg73-fill-1" offset="100%" stop-color="rgba(255,214,10,0)"></stop></radialGradient><radialGradient id="eu1ahzq5cOg85-fill" cx="0" cy="0" r="1" spreadMethod="pad" gradientUnits="userSpaceOnUse" gradientTransform="matrix(106.5 43 -26.2945 65.1246 155.5 43)"><stop id="eu1ahzq5cOg85-fill-0" offset="0%" stop-color="#998e70"></stop><stop id="eu1ahzq5cOg85-fill-1" offset="100%" stop-color="#beb7a4"></stop></radialGradient><radialGradient id="eu1ahzq5cOg86-fill" cx="0" cy="0" r="1" spreadMethod="pad" gradientUnits="userSpaceOnUse" gradientTransform="matrix(0 50 -50 0 0 0)"><stop id="eu1ahzq5cOg86-fill-0" offset="0%" stop-color="#ff9f0a"></stop><stop id="eu1ahzq5cOg86-fill-1" offset="100%" stop-color="rgba(255,214,10,0)"></stop></radialGradient><radialGradient id="eu1ahzq5cOg87-fill" cx="0" cy="0" r="1" spreadMethod="pad" gradientUnits="userSpaceOnUse" gradientTransform="matrix(0 50 -50 0 0 0)"><stop id="eu1ahzq5cOg87-fill-0" offset="0%" stop-color="#ff9f0a"></stop><stop id="eu1ahzq5cOg87-fill-1" offset="100%" stop-color="rgba(255,214,10,0)"></stop></radialGradient><radialGradient id="eu1ahzq5cOg88-fill" cx="0" cy="0" r="1" spreadMethod="pad" gradientUnits="userSpaceOnUse" gradientTransform="matrix(0 85 -85 0 0 0)"><stop id="eu1ahzq5cOg88-fill-0" offset="0%" stop-color="#beb7a4"></stop><stop id="eu1ahzq5cOg88-fill-1" offset="100%" stop-color="rgba(190,183,164,0)"></stop></radialGradient><radialGradient id="eu1ahzq5cOg96-fill" cx="0" cy="0" r="1" spreadMethod="pad" gradientUnits="userSpaceOnUse" gradientTransform="matrix(106.5 43 -26.2945 65.1246 155.5 43)"><stop id="eu1ahzq5cOg96-fill-0" offset="0%" stop-color="#bf5af2"></stop><stop id="eu1ahzq5cOg96-fill-1" offset="100%" stop-color="#5e5ce6"></stop></radialGradient><radialGradient id="eu1ahzq5cOg97-fill" cx="0" cy="0" r="1" spreadMethod="pad" gradientUnits="userSpaceOnUse" gradientTransform="matrix(0 50 -50 0 0 0)"><stop id="eu1ahzq5cOg97-fill-0" offset="0%" stop-color="#ffd60a"></stop><stop id="eu1ahzq5cOg97-fill-1" offset="100%" stop-color="rgba(255,214,10,0)"></stop></radialGradient><radialGradient id="eu1ahzq5cOg103-fill" cx="0" cy="0" r="1" spreadMethod="pad" gradientUnits="userSpaceOnUse" gradientTransform="matrix(106.5 43 -26.2945 65.1246 155.5 43)"><stop id="eu1ahzq5cOg103-fill-0" offset="0%" stop-color="#ff375f"></stop><stop id="eu1ahzq5cOg103-fill-1" offset="100%" stop-color="#ff9f0a"></stop></radialGradient></defs><rect width="375" height="812" rx="30" ry="30" fill="#f5f5f5"></rect><rect width="375" height="60" rx="30" ry="30" transform="translate(0 752)" fill="#fff"></rect><path d="M0,510c0-13.254834,10.745166-24,24-24h327c13.254834,0,24,10.745166,24,24v52h-375v-52Z" fill="#fff"></path><rect width="48" height="44" rx="12" ry="12" transform="translate(311 502)" fill="#f5f5f5"></rect><path d="M345.1,533l-5.6-5.6c2.864747-3.400449,2.54099-8.454404-.734227-11.461526s-8.33838-2.899138-11.482408.244891-3.252013,8.207191-.244891,11.482408s8.061077,3.598974,11.461526.734227l5.6,5.7l1-1Zm-18.7-10.9c0-3.727922,3.022078-6.75,6.75-6.75s6.75,3.022078,6.75,6.75-3.022078,6.75-6.75,6.75-6.75-3.022078-6.75-6.75Z"></path><rect width="375" height="72" rx="0" ry="0" transform="translate(0 562)" fill="#fff"></rect><path d="M40,519.5l7.5,7.5-1,1-6.5-6.4-6.5,6.5-1-1.1l7.5-7.5ZM91.6,517v14h-2.8v-9l-3.7,9h-2.2l-3.7-9v9h-2.8v-14h3.2L84,527.4L88.4,517h3.2Zm13.4,3l-7,16.1h-3l2.4-5.5L93,519.8h3.1l2.9,7.8l2.9-7.8h3Zm5.5,5.5c0-1.2.3-2.2.7-3c.46028-.845264,1.154736-1.53972,2-2c.8-.5,1.7-.8,2.8-.8c1.4,0,2.5.4,3.4,1c.941695.750607,1.58085,1.815866,1.8,3h-3c-.2-.5-.4-.9-.8-1.2-.4-.2-.9-.4-1.4-.4-.8,0-1.4.3-2,.9-.4.6-.6,1.4-.6,2.5c0,1,.2,1.8.7,2.4s1,.9,1.9.9c1.1,0,1.9-.5,2.2-1.5h3c-.3,1.2-.9,2.1-1.8,2.8s-2,1-3.4,1c-1,0-2-.2-2.8-.6-.841895-.464772-1.535228-1.158105-2-2-.4-.9-.7-1.9-.7-3Zm17.7,5.7c-1,0-2-.3-2.9-.7-.838653-.469069-1.530931-1.161347-2-2-.5-1-.7-2-.7-3s.2-2.2.7-3c.5-1,1.2-1.6,2-2c1-.5,2-.8,3-.8s2,.3,2.9.8c.845264.46028,1.53972,1.154736,2,2c.5.8.8,1.8.8,3c.028456,1.537799-.576835,3.01961-1.673825,4.097687s-2.589103,1.657507-4.126175,1.602313Zm0-2.5c.5,0,1,0,1.4-.3.5-.3.8-.6,1-1.1.4-.5.5-1.1.5-1.8c0-1-.3-1.9-.8-2.5-.6-.5-1.3-.8-2-.8s-1.5.3-2,.8c-.6.6-.9,1.4-.9,2.5s.3,1.8.8,2.4s1.2.8,2,.8Zm14-9c1.3,0,2.4.5,3.2,1.3s1.2,2,1.2,3.5v6.5h-2.8v-6.1c0-.9-.2-1.6-.7-2-.4-.5-1-.8-1.8-.8-.7,0-1.4.3-1.8.8-.5.4-.7,1.1-.7,2v6.1h-2.8v-11h2.8v1.3c.4-.5.9-.9,1.4-1.1.6-.3,1.3-.4,2-.4Zm10.3,2.5v5.4c0,.4.1.6.3.8s.5.2.9.2h1.3v2.4h-1.8c-2.3,0-3.5-1.1-3.5-3.4v-5.4h-1.3v-2.2h1.3v-2.7h2.8v2.7h2.5v2.3h-2.5Zm3.8,3.2c0-1.1.2-2,.6-3c.433256-.831646,1.09165-1.524693,1.9-2c.7-.4,1.6-.7,2.5-.7c1.451488-.031999,2.829248.638263,3.7,1.8v-1.6h2.8v11.1h-2.8v-1.6c-.4.5-.9,1-1.5,1.3s-1.3.5-2.2.5c-1,0-1.8-.3-2.5-.7-.805034-.479469-1.462418-1.171452-1.9-2-.4-1-.6-2-.6-3Zm8.7,0c0-.6-.1-1.2-.4-1.7s-.6-.8-1-1.1c-.5-.3-1-.4-1.5-.4s-1,.1-1.5.4-.8.6-1,1.1c-.3.5-.5,1-.5,1.7s.2,1.3.4,1.8c.3.5.7.9,1.1,1.1.5.3,1,.4,1.5.4s1-.1,1.4-.4c.444757-.235767.823038-.579659,1.1-1c.3-.6.4-1.2.4-1.8Zm4.8,0c0-1,.3-2,.7-3c.46028-.845264,1.154736-1.53972,2-2c.8-.4,1.8-.7,2.8-.7c1.4,0,2.5.4,3.4,1c.941695.750607,1.58085,1.815866,1.8,3h-3c-.1-.5-.4-.9-.8-1.2-.4-.2-.8-.4-1.4-.4-.8,0-1.4.3-1.9.9s-.7,1.4-.7,2.5c0,1,.2,1.8.7,2.4s1.1.9,1.9.9c1.1,0,1.9-.5,2.2-1.5h3c-.3,1.2-.9,2.1-1.8,2.8s-2,1-3.4,1c-1,0-2-.2-2.8-.6-.845264-.46028-1.53972-1.154736-2-2-.4-.9-.7-1.9-.7-3Zm16-3.2v5.4c0,.4.1.6.3.8s.5.2,1,.2h1.2v2.4h-1.7c-2.4,0-3.6-1.1-3.6-3.4v-5.4h-1.3v-2.2h1.3v-2.7h2.9v2.7h2.4v2.3h-2.3Zm8.8,9c-.85953.014351-1.712108-.156164-2.5-.5-.7-.3-1.2-.8-1.7-1.3-.4-.6-.6-1.2-.7-1.9h2.9c0,.4.2.8.6,1c.4.3.8.5,1.4.5.5,0,1-.1,1.2-.3.3-.3.5-.5.5-.9c0-.3-.2-.6-.6-.8l-1.7-.6-2-.6c-.6-.2-1-.5-1.4-1-.4-.4-.6-1-.6-1.7s.2-1.2.5-1.7c.4-.5.9-1,1.5-1.2.7-.3,1.5-.5,2.4-.5c1.3,0,2.4.4,3.1,1c.8.7,1.3,1.6,1.3,2.7h-2.6c0-.4-.3-.8-.6-1-.373296-.281113-.833243-.422635-1.3-.4-.5,0-.9,0-1.2.2-.2.2-.4.5-.4.8c0,.4.2.7.6.9l1.7.6l2,.6c.5.2,1,.5,1.3,1c.4.4.6,1,.6,1.7s-.1,1.3-.5,1.8c-.3.5-.8.9-1.5,1.2-.7.2-1.4.4-2.3.4Z"></path><g id="eu1ahzq5cOg9_to" transform="translate(133.5,598)"><g transform="translate(-129.199997,-600)"><path d="M40,622c13.254834,0,24-10.745166,24-24s-10.745166-24-24-24-24,10.745166-24,24s10.745166,24,24,24Z" clip-rule="evenodd" fill="#f5f5f8" fill-rule="evenodd"></path><g mask="url(#eu1ahzq5cOg20)"><path d="M57.5,616.4c-1.5-2-3.5-3.5-6-4.2L46,610.7v-4c2.435431-1.824384,3.90766-4.658425,4-7.7.830411.331111,1.770877.229714,2.511627-.270792s1.18573-1.335223,1.188373-2.229208c-.034795-.87617-.492905-1.680877-1.228558-2.158057s-1.657216-.567397-2.471442-.241943v-.8c0-5.522847-4.477153-10-10-10s-10,4.477153-10,10v.8c-.3-.2-.7-.2-1-.2-1.172586-.162915-2.314536.45703-2.816662,1.529116s-.247296,2.346231.628545,3.142724s2.16839.929537,3.188117.32816c.1,3.2,1.6,6,4,7.8v4l-5.6,1.5c-2.4.7-4.4,2.2-5.9,4.2L18.7,622v4h42.6v-4l-3.8-5.6Z" clip-rule="evenodd" fill="#ffcf83" fill-rule="evenodd"></path><path d="M40,608.7c-1.199205-.02155-2.384753-.25866-3.5-.7c2.844993,1.823468,6.418463,2.086776,9.5.7v-2c-1.730962,1.298221-3.836298,2-6,2Z" clip-rule="evenodd" fill="#f7a74f" fill-rule="evenodd"></path><path d="M30.3,597c.154961-.549751-.015744-1.1398-.440294-1.521896s-1.029258-.489918-1.559706-.278104M49.7,597c-.154961-.549751.015744-1.1398.440294-1.521896s1.029258-.489918,1.559706-.278104" fill="none" stroke="#00004d" stroke-linecap="round" stroke-linejoin="round"></path><path d="M42.7,602.5c0,.964617-.514617,1.85596-1.35,2.338269s-1.864617.482308-2.7,0-1.35-1.373652-1.35-2.338269h5.4Z" clip-rule="evenodd" fill="#fff" fill-rule="evenodd"></path><path d="M45.5,597c0,.607513-.492487,1.1-1.1,1.1s-1.1-.492487-1.1-1.1.492487-1.1,1.1-1.1s1.1.492487,1.1,1.1m-8.8,0c0,.607513-.492487,1.1-1.1,1.1s-1.1-.492487-1.1-1.1.492487-1.1,1.1-1.1s1.1.492487,1.1,1.1" clip-rule="evenodd" fill="#00004d" fill-rule="evenodd"></path><path d="M40,595.9l1.3,4.5-1.8.3" fill="none" stroke="#00004d" stroke-linecap="round" stroke-linejoin="round"></path><path d="M50.7,593.9v-.6c.000126-2.828707-1.130373-5.540125-3.13994-7.53091s-4.731479-3.095776-7.56006-3.06909c-2.828581-.026686-5.550494,1.078305-7.56006,3.06909s-3.140066,4.702203-3.13994,7.53091v.6c.6,0,1,.3,1.5.7c1.2-1.2,2.2-2.7,2.9-4.3c3.933565,2.11568,8.666435,2.11568,12.6,0c.7,1.6,1.7,3,3,4.3.3-.4.8-.6,1.4-.7" clip-rule="evenodd" fill="#00004d" fill-rule="evenodd"></path><path d="M61.3,622l-3.8-5.6c-1.5-2-3.5-3.5-6-4.2L46,610.7c0,3.313708-2.686292,6-6,6s-6-2.686292-6-6l-5.6,1.5c-2.4.7-4.4,2.2-5.9,4.2L18.7,622v4h42.6v-4Z" clip-rule="evenodd" fill="#fb344f" fill-rule="evenodd"></path><mask id="eu1ahzq5cOg20"><path d="M40,622c13.254834,0,24-10.745166,24-24s-10.745166-24-24-24-24,10.745166-24,24s10.745166,24,24,24Z" clip-rule="evenodd" fill="#fff" fill-rule="evenodd"></path></mask></g><path d="M88.3,581.8v11.2h-2.3v-7.3L83,593h-1.6l-3-7.3v7.3h-2.4v-11.2h2.5l3.6,8.3l3.6-8.3h2.5Zm1.6,6.7c0-.9.2-1.7.5-2.3.341168-.662668.860698-1.216833,1.5-1.6.601786-.373547,1.291969-.580602,2-.6c1.167991-.048087,2.286612.473936,3,1.4v-1.3h2.3v8.9h-2.3v-1.3c-.3.4-.7.8-1.2,1-.5.3-1,.4-1.7.4-.8,0-1.5-.1-2.1-.5s-1-1-1.5-1.6c-.3-.8-.5-1.6-.5-2.5Zm7,0c0-.5-.1-1-.3-1.3-.2-.4-.5-.7-.9-1l-1.2-.2c-.5,0-.8,0-1.1.3s-.6.5-.9.9c-.2.3-.3.8-.3,1.3s.1,1,.3,1.4l.9,1c.4.2.7.3,1.1.3.5,0,.8-.1,1.2-.3s.7-.5.9-1c.2-.3.3-.8.3-1.3Zm6.7-3c.3-.5.6-.8,1.1-1c.5-.4,1-.5,1.6-.5v2.4h-.6c-.7,0-1.2.1-1.6.5-.3.3-.5.9-.5,1.7v4.4h-2.3v-8.9h2.3v1.4Zm5.3-2.4c-.4,0-.7-.1-1-.4-.2-.2-.3-.6-.3-1s0-.6.4-.9c.2-.2.5-.3,1-.3s.7,0,1,.3c.2.3.3.6.3,1s-.1.7-.4,1c-.2.2-.6.3-1,.3Zm1.1,1v8.9h-2.2v-8.9h2.2Zm1.7,4.4c0-.9.2-1.7.5-2.3.341168-.662668.860698-1.216833,1.5-1.6.601786-.373547,1.291969-.580602,2-.6c1.167991-.048087,2.286612.473936,3,1.4v-1.3h2.2v8.9h-2.2v-1.3c-.3.4-.7.8-1.2,1-.5.3-1.1.4-1.8.4s-1.4-.1-2-.5-1.1-1-1.5-1.6c-.3-.8-.5-1.6-.5-2.5Zm7,0c0-.5-.1-1-.4-1.3l-.8-1-1.2-.2c-.4,0-.8,0-1.1.3s-.7.5-1,.9l-.2,1.3c0,.5,0,1,.3,1.4.2.4.5.7.9,1c.3.2.7.3,1.1.3l1.2-.3c.3-.2.6-.5.8-1c.3-.3.4-.8.4-1.3Zm7.7-1.1c0-1.1.2-2,.7-3c.5-.8,1.2-1.5,2-2c.9-.5,1.9-.7,3-.7c1.2,0,2.3.3,3.2,1c.940075.617103,1.644678,1.533087,2,2.6h-2.6c-.2-.5-.6-1-1-1.2-.5-.3-1-.4-1.7-.4-.6,0-1.2.2-1.7.5s-1,.7-1.2,1.2c-.3.6-.4,1.3-.4,2s.1,1.4.4,2c.3.5.7,1,1.2,1.2.5.3,1,.5,1.7.5.6,0,1.2-.1,1.6-.4.5-.3.9-.7,1.1-1.2h2.6c-.335247,1.103764-1.041834,2.057657-2,2.7-1,.6-2,.9-3.3.9-1,0-2-.2-2.9-.7-1.757952-1.036651-2.79736-2.961481-2.7-5Zm12.2,1.1c0-.9.2-1.7.5-2.3.341168-.662668.860698-1.216833,1.5-1.6.601786-.373547,1.291969-.580602,2-.6c1.167991-.048087,2.286612.473936,3,1.4v-1.3h2.3v8.9h-2.3v-1.3c-.3.4-.7.8-1.2,1-.5.3-1,.4-1.7.4-.8,0-1.5-.1-2-.5-.7-.4-1.2-1-1.6-1.6-.3-.8-.5-1.6-.5-2.5Zm7,0c0-.5-.1-1-.3-1.3-.2-.4-.5-.7-.9-1l-1.2-.2c-.5,0-.8,0-1.1.3s-.6.5-.9.9c-.2.3-.3.8-.3,1.3s.1,1,.3,1.4l.9,1c.4.2.7.3,1.1.3.5,0,.9-.1,1.2-.3.4-.2.7-.5.9-1c.2-.3.3-.8.3-1.3Zm6.7-7.3v11.8h-2.3v-11.8h2.3Zm4.4,0v11.8h-2.2v-11.8h2.2Zm1.7,7.3c0-.9.1-1.7.5-2.3.341168-.662668.860698-1.216833,1.5-1.6.601786-.373547,1.291969-.580602,2-.6c1.167991-.048087,2.286612.473936,3,1.4v-1.3h2.2v8.9h-2.3v-1.3c-.2.4-.6.8-1.2,1-.5.3-1,.4-1.7.4s-1.4-.1-2-.5c-.7-.4-1.1-1-1.5-1.6-.4-.8-.5-1.6-.5-2.5Zm7,0c0-.5-.2-1-.4-1.3l-.8-1-1.2-.2c-.4,0-.8,0-1.2.3s-.6.5-.8.9c-.2.3-.3.8-.3,1.3s0,1,.3,1.4l.8,1l1.2.3l1.2-.3c.3-.2.6-.5.8-1c.2-.3.3-.8.3-1.3Zm7.8,4.6c-.7,0-1.4,0-2-.3-.5-.3-1-.7-1.3-1.1-.4-.5-.6-1-.6-1.5h2.3c0,.3.2.6.5.8.3.3.6.4,1,.4.5,0,.8-.1,1-.3.3-.1.4-.4.4-.6c0-.3-.1-.5-.4-.7l-1.4-.4-1.6-.5c-.5-.2-.8-.5-1.1-.8-.3-.4-.5-.9-.5-1.5c0-.4.2-.9.4-1.3.332034-.447615.782192-.79389,1.3-1c.5-.2,1.1-.3,1.8-.3c1,0,2,.3,2.6.8.602171.537041.962631,1.294006,1,2.1h-2.2c0-.3-.1-.6-.4-.8s-.6-.3-1-.3-.8,0-1,.2c-.2.1-.3.3-.3.6s.1.5.4.7l1.4.5c.7.1,1.2.3,1.6.5s.8.4,1,.8c.4.3.6.8.6,1.4c0,.5-.2,1-.5,1.3-.2.5-.6.8-1.2,1-.5.2-1.1.3-1.8.3ZM82.3,606h-4.9v3.2c.2-.3.5-.6,1-.8l1.3-.2c.8,0,1.4.1,2,.4l1,1.3c.2.5.3,1,.3,1.6c0,.7-.2,1.3-.4,1.8s-.7,1-1.2,1.3-1.1.4-1.9.4c-1,0-1.8-.2-2.4-.7s-1-1.2-1-2h1.2c0,.5.3.9.7,1.2s1,.5,1.5.5c.8,0,1.3-.3,1.7-.7.4-.5.5-1,.5-1.8s-.1-1.3-.5-1.7-1-.6-1.7-.6c-.5,0-.9.2-1.3.4-.369062.236641-.650144.587994-.8,1h-1.2v-5.7h6.1v1Zm4.2,3.7c-.5-.2-1-.5-1.2-.9s-.4-.8-.4-1.4c-.003473-.997216.586028-1.901117,1.5-2.3.5-.3,1-.4,1.8-.4s1.3.1,1.8.4c.688219.290831,1.210288.874232,1.423203,1.590399s.094355,1.490026-.323203,2.109601c-.3.4-.7.7-1.2,1c.6.1,1,.4,1.4.9.3.4.5,1,.5,1.6s-.2,1.1-.4,1.6c-.332034.447615-.782192.79389-1.3,1-.6.3-1.2.4-1.9.4s-1.3-.1-1.9-.4c-.481285-.221522-.895321-.566551-1.2-1-.3-.5-.5-1-.5-1.6c0-.7.2-1.2.5-1.6s.8-.8,1.4-1Zm3.8-2.1c0-.6-.2-1-.6-1.3s-.8-.5-1.5-.5c-.6,0-1.2.1-1.5.5s-.6.7-.6,1.3c0,.5.2,1,.6,1.2.4.4.9.5,1.5.5s1.1-.1,1.5-.5c.4-.3.6-.7.6-1.2Zm-2.1,2.7c-.7,0-1.3.2-1.7.5s-.7.8-.7,1.4.3,1.1.7,1.5c.4.3,1,.5,1.7.5s1.3-.2,1.7-.5.6-.9.6-1.5-.2-1-.6-1.4c-.4-.3-1-.5-1.7-.5Zm5-4.3v-1h2.6v10h-1.3v-9h-1.3Zm7.6,5.3c.9-.8,1.5-1.5,1.8-2s.5-1,.5-1.6c0-.5-.2-1-.5-1.3s-.8-.5-1.4-.5-1.1.2-1.5.7c-.3.4-.5.9-.5,1.6h-1.3c0-.7.2-1.3.5-1.8s.7-1,1.2-1.2c.4-.2,1-.3,1.6-.3c1,0,1.8.2,2.3.7.6.6.9,1.3.9,2.1c0,.7-.2,1.3-.6,2-.4.6-1,1.4-2,2.3l-2,2h4.8v1h-6.6v-1l3-2.7Zm12.4-6.5c.7,0,1.3.2,1.8.5.6.3,1,.7,1.2,1.2.3.5.5,1,.5,1.7c0,.6-.1,1-.3,1.6-.2.5-.4,1-.8,1.5l-2.6,3.8h-1.4l2.6-3.7-1.1.2c-.7,0-1.3-.2-1.8-.5-.457009-.263568-.836432-.642991-1.1-1.1-.3-.5-.4-1.1-.4-1.8-.093078-1.251977.578143-2.436486,1.7-3c.5-.2,1-.4,1.7-.4Zm-2.3,3.4c0,.8.2,1.3.6,1.8.5.4,1,.6,1.7.6s1.3-.2,1.7-.6c.4-.5.6-1,.6-1.7c0-.8-.2-1.4-.6-1.8s-1-.6-1.7-.6-1.2.2-1.7.6c-.4.4-.6,1-.6,1.7Zm7.5,1.6c0-1.6.2-2.8.7-3.7.6-1,1.5-1.4,2.8-1.4s2.2.5,2.7,1.4.8,2.1.8,3.7c0,1.7-.3,3-.8,3.8-.5,1-1.4,1.4-2.7,1.4s-2.2-.5-2.8-1.4c-.5-.9-.7-2.1-.7-3.8Zm5.7,0l-.1-2c-.1-.6-.3-1-.7-1.4-.3-.3-.8-.5-1.4-.5s-1.1.2-1.5.5c-.3.3-.5.8-.6,1.4l-.2,2c0,.9,0,1.6.2,2.1c0,.6.3,1,.6,1.4.4.4.9.5,1.5.5s1-.1,1.4-.5c.4-.3.6-.8.7-1.4l.1-2Zm6,1.5l1.7-2c.3-.5.5-1,.5-1.6c0-.5-.2-1-.5-1.3s-.8-.5-1.4-.5c-.7,0-1.2.2-1.5.7-.3.4-.5.9-.5,1.6h-1.4c0-.7.2-1.3.5-1.8s.6-1,1.1-1.2s1-.3,1.7-.3c1,0,1.7.2,2.3.7.6.6.8,1.3.8,2.1c0,.7-.1,1.3-.5,2-.4.6-1,1.4-2,2.3l-2,2h4.8v1h-6.7v-1l3-2.7Zm8.9-2.5c1,0,1.8.3,2.4.8.5.6.8,1.3.8,2.3.04414.860326-.283689,1.698111-.9,2.3-.6.6-1.4.9-2.5.9-1,0-1.8-.3-2.4-.8-.627018-.560711-.989832-1.358903-1-2.2h1.2c0,.6.3,1,.7,1.4.4.3.9.5,1.5.5.7,0,1.2-.2,1.6-.6s.6-.8.6-1.5-.2-1.2-.6-1.5-.9-.6-1.5-.6h-1.5v-1l2.8-2.9h-4.2v-1h5.9v1l-2.8,2.9Zm10.5,1c-.5-.3-1-.6-1.2-1s-.4-.8-.4-1.4c-.003473-.997216.586028-1.901117,1.5-2.3.5-.3,1-.4,1.8-.4.622963-.008667,1.239339.128306,1.8.4.67129.310618,1.17057.902555,1.363557,1.616606s.059867,1.476907-.363557,2.083394c-.2.4-.6.7-1.1,1c.6.1,1,.4,1.4.9.3.4.5,1,.5,1.6s-.2,1.1-.5,1.6c-.332034.447615-.782192.79389-1.3,1-.5.3-1.1.4-1.8.4s-1.4-.1-1.9-.4c-.481285-.221522-.895321-.566551-1.2-1-.3-.5-.5-1-.5-1.6c0-.7.2-1.2.5-1.6s.8-.8,1.4-1Zm3.8-2.2c0-.6-.2-1-.6-1.3-.4-.4-.9-.5-1.5-.5-.7,0-1.2.1-1.6.5-.3.3-.5.7-.5,1.3c0,.5.2,1,.6,1.2.4.4.9.5,1.5.5s1.1-.1,1.5-.5c.4-.3.6-.7.6-1.2Zm-2.1,2.7c-.7,0-1.3.2-1.7.5-.5.3-.7.8-.7,1.4s.2,1.1.7,1.5c.4.3,1,.5,1.7.5s1.3-.2,1.7-.5.6-.9.6-1.5-.2-1-.6-1.4c-.5-.3-1-.5-1.7-.5Zm5,2.4v-1l4.9-6.7h1.5v6.6h1.4v1.1h-1.4v2.3h-1.3v-2.3h-5.1Zm5.2-6.4l-3.8,5.3h3.8v-5.3Zm7.3,2.5c1,0,1.9.3,2.4.8.6.6.9,1.3.9,2.3.018496.875905-.346819,1.716129-1,2.3-.5.6-1.4.9-2.4.9s-1.8-.3-2.4-.8c-.627018-.560711-.989832-1.358903-1-2.2h1.2c0,.6.3,1,.7,1.4.3.3.9.5,1.5.5.7,0,1.2-.2,1.6-.6.3-.3.5-.8.5-1.5s-.2-1.2-.5-1.5c-.416748-.429241-1.003771-.649375-1.6-.6h-1.4v-1l2.8-2.9h-4.3v-1h5.8v1l-2.8,2.9Zm4.6-2.8v-1h2.7v10h-1.3v-9h-1.4Zm8.3,0v-1h2.6v10h-1.3v-9h-1.3Zm8.2,2.8c1,0,1.9.3,2.4.8.6.6,1,1.3,1,2.3.018496.875905-.346819,1.716129-1,2.3-.6.6-1.5.9-2.5.9s-1.8-.3-2.4-.8c-.627018-.560711-.989832-1.358903-1-2.2h1.2c0,.6.3,1,.7,1.4.4.3.9.5,1.5.5.7,0,1.2-.2,1.6-.6.3-.3.5-.8.5-1.5s-.1-1.2-.5-1.5c-.393383-.40203-.937874-.619826-1.5-.6h-1.5v-1l2.8-2.9h-4.3v-1h5.8v1l-2.7,2.9Zm7.8,2.5c.9-.8,1.5-1.5,1.8-2s.5-1,.5-1.6c0-.5-.2-1-.5-1.3s-.8-.5-1.4-.5-1.1.2-1.5.7c-.3.4-.5.9-.5,1.6h-1.2c0-.7.1-1.3.4-1.8s.7-1,1.2-1.2s1-.3,1.6-.3c1,0,1.8.2,2.3.7.6.6.9,1.3.9,2.1c0,.7-.2,1.3-.6,2s-1,1.4-2,2.3l-2,2h4.9v1h-6.8v-1l3-2.7Zm9-2.5c1,0,1.8.3,2.4.8.6.6.9,1.3.9,2.3.018496.875905-.346819,1.716129-1,2.3-.6.6-1.4.9-2.5.9-1,0-1.7-.3-2.4-.8-.627018-.560711-.989832-1.358903-1-2.2h1.3c0,.6.2,1,.6,1.4.4.3,1,.5,1.6.5s1.1-.2,1.5-.6c.4-.3.6-.8.6-1.5s-.2-1.2-.6-1.5c-.393383-.40203-.937874-.619826-1.5-.6h-1.4v-1l2.8-2.9h-4.3v-1h5.8v1l-2.8,2.9Z"></path><circle r="8" transform="translate(234.4 610)" fill="#f79e1b"></circle><circle r="8" transform="translate(224.6 610)" fill="#eb001b"></circle><path d="M229.5,616.3c1.937459-1.516297,3.069483-3.839735,3.069483-6.3s-1.132024-4.783703-3.069483-6.3c-1.937459,1.516297-3.069483,3.839735-3.069483,6.3s1.132024,4.783703,3.069483,6.3Z" fill="#ff5f00"></path></g></g><path d="M335,593.5c.828427,0,1.5-.671573,1.5-1.5s-.671573-1.5-1.5-1.5-1.5.671573-1.5,1.5.671573,1.5,1.5,1.5Zm0,6c.828427,0,1.5-.671573,1.5-1.5s-.671573-1.5-1.5-1.5-1.5.671573-1.5,1.5.671573,1.5,1.5,1.5Z"></path><rect width="375" height="72" rx="0" ry="0" transform="translate(0 634)" fill="#fff"></rect><path d="M335,605.5c.828427,0,1.5-.671573,1.5-1.5s-.671573-1.5-1.5-1.5-1.5.671573-1.5,1.5.671573,1.5,1.5,1.5Z"></path><g id="eu1ahzq5cOg29_to" transform="translate(141.5,670)"><g transform="translate(-137.800003,-672)"><path d="M40,694c13.254834,0,24-10.745166,24-24s-10.745166-24-24-24-24,10.745166-24,24s10.745166,24,24,24Z" clip-rule="evenodd" fill="#f5f5f8" fill-rule="evenodd"></path><g mask="url(#eu1ahzq5cOg40)"><path d="M57.5,688.4c-1.5-2-3.5-3.5-6-4.2L46,682.7v-4c2.435431-1.824384,3.90766-4.658425,4-7.7.830411.331111,1.770877.229714,2.511627-.270792s1.18573-1.335223,1.188373-2.229208c-.034795-.87617-.492905-1.680877-1.228558-2.158057s-1.657216-.567397-2.471442-.241943v-.8c0-5.522847-4.477153-10-10-10s-10,4.477153-10,10v.8c-.3-.2-.7-.2-1-.2-1.172586-.162915-2.314536.45703-2.816662,1.529116s-.247296,2.346231.628545,3.142724s2.16839.929537,3.188117.32816c.1,3.2,1.6,6,4,7.8v4l-5.6,1.5c-2.4.7-4.4,2.2-5.9,4.2L18.7,694v4h42.6v-4l-3.8-5.6Z" clip-rule="evenodd" fill="#ffd1b7" fill-rule="evenodd"></path><path d="M40,680.7c-1.199205-.02155-2.384753-.25866-3.5-.7c2.844993,1.823468,6.418463,2.086776,9.5.7v-2c-1.730962,1.298221-3.836298,2-6,2Z" clip-rule="evenodd" fill="#f7a74f" fill-rule="evenodd"></path><path d="M30.3,669c.154961-.549751-.015744-1.1398-.440294-1.521896s-1.029258-.489918-1.559706-.278104M49.7,669c-.154961-.549751.015744-1.1398.440294-1.521896s1.029258-.489918,1.559706-.278104" fill="none" stroke="#7d7569" stroke-linecap="round" stroke-linejoin="round"></path><path d="M42.7,674.5c0,.964617-.514617,1.85596-1.35,2.338269s-1.864617.482308-2.7,0-1.35-1.373652-1.35-2.338269h5.4Z" clip-rule="evenodd" fill="#fff" fill-rule="evenodd"></path><path d="M45.5,669c0,.607513-.492487,1.1-1.1,1.1s-1.1-.492487-1.1-1.1.492487-1.1,1.1-1.1s1.1.492487,1.1,1.1m-8.8,0c0,.607513-.492487,1.1-1.1,1.1s-1.1-.492487-1.1-1.1.492487-1.1,1.1-1.1s1.1.492487,1.1,1.1" clip-rule="evenodd" fill="#423e37" fill-rule="evenodd"></path><path d="M40,667.9l1.3,4.5-1.8.3" fill="none" stroke="#423e37" stroke-linecap="round" stroke-linejoin="round"></path><path d="M50.7,665.9v-.6c.000126-2.828707-1.130373-5.540125-3.13994-7.53091s-4.731479-3.095776-7.56006-3.06909c-2.828581-.026686-5.550494,1.078305-7.56006,3.06909s-3.140066,4.702203-3.13994,7.53091v.6c.6,0,1,.3,1.5.7c1.2-1.2,2.2-2.7,2.9-4.3c3.933565,2.11568,8.666435,2.11568,12.6,0c.7,1.6,1.7,3,3,4.3.3-.4.8-.6,1.4-.7" clip-rule="evenodd" fill="#5f5548" fill-rule="evenodd"></path><path d="M61.3,694l-3.8-5.6c-1.5-2-3.5-3.5-6-4.2L46,682.7c0,3.313708-2.686292,6-6,6s-6-2.686292-6-6l-5.6,1.5c-2.4.7-4.4,2.2-5.9,4.2L18.7,694v4h42.6v-4Z" clip-rule="evenodd" fill="#fb9434" fill-rule="evenodd"></path><mask id="eu1ahzq5cOg40"><path d="M40,694c13.254834,0,24-10.745166,24-24s-10.745166-24-24-24-24,10.745166-24,24s10.745166,24,24,24Z" clip-rule="evenodd" fill="#fff" fill-rule="evenodd"></path></mask></g><path d="M88.3,653.8v11.2h-2.3v-7.3L83,665h-1.6l-3-7.3v7.3h-2.4v-11.2h2.5l3.6,8.3l3.6-8.3h2.5Zm1.6,6.7c0-.9.2-1.7.5-2.3.341168-.662668.860698-1.216833,1.5-1.6.601786-.373547,1.291969-.580602,2-.6c1.167991-.048087,2.286612.473936,3,1.4v-1.3h2.3v8.9h-2.3v-1.3c-.3.4-.7.8-1.2,1-.5.3-1,.4-1.7.4-.8,0-1.5-.1-2.1-.5s-1-1-1.5-1.6c-.3-.8-.5-1.6-.5-2.5Zm7,0c0-.5-.1-1-.3-1.3-.2-.4-.5-.7-.9-1l-1.2-.2c-.5,0-.8,0-1.1.3s-.6.5-.9.9c-.2.3-.3.8-.3,1.3s.1,1,.3,1.4l.9,1c.4.2.7.3,1.1.3.5,0,.8-.1,1.2-.3s.7-.5.9-1c.2-.3.3-.8.3-1.3Zm7-2.5v4.3c0,.3.1.5.3.6.1.1.3.2.7.2h1v1.9h-1.4c-1.9,0-2.8-1-2.8-2.8v-4.2h-1v-2h1v-2h2.2v2.2h2v1.9h-2Zm6.2,0v4.3c0,.3.1.5.3.6l.7.2h1v1.9h-1.4c-1.9,0-2.8-1-2.8-2.8v-4.2h-1v-2h1v-2h2.2v2.2h2v1.9h-2Zm16.7-4.2v11.2h-2.2v-4.8h-4.8v4.8h-2.2v-11.2h2.2v4.6h4.8v-4.6h2.2Zm1.7,6.7c0-.9.1-1.7.5-2.3.313792-.649858.797547-1.20272,1.4-1.6.630789-.390931,1.357895-.598675,2.1-.6c1.167991-.048087,2.286612.473936,3,1.4v-1.3h2.2v8.9h-2.3v-1.3c-.3.4-.7.8-1.2,1-.5.3-1,.4-1.7.4-.8,0-1.4-.1-2-.5-.7-.4-1.2-1-1.5-1.6-.4-.8-.6-1.6-.6-2.5Zm7,0c0-.5-.2-1-.4-1.3-.2-.4-.5-.7-.9-1l-1.1-.2c-.4,0-.8,0-1.2.3s-.6.5-.8.9c-.3.3-.4.8-.4,1.3s.1,1,.4,1.4l.8,1l1.2.3c.4,0,.8-.1,1.1-.3.4-.2.7-.5,1-1l.2-1.3Zm6.6-3c.3-.5.7-.8,1.1-1c.5-.4,1-.5,1.6-.5v2.4h-.6c-.7,0-1.2.1-1.6.5-.3.3-.5.9-.5,1.7v4.4h-2.1v-8.9h2.2v1.4Zm3.7,3c0-.9.1-1.7.5-2.3.979749-1.886332,3.263733-2.676942,5.2-1.8.5.2,1,.6,1.2,1v-4.2h2.3v11.8h-2.3v-1.3c-.276962.420341-.655243.764233-1.1,1-.5.3-1.1.4-1.8.4s-1.4-.1-2-.5c-.639302-.383167-1.158832-.937332-1.5-1.6-.4-.8-.5-1.6-.5-2.5Zm7,0c0-.5-.2-1-.4-1.3l-.8-1-1.2-.2c-.4,0-.8,0-1.2.3s-.6.5-.8.9c-.2.3-.4.8-.4,1.3s.2,1,.4,1.4l.8,1l1.2.3l1.2-.3c.3-.2.6-.5.8-1c.2-.3.3-.8.3-1.3Zm12.9-4.4l-5.5,13h-2.4l2-4.3-3.6-8.7h2.5l2.3,6.2l2.3-6.2h2.4ZM75.6,684.7v-1l4.9-6.7h1.5v6.6h1.4v1.1h-1.4v2.3h-1.3v-2.3h-5.1Zm5.2-6.4L77,683.6h3.8v-5.3Zm3.5-.3v-1h2.7v10h-1.3v-9h-1.4Zm7.7,5.3l1.8-2c.3-.5.5-1,.5-1.6c0-.5-.2-1-.5-1.3s-.8-.5-1.4-.5c-.7,0-1.1.2-1.5.7-.3.4-.5.9-.5,1.6h-1.4c0-.7.2-1.3.5-1.8s.7-1,1.1-1.2s1-.4,1.7-.4c1,0,1.7.3,2.3.8.6.6.9,1.3.9,2.1c0,.7-.2,1.3-.6,2-.4.6-1,1.4-2,2.3l-2,2h4.8v1h-6.7v-1l3-2.7Zm5.5-1.5c0-1.6.3-2.8.8-3.7.5-1,1.4-1.4,2.7-1.4s2.2.5,2.8,1.4c.5.9.7,2.1.7,3.7c0,1.7-.2,3-.7,3.8s-1.5,1.4-2.8,1.4-2.2-.5-2.7-1.4-.8-2.1-.8-3.8Zm5.8,0c0-.8,0-1.5-.2-2c0-.6-.3-1-.6-1.4-.4-.3-.8-.5-1.5-.5-.6,0-1.1.2-1.4.5-.4.3-.6.8-.7,1.4l-.1,2l.1,2.1c.1.6.3,1,.7,1.4.3.4.8.5,1.4.5.7,0,1.1-.1,1.5-.5.3-.3.5-.8.6-1.4l.2-2Zm8.6,0c-.6-.3-1-.6-1.2-1s-.5-.8-.5-1.4c-.003473-.997216.586028-1.901117,1.5-2.3.5-.3,1.2-.4,1.9-.4.622963-.008667,1.239339.128306,1.8.4.67129.310618,1.17057.902555,1.363557,1.616606s.059867,1.476907-.363557,2.083394c-.2.4-.6.7-1.1,1c1.121857.313617,1.898209,1.335133,1.9,2.5c0,.6-.2,1.1-.5,1.6-.332034.447615-.782192.79389-1.3,1-.5.3-1.1.4-1.8.4s-1.4-.1-2-.4c-.481285-.221522-.895321-.566551-1.2-1-.3-.5-.4-1-.4-1.6c0-.7.2-1.2.5-1.6s.8-.8,1.4-1Zm3.8-2.2c0-.6-.2-1-.6-1.3-.4-.4-.9-.5-1.5-.5-.7,0-1.2.1-1.6.5-.3.3-.5.7-.5,1.3c0,.5.2,1,.5,1.2.4.4,1,.5,1.6.5s1-.1,1.5-.5c.4-.3.6-.7.6-1.2Zm-2.1,2.7c-.7,0-1.3.2-1.7.5-.5.3-.7.8-.7,1.4s.2,1.1.6,1.5c.5.3,1,.5,1.8.5.7,0,1.3-.2,1.7-.5s.6-.9.6-1.5-.2-1-.6-1.4c-.5-.3-1-.5-1.7-.5Zm11.7-4.3h-5v3.2l1-.8l1.4-.2c.8,0,1.4.1,1.9.4.5.4.8.8,1,1.3s.4,1,.4,1.6c0,.7-.2,1.3-.4,1.8s-.7,1-1.2,1.3-1.1.4-2,.4-1.7-.2-2.3-.7-1-1.2-1-2h1.2c0,.5.3.9.7,1.2s1,.5,1.5.5c.7,0,1.3-.3,1.7-.7.3-.5.5-1,.5-1.8s-.2-1.3-.5-1.7c-.4-.4-1-.6-1.7-.6-.5,0-1,.2-1.3.4-.369062.236641-.650144.587994-.8,1h-1.2v-5.7h6.1v1Zm5.8,2.8c1,0,1.8.3,2.4.8.6.6.9,1.3.9,2.3.018496.875905-.346819,1.716129-1,2.3-.6.6-1.4.9-2.5.9-1,0-1.7-.3-2.3-.8-.627018-.560711-.989832-1.358903-1-2.2h1.2c0,.6.3,1,.6,1.4.4.3,1,.5,1.6.5s1.1-.2,1.5-.6c.4-.3.6-.8.6-1.5s-.2-1.2-.6-1.5c-.393383-.40203-.937874-.619826-1.5-.6h-1.4v-1l2.8-2.9h-4.4v-1h5.8v1l-2.8,2.9Zm5,1c0-1.6.2-2.8.7-3.7.6-1,1.5-1.4,2.8-1.4s2.2.5,2.7,1.4.8,2.1.8,3.7c0,1.7-.3,3-.8,3.8-.5,1-1.4,1.4-2.7,1.4s-2.2-.5-2.8-1.4c-.5-.9-.7-2.1-.7-3.8Zm5.7,0l-.1-2c-.1-.6-.4-1-.7-1.4-.3-.3-.8-.5-1.4-.5-.7,0-1.1.2-1.5.5-.3.3-.5.8-.6,1.4l-.2,2c0,.9,0,1.6.2,2.1c0,.6.3,1,.6,1.4.4.4.8.5,1.5.5.6,0,1-.1,1.4-.5.3-.3.6-.8.7-1.4l.1-2Zm6.5,3v-1l4.9-6.8h1.5v6.6h1.4v1.1h-1.4v2.3h-1.3v-2.3h-5.1Zm5.2-6.5l-3.8,5.3h3.8v-5.3Zm3.9,3.5c0-1.6.2-2.8.8-3.7.5-1,1.4-1.4,2.7-1.4s2.2.5,2.7,1.4c.6.9.8,2.1.8,3.7c0,1.7-.2,3-.8,3.8-.5,1-1.4,1.4-2.7,1.4s-2.2-.5-2.7-1.4c-.6-.9-.8-2.1-.8-3.8Zm5.8,0c0-.8,0-1.5-.2-2-.1-.6-.3-1-.7-1.4-.3-.3-.8-.5-1.4-.5s-1.1.2-1.4.5c-.4.3-.6.8-.7,1.4l-.2,2c0,.9,0,1.6.2,2.1.1.6.3,1,.7,1.4.3.4.8.5,1.4.5s1.1-.1,1.4-.5c.4-.3.6-.8.7-1.4l.2-2Zm5.8,1.5c.9-.9,1.5-1.5,1.8-2s.5-1,.5-1.6c0-.5-.2-1-.5-1.3s-.8-.5-1.4-.5-1.1.2-1.5.7c-.3.4-.5.9-.5,1.6h-1.4c0-.7.2-1.3.5-1.8s.7-1,1.2-1.2c.4-.2,1-.4,1.6-.4c1,0,1.8.3,2.3.8.6.6.9,1.3.9,2.1c0,.7-.2,1.3-.6,2-.4.6-1,1.4-2,2.3l-2,2h4.8v1h-6.7v-1l3-2.7Zm5.2-5.3v-1h2.6v10h-1.3v-9h-1.3Zm10.4,3.7c-.5-.2-1-.5-1.2-.9s-.4-.8-.4-1.4c-.02132-.973956.525066-1.87159,1.4-2.3.6-.3,1.2-.4,1.9-.4.622963-.008667,1.239339.128306,1.8.4.67129.310618,1.17057.902555,1.363557,1.616606s.059867,1.476907-.363557,2.083394c-.2.4-.6.7-1.1,1c1.121857.313617,1.898209,1.335133,1.9,2.5c0,.6-.2,1.1-.5,1.6-.332034.447615-.782192.79389-1.3,1-.5.3-1.1.4-1.8.4s-1.4-.1-2-.4c-.481285-.221522-.895321-.566551-1.2-1-.3-.5-.4-1-.4-1.6c0-.7.2-1.2.5-1.6s.8-.8,1.4-1Zm3.8-2.1c0-.6-.2-1-.6-1.3-.4-.4-.9-.5-1.5-.5-.7,0-1.2.1-1.6.5-.3.3-.5.7-.5,1.3c0,.5.2,1,.6,1.2.3.4.9.5,1.5.5s1.1-.1,1.5-.5c.4-.3.6-.7.6-1.2Zm-2.1,2.7c-.7,0-1.3.2-1.7.5-.5.3-.7.8-.7,1.4s.2,1.1.6,1.5c.5.3,1,.5,1.8.5.7,0,1.3-.2,1.7-.5s.6-.9.6-1.5-.2-1-.6-1.4c-.5-.3-1-.5-1.7-.5Zm8.1,1c.9-.8,1.4-1.5,1.8-2c.3-.5.5-1,.5-1.6c0-.5-.2-1-.5-1.3s-.8-.5-1.4-.5c-.7,0-1.1.2-1.5.7-.3.4-.5.9-.5,1.6h-1.3c0-.7.2-1.3.5-1.8s.7-1,1.1-1.2c.5-.2,1-.3,1.7-.3c1,0,1.7.2,2.3.7.6.6.9,1.3.9,2.1c0,.7-.2,1.3-.6,2-.4.6-1,1.4-2,2.3l-2,2h4.8v1h-6.7v-1l3-2.7Zm5.2-5.3v-1h2.6v10h-1.3v-9h-1.3Zm6.6,3.7c-.5-.2-.9-.5-1.2-.9s-.4-.8-.4-1.4c-.003473-.997216.586028-1.901117,1.5-2.3.5-.3,1.1-.4,1.8-.4.622963-.008667,1.239339.128306,1.8.4.688219.290831,1.210288.874232,1.423203,1.590399s.094355,1.490026-.323203,2.109601c-.3.4-.7.7-1.2,1c.6.1,1,.4,1.4.9.4.4.5,1,.5,1.6s-.1,1.1-.4,1.6c-.332034.447615-.782192.79389-1.3,1-.5.3-1.2.4-1.9.4s-1.3-.1-1.8-.4c-.517808-.20611-.967966-.552385-1.3-1-.3-.5-.4-1-.4-1.6c0-.7.1-1.2.5-1.6s.8-.8,1.3-1Zm3.8-2.1c0-.6-.2-1-.5-1.3-.4-.4-1-.5-1.6-.5s-1.1.1-1.5.5c-.4.3-.6.7-.6,1.3c0,.5.2,1,.6,1.2.4.4,1,.5,1.5.5.7,0,1.2-.1,1.5-.5.4-.3.6-.7.6-1.2Zm-2,2.7c-.8,0-1.3.2-1.8.5-.4.3-.6.8-.6,1.4s.2,1.1.6,1.5c.4.3,1,.5,1.7.5s1.3-.2,1.7-.5.7-.9.7-1.5-.3-1-.7-1.4c-.4-.3-1-.5-1.7-.5Z"></path><path d="M256.9,675.8h-2.6c-.8,0-1.4.2-1.8,1l-5,11.4h3.6l.7-1.9h4.3c0,.5.4,1.9.4,1.9h3.1l-2.7-12.4Zm-4.1,8c.584757-1.560064,1.151462-3.126835,1.7-4.7l.2,1.1.8,3.6h-2.7Zm-5,.3c0,2.6-2.3,4.3-5.8,4.3-1.6,0-3-.3-3.8-.7l.5-2.8.4.2c1.1.5,1.8.7,3.2.7c1,0,2-.4,2-1.2c0-.6-.5-1-1.8-1.6s-3-1.5-3-3.3c0-2.5,2.4-4.1,5.7-4.1c1.3,0,2.4.2,3,.5l-.5,2.7-.2-.2c-.6-.3-1.4-.5-2.5-.5-1.3,0-1.9.6-1.9,1.1s.7,1,1.9,1.5c1.9,1,2.8,2,2.8,3.4Z" fill="#3362ab"></path><path d="M218.4,675.9v-.2h5.2c.7,0,1.3.2,1.5,1l1.1,5.5c-1.1-3-3.8-5.3-7.8-6.3Z" fill="#f9b50b"></path><path d="M233.5,675.8l-5.2,12.4h-3.6l-3-10.4c2.2,1.4,4,3.6,4.6,5.1l.4,1.3l3.2-8.5h3.6Zm1.4-.1h3.3l-2.1,12.5h-3.3l2-12.5Z" fill="#3362ab"></path></g></g><path d="M335,665.5c.828427,0,1.5-.671573,1.5-1.5s-.671573-1.5-1.5-1.5-1.5.671573-1.5,1.5.671573,1.5,1.5,1.5Z"></path><rect width="375" height="72" rx="0" ry="0" transform="translate(0 706)" fill="#fff"></rect><path d="M335,671.5c.828427,0,1.5-.671573,1.5-1.5s-.671573-1.5-1.5-1.5-1.5.671573-1.5,1.5.671573,1.5,1.5,1.5Zm0,6c.828427,0,1.5-.671573,1.5-1.5s-.671573-1.5-1.5-1.5-1.5.671573-1.5,1.5.671573,1.5,1.5,1.5Z"></path><g id="eu1ahzq5cOg49_to" transform="translate(177.5,742)"><g transform="translate(-176.25,-744)"><path d="M40,766c13.254834,0,24-10.745166,24-24s-10.745166-24-24-24-24,10.745166-24,24s10.745166,24,24,24Z" clip-rule="evenodd" fill="#f5f5f8" fill-rule="evenodd"></path><g mask="url(#eu1ahzq5cOg60)"><path d="M57.5,760.4c-1.5-2-3.5-3.5-6-4.2L46,754.7v-4c2.435431-1.824384,3.90766-4.658425,4-7.7.830411.331111,1.770877.229714,2.511627-.270792s1.18573-1.335223,1.188373-2.229208c-.034795-.87617-.492905-1.680877-1.228558-2.158057s-1.657216-.567397-2.471442-.241943v-.8c0-5.522847-4.477153-10-10-10s-10,4.477153-10,10v.8c-.3-.2-.7-.2-1-.2-1.172586-.162915-2.314536.45703-2.816662,1.529116s-.247296,2.346231.628545,3.142724s2.16839.929537,3.188117.32816c.1,3.2,1.6,6,4,7.8v4l-5.6,1.5c-2.4.7-4.4,2.2-5.9,4.2L18.7,766v4h42.6v-4l-3.8-5.6Z" clip-rule="evenodd" fill="#ffcf83" fill-rule="evenodd"></path><path d="M40,752.7c-1.199205-.02155-2.384753-.25866-3.5-.7c2.844993,1.823468,6.418463,2.086776,9.5.7v-2c-1.730962,1.298221-3.836298,2-6,2Z" clip-rule="evenodd" fill="#f7a74f" fill-rule="evenodd"></path><path d="M30.3,741c.154961-.549751-.015744-1.1398-.440294-1.521896s-1.029258-.489918-1.559706-.278104M49.7,741c-.154961-.549751.015744-1.1398.440294-1.521896s1.029258-.489918,1.559706-.278104" fill="none" stroke="#00004d" stroke-linecap="round" stroke-linejoin="round"></path><path d="M42.7,746.5c0,.964617-.514617,1.85596-1.35,2.338269s-1.864617.482308-2.7,0-1.35-1.373652-1.35-2.338269h5.4Z" clip-rule="evenodd" fill="#fff" fill-rule="evenodd"></path><path d="M45.5,741c0,.607513-.492487,1.1-1.1,1.1s-1.1-.492487-1.1-1.1.492487-1.1,1.1-1.1s1.1.492487,1.1,1.1m-8.8,0c0,.607513-.492487,1.1-1.1,1.1s-1.1-.492487-1.1-1.1.492487-1.1,1.1-1.1s1.1.492487,1.1,1.1" clip-rule="evenodd" fill="#00004d" fill-rule="evenodd"></path><path d="M40,739.9l1.3,4.5-1.8.3" fill="none" stroke="#00004d" stroke-linecap="round" stroke-linejoin="round"></path><path d="M50.7,737.9v-.6c.000126-2.828707-1.130373-5.540125-3.13994-7.53091s-4.731479-3.095776-7.56006-3.06909c-2.828581-.026686-5.550494,1.078305-7.56006,3.06909s-3.140066,4.702203-3.13994,7.53091v.6c.6,0,1,.3,1.5.7c1.2-1.2,2.2-2.7,2.9-4.3c3.933565,2.11568,8.666435,2.11568,12.6,0c.7,1.6,1.7,3,3,4.3.3-.4.8-.6,1.4-.7" clip-rule="evenodd" fill="#00004d" fill-rule="evenodd"></path><path d="M61.3,766l-3.8-5.6c-1.5-2-3.5-3.5-6-4.2L46,754.7c0,3.313708-2.686292,6-6,6s-6-2.686292-6-6l-5.6,1.5c-2.4.7-4.4,2.2-5.9,4.2L18.7,766v4h42.6v-4Z" clip-rule="evenodd" fill="#45cf6c" fill-rule="evenodd"></path><mask id="eu1ahzq5cOg60"><path d="M40,766c13.254834,0,24-10.745166,24-24s-10.745166-24-24-24-24,10.745166-24,24s10.745166,24,24,24Z" clip-rule="evenodd" fill="#fff" fill-rule="evenodd"></path></mask></g><path d="M83,734.9h-4.5l-.7,2.1h-2.4l4-11.2h2.6L86,737h-2.3l-.7-2.1Zm-.7-1.8l-1.6-4.7-1.6,4.7h3.2Zm10.2-5c1,0,1.9.2,2.5,1c.7.6,1,1.5,1,2.7v5.2h-2.2v-4.9c0-.7-.2-1.2-.6-1.6-.3-.4-.8-.6-1.4-.6-.562126-.019826-1.106617.19797-1.5.6-.3.4-.5.9-.5,1.6v4.9h-2.2v-8.9h2.2v1.1c.289284-.383778.666537-.69244,1.1-.9.5-.2,1-.3,1.6-.3Zm5,4.4c0-.9.2-1.7.6-2.3.3-.7.8-1.3,1.5-1.6s1.3-.6,2-.6c1.164646-.03169,2.276194.487032,3,1.4v-4.2h2.2v11.8h-2.3v-1.3c-.276962.420341-.655243.764233-1.1,1-.6.3-1.1.4-1.8.4s-1.4-.1-2-.5-1.2-1-1.5-1.6c-.4-.8-.5-1.6-.5-2.5Zm7,0c0-.5,0-1-.3-1.3l-.8-1-1.2-.2c-.4,0-.8,0-1.2.3s-.6.5-.8.9c-.2.3-.4.8-.4,1.3s.2,1,.4,1.4l.8,1l1.2.3l1.2-.3c.3-.2.6-.5.8-1c.2-.3.3-.8.3-1.3Zm6.7-3c.3-.5.7-.8,1.1-1c.5-.4,1-.5,1.6-.5v2.4h-.6c-.7,0-1.2.1-1.6.5-.3.3-.5.9-.5,1.7v4.4h-2.2v-8.9h2.2v1.4Zm12.5,2.9v.8h-6.7c.1.7.3,1.2.7,1.5.4.4.9.6,1.5.6.8,0,1.4-.4,1.7-1h2.5c-.559996,1.810384-2.313493,2.979383-4.2,2.8-.8,0-1.6-.1-2.3-.5s-1.2-1-1.6-1.6c-.363245-.746113-.535077-1.570903-.5-2.4c0-1,.2-1.8.5-2.4.4-.7,1-1.3,1.6-1.6s1.4-.6,2.3-.6s1.6.2,2.3.5c.6.4,1.2,1,1.5,1.6.4.6.6,1.4.6,2.3Zm-2.3-.7c0-.5-.3-1-.7-1.3-.377588-.397462-.901777-.622502-1.45-.622502s-1.072412.22504-1.45.622502c-.3.3-.6.7-.6,1.3h4.2Zm3.3.8c0-.9.2-1.7.6-2.3.313792-.649858.797547-1.20272,1.4-1.6.630789-.390931,1.357895-.598675,2.1-.6c1.167991-.048087,2.286612.473936,3,1.4v-1.3h2.2v8.9h-2.3v-1.3c-.3.4-.7.8-1.2,1-.5.3-1,.4-1.7.4-.8,0-1.5-.1-2-.5-.7-.4-1.2-1-1.5-1.6-.4-.8-.6-1.6-.6-2.5Zm7,0c0-.5,0-1-.3-1.3-.2-.4-.5-.7-.9-1l-1.1-.2c-.4,0-.8,0-1.2.3s-.6.5-.8.9c-.3.3-.4.8-.4,1.3s.1,1,.4,1.4l.8,1l1.2.3c.4,0,.8-.1,1.1-.3.4-.2.7-.5.9-1c.2-.3.3-.8.3-1.3Zm12.1,4.6c-.7,0-1.4-.1-2-.4-.7-.3-1.2-.6-1.5-1.1s-.6-1.1-.6-1.8h2.4c0,.4.2.8.5,1c.3.3.7.5,1.2.5s1-.2,1.2-.4c.3-.3.5-.6.5-1c0-.3-.1-.6-.3-.8l-.8-.5-1.3-.4-1.7-.6c-.5-.3-.9-.6-1.2-1s-.5-1-.5-1.7c0-.6.2-1.2.5-1.7s.8-.9,1.4-1.1c.632102-.269335,1.312931-.405501,2-.4c1.2,0,2.1.3,2.9.8.755418.566563,1.2,1.455728,1.2,2.4h-2.5c0-.4-.2-.7-.5-1-.3-.2-.7-.4-1.2-.4-.4,0-.8.1-1,.4-.3.2-.4.5-.4,1c0,.2,0,.5.2.7l.8.5l1.2.4l1.8.6c.5.2.9.6,1.2,1s.5,1,.5,1.7c.008653,1.232675-.691513,2.360722-1.8,2.9-.6.3-1.3.4-2.2.4Zm17-9c1,0,1.9.2,2.6,1c.6.6,1,1.5,1,2.7v5.2h-2.4v-4.9c0-.7-.1-1.2-.5-1.6s-.8-.5-1.4-.5-1.1.1-1.5.5c-.3.4-.5,1-.5,1.6v4.9h-2.3v-4.9c0-.7-.1-1.2-.5-1.6-.3-.4-.8-.5-1.4-.5-.547453-.04644-1.089902.134376-1.5.5-.4.4-.5,1-.5,1.6v4.9h-2.3v-8.9h2.3v1.1c.260899-.371837.60283-.679575,1-.9.5-.2,1-.3,1.6-.3.7,0,1.3.2,1.8.5.6.2,1,.7,1.3,1.2.3-.5.7-1,1.2-1.2.6-.3,1.2-.5,1.8-.5Zm6.8-1c-.4,0-.7-.1-1-.4-.2-.2-.3-.6-.3-1s0-.6.3-.9c.3-.2.6-.3,1-.3s.8,0,1,.3c.3.3.4.6.4,1s-.1.7-.4,1c-.2.2-.6.3-1,.3Zm1.1,1v8.9h-2.2v-8.9h2.2Zm4.9,1.9v4.3c0,.3,0,.5.2.6l.7.2h1v1.9h-1.4c-1.9,0-2.8-1-2.8-2.8v-4.2h-1v-2h1v-2h2.3v2.2h2v1.9h-2Zm8.5-2c.7,0,1.3.2,1.8.5.6.2,1,.7,1.3,1.3.3.5.4,1.2.4,2v5.2h-2.2v-4.9c0-.7-.2-1.2-.6-1.6-.3-.4-.8-.6-1.4-.6-.562126-.019826-1.106617.19797-1.5.6-.3.4-.5.9-.5,1.6v4.9h-2.2v-11.8h2.2v4l1.1-.9c.5-.2,1-.3,1.6-.3ZM82.3,750h-4.9v3.2c.2-.3.5-.6,1-.8l1.3-.2c.8,0,1.4.1,2,.4l1,1.3c.2.5.3,1,.3,1.6c0,.7-.2,1.3-.4,1.8s-.7,1-1.2,1.3-1.1.4-1.9.4c-1,0-1.8-.2-2.4-.7s-1-1.2-1-2h1.2c0,.5.3.9.7,1.2s1,.5,1.5.5c.8,0,1.3-.3,1.7-.7.4-.5.5-1,.5-1.8s-.1-1.3-.5-1.7-1-.6-1.7-.6c-.5,0-.9.2-1.3.4-.369062.236641-.650144.587994-.8,1h-1.2v-5.7h6.1v1Zm8.8,0h-4.9v3.2c.2-.3.5-.6,1-.8l1.3-.2c.8,0,1.4.1,1.9.4.5.4.8.8,1,1.3s.4,1,.4,1.6c0,.7-.2,1.3-.4,1.8s-.7,1-1.2,1.3-1.1.4-1.9.4c-1,0-1.8-.2-2.4-.7s-1-1.2-1-2h1.1c0,.5.3.9.7,1.2s1,.5,1.5.5c.8,0,1.3-.3,1.7-.7.4-.5.5-1,.5-1.8s-.1-1.3-.5-1.7-1-.6-1.7-.6c-.5,0-.9.2-1.3.4-.369062.236641-.650144.587994-.8,1h-1.1v-5.7h6.1v1Zm5.5-1.2c.7,0,1.3.2,1.8.5.6.3,1,.7,1.3,1.2.2.5.4,1,.4,1.7c0,.6-.1,1-.3,1.6-.1.5-.4,1-.8,1.5l-2.6,3.8h-1.4l2.7-3.7-1.2.2c-.7,0-1.3-.2-1.8-.5-.457009-.263568-.836432-.642991-1.1-1.1-.3-.5-.4-1.1-.4-1.8-.066643-1.245903.596939-2.416929,1.7-3c.5-.2,1-.4,1.7-.4Zm-2.3,3.4c0,.8.2,1.3.6,1.8.5.4,1,.6,1.7.6s1.3-.2,1.7-.6c.4-.5.6-1,.6-1.7c0-.8-.2-1.4-.6-1.8s-1-.6-1.7-.6-1.2.2-1.7.6c-.4.4-.6,1-.6,1.7Zm7.5,1.6c0-1.6.2-2.8.7-3.7.6-1,1.5-1.4,2.8-1.4s2.2.5,2.7,1.4.8,2.1.8,3.7c0,1.7-.3,3-.8,3.8-.5,1-1.4,1.4-2.7,1.4s-2.2-.5-2.8-1.4c-.5-.9-.7-2.1-.7-3.8Zm5.7,0l-.1-2c-.1-.6-.3-1-.7-1.4-.3-.3-.8-.5-1.4-.5s-1.1.2-1.5.5c-.3.3-.5.8-.6,1.4l-.2,2c0,.9,0,1.6.2,2.1c0,.6.3,1,.6,1.4.4.4.9.5,1.5.5s1-.1,1.4-.5c.4-.3.6-.8.7-1.4l.1-2Zm6.4-3.8v-1h2.7v10h-1.3v-9h-1.4Zm7.7,5.3l1.8-2c.3-.5.5-1,.5-1.6c0-.5-.2-1-.5-1.3s-.8-.5-1.4-.5-1.1.2-1.5.7c-.3.4-.5.9-.5,1.6h-1.3c0-.7.2-1.3.5-1.8s.7-1,1.2-1.2c.4-.2,1-.4,1.6-.4c1,0,1.8.3,2.3.8.6.6.9,1.3.9,2.1c0,.7-.2,1.3-.6,2-.4.6-1,1.4-2,2.3l-2,2h4.8v1h-6.7v-1l3-2.7Zm5.2,1.4v-1l5-6.7h1.4v6.6h1.4v1.1h-1.4v2.3h-1.2v-2.3h-5.2Zm5.2-6.4l-3.7,5.3h3.7v-5.3Zm10.4-.3h-5v3.2l1-.8l1.4-.2c.7,0,1.4.1,1.9.4.4.4.8.8,1,1.3s.3,1,.3,1.6c.062364,1.194203-.507219,2.333369-1.5,3-.5.4-1.2.5-2,.5-1,0-1.7-.2-2.3-.7s-1-1.2-1.1-2h1.2c.1.5.4.9.8,1.2s.9.5,1.5.5c.7,0,1.3-.3,1.6-.7.4-.5.6-1,.6-1.8s-.2-1.3-.6-1.7c-.3-.4-.9-.6-1.6-.6-.5,0-1,.2-1.3.4-.369062.236641-.650144.587994-.8,1h-1.2v-5.7h6v1Zm5.7,6.7v-1l5-6.7h1.5v6.6h1.4v1.1h-1.4v2.3h-1.3v-2.3h-5.2Zm5.3-6.4l-3.8,5.3h3.8v-5.3Zm10.3-.3h-5v3.2l1-.8l1.4-.2c.8,0,1.4.1,1.9.4.5.4.8.8,1,1.3s.3,1,.3,1.6c0,.7,0,1.3-.3,1.8s-.7,1-1.2,1.3-1.2.4-2,.4c-.9,0-1.7-.2-2.3-.7s-1-1.2-1.1-2h1.2c.2.5.4.9.8,1.2s.9.4,1.5.4c.7,0,1.3-.2,1.7-.6.3-.5.5-1,.5-1.8s-.2-1.3-.5-1.7c-.4-.4-1-.6-1.7-.6-.5,0-1,.2-1.3.4-.369062.236641-.650144.587994-.8,1h-1.2v-5.7h6.1v1Zm2,0v-1h2.6v10h-1.3v-9h-1.3Zm4.8,3.8c0-1.6.3-2.8.8-3.7.5-1,1.4-1.4,2.7-1.4s2.3.5,2.8,1.4.8,2.1.8,3.7c0,1.7-.3,3-.8,3.8-.5,1-1.5,1.4-2.8,1.4s-2.2-.5-2.7-1.4-.8-2.1-.8-3.8Zm5.8,0c0-.8,0-1.5-.2-2c0-.6-.3-1-.6-1.4-.4-.3-.8-.5-1.5-.5-.6,0-1,.2-1.4.5-.3.3-.6.8-.7,1.4l-.1,2l.1,2.1c.1.6.4,1,.7,1.4s.8.5,1.4.5c.7,0,1.1-.1,1.5-.5.3-.3.5-.8.6-1.4l.2-2Zm6.7,0c0-1.6.3-2.8.8-3.7.5-1,1.5-1.4,2.8-1.4s2.2.5,2.7,1.4.8,2.1.8,3.7c0,1.7-.3,3-.8,3.8-.5,1-1.4,1.4-2.7,1.4s-2.3-.5-2.8-1.4-.8-2.1-.8-3.8Zm5.8,0l-.1-2c-.1-.6-.4-1-.7-1.4-.3-.3-.8-.5-1.4-.5-.7,0-1.2.2-1.5.5s-.5.8-.6,1.4l-.2,2c0,.9,0,1.6.2,2.1c0,.6.3,1,.6,1.4s.8.5,1.5.5c.6,0,1-.1,1.4-.5.3-.3.6-.8.7-1.4l.1-2Zm6.5-1c1,0,1.8.3,2.4.8.6.6.9,1.3.9,2.3.018496.875905-.346819,1.716129-1,2.3-.6.6-1.4.9-2.5.9-1,0-1.7-.3-2.3-.8-.627018-.560711-.989832-1.358903-1-2.2h1.2c0,.6.3,1,.6,1.4.4.3,1,.5,1.6.5s1.1-.2,1.5-.6.6-.8.6-1.5-.2-1.2-.6-1.5-.8-.6-1.5-.6h-1.4v-1l2.8-2.9h-4.3v-1h5.8v1l-2.8,2.9Zm4.6-2.8v-1h2.6v10h-1.3v-9h-1.2Zm11-.1l-3.8,9.1h-1.3l4-9h-5.5v-1h6.7v.9Z"></path><circle r="8" transform="translate(235.4 754)" fill="#f79e1b"></circle><circle r="8" transform="translate(225.6 754)" fill="#eb001b"></circle><path d="M230.5,760.3c1.937459-1.516297,3.069483-3.839735,3.069483-6.3s-1.132024-4.783703-3.069483-6.3c-1.937459,1.516297-3.069483,3.839735-3.069483,6.3s1.132024,4.783703,3.069483,6.3Z" fill="#ff5f00"></path></g></g><g clip-path="url(#eu1ahzq5cOg78)"><rect width="311" height="86" rx="12" ry="12" transform="translate(16 346)" fill="#fff"></rect><path d="M293,363.5h-4.5v4.5h1.5v-3h3v-1.5Zm12,0h4.5v4.5h-1.5v-3h-3v-1.5Zm-12,21h-4.5v-4.5h1.5v3h3v1.5Zm12,0h4.5v-4.5h-1.5v3h-3v1.5Zm0-4.5h-12c-.4,0-.8-.2-1-.4s-.5-.7-.5-1.1v-9c0-.4.2-.8.4-1s.7-.5,1.1-.5h12c.4,0,.8.2,1,.4s.5.7.5,1.1v9c0,.4-.2.8-.4,1s-.7.5-1.1.5Zm-12-10.5v9h12v-9h-12Z"></path><path d="M43.9,381.7v1.3h-10.2v-1.3h10.3Zm13.5,0v1.3h-10.2v-1.3h10.2Zm13.5,0v1.3h-10.2v-1.3h10.2Zm13.4,0v1.3h-10.2v-1.3h10.2Zm19,0v1.3h-10.3v-1.3h10.2Zm13.5,0v1.3h-10.2v-1.3h10.2Zm13.4,0v1.3h-10.1v-1.3h10.1Zm13.5,0v1.3h-10.2v-1.3h10.2Zm19,0v1.3h-10.2v-1.3h10.2Zm13.5,0v1.3h-10.2v-1.3h10.2Zm13.4,0v1.3h-10.1v-1.3h10.1Zm13.5,0v1.3h-10.1v-1.3h10.2Zm19,0v1.3h-10.2v-1.3h10.2Zm13.5,0v1.3h-10.2v-1.3h10.2Zm13.4,0v1.3h-10v-1.3h10Zm13.5,0v1.3h-10.2v-1.3h10.2ZM34.6,401.9v3.9h4.4v1h-4.3v4h4.8v1.2h-6.2v-11.3h6.2v1.2h-4.8Zm11.3,1.2c1,0,1.8.3,2.5,1c.6.6,1,1.6,1,2.8v5.1h-1.5v-5c0-.9-.3-1.5-.7-2s-1-.7-1.8-.7-1.5.3-2,.8c-.4.5-.7,1.3-.7,2.2v4.7h-1.4v-8.8h1.4v2.1c.184369-.691686.60999-1.294649,1.2-1.7.6-.3,1.2-.5,2-.5Zm9.8,7.6v1.3h-1c-1,0-1.6-.2-2-.6-.5-.5-.7-1.2-.7-2.2v-4.7h-1.3v-1.3h1.3v-2.2h1.4v2.2h2.3v1.3h-2.3v4.7c0,.6.1,1,.4,1.2.2.2.5.3,1,.3h1Zm9.9-3.6v.8h-7.1c0,1,.3,1.8.9,2.3.5.5,1.2.7,2,.7.6,0,1.2-.1,1.7-.5s.8-.8.9-1.4h1.5c-.200428,1.196314-.989832,2.211262-2.1,2.7-.6.3-1.3.4-2,.4-.8,0-1.6-.2-2.2-.5s-1.2-1-1.6-1.6c-.3-.7-.5-1.5-.5-2.4s.2-1.7.5-2.4c.4-.7,1-1.2,1.6-1.6s1.4-.5,2.2-.5c.9,0,1.6.2,2.2.5.7.4,1.1.9,1.5,1.5.3.6.5,1.3.5,2Zm-1.5.1c0-.6,0-1.2-.3-1.6s-.6-.8-1-1c-.435614-.211527-.91596-.314459-1.4-.3-.8,0-1.5.2-2,.7-.6.5-.9,1.3-.9,2.2h5.6ZM69,405c.2-.6.7-1,1.2-1.4.6-.4,1.2-.5,2-.5v1.6h-.4c-.717006-.045945-1.42669.166961-2,.6-.6.4-.8,1.1-.8,2v4.7h-1.5v-8.8h1.5v1.8Zm12.5-1.9c1.1,0,2,.3,2.8.9s1.2,1.4,1.3,2.4h-1.5c-.1-.6-.4-1.1-.9-1.5-.5-.3-1-.5-1.8-.5-.5,0-1,.1-1.4.3-.4.3-.7.6-1,1.1-.2.5-.4,1.1-.4,1.8s.2,1.3.4,1.8c.462664.890839,1.396819,1.435763,2.4,1.4.7,0,1.3-.1,1.8-.5s.8-.9.9-1.5h1.5c-.1,1-.6,1.8-1.3,2.4-.8.6-1.7,1-2.8,1-.9,0-1.6-.3-2.3-.6-.639302-.383167-1.158832-.937332-1.5-1.6-.4-.7-.5-1.5-.5-2.4s.1-1.7.5-2.4.9-1.2,1.5-1.6c.7-.3,1.4-.5,2.3-.5Zm9.6,0c.9,0,1.6.2,2.2.6.6.5,1,1,1.2,1.8v-2.3h1.5v8.8h-1.5v-2.2c-.2.7-.6,1.2-1.2,1.7-.6.4-1.3.6-2.2.6-.8,0-1.4-.2-2-.5s-1.1-1-1.5-1.6c-.3-.7-.5-1.5-.5-2.4s.2-1.7.5-2.4c.659806-1.32034,2.024497-2.139154,3.5-2.1Zm.4,1.3c-.9,0-1.6.3-2.1.9-.5.5-.8,1.3-.8,2.3s.3,1.8.8,2.4c.5.5,1.2.8,2.1.8.6,0,1.1-.1,1.6-.4.4-.2.8-.6,1-1c.3-.6.4-1.1.4-1.8s0-1.2-.3-1.7c-.53672-.977556-1.58645-1.560739-2.7-1.5Zm8.3.6c.3-.6.7-1,1.2-1.4.6-.4,1.2-.5,2-.5v1.6h-.4c-.717006-.045945-1.42669.166961-2,.6-.6.4-.8,1.1-.8,2v4.7h-1.5v-8.8h1.5v1.8Zm8.2-1.9c.9,0,1.6.2,2.2.6.6.5,1,1,1.3,1.8v-5.3h1.4v11.8h-1.4v-2.2c-.3.7-.7,1.2-1.3,1.7-.6.4-1.3.6-2.2.6-.7,0-1.4-.2-2-.5s-1.1-1-1.5-1.6c-.3-.7-.5-1.5-.5-2.4s.2-1.7.5-2.4c.659806-1.32034,2.024497-2.139154,3.5-2.1Zm.5,1.3c-1,0-1.7.3-2.2.9-.5.5-.8,1.3-.8,2.3s.3,1.8.8,2.4c.5.5,1.3.8,2.2.8.5,0,1-.1,1.5-.4.5-.2.8-.6,1-1c.3-.6.5-1.1.5-1.8s-.2-1.2-.4-1.7-.6-.8-1.1-1.1c-.456244-.262633-.973565-.400585-1.5-.4Zm15.3-1.3c1,0,1.9.3,2.5,1c.6.6,1,1.6,1,2.8v5.1h-1.5v-5c0-.9-.2-1.5-.7-2s-1-.7-1.8-.7-1.5.3-2,.8c-.4.5-.7,1.3-.7,2.2v4.7h-1.4v-8.8h1.4v2.1c.184369-.691686.60999-1.294649,1.2-1.7.6-.3,1.3-.5,2-.5Zm13.5.1v8.8h-1.5v-2c-.205214.654892-.628764,1.219625-1.2,1.6-.5.4-1.2.5-2,.5-1,0-1.8-.3-2.4-1-.7-.6-1-1.5-1-2.8v-5h1.5v4.9c0,.9.2,1.5.7,2c.4.5,1,.7,1.8.7s1.4-.2,1.9-.7c.5-.6.7-1.3.7-2.3v-4.7h1.5Zm13.1-.1c1,0,1.9.3,2.5,1c.6.6,1,1.6,1,2.8v5.1h-1.5v-5c0-.8-.3-1.5-.7-2-.4-.4-1-.6-1.7-.6-.8,0-1.4.2-1.9.7-.4.5-.7,1.3-.7,2.2v4.7h-1.4v-5c0-.8-.2-1.5-.6-2-.5-.4-1-.6-1.8-.6s-1.4.2-1.8.7c-.5.5-.7,1.3-.7,2.2v4.7h-1.5v-8.8h1.5v2c.2-.7.6-1.2,1.1-1.6.6-.3,1.2-.5,1.9-.5s1.4.2,2,.5c.5.4.9,1,1.1,1.7.3-.7.7-1.3,1.3-1.6.5-.4,1.2-.6,2-.6Zm10.5,0c.8,0,1.5.2,2.1.5s1,1,1.4,1.6c.4.7.6,1.5.6,2.4s-.2,1.7-.6,2.4c-.640133,1.338397-2.017823,2.165011-3.5,2.1-.8,0-1.6-.2-2.2-.6-.5-.5-1-1-1.2-1.7v2.2h-1.4v-11.8h1.4v5.3c.3-.7.7-1.3,1.2-1.7.6-.5,1.4-.7,2.2-.7Zm-.4,1.3c-.526435-.000585-1.043756.137367-1.5.4-.5.3-.8.6-1.1,1.1s-.4,1-.4,1.7.1,1.2.4,1.7.6.9,1,1.1c.5.3,1,.4,1.6.4c1,0,1.6-.3,2.2-.8.5-.6.8-1.4.8-2.4s-.3-1.8-.8-2.3c-.6-.6-1.3-.9-2.2-.9Zm14.4,2.7v.8h-7c0,1,.3,1.8.8,2.3s1.2.7,2,.7c.7,0,1.3-.1,1.7-.5.5-.4.8-.8,1-1.4h1.5c-.237419,1.210455-1.062446,2.222989-2.2,2.7-.6.3-1.2.4-2,.4s-1.5-.2-2.2-.5c-.639302-.383167-1.158832-.937332-1.5-1.6-.4-.7-.6-1.5-.6-2.4s.2-1.7.6-2.4c.3-.7.9-1.2,1.5-1.6.7-.3,1.4-.5,2.2-.5.9,0,1.6.2,2.3.5.6.4,1,.9,1.4,1.5s.5,1.3.5,2Zm-1.4.1c.018763-.560229-.119807-1.11451-.4-1.6-.2-.5-.5-.8-1-1-.435614-.211527-.91596-.314459-1.4-.3-.8,0-1.4.2-2,.7-.5.5-.8,1.3-.9,2.2h5.7Zm4.8-2.2c.3-.6.7-1,1.3-1.4.5-.4,1.2-.5,2-.5v1.6h-.5c-.717006-.045945-1.42669.166961-2,.6-.5.4-.8,1.1-.8,2v4.7h-1.5v-8.8h1.5v1.8Z" fill="#8e8e93"></path><g clip-path="url(#eu1ahzq5cOg75)"><g transform="translate(343 346)"><rect width="311" height="86" rx="12" ry="12" fill="url(#eu1ahzq5cOg72-fill)"></rect><circle r="50" fill="url(#eu1ahzq5cOg73-fill)"></circle><rect width="311" height="86" rx="12" ry="12" opacity="0.1" fill="none"></rect></g><clipPath id="eu1ahzq5cOg75"><rect width="311" height="86" rx="12" ry="12" transform="translate(343 346)" fill="#fff"></rect></clipPath></g><path d="M375.6,367v14h-2.8v-9l-3.7,9h-2.2l-3.7-9v9h-2.8v-14h3.2l4.4,10.4l4.4-10.4h3.2Zm2,8.4c0-1.1.3-2,.7-3c.405977-.818619,1.02852-1.510334,1.8-2c.8-.4,1.7-.7,2.6-.7c1.451488-.031999,2.829248.638263,3.7,1.8v-1.6h2.8v11.1h-2.8v-1.6c-.4.5-.9,1-1.5,1.3-.7.3-1.4.5-2.2.5-1,0-1.8-.3-2.6-.7-.765078-.497198-1.385861-1.186957-1.8-2-.4-1-.7-2-.7-3Zm8.8,0c0-.6-.2-1.2-.4-1.7-.3-.5-.7-.8-1.1-1.1-.5-.3-1-.4-1.5-.4s-1,.1-1.4.4-.8.6-1,1.1c-.4.5-.5,1-.5,1.7s.1,1.3.4,1.8.6.9,1,1.1c.5.3,1,.4,1.5.4s1-.1,1.5-.4c.4-.2.8-.6,1-1c.3-.6.5-1.2.5-1.8Zm7-6.8c-.5,0-1-.2-1.3-.5s-.5-.7-.5-1.1.2-.9.5-1.2.8-.5,1.2-.5s1,.2,1.3.5.5.7.5,1.2-.2.8-.5,1.1c-.4.3-.8.5-1.3.5Zm1.3,1.3v11.1h-2.7v-11h2.8Zm9-.1c1.2,0,2.3.4,3.1,1.2s1.2,2,1.2,3.5v6.5h-2.8v-6.1c0-.9-.2-1.6-.6-2-.5-.5-1-.8-1.8-.8s-1.4.3-1.9.8c-.4.4-.6,1.1-.6,2v6.1h-2.8v-11h2.8v1.3c.4-.5.8-.9,1.4-1.1.6-.3,1.2-.4,2-.4Zm11,5.7c0-1.2.3-2.2.8-3c.433256-.831646,1.09165-1.524693,1.9-2c.8-.5,1.8-.8,2.8-.8c1.4,0,2.5.4,3.4,1c.979067.73384,1.655067,1.801209,1.9,3h-3c-.2-.5-.5-.9-.9-1.2-.4-.2-.8-.4-1.4-.4-.8,0-1.4.3-1.9.9-.4.6-.7,1.4-.7,2.5c0,1,.3,1.8.7,2.4.5.6,1.1.9,2,.9c1,0,1.8-.5,2.1-1.5h3c-.2,1.2-.9,2.1-1.8,2.8s-2,1-3.4,1c-1,0-2-.2-2.8-.6-.845264-.46028-1.53972-1.154736-2-2-.4-.9-.6-1.9-.6-3Zm12,0c0-1.2.3-2.2.7-3c.433256-.831646,1.09165-1.524693,1.9-2c.7-.5,1.6-.8,2.5-.8c1.451488-.031999,2.829248.638263,3.7,1.8v-1.6h2.8v11.1h-2.8v-1.6c-.4.5-.9,1-1.5,1.3s-1.3.5-2.2.5-1.8-.3-2.5-.7c-.805034-.479469-1.462418-1.171452-1.9-2-.4-1-.6-2-.6-3Zm8.8,0c0-.7-.1-1.3-.4-1.8s-.6-.8-1-1.1c-.5-.3-1-.4-1.5-.4s-1,.1-1.5.4-.8.6-1,1.1c-.3.5-.5,1-.5,1.7s.2,1.3.4,1.8c.3.5.7.9,1.1,1.1.5.3,1,.4,1.5.4s1-.1,1.4-.4c.444757-.235767.823038-.579659,1.1-1c.3-.6.4-1.2.4-1.8Zm8.4-3.9c.727631-1.179598,2.014036-1.898472,3.4-1.9v3h-.8c-.9,0-1.5.2-2,.6-.4.4-.6,1.2-.6,2.2v5.5h-2.9v-11h2.8v1.6Zm4.5,3.8c0-1.1.3-2,.7-3c1.205808-2.381321,4.095772-3.359463,6.5-2.2.601284.300421,1.117167.74752,1.5,1.3v-5.3h2.9v14.8h-3v-1.6c-.3.5-.8,1-1.4,1.3-.7.3-1.4.5-2.2.5-1,0-1.8-.3-2.6-.7-.77148-.489666-1.394023-1.181381-1.8-2-.4-1-.7-2-.7-3Zm8.8,0c0-.6-.2-1.2-.4-1.7-.3-.5-.7-.8-1.1-1.1-.5-.3-1-.4-1.5-.4s-1,.1-1.4.4-.8.6-1.1,1.1-.4,1-.4,1.7.1,1.3.4,1.8.6.9,1,1.1c.5.3,1,.4,1.5.4s1-.1,1.5-.4c.40826-.24888.75112-.59174,1-1c.3-.6.5-1.2.5-1.8Zm-89.7,26.5h-5.8v3.7c.3-.3.7-.6,1.2-.8s1-.3,1.6-.3c.8,0,1.5.1,2,.5.5.3,1,.7,1.2,1.3.2.5.4,1.2.4,1.8c0,1.2-.4,2.1-1,2.9s-1.6,1-2.9,1c-1.1,0-2-.2-2.8-.8-.727149-.632568-1.161271-1.53699-1.2-2.5h1.5c.1.6.4,1.2.8,1.5.4.4,1,.6,1.7.6.8,0,1.4-.3,1.8-.8s.6-1,.6-1.9c0-.8-.2-1.4-.6-1.8s-1-.7-1.8-.7c-.6,0-1,.2-1.5.4-.4.2-.7.6-1,1h-1.3v-6.4h7.1v1.3Zm1.6.2v-1.4h3.2v11.3h-1.5v-10h-1.8Zm11.6,1.6c0-.6-.3-1.2-.7-1.5-.393383-.40203-.937874-.619826-1.5-.6-.9,0-1.6.4-2,1-.5.8-.7,1.9-.7,3.4v.6c.1-.6.5-1.1,1-1.5.7-.4,1.3-.6,2.1-.6c1.1,0,2,.3,2.6,1c.680711.77018,1.038807,1.772849,1,2.8c0,.7-.1,1.4-.4,2-.3.5-.7,1-1.3,1.3s-1.3.5-2.1.5c-1.6,0-2.7-.5-3.3-1.5s-1-2.4-1-4.1c0-2,.4-3.5,1-4.5.7-1,1.7-1.6,3.2-1.6c1,0,2,.3,2.5,1c.571278.639641.921849,1.445956,1,2.3h-1.4Zm-4.8,4.4c0,.8.3,1.4.7,2c.5.5,1.2.7,2,.7s1.4-.2,1.9-.6c.4-.5.6-1,.6-1.9c0-.8-.2-1.5-.6-2-.5-.4-1.1-.6-1.9-.6-.4,0-.9,0-1.3.2s-.7.5-1,.9c-.2.3-.4.8-.4,1.3Zm15.1-6.3L386.7,412h-1.5l4.3-10h-5.9v-1.3h7.4v1Zm4.6.3v-1.4h3.3v11.3h-1.6v-10h-1.7Zm5.1,8.8c1.8-1.2,3.3-2.4,4.4-3.6c1-1.2,1.6-2.4,1.6-3.4c0-.6-.2-1.1-.5-1.5s-.9-.6-1.6-.6-1.3.2-1.7.7-.6,1.1-.6,2h-1.5c.1-1.3.5-2.3,1.2-3c.7-.6,1.6-1,2.7-1c1,0,2,.3,2.5.9.680693.606493,1.048658,1.489611,1,2.4c0,.8-.3,1.7-.9,2.6-.5.9-1.2,1.7-2,2.4-.795859.753981-1.667103,1.424168-2.6,2h5.8v1.1h-7.8v-1Zm9.5-7.5c0-.6.2-1,.5-1.5.317983-.484541.769511-.866603,1.3-1.1.662978-.283167,1.379349-.419619,2.1-.4.720651-.019619,1.437022.116833,2.1.4.6.2,1,.6,1.3,1c.3.5.5,1,.5,1.6s-.2,1.1-.5,1.6c-.4.5-.9.8-1.6,1c.8.2,1.3.5,1.8,1s.6,1.2.6,1.9c.032263.979296-.41574,1.912635-1.2,2.5-.7.6-1.7,1-3,1-1.2,0-2.2-.4-3-1-.746749-.608418-1.15594-1.538398-1.1-2.5c0-.7.2-1.4.6-1.9s1-.8,1.7-1c-.7-.2-1.2-.5-1.5-1-.4-.5-.6-1-.6-1.6Zm1.5.2c0,.6.2,1.1.6,1.5.5.3,1,.5,1.8.5s1.4-.2,1.8-.5c.4-.4.6-.9.6-1.5s-.2-1.1-.6-1.5c-.5-.3-1-.5-1.8-.5s-1.3.2-1.8.5c-.4.4-.6.8-.6,1.5Zm-.3,5.2c0,.7.2,1.3.7,1.7s1.2.6,2,.6c.717006.045945,1.42669-.166961,2-.6.5-.4.7-1,.7-1.7s-.2-1.3-.7-1.6-1.2-.6-2-.6-1.4.2-2,.6-.7.9-.7,1.6Zm8.6-2.5c0,1.8.3,3.2,1,4.2.5,1,1.5,1.5,3,1.5s2.5-.5,3.1-1.5s1-2.4,1-4.2-.4-3.2-1-4.2-1.6-1.5-3-1.5-2.6.5-3.2,1.5-.9,2.4-.9,4.2Zm6.6,0c0,1,0,1.7-.2,2.3-.1.6-.4,1.1-.8,1.5-.3.4-.9.6-1.6.6s-1.2-.2-1.6-.6c-.369387-.424459-.611955-.944248-.7-1.5-.140433-.758457-.207409-1.528687-.2-2.3c0-1,0-1.7.2-2.3c0-.6.3-1.1.7-1.5s1-.5,1.6-.5c.7,0,1.3.1,1.6.5.4.4.7.9.8,1.5l.2,2.3Zm11-5.9c.8,0,1.4.1,2,.4.980067.483275,1.572204,1.509645,1.5,2.6c0,.7-.2,1.3-.6,1.8-.4.4-1,.7-1.8.8v.1c.8.2,1.5.6,2,1c.4.5.6,1,.6,1.9.015707.825971-.309886,1.621865-.9,2.2-.6.6-1.5,1-2.7,1-1.1,0-2-.4-2.8-1-.752198-.666755-1.217915-1.598189-1.3-2.6h1.5c0,.7.3,1.2.8,1.6.4.5,1,.7,1.8.7.7,0,1.3-.2,1.6-.6.4-.4.6-.8.6-1.4c0-.7-.3-1.3-.8-1.6-.6-.4-1.3-.6-2.4-.6h-.3v-1.2h.3c2,0,3-.7,3-2c0-.5-.2-1-.6-1.3-.3-.4-.8-.6-1.5-.6s-1.1.2-1.6.6c-.4.4-.7,1-.7,1.6h-1.5c.1-1,.5-1.9,1.1-2.5.785174-.644692,1.786241-.966463,2.8-.9Zm9.5,0c.7,0,1.3.1,1.9.4c1.019137.453029,1.654847,1.486057,1.6,2.6c0,.7-.3,1.3-.7,1.8-.4.4-1,.7-1.8.8v.1c.9.2,1.5.6,2,1c.4.5.7,1,.7,1.9-.010168.841097-.372982,1.639289-1,2.2-.6.6-1.5,1-2.6,1-1.2,0-2.1-.4-2.9-1-.715214-.683151-1.144155-1.612525-1.2-2.6h1.4c.1.7.4,1.2.8,1.6.5.5,1,.7,1.8.7.7,0,1.3-.2,1.7-.6.3-.4.5-.8.5-1.4c0-.7-.2-1.3-.8-1.6-.5-.4-1.3-.6-2.3-.6h-.4v-1.2h.4c2,0,3-.7,3-2c0-.5-.3-1-.6-1.3-.4-.4-.9-.6-1.5-.6s-1.2.2-1.7.6c-.4.4-.6,1-.7,1.6h-1.4c0-1,.4-1.9,1-2.5.785174-.644692,1.786241-.966463,2.8-.9Zm5.5,5.9c0,1.8.3,3.2,1,4.2.5,1,1.6,1.5,3,1.5s2.6-.5,3.1-1.5c.7-1,1-2.4,1-4.2s-.3-3.2-1-4.2c-.5-1-1.6-1.5-3-1.5s-2.6.5-3.2,1.5-.9,2.4-.9,4.2Zm6.6,0c0,1,0,1.7-.2,2.3-.1.6-.4,1.1-.7,1.5-.4.4-1,.6-1.7.6-.6,0-1.2-.2-1.6-.6-.369387-.424459-.611955-.944248-.7-1.5-.140433-.758457-.207409-1.528687-.2-2.3c0-1,0-1.7.2-2.3.1-.6.4-1.1.7-1.5.4-.4,1-.5,1.6-.5.7,0,1.3.1,1.7.5.3.4.6.9.7,1.5.2.6.2,1.4.2,2.3Zm3.3,0c0,1.8.3,3.2.9,4.2s1.6,1.5,3,1.5s2.6-.5,3.2-1.5.9-2.4.9-4.2-.3-3.2-1-4.2c-.5-1-1.6-1.5-3-1.5s-2.5.5-3.1,1.5-1,2.4-1,4.2Zm6.6,0c0,1-.1,1.7-.3,2.3c0,.6-.3,1.1-.7,1.5s-1,.6-1.6.6c-.7,0-1.3-.2-1.6-.6-.405719-.412405-.683541-.933323-.8-1.5-.140433-.758457-.207409-1.528687-.2-2.3c0-1,0-1.7.2-2.3.1-.6.4-1.1.8-1.5.3-.4.9-.5,1.6-.5s1.2.1,1.6.5.6.9.7,1.5c.2.6.3,1.4.3,2.3Zm6.5-4.2v-1.4h3.2v11.3h-1.6v-10h-1.6Zm5,8.8c1.8-1.2,3.3-2.4,4.4-3.6c1-1.2,1.6-2.4,1.6-3.4c0-.6-.2-1.1-.5-1.5s-.8-.6-1.6-.6c-.7,0-1.3.2-1.7.7s-.6,1.1-.6,2h-1.4c0-1.3.4-2.3,1.1-3c.7-.6,1.6-1,2.7-1s2,.3,2.6.9c.643862.625122.974062,1.505656.9,2.4-.050953.933778-.36276,1.834552-.9,2.6-.5.9-1.2,1.7-2,2.4-.795859.753981-1.667103,1.424168-2.6,2h5.8v1.1h-7.8v-1Zm11-2c0,.6.3,1.1.7,1.5.4.3.9.5,1.5.5c1,0,1.6-.3,2-1c.5-.7.7-1.8.7-3.3v-.7c-.1.7-.5,1.2-1,1.6s-1.3.5-2.1.5c-1.1,0-2-.3-2.6-1s-1-1.6-1-2.8c0-.7.1-1.3.4-1.9s.7-1,1.3-1.4c.6-.3,1.3-.5,2.1-.5c1.6,0,2.7.5,3.3,1.5s1,2.4,1,4.1c.080676,1.594897-.264464,3.18254-1,4.6-.6,1-1.6,1.5-3,1.5-1.2,0-2-.3-2.6-.9s-1-1.4-1.1-2.4h1.4Zm4.8-4.5c0-.7-.3-1.4-.7-1.9-.5-.5-1.1-.8-2-.8-.8,0-1.4.2-1.8.7s-.7,1-.7,1.8c0,.9.2,1.5.7,2s1,.7,1.8.7c.5,0,.9,0,1.3-.3.4-.2.7-.4,1-.8s.4-.8.4-1.4Zm5,4.4c0,.7.2,1.2.6,1.6s.9.5,1.6.5c.8,0,1.5-.3,2-1s.7-1.8.7-3.3v-.7c-.2.7-.6,1.2-1.1,1.6s-1.3.5-2,.5c-1.2,0-2-.3-2.7-1s-1-1.6-1-2.8c0-.7.2-1.3.5-1.9s.6-1,1.2-1.4c.6-.3,1.3-.5,2.1-.5c1.7,0,2.8.5,3.4,1.5s.9,2.4.9,4.1c.080676,1.594897-.264464,3.18254-1,4.6-.6,1-1.6,1.5-3,1.5-1.1,0-2-.3-2.6-.9s-1-1.4-1-2.4h1.3Zm4.7-4.4c0-.7-.2-1.4-.7-1.9-.4-.5-1.1-.8-2-.8-.8,0-1.4.2-1.8.7s-.7,1-.7,1.8c0,.9.3,1.5.7,2s1,.7,1.8.7c.5,0,1,0,1.3-.3.4-.2.8-.4,1-.8s.4-.8.4-1.4Z"></path><clipPath id="eu1ahzq5cOg78"><rect width="375" height="118" rx="0" ry="0" transform="translate(0 330)" fill="#fff"></rect></clipPath></g><path d="M335,737.5c.828427,0,1.5-.671573,1.5-1.5s-.671573-1.5-1.5-1.5-1.5.671573-1.5,1.5.671573,1.5,1.5,1.5Zm0,6c.828427,0,1.5-.671573,1.5-1.5s-.671573-1.5-1.5-1.5-1.5.671573-1.5,1.5.671573,1.5,1.5,1.5Zm0,6c.828427,0,1.5-.671573,1.5-1.5s-.671573-1.5-1.5-1.5-1.5.671573-1.5,1.5.671573,1.5,1.5,1.5Z"></path><path d="M24.7,298.8v1.8h-3v9.4h-2.2v-9.4h-3v-1.8h8.2Zm5.6,11.3c-.9,0-1.6-.1-2.3-.5s-1.3-1-1.6-1.6c-.4-.7-.6-1.5-.6-2.4s.2-1.7.6-2.4s1-1.3,1.6-1.6c1.438053-.764451,3.161947-.764451,4.6,0c.713157.352427,1.305037.909491,1.7,1.6.4.7.6,1.5.6,2.4s-.2,1.7-.6,2.4-1,1.2-1.7,1.6-1.5.5-2.3.5Zm0-2c.4,0,.8,0,1.1-.2.4-.2.7-.5.9-.9s.3-.9.3-1.4c0-.9-.2-1.5-.7-2-.4-.4-1-.7-1.6-.7s-1.2.3-1.6.7c-.4.5-.6,1.1-.6,2s.2,1.5.6,2c.4.4,1,.6,1.6.6ZM43,303v4.3c0,.3,0,.5.2.6l.7.2h1v1.9h-1.4c-1.9,0-2.8-1-2.8-2.8v-4.2h-1v-2h1v-2h2.3v2.2h2v1.9h-2Zm8.5-2c.7,0,1.3.2,1.8.5.6.2,1,.7,1.3,1.3.3.5.4,1.2.4,2v5.2h-2.2v-4.9c0-.7-.2-1.2-.6-1.6-.3-.4-.8-.6-1.4-.6-.562126-.019826-1.106617.19797-1.5.6-.3.4-.5.9-.5,1.6v4.9h-2.2v-11.8h2.2v4l1.1-.9c.5-.2,1-.3,1.6-.3Zm13.9,4.4v.8h-6.6c0,.7.3,1.2.7,1.5.4.4.9.6,1.5.6.8,0,1.4-.4,1.7-1h2.5c-.597469,1.770555-2.341196,2.891522-4.2,2.7-.8,0-1.6-.1-2.3-.5s-1.2-1-1.6-1.6c-.363245-.746113-.535077-1.570903-.5-2.4c0-1,.1-1.8.5-2.4.4-.7,1-1.3,1.6-1.6s1.4-.6,2.3-.6c.8,0,1.6.2,2.3.5c1.291334.835869,2.079396,2.261886,2.1,3.8Zm-2.3-.7c0-.5-.3-1-.7-1.3-.4-.4-.9-.6-1.5-.6-.513575-.019404-1.01491.159644-1.4.5-.3.4-.6.8-.7,1.4h4.3Zm7.1.9c0-1,.2-1.7.6-2.4.368224-.676211.923789-1.231776,1.6-1.6.6-.4,1.4-.6,2.2-.6c1.1,0,2,.3,2.8.8.718437.581843,1.213148,1.394583,1.4,2.3h-2.4c-.1-.4-.4-.7-.7-.9s-.6-.3-1-.3c-.7,0-1.2.2-1.6.7-.433039.57331-.645945,1.282994-.6,2c0,.8.2,1.5.6,2c.4.4.9.6,1.5.6c1,0,1.5-.4,1.8-1.2h2.4c-.186852.905417-.681563,1.718157-1.4,2.3-.8.6-1.7.8-2.8.8-.8,0-1.6-.1-2.2-.5-.676211-.368224-1.231776-.923789-1.6-1.6-.397876-.737112-.604191-1.562371-.6-2.4Zm9.7,0c0-1,.1-1.8.5-2.4.341168-.662668.860698-1.216833,1.5-1.6.601786-.373547,1.291969-.580602,2-.6c1.167991-.048087,2.286612.473936,3,1.4v-1.3h2.1v8.9h-2.3v-1.3c-.2.4-.6.8-1.2,1-.5.3-1,.4-1.7.4s-1.4-.1-2-.5c-.7-.4-1.1-1-1.5-1.6-.4-.8-.5-1.6-.5-2.5Zm7,0c0-.6-.2-1-.4-1.4l-.8-1-1.2-.2c-.4,0-.8,0-1.2.3s-.6.5-.8.9c-.2.3-.3.8-.3,1.3s0,1,.3,1.4l.8,1l1.2.3l1.2-.3c.3-.2.6-.5.8-1c.2-.3.3-.8.3-1.3Zm6.6-3c.3-.6.7-1,1.2-1.2.4-.3,1-.4,1.6-.4v2.4h-.6c-.7,0-1.3.1-1.6.5-.4.3-.6.9-.6,1.7v4.4h-2.2v-8.9h2.2v1.4Zm3.7,3c0-1,.2-1.8.5-2.4.4-.7.9-1.3,1.5-1.6s1.3-.6,2-.6c1.164646-.03169,2.276194.487032,3,1.4v-4.2h2.2v11.8h-2.3v-1.3c-.276962.420341-.655243.764233-1.1,1-.5.3-1.1.4-1.8.4s-1.4-.1-2-.5-1.1-1-1.5-1.6c-.3-.8-.5-1.6-.5-2.5Zm7,0c0-.6-.1-1-.4-1.4l-.8-1-1.2-.2c-.4,0-.8,0-1.1.3s-.7.5-1,.9l-.2,1.3c0,.5,0,1,.3,1.4.2.4.5.7.9,1c.3.2.7.3,1.1.3l1.2-.3c.3-.2.6-.5.8-1c.3-.3.4-.8.4-1.3Z"></path><g transform="translate(0 0.150003)" clip-path="url(#eu1ahzq5cOg107)"><g id="eu1ahzq5cOg83_to" transform="translate(187.5,215)"><g transform="translate(-187.5,-215)"><g clip-path="url(#eu1ahzq5cOg90)"><rect width="311" height="86" rx="12" ry="12" transform="translate(32 176)" fill="url(#eu1ahzq5cOg85-fill)"></rect><circle r="50" transform="translate(32 176)" fill="url(#eu1ahzq5cOg86-fill)"></circle><circle r="50" transform="translate(343 242)" fill="url(#eu1ahzq5cOg87-fill)"></circle><circle r="85" transform="translate(188 219)" fill="url(#eu1ahzq5cOg88-fill)"></circle><rect width="311" height="86" rx="12" ry="12" transform="translate(32 176)" opacity="0.1" fill="none"></rect><clipPath id="eu1ahzq5cOg90"><rect width="311" height="86" rx="12" ry="12" transform="translate(32 176)" fill="#fff"></rect></clipPath></g><path d="M323.1,228.2h-3.1c-1,0-1.8.3-2.2,1.3l-6.2,14.3h4.4l.9-2.4h5.3l.6,2.3h3.9l-3.5-15.5Zm-5.1,10l1.7-4.3.5-1.5.3,1.4l1,4.5h-3.5Zm-6.2.5c0,3.2-2.9,5.3-7.3,5.3-1.9,0-3.7-.4-4.7-.8l.6-3.5.5.2c1.4.6,2.3.8,4,.8c1.2,0,2.5-.4,2.5-1.5c0-.7-.6-1.1-2.2-1.9s-3.7-2-3.7-4.2c0-3,3-5.1,7-5.1c1.7,0,3,.3,3.8.7l-.6,3.3-.3-.3c-.983211-.403963-2.037067-.607935-3.1-.6-1.6.1-2.4.8-2.4,1.4c0,.7,1,1.2,2.4,1.9c2.4,1.1,3.5,2.4,3.5,4.3ZM275,228.4v-.3h6.6c.9,0,1.5.3,1.8,1.3l1.4,6.8c-1.761335-4.071725-5.436892-6.997168-9.8-7.8Z" fill="#fff"></path><path d="M294,228.2l-6.6,15.5h-4.5l-3.8-13c2.8,1.8,5,4.5,5.9,6.4l.4,1.6l4-10.5h4.5Zm1.7,0h4.1l-2.6,15.5h-4.2l2.7-15.5ZM243.5,207c0,.7-.2,1.3-.5,2-.4.5-.9,1-1.6,1.4s-1.5.7-2.4.7v1.6h-1.3v-1.6c-1.164297-.063282-2.28118-.482113-3.2-1.2-.831827-.690752-1.309135-1.718802-1.3-2.8h3c.1,1,.6,1.5,1.5,1.7v-3.8l-2.3-.7c-.6-.2-1.1-.6-1.5-1.2-.5-.5-.7-1.2-.7-2.1c0-1.2.4-2.1,1.3-2.9.8-.7,1.9-1.1,3.2-1.2v-1.7h1.3v1.7c1.3,0,2.3.5,3,1.1.8.7,1.3,1.6,1.4,2.8h-3c-.1-.4-.2-.7-.5-1-.2-.3-.5-.5-.9-.6v3.7l2.4.8c.5.2,1,.6,1.5,1.1.4.5.6,1.3.6,2.2Zm-7.3-6.2c0,.5,0,.8.4,1.1.2.3.6.5,1.1.7v-3.6c-.5,0-.8.2-1.1.5s-.4.7-.4,1.2Zm2.8,8c.444518-.02839.866838-.204356,1.2-.5.3-.4.4-.7.4-1.2c0-.4-.1-.8-.4-1l-1.2-.7v3.5Zm18-6.8c1.3.2,2.3.6,3,1.4.8.8,1.1,1.8,1.1,3c0,1-.2,1.8-.6,2.5s-1,1.3-1.8,1.6c-.810644.392621-1.699284.597691-2.6.6-1.5,0-2.7-.4-3.6-1.1-1-.8-1.4-2-1.5-3.4h2.8c0,.7.2,1.2.6,1.6s1,.6,1.7.6s1.3-.2,1.7-.7c.4-.4.6-1,.6-1.7c0-.8-.2-1.4-.7-1.8s-1-.6-1.8-.6h-2v-2l3.2-3.2h-5.4v-2.3h8.8v2.1L257,202Zm9.7,6l-2.3,5.7h-1.8l1.3-5.6h2.8Zm1.4-9v-2.6h4.8v14.6h-3v-12h-1.8Zm17.3-.2h-6.4v3.5c.317337-.396773.730243-.706453,1.2-.9.5-.2,1-.3,1.6-.3c1,0,2,.2,2.6.7s1.2,1,1.5,1.8c.3.7.5,1.5.5,2.3c0,1.5-.5,2.8-1.3,3.7-1,1-2.1,1.4-3.8,1.4-1.5,0-2.7-.4-3.6-1.1s-1.4-1.8-1.5-3h2.7c.1.5.4,1,.8,1.3s1,.4,1.6.4c.8,0,1.4-.2,1.8-.7s.6-1.1.6-2c0-.8-.2-1.4-.6-1.8-.4-.5-1-.7-1.8-.7-.6,0-1,.1-1.4.4s-.7.7-.8,1.1h-2.7v-8.5h9v2.4Zm3.1,4.7c0-2.3.4-4,1.2-5.4.9-1.3,2.3-2,4.2-2c2,0,3.3.7,4.1,2c.934554,1.64113,1.385275,3.513356,1.3,5.4c0,2.3-.4,4.2-1.3,5.5-.8,1.3-2.2,2-4,2-2,0-3.4-.7-4.3-2-.8-1.3-1.2-3.2-1.2-5.5Zm8,0c0-1,0-1.8-.2-2.5c0-.6-.3-1.2-.7-1.6s-1-.7-1.7-.7-1.3.3-1.7.7-.6,1-.8,1.6l-.1,2.5.1,2.6c.2.7.4,1.2.8,1.6.4.5,1,.7,1.7.7.8,0,1.3-.2,1.7-.7.4-.4.6-1,.8-1.6l.1-2.6Zm5.7,7.6c-.263769-.003757-.51537-.111586-.7-.3-.2-.2-.3-.4-.3-.7s0-.6.3-.8c.2-.2.4-.3.7-.3s.5.1.7.3.3.5.3.8s0,.5-.3.7c-.18463.188414-.436231.296243-.7.3Zm11.7-13.3L308.3,211h-1.3l5.6-13.1h-8v-1.2h9.4v1Zm2,5.9c0-2.3.4-4,1.1-5.3s2-2,3.8-2c1.9,0,3.1.7,3.8,2c.7,1.2,1.1,3,1.1,5.3s-.4,4.1-1,5.4c-.8,1.3-2,2-3.9,2-1.8,0-3-.7-3.8-2-.7-1.3-1-3-1-5.4Zm8.4,0c0-1.2,0-2.3-.2-3.1-.117962-.7836-.466013-1.514507-1-2.1-.6-.5-1.3-.8-2.3-.8s-1.7.3-2.2.8c-.516683.558047-.863572,1.251825-1,2-.173643,1.05728-.240646,2.129327-.2,3.2c0,1.3,0,2.4.2,3.2.136428.748175.483317,1.441953,1,2c.5.6,1.3.9,2.2.9s1.7-.3,2.2-.8c.516683-.558047.863572-1.251825,1-2c.2-1,.3-2,.3-3.3ZM52.1,197v8.7c0,1,.3,1.7.8,2.2s1.2.7,2,.7c1,0,1.7-.2,2.2-.7s.7-1.3.7-2.2v-8.7h2.8v8.7c0,1.1-.2,2.2-.8,3-.5.8-1.2,1.4-2,1.8-.9.4-1.8.6-2.9.6-1,0-2-.2-2.8-.6-.9-.4-1.5-1-2-1.8s-.8-1.9-.8-3v-8.7h2.8Zm16,14.1c-1,0-1.8-.1-2.6-.5-.8-.3-1.4-.8-1.8-1.4s-.7-1.4-.7-2.2h3c0,.6.2,1,.6,1.3.3.4.8.5,1.5.5.6,0,1.2-.1,1.5-.4.4-.3.6-.8.6-1.3c0-.4-.1-.7-.4-1l-1-.6-1.5-.5c-1-.3-1.7-.5-2.2-.8-.6-.3-1-.7-1.5-1.2-.4-.5-.6-1.2-.6-2.1c0-.8.2-1.5.6-2.2s1-1,1.8-1.4c.7-.3,1.6-.5,2.5-.5c1.5,0,2.6.4,3.5,1.1c1,.7,1.4,1.7,1.5,3h-3c0-.6-.3-1-.7-1.3-.3-.3-.8-.4-1.5-.4-.466757-.022635-.926704.118887-1.3.4-.3.3-.5.7-.5,1.2c0,.4.1.7.4,1c.808333.421043,1.643467.788502,2.5,1.1.9.2,1.6.5,2.2.8s1,.6,1.5,1.2.6,1.2.6,2c.031142,1.579279-.870025,3.028983-2.3,3.7-.7.4-1.6.5-2.7.5Zm16-2.8h-5.6l-1,2.7h-2.8l5-14h3.2l5,14h-3l-.8-2.7Zm-.8-2.2l-2-5.8-2,5.8h4Zm26.7-6.2L106.7,211h-3l-2-7.7-2,7.7h-3l-3.3-11h2.8l2,8.4l2-8.5h3l2.1,8.4l2-8.4h2.7Zm11.8,5.3l-.1,1.1h-8.1c0,.8.3,1.4.8,1.9s1.1.7,1.8.7c1,0,1.8-.5,2.3-1.4h3c-.618495,2.323019-2.802586,3.877084-5.2,3.7-1,0-2-.3-2.9-.7-.841895-.464772-1.535228-1.158105-2-2-.4-1-.7-2-.7-3c0-1.2.3-2.2.7-3s1.2-1.6,2-2s1.8-.8,3-.8c1,0,1.9.3,2.7.7.9.5,1.5,1.1,2,2c.4.8.7,1.7.7,2.8Zm-3-.8c0-.7-.2-1.3-.7-1.7s-1.1-.7-1.9-.7c-.7,0-1.3.3-1.7.7-.5.4-.8,1-.9,1.7h5.3Zm15.3.8v1.1h-8.2c.1.8.4,1.4.9,1.9.5.4,1,.7,1.8.7c1,0,1.8-.5,2.2-1.4h3c-.643766,2.26156-2.750316,3.789841-5.1,3.7-1.1,0-2-.3-3-.7-.841895-.464772-1.535228-1.158105-2-2-.4-1-.6-2-.6-3c0-1.2.2-2.2.7-3c.5-1,1.1-1.6,2-2s1.8-.8,2.9-.8c1,0,2,.3,2.8.7.8.5,1.5,1.1,2,2c.4.8.6,1.7.6,2.8Zm-2.9-.8c0-.7-.3-1.3-.8-1.7s-1-.7-1.8-.7c-.7,0-1.3.3-1.8.7s-.7,1-.8,1.7h5.2Zm11.5,6.6l-3.7-4.7v4.7h-2.8v-14.8h2.8v8.4l3.7-4.7h3.6l-4.9,5.6l5,5.5h-3.7Zm15.4-5.8v1.1h-8.1c0,.8.3,1.4.8,1.9s1.1.7,1.8.7c1,0,1.8-.5,2.2-1.4h3c-.611309,2.284065-2.738994,3.82768-5.1,3.7-1,0-2-.3-2.9-.7-.841895-.464772-1.535228-1.158105-2-2-.5-1-.7-2-.7-3c0-1.2.3-2.2.7-3s1.1-1.6,2-2s1.8-.8,2.9-.8c1,0,2,.3,2.8.7.8.5,1.5,1.1,2,2c.4.8.6,1.7.6,2.8Zm-2.9-.8c0-.7-.2-1.3-.7-1.7-.6-.4-1.2-.7-1.9-.7s-1.3.3-1.8.7c-.4.4-.7,1-.8,1.7h5.2Zm11.1-4.6c1.3,0,2.4.4,3.2,1.2s1.2,2,1.2,3.5v6.5h-2.7v-6.1c0-.9-.2-1.6-.6-2-.5-.5-1-.8-1.8-.8s-1.4.3-1.9.8c-.4.4-.6,1.1-.6,2v6.1h-2.8v-11h2.8v1.3c.4-.5.8-.9,1.4-1.1.6-.3,1.2-.4,2-.4Zm6.4,5.6c0-1.1.2-2,.6-3c1.205808-2.381321,4.095772-3.359463,6.5-2.2.637758.286092,1.189413.734312,1.6,1.3v-5.3h2.8v14.8h-2.8v-1.6c-.4.5-.8,1-1.5,1.3-.6.3-1.3.5-2.2.5s-1.7-.3-2.5-.7c-.805034-.479469-1.462418-1.171452-1.9-2-.4-1-.6-2-.6-3Zm8.7,0c0-.6-.1-1.2-.4-1.7s-.6-.8-1-1.1c-.5-.3-1-.4-1.5-.4s-1,.1-1.5.4-.8.6-1,1.1c-.3.5-.5,1-.5,1.7s.2,1.3.4,1.8c.3.5.7.9,1.1,1.1.5.3,1,.4,1.5.4s1-.1,1.4-.4c.5-.2.8-.6,1.1-1c.3-.6.4-1.2.4-1.8ZM55.6,231.8L51.3,242h-1.5l4.3-10h-5.9v-1.3h7.4v1Zm1.2,9c1.8-1.1,3.2-2.3,4.3-3.5s1.6-2.4,1.6-3.4c0-.6-.1-1.1-.4-1.5-.4-.4-.9-.6-1.6-.6-.8,0-1.3.2-1.7.7s-.6,1.1-.7,2h-1.3c0-1.3.5-2.3,1.2-3c.7-.6,1.6-1,2.7-1c1,0,1.9.3,2.5.9.680693.606493,1.048658,1.489611,1,2.4c0,.8-.3,1.7-.9,2.6-.5.9-1.2,1.7-2,2.4-.795859.753981-1.667103,1.424168-2.6,2h5.7v1.1h-7.7v-1Zm9,0c1.9-1.1,3.3-2.3,4.4-3.5c1-1.2,1.6-2.4,1.6-3.4c0-.6-.1-1.1-.5-1.5-.3-.4-.8-.6-1.5-.6-.8,0-1.3.2-1.7.7s-.6,1.1-.7,2h-1.4c0-1.3.5-2.3,1.2-3c.7-.6,1.6-1,2.7-1c1,0,1.9.3,2.5.9.680693.606493,1.048658,1.489611,1,2.4c0,.8-.4,1.7-1,2.6-.5.9-1.1,1.7-2,2.4-.764371.748574-1.601896,1.418594-2.5,2h5.7v1.1h-7.8v-1Zm9.6-7.4c0-.6.1-1,.4-1.5s.8-.9,1.4-1.1s1.2-.4,2-.4s1.6.1,2.1.4c.6.2,1,.6,1.4,1s.4,1,.4,1.6-.2,1.1-.5,1.6-.9.8-1.6,1c.8.2,1.4.5,1.8,1s.6,1.2.6,1.9c0,1-.4,1.9-1.1,2.5s-1.8,1-3,1-2.3-.4-3-1-1.3-1.4-1.3-2.4c0-.7.2-1.4.6-1.9s1-.8,1.7-1c-.6-.2-1.2-.5-1.5-1s-.5-1-.5-1.6Zm1.4.2c0,.6.2,1.1.7,1.5.4.3,1,.5,1.8.5s1.3-.2,1.7-.5c.5-.4.7-.9.7-1.5s-.2-1.1-.7-1.5c-.4-.3-1-.5-1.7-.5s-1.4.2-1.8.5c-.5.4-.7.8-.7,1.5Zm-.3,5.2c0,.7.3,1.3.8,1.7.4.4,1.1.6,2,.6.8,0,1.5-.2,2-.6s.7-1,.7-1.7-.3-1.3-.8-1.6-1.2-.6-2-.6c-.7,0-1.4.2-2,.6s-.7.9-.7,1.6Zm14.3,0c-.028924.59187.193558,1.168412.612573,1.587427s.995557.641497,1.587427.612573c.9,0,1.6-.3,2-1s.7-1.8.7-3.3v-.7c-.1.7-.5,1.2-1,1.6s-1.3.5-2.1.5c-1.1,0-2-.3-2.7-1s-1-1.6-1-2.8c0-.7.2-1.3.5-1.9s.7-1,1.3-1.4c.5-.3,1.3-.5,2.1-.5c1.6,0,2.7.5,3.3,1.5s1,2.4,1,4.1c.080676,1.594897-.264464,3.18254-1,4.6-.6,1-1.6,1.5-3.1,1.5-1,0-2-.3-2.5-.9-.6-.6-1-1.4-1.1-2.4h1.4Zm4.8-4.4c0-.7-.3-1.4-.7-1.9-.5-.5-1.2-.8-2-.8s-1.4.2-1.8.7-.7,1-.7,1.8c0,.9.2,1.5.7,2s1,.7,1.8.7c.4,0,.9-.1,1.3-.3s.7-.4,1-.8.4-.8.4-1.4Zm3.2,1.9c0,1.8.3,3.2,1,4.2.5,1,1.6,1.5,3,1.5s2.6-.5,3.2-1.5.9-2.4.9-4.2-.3-3.2-1-4.2c-.5-1-1.6-1.5-3-1.5s-2.6.5-3.2,1.5-.9,2.4-.9,4.2Zm6.6,0c0,1,0,1.7-.2,2.3-.1.6-.4,1.1-.7,1.5-.4.4-1,.6-1.7.6-.6,0-1.2-.2-1.6-.6-.369387-.424459-.611955-.944248-.7-1.5-.140433-.758457-.207409-1.528687-.2-2.3c0-1,0-1.7.2-2.3.1-.6.4-1.1.7-1.5.4-.4,1-.5,1.6-.5.8,0,1.3.1,1.7.5.3.4.6.9.7,1.5.2.6.2,1.4.2,2.3Zm3,4.6c1.9-1.2,3.3-2.4,4.4-3.6c1-1.2,1.6-2.4,1.6-3.4c0-.6-.1-1.1-.5-1.5-.3-.4-.8-.6-1.5-.6-.8,0-1.4.2-1.7.7-.4.5-.6,1.1-.7,2h-1.4c0-1.3.4-2.3,1.2-3c.7-.6,1.6-1,2.7-1c1,0,1.9.3,2.5.9.680693.606493,1.048658,1.489611,1,2.4-.080303.943898-.427097,1.845563-1,2.6-.5.9-1.2,1.7-2,2.4-.764371.748574-1.601896,1.418594-2.5,2h5.7v1.1h-7.8v-1Zm8.7-8.8v-1.4h3.2v11.3h-1.6v-10h-1.6Zm13-1.7c.8,0,1.4.1,2,.4.980067.483275,1.572204,1.509645,1.5,2.6c0,.7-.2,1.3-.6,1.8-.4.4-1,.7-1.8.8v.1c.8.2,1.5.6,2,1c.4.5.6,1,.6,1.9.015707.825971-.309886,1.621865-.9,2.2-.6.6-1.5,1-2.7,1-1.1,0-2-.4-2.8-1-.752198-.666755-1.217915-1.598189-1.3-2.6h1.5c0,.7.3,1.2.8,1.6.4.5,1,.7,1.8.7.7,0,1.3-.2,1.6-.6.4-.4.6-.8.6-1.4c0-.7-.3-1.3-.8-1.6-.6-.4-1.3-.6-2.4-.6h-.3v-1.2h.3c2,0,3-.7,3-2c0-.5-.2-1-.6-1.3-.3-.4-.8-.6-1.5-.6s-1.1.2-1.6.6c-.4.4-.7,1-.7,1.6h-1.5c.1-1,.5-1.9,1.1-2.5.785174-.644692,1.786241-.966463,2.8-.9Zm9.5,0c.7,0,1.3.1,1.9.4c1.019137.453029,1.654847,1.486057,1.6,2.6c0,.7-.3,1.3-.7,1.8-.4.4-1,.7-1.8.8v.1c.9.2,1.5.6,2,1c.4.5.7,1,.7,1.9-.010168.841097-.372982,1.639289-1,2.2-.6.6-1.5,1-2.6,1-1.2,0-2.1-.4-2.9-1-.715214-.683151-1.144155-1.612525-1.2-2.6h1.4c.1.7.4,1.2.8,1.6.5.5,1,.7,1.8.7.7,0,1.3-.2,1.7-.6.3-.4.5-.8.5-1.4c0-.7-.2-1.3-.8-1.6-.5-.4-1.3-.6-2.3-.6h-.4v-1.2h.4c2,0,3-.7,3-2c0-.5-.3-1-.6-1.3-.4-.4-.9-.6-1.5-.6s-1.2.2-1.7.6c-.4.4-.6,1-.7,1.6h-1.4c0-1,.4-1.9,1-2.5.785174-.644692,1.786241-.966463,2.8-.9Zm5.5,5.9c0,1.8.3,3.2,1,4.2.5,1,1.6,1.5,3,1.5s2.6-.5,3.1-1.5c.7-1,1-2.4,1-4.2s-.3-3.2-1-4.2c-.5-1-1.6-1.5-3-1.5s-2.6.5-3.2,1.5-.9,2.4-.9,4.2Zm6.6,0c0,1,0,1.7-.2,2.3-.1.6-.4,1.1-.7,1.5-.4.4-1,.6-1.7.6-.6,0-1.2-.2-1.6-.6-.369387-.424459-.611955-.944248-.7-1.5-.140433-.758457-.207409-1.528687-.2-2.3c0-1,0-1.7.2-2.3.1-.6.4-1.1.7-1.5.4-.4,1-.5,1.6-.5.7,0,1.3.1,1.7.5.3.4.6.9.7,1.5.2.6.2,1.4.2,2.3Zm3.3,0c0,1.8.3,3.2.9,4.2s1.6,1.5,3,1.5s2.6-.5,3.2-1.5.9-2.4.9-4.2-.3-3.2-1-4.2c-.5-1-1.6-1.5-3-1.5s-2.5.5-3.1,1.5-1,2.4-1,4.2Zm6.6,0c0,1-.1,1.7-.3,2.3c0,.6-.3,1.1-.7,1.5s-1,.6-1.6.6c-.7,0-1.3-.2-1.6-.6-.405719-.412405-.683541-.933323-.8-1.5-.140433-.758457-.207409-1.528687-.2-2.3c0-1,0-1.7.2-2.3.1-.6.4-1.1.8-1.5.3-.4.9-.5,1.6-.5s1.2.1,1.6.5.6.9.7,1.5c.2.6.3,1.4.3,2.3Zm6.5-4.2v-1.4h3.2v11.3h-1.6v-10h-1.6Zm12.8-.2h-5.7v3.7c.2-.3.6-.6,1.1-.8s1-.3,1.7-.3c.8,0,1.4.1,2,.5.5.3.9.7,1.1,1.3.3.5.4,1.2.4,1.8c0,1.2-.3,2.1-1,2.9-.6.7-1.6,1-2.8,1s-2.1-.2-2.8-.8c-.727149-.632568-1.161271-1.53699-1.2-2.5h1.4c.1.6.4,1.2.8,1.5.5.4,1,.6,1.7.6.8,0,1.4-.3,1.8-.8s.7-1,.7-1.9c0-.8-.2-1.4-.7-1.8-.4-.4-1-.7-1.8-.7-.5,0-1,.2-1.4.4-.5.2-.8.6-1,1h-1.4v-6.4h7.1v1.3Zm2.3,4.4c0,1.8.3,3.2.9,4.2s1.6,1.5,3.1,1.5s2.5-.5,3.1-1.5s1-2.4,1-4.2-.4-3.2-1-4.2-1.6-1.5-3-1.5-2.6.5-3.2,1.5-.9,2.4-.9,4.2Zm6.6,0c0,1,0,1.7-.2,2.3s-.4,1.1-.8,1.5-.9.6-1.6.6-1.2-.2-1.6-.6-.6-.9-.8-1.5c-.140433-.758457-.207409-1.528687-.2-2.3l.2-2.3c.2-.6.4-1.1.8-1.5s1-.5,1.6-.5c.7,0,1.3.1,1.6.5.4.4.6.9.8,1.5l.2,2.3Zm3,4.6c1.8-1.2,3.3-2.4,4.3-3.6c1.1-1.2,1.7-2.4,1.7-3.4c0-.6-.2-1.1-.5-1.5s-.9-.6-1.6-.6-1.3.2-1.7.7-.6,1.1-.6,2h-1.5c.1-1.3.5-2.3,1.2-3c.7-.6,1.6-1,2.7-1c1,0,2,.3,2.5.9s1,1.3,1,2.4c0,.8-.3,1.7-.9,2.6-.5.9-1.2,1.7-2,2.4-.795859.753981-1.667103,1.424168-2.6,2h5.8v1.1h-7.8v-1Z" fill="#fff"></path></g></g><g clip-path="url(#eu1ahzq5cOg99)"><g transform="translate(359 176)"><rect width="311" height="86" rx="12" ry="12" fill="url(#eu1ahzq5cOg96-fill)"></rect><circle r="50" fill="url(#eu1ahzq5cOg97-fill)"></circle><rect width="311" height="86" rx="12" ry="12" opacity="0.1" fill="none"></rect></g><clipPath id="eu1ahzq5cOg99"><rect width="311" height="86" rx="12" ry="12" transform="translate(359 176)" fill="#fff"></rect></clipPath></g><g clip-path="url(#eu1ahzq5cOg105)"><g transform="translate(-295 176)"><rect width="311" height="86" rx="12" ry="12" fill="url(#eu1ahzq5cOg103-fill)"></rect><rect width="311" height="86" rx="12" ry="12" opacity="0.1" fill="none"></rect></g><clipPath id="eu1ahzq5cOg105"><rect width="311" height="86" rx="12" ry="12" transform="translate(-295 176)" fill="#fff"></rect></clipPath></g><clipPath id="eu1ahzq5cOg107"><rect width="375" height="118" rx="0" ry="0" transform="translate(0 160)" fill="#fff"></rect></clipPath></g><path d="M24,128.8v1.8h-4.7v2.9h3.7v1.8h-3.6v4.7h-2.2v-11.2h6.8Zm3.8,3.7c.3-.5.7-.8,1.1-1c.5-.4,1-.5,1.6-.5v2.4h-.5c-.7,0-1.3.1-1.6.5-.4.3-.6.9-.6,1.7v4.4h-2.2v-8.9h2.2v1.4Zm8.2,7.6c-.9,0-1.6-.1-2.3-.5s-1.2-1-1.6-1.6c-.4-.7-.6-1.5-.6-2.4s.2-1.7.6-2.4s1-1.3,1.6-1.6c.7-.4,1.5-.6,2.4-.6.8,0,1.6.2,2.3.6.676211.368224,1.231776.923789,1.6,1.6.4.7.6,1.5.6,2.4s-.2,1.7-.6,2.4-1,1.2-1.7,1.6-1.4.5-2.3.5Zm0-2c.4,0,.8,0,1.1-.2.4-.2.7-.5.9-.9s.3-.9.3-1.4c0-.9-.2-1.5-.7-2-.4-.4-1-.7-1.6-.7s-1.2.3-1.6.7c-.4.5-.6,1.1-.6,2s.2,1.5.6,2c.4.4,1,.6,1.6.6Zm17.3-7c1,0,2,.2,2.6,1c.7.6,1,1.5,1,2.7v5.2h-2.2v-4.9c0-.7-.2-1.2-.6-1.6-.3-.4-.8-.5-1.4-.5s-1.1.1-1.5.5c-.3.4-.5,1-.5,1.6v4.9h-2.2v-4.9c0-.7-.2-1.2-.6-1.6-.3-.4-.8-.5-1.4-.5-.547453-.04644-1.089902.134376-1.5.5-.3.4-.5,1-.5,1.6v4.9h-2.2v-8.9h2.2v1.1c.289284-.383778.666537-.69244,1.1-.9l1.5-.3c.7,0,1.3.2,1.9.5.5.2,1,.7,1.2,1.2.3-.5.7-1,1.3-1.2.5-.3,1.1-.5,1.8-.5ZM65.4,133v4.3c0,.3.1.5.3.6.1.1.3.2.7.2h1v1.9h-1.4c-1.9,0-2.8-1-2.8-2.8v-4.2h-1v-2h1v-2h2.2v2.2h2v1.9h-2Zm8.6-2c.7,0,1.3.2,1.8.5.5.2,1,.7,1.2,1.3.3.5.5,1.2.5,2v5.2h-2.3v-4.9c0-.7-.1-1.2-.5-1.6-.3-.4-.8-.6-1.4-.6-.562126-.019826-1.106617.19797-1.5.6-.3.4-.5.9-.5,1.6v4.9h-2.3v-11.8h2.3v4l1.1-.9c.5-.2,1-.3,1.6-.3Zm13.9,4.4l-.1.8h-6.5c0,.7.3,1.2.7,1.5.4.4.9.6,1.4.6.9,0,1.5-.4,1.8-1h2.4c-.551975,1.771194-2.249378,2.930396-4.1,2.8-.9,0-1.6-.1-2.3-.5s-1.2-1-1.6-1.6c-.397876-.737112-.604191-1.562371-.6-2.4c0-1,.2-1.8.6-2.4.4-.7.9-1.3,1.6-1.6s1.4-.6,2.3-.6c.8,0,1.6.2,2.2.5.7.4,1.2,1,1.6,1.6s.6,1.4.6,2.3Zm-2.4-.7c0-.5-.2-1-.6-1.3-.4-.4-.9-.6-1.5-.6-.513575-.019404-1.01491.159644-1.4.5-.4.4-.6.8-.7,1.4h4.2Zm7.2.9c0-1,.2-1.7.6-2.4.341168-.662668.860698-1.216833,1.5-1.6.7-.4,1.5-.6,2.3-.6c1.1,0,2,.3,2.7.8.755729.565653,1.287057,1.380356,1.5,2.3h-2.4c-.2-.4-.4-.7-.7-.9s-.7-.3-1.1-.3c-.6,0-1.1.2-1.5.7-.433039.57331-.645945,1.282994-.6,2c0,.8.2,1.5.6,2c.4.4.9.6,1.5.6c1,0,1.5-.4,1.8-1.2h2.4c-.212943.919644-.744271,1.734347-1.5,2.3-.7.6-1.6.8-2.7.8-.8,0-1.6-.1-2.3-.5-.639302-.383167-1.158832-.937332-1.5-1.6-.397876-.737112-.604191-1.562371-.6-2.4Zm9.7,0c0-1,.1-1.8.5-2.4.313792-.649858.797547-1.20272,1.4-1.6.630789-.390931,1.357895-.598675,2.1-.6c1.167991-.048087,2.286612.473936,3,1.4v-1.3h2.2v8.9h-2.3v-1.3c-.3.4-.7.8-1.2,1-.5.3-1,.4-1.7.4-.8,0-1.4-.1-2-.5-.7-.4-1.2-1-1.5-1.6-.4-.8-.5-1.6-.5-2.5Zm7,0c0-.6-.2-1-.4-1.4s-.5-.7-.9-1L107,133c-.4,0-.8,0-1.2.3s-.6.5-.8.9c-.2.3-.4.8-.4,1.3s.2,1,.4,1.4l.8,1l1.2.3c.4,0,.8-.1,1.1-.3.4-.2.7-.5,1-1l.2-1.3Zm6.6-3c.3-.6.7-1,1.1-1.2.5-.3,1-.4,1.6-.4v2.4h-.6c-.7,0-1.2.1-1.6.5-.3.3-.5.9-.5,1.7v4.4h-2.2v-8.9h2.2v1.4Zm3.7,3c0-1,.1-1.8.5-2.4.979749-1.886332,3.263733-2.676942,5.2-1.8.5.2,1,.6,1.2,1v-4.2h2.3v11.8h-2.3v-1.3c-.276962.420341-.655243.764233-1.1,1-.5.3-1.1.4-1.8.4s-1.4-.1-2-.5c-.639302-.383167-1.158832-.937332-1.5-1.6-.4-.8-.5-1.6-.5-2.5Zm7,0c0-.6-.2-1-.4-1.4l-.8-1-1.2-.2c-.4,0-.8,0-1.2.3s-.6.5-.8.9c-.2.3-.3.8-.3,1.3s0,1,.3,1.4l.8,1l1.2.3l1.2-.3c.3-.2.6-.5.8-1c.2-.3.3-.8.3-1.3ZM38.5,83.5l1-1-5.6-5.8h15.1v-1.5h-15.1l5.7-5.6-1.1-1.1L31,76l7.5,7.5ZM85.9,69v2.3h-3.7v11.7h-2.8v-11.7h-3.8v-2.3h10.4Zm4.8,4.6c.727631-1.179598,2.014036-1.898472,3.4-1.9v3h-.7c-.9,0-1.6.2-2,.6-.5.4-.7,1.2-.7,2.2v5.5h-2.7v-11h2.8v1.6Zm4.6,3.8c0-1.1.2-2,.6-3c.433256-.831646,1.09165-1.524693,1.9-2c.7-.4,1.6-.7,2.5-.7c1.451488-.031999,2.829248.638263,3.7,1.8v-1.6h2.8v11.1h-2.8v-1.6c-.4.5-.9,1-1.5,1.3s-1.3.5-2.2.5-1.8-.3-2.5-.7c-.801843-.483452-1.458277-1.174435-1.9-2-.4-1-.6-2-.6-3Zm8.7,0c0-.6-.1-1.2-.4-1.7s-.6-.8-1-1.1c-.5-.3-1-.4-1.5-.4s-1,.1-1.5.4c-.420341.276962-.764233.655243-1,1.1-.3.5-.5,1-.5,1.7s.2,1.3.4,1.8c.3.5.7.9,1.1,1.1.5.3,1,.4,1.5.4s1-.1,1.4-.4c.444757-.235767.823038-.579659,1.1-1c.3-.6.4-1.2.4-1.8Zm11.7-5.6c1.3,0,2.4.4,3.2,1.2s1.2,2,1.2,3.5v6.5h-2.8v-6.1c0-.9-.2-1.6-.6-2-.5-.5-1-.8-1.8-.8s-1.4.3-1.9.8c-.4.4-.6,1.1-.6,2v6.1h-2.8v-11h2.8v1.3c.3-.5.8-.9,1.4-1.1.6-.3,1.2-.4,1.9-.4ZM127,83.2c-.825886.000287-1.642938-.169932-2.4-.5-.7-.3-1.3-.8-1.7-1.3-.4-.6-.7-1.2-.7-1.9h2.8c0,.4.3.8.6,1c.4.3.9.5,1.4.5s1-.1,1.2-.3c.4-.3.5-.5.5-.9c0-.3-.2-.6-.6-.8l-1.7-.6-2-.6c-.6-.2-1-.5-1.4-1-.4-.4-.6-1-.6-1.7s.2-1.2.6-1.7c.3-.5.8-1,1.5-1.2.7-.3,1.4-.5,2.3-.5c1.3,0,2.4.4,3.2,1c.8.7,1.2,1.6,1.3,2.7h-2.7c0-.4-.2-.8-.6-1-.373296-.281113-.833243-.422635-1.3-.4-.5,0-.9,0-1.1.2-.3.2-.4.5-.4.8c0,.4.2.7.5.9l1.8.6l2,.6c.5.2,1,.5,1.3,1c.4.4.6,1,.6,1.7s-.2,1.3-.6,1.8c-.3.5-.8.9-1.5,1.2-.6.2-1.4.4-2.3.4Zm11.8-9h-2v8.8h-2.8v-8.8h-1.3v-2.2h1.3v-.5c0-1.4.4-2.4,1.1-3c.8-.7,2-1,3.5-1v2.4c-.6,0-1.1.1-1.4.4-.2.2-.4.6-.4,1.3v.4h2v2.3Zm12,3v1.1h-8.1c0,.8.3,1.4.8,1.9.5.4,1.1.7,1.9.7c1,0,1.7-.5,2.2-1.4h3c-.652162,2.299472-2.813797,3.837559-5.2,3.7-1,0-2-.3-2.9-.7-.838653-.469069-1.530931-1.161347-2-2-.4-1-.6-2-.6-3c0-1.2.2-2.2.7-3c.4-1,1-1.6,2-2s1.7-.8,2.8-.8c1,0,2,.3,2.8.7.9.5,1.5,1.1,2,2c.4.8.7,1.7.7,2.8Zm-2.8-.8c0-.7-.3-1.3-.8-1.7s-1.1-.7-1.9-.7c-.7,0-1.2.3-1.7.7s-.8,1-.9,1.7h5.3Zm7.7-2.8c.4-.5.9-1,1.4-1.3.611529-.338551,1.301098-.510943,2-.5v2.9h-.7c-.9,0-1.6.2-2,.6-.5.4-.7,1.2-.7,2.2v5.5h-2.7v-11h2.8v1.6Zm13.3.6v5.4c0,.4.1.6.3.8s.5.2,1,.2h1.2v2.4h-1.7c-2.4,0-3.6-1.1-3.6-3.4v-5.4h-1.2v-2.2h1.3v-2.7h2.8v2.7h2.5v2.3h-2.6Zm9.4,9c-1,0-2-.3-2.8-.7-.835531-.473185-1.526815-1.164469-2-2-.5-1-.8-2-.8-3s.3-2.2.8-3c.5-1,1.2-1.6,2-2c.9-.5,1.9-.8,3-.8c1,0,2,.3,2.8.8.845264.46028,1.53972,1.154736,2,2c.6.8.8,1.8.8,3c.028456,1.537799-.576835,3.01961-1.673825,4.097687s-2.589103,1.657507-4.126175,1.602313Zm0-2.5c.6,0,1,0,1.5-.3.4-.3.8-.6,1-1.1.3-.5.4-1.1.4-1.8c0-1-.2-1.9-.8-2.5-.5-.5-1.2-.8-2-.8s-1.5.3-2,.8c-.6.6-.8,1.4-.8,2.5s.2,1.8.7,2.4c.6.6,1.2.8,2,.8Zm12-3.2c0-1.2.2-2.2.6-3c.46028-.845264,1.154736-1.53972,2-2c.8-.5,1.7-.8,2.8-.8c1.4,0,2.5.4,3.4,1c.941695.750607,1.58085,1.815866,1.8,3h-3c-.2-.5-.4-.9-.8-1.2-.4-.2-.9-.4-1.4-.4-.8,0-1.4.3-2,.9-.4.6-.6,1.4-.6,2.5c0,1,.2,1.8.7,2.4s1,.9,1.9.9c1.1,0,1.9-.5,2.2-1.5h3c-.3,1.2-.9,2.1-1.8,2.8s-2,1-3.4,1c-1,0-2-.2-2.8-.6-.845264-.46028-1.53972-1.154736-2-2-.4-.9-.7-1.9-.7-3Zm12,0c0-1.2.2-2.2.6-3c.405977-.818619,1.02852-1.510334,1.8-2c.8-.5,1.7-.8,2.6-.8c1.451488-.031999,2.829248.638263,3.7,1.8v-1.6h2.8v11.1h-2.8v-1.6c-.4.5-.9,1-1.5,1.3s-1.4.5-2.2.5c-1,0-1.8-.3-2.6-.7-.765078-.497198-1.385861-1.186957-1.8-2-.4-1-.6-2-.6-3Zm8.7,0c0-.7-.2-1.3-.4-1.8-.3-.5-.6-.8-1.1-1.1s-1-.4-1.5-.4-1,.1-1.4.4-.8.6-1,1.1c-.3.5-.5,1-.5,1.7s.2,1.3.4,1.8c.3.5.7.9,1.1,1.1.5.3,1,.4,1.4.4c1.042365-.01432,1.99684-.587005,2.5-1.5.3-.5.5-1,.5-1.7Zm8.3-3.9c.4-.5.9-1,1.4-1.3.611529-.338551,1.301098-.510943,2-.5v2.9h-.7c-.9,0-1.6.2-2,.6s-.7,1.2-.7,2.2v5.5h-2.8v-11h2.8v1.6Zm4.6,3.8c0-1.1.2-2,.7-3c.4-.8,1-1.5,1.8-2s1.6-.7,2.6-.7c1.412749.015315,2.740099.67899,3.6,1.8v-5.3h2.8v14.8h-2.8v-1.6c-.3.5-.8,1-1.5,1.3s-1.3.5-2.1.5c-1,0-1.8-.3-2.6-.7s-1.4-1.2-1.8-2c-.5-1-.7-2-.7-3Zm8.7,0c0-.6-.1-1.2-.4-1.7-.2-.5-.6-.8-1-1.1-.5-.3-1-.4-1.5-.4s-1,.1-1.5.4-.8.6-1,1.1c-.3.5-.4,1-.4,1.7s0,1.3.4,1.8c.2.5.6.9,1,1.1.5.3,1,.4,1.5.4s1-.1,1.4-.4c.444757-.235767.823038-.579659,1.1-1c.3-.6.4-1.2.4-1.8Z"></path><path d="M339.6,17.3h14.8c1.3,0,1.7,0,2.2.3.4.3.8.6,1,1s.4,1,.4,2.2v4.4c0,1.2-.1,1.7-.4,2.1s-.6.8-1,1c-.5.3-1,.4-2.2.4h-14.8c-1.3,0-1.7,0-2.2-.3-.4-.3-.8-.6-1-1s-.4-1-.4-2.2v-4.4c0-1.2.1-1.7.4-2.1s.6-.8,1-1c.5-.3,1-.5,2.2-.5Zm0,1c-1,0-1.3,0-1.7.2-.3.2-.5.4-.6.7-.2.3-.3.7-.3,1.6v4.4c0,1,0,1.3.3,1.6.1.3.3.5.6.7.4.2.7.3,1.7.3h14.8c1,0,1.3-.1,1.7-.3.3-.2.5-.4.6-.7.2-.3.3-.7.3-1.6v-4.4c0-1,0-1.3-.3-1.6-.1-.3-.3-.5-.6-.7-.4-.2-.7-.2-1.7-.2h-14.8Zm20.9,4.6c0,1.3-1.5,2-1.5,2v-4c0,0,1.5.8,1.5,2Z" opacity="0.4" clip-rule="evenodd" fill-rule="evenodd"></path><rect width="18" height="7.7" rx="1.6" ry="1.6" transform="translate(338 19.2)"></rect><path d="M323.3,19.8c2.2,0,4.4.8,6,2.4h.4L331,21l.1-.2-.1-.3c-4.2-4-11-4-15.2,0l-.1.3v.2l1.3,1.2h.4c1.617692-1.540659,3.766044-2.4,6-2.4Zm0,3.8c1.221901.015514,2.395819.477966,3.3,1.3h.5l1.1-1.2c.083794-.055582.134169-.149448.134169-.25s-.050375-.194418-.134169-.25c-2.762717-2.566114-7.037283-2.566114-9.8,0l-.1.3v.2l1.2,1.2h.5c.904181-.822034,2.078099-1.284486,3.3-1.3Zm2.2,2.8c.083794-.055582.134169-.149448.134169-.25s-.050375-.194418-.134169-.25c-1.3-1-3.1-1-4.4,0l-.1.3v.2l2,2c.055582.083794.149448.134169.25.134169s.194418-.050375.25-.134169l2-2Zm-17.9-7.8v8.8c.1.5.5.8,1,1h1c.5-.2.9-.5,1-1v-8.8c-.1-.5-.5-.8-1-1h-1c-.5.2-.9.5-1,1Zm-4.7,3v-.6c.1-.5.5-.8,1-1h1c.5.2.9.5,1,1v6.4c-.1.5-.5.8-1,1h-1c-.5-.2-.9-.5-1-1v-5.9Zm-4.6,1.7v4.1c.1.5.5.8,1,1h1c.5-.2.9-.5,1-1v-4.1c-.1-.5-.5-.8-1-1h-1c-.5.2-.9.5-1,1Zm-4.8,2v2.1c.1.5.5.8,1,1h1c.5-.2.9-.5,1-1v-2.1c-.1-.5-.5-.8-1-1h-1c-.5.2-.9.5-1,1Z" clip-rule="evenodd" fill-rule="evenodd"></path><path d="M33.5,16.4c-2.3,0-3.9,1.6-3.9,3.8c0,2,1.4,3.5,3.4,3.5c1.5,0,2.4-.8,2.8-1.6h.2v.2c-.1,2-.8,3.7-2.5,3.7-1,0-1.6-.5-1.9-1.2v-.1h-1.9c.4,1.7,1.8,2.8,3.8,2.8c2.6,0,4.2-2,4.2-5.6c0-3.8-2-5.4-4.2-5.4Zm0,5.8c-1.104569,0-2-.895431-2-2v-.2c0-1.132184.917816-2.05,2.05-2.05s2.05.917816,2.05,2.05c0,1.2-.9,2.1-2,2.1Zm7.4-1.8c.7,0,1.2-.5,1.2-1.1c0-.7-.5-1.2-1.2-1.2s-1.2.5-1.2,1.2c0,.6.5,1.1,1.2,1.1Zm0,5.5c.7,0,1.2-.5,1.2-1.2c0-.6-.5-1.1-1.2-1.1s-1.2.5-1.2,1.1c0,.7.5,1.2,1.2,1.2Zm8.3,1.4h1.8v-2h1.4v-1.6h-1.4v-7h-2.7c-1.4,2.2-3,4.6-4.3,7v1.6h5.2v2Zm-3.4-3.6c1-1.9,2.2-3.8,3.3-5.5h.1v5.5h-3.4Zm10.8,3.6h2v-10.6h-2l-2.7,2v1.7l2.6-1.8h.1v8.7Z"></path></svg>