<svg xmlns="http://www.w3.org/2000/svg" xmlns:xlink="http://www.w3.org/1999/xlink" id="ee6xQd9b0zw1" viewBox="0 0 375 812"><style><![CDATA[#ee6xQd9b0zw5_ts {animation: ee6xQd9b0zw5_ts__ts 3000ms linear infinite normal forwards}@keyframes ee6xQd9b0zw5_ts__ts { 0% {transform: translate(69.5px,756px) scale(1,1)} 36.666667% {transform: translate(69.5px,756px) scale(1,1)} 53.333333% {transform: translate(69.5px,756px) scale(1.1,1.1)} 70% {transform: translate(69.5px,756px) scale(1,1)} 100% {transform: translate(69.5px,756px) scale(1,1)}} #ee6xQd9b0zw15_ts {animation: ee6xQd9b0zw15_ts__ts 3000ms linear infinite normal forwards}@keyframes ee6xQd9b0zw15_ts__ts { 0% {transform: translate(20px,454px) scale(1,1);animation-timing-function: cubic-bezier(0.42,0,0.58,1)} 33.333333% {transform: translate(20px,454px) scale(1,1);animation-timing-function: cubic-bezier(0.42,0,0.58,1)} 66.666667% {transform: translate(20px,454px) scale(1.58,1);animation-timing-function: cubic-bezier(0.42,0,0.58,1)} 100% {transform: translate(20px,454px) scale(1,1)}} #ee6xQd9b0zw21_to {animation: ee6xQd9b0zw21_to__to 3000ms linear infinite normal forwards}@keyframes ee6xQd9b0zw21_to__to { 0% {transform: translate(132.5px,455.5px);animation-timing-function: cubic-bezier(0.42,0,0.58,1)} 33.333333% {transform: translate(132.5px,455.5px);animation-timing-function: cubic-bezier(0.42,0,0.58,1)} 66.666667% {transform: translate(199.2202px,455.5px);animation-timing-function: cubic-bezier(0.42,0,0.58,1)} 100% {transform: translate(132.5px,455.5px)}} #ee6xQd9b0zw43_to {animation: ee6xQd9b0zw43_to__to 3000ms linear infinite normal forwards}@keyframes ee6xQd9b0zw43_to__to { 0% {transform: translate(187.5px,197.5px)} 23.333333% {transform: translate(187.5px,187.5px)} 56.666667% {transform: translate(187.5px,187.5px)} 80% {transform: translate(187.5px,197.5px)} 100% {transform: translate(187.5px,197.5px)}}]]></style><defs><linearGradient id="ee6xQd9b0zw6-fill" x1="0" y1="44" x2="54" y2="0" spreadMethod="pad" gradientUnits="userSpaceOnUse" gradientTransform="translate(0 0)"><stop id="ee6xQd9b0zw6-fill-0" offset="0%" stop-color="#ffd60a"></stop><stop id="ee6xQd9b0zw6-fill-1" offset="100%" stop-color="#32d74b"></stop></linearGradient><linearGradient id="ee6xQd9b0zw15-fill" x1="2" y1="0" x2="113" y2="0" spreadMethod="pad" gradientUnits="userSpaceOnUse" gradientTransform="translate(0 0)"><stop id="ee6xQd9b0zw15-fill-0" offset="0%" stop-color="#ffd60a"></stop><stop id="ee6xQd9b0zw15-fill-1" offset="100%" stop-color="#32d74b"></stop></linearGradient><linearGradient id="ee6xQd9b0zw16-fill" x1="32" y1="446" x2="57" y2="422.5" spreadMethod="pad" gradientUnits="userSpaceOnUse" gradientTransform="translate(0 0)"><stop id="ee6xQd9b0zw16-fill-0" offset="0%" stop-color="#ffd60a"></stop><stop id="ee6xQd9b0zw16-fill-1" offset="100%" stop-color="#32d74b"></stop></linearGradient><radialGradient id="ee6xQd9b0zw45-fill" cx="0" cy="0" r="1" spreadMethod="pad" gradientUnits="userSpaceOnUse" gradientTransform="matrix(-155.5 36.9994 -53.770299 -225.984 155.5 107)"><stop id="ee6xQd9b0zw45-fill-0" offset="0%" stop-color="#bf5af2"></stop><stop id="ee6xQd9b0zw45-fill-1" offset="100%" stop-color="#5e5ce6"></stop></radialGradient><radialGradient id="ee6xQd9b0zw46-fill" cx="0" cy="0" r="1" spreadMethod="pad" gradientUnits="userSpaceOnUse" gradientTransform="matrix(0 85 -85 0 0 0)"><stop id="ee6xQd9b0zw46-fill-0" offset="0%" stop-color="#ffd60a"></stop><stop id="ee6xQd9b0zw46-fill-1" offset="100%" stop-color="rgba(255,214,10,0)"></stop></radialGradient><radialGradient id="ee6xQd9b0zw47-fill" cx="0" cy="0" r="1" spreadMethod="pad" gradientUnits="userSpaceOnUse" gradientTransform="matrix(0 85 -85 0 0 0)"><stop id="ee6xQd9b0zw47-fill-0" offset="0%" stop-color="#ffd60a"></stop><stop id="ee6xQd9b0zw47-fill-1" offset="100%" stop-color="rgba(255,214,10,0)"></stop></radialGradient><radialGradient id="ee6xQd9b0zw62-fill" cx="0" cy="0" r="1" spreadMethod="pad" gradientUnits="userSpaceOnUse" gradientTransform="matrix(-155.5 36.9994 -53.770299 -225.984 155.5 107)"><stop id="ee6xQd9b0zw62-fill-0" offset="0%" stop-color="#32d74b"></stop><stop id="ee6xQd9b0zw62-fill-1" offset="100%" stop-color="#ffd60a"></stop></radialGradient><radialGradient id="ee6xQd9b0zw63-fill" cx="0" cy="0" r="1" spreadMethod="pad" gradientUnits="userSpaceOnUse" gradientTransform="matrix(0 85 -85 0 0 0)"><stop id="ee6xQd9b0zw63-fill-0" offset="0%" stop-color="#ffd60a"></stop><stop id="ee6xQd9b0zw63-fill-1" offset="100%" stop-color="rgba(255,214,10,0)"></stop></radialGradient><radialGradient id="ee6xQd9b0zw69-fill" cx="0" cy="0" r="1" spreadMethod="pad" gradientUnits="userSpaceOnUse" gradientTransform="matrix(-155.5 36.9994 -53.770299 -225.984 155.5 107)"><stop id="ee6xQd9b0zw69-fill-0" offset="0%" stop-color="#ff375f"></stop><stop id="ee6xQd9b0zw69-fill-1" offset="100%" stop-color="#ff9f0a"></stop></radialGradient><radialGradient id="ee6xQd9b0zw70-fill" cx="0" cy="0" r="1" spreadMethod="pad" gradientUnits="userSpaceOnUse" gradientTransform="matrix(0 85 -85 0 0 0)"><stop id="ee6xQd9b0zw70-fill-0" offset="0%" stop-color="#ff9f0a"></stop><stop id="ee6xQd9b0zw70-fill-1" offset="100%" stop-color="rgba(255,214,10,0)"></stop></radialGradient></defs><rect width="375" height="812" rx="30" ry="30" transform="translate(-1.5 0)" fill="#f5f5f5"></rect><rect width="375" height="94" rx="30" ry="30" transform="translate(0 718)" fill="#fff"></rect><rect width="375" height="94" rx="20" ry="20" transform="matrix(1 0 0 0.3856 0 701.9)" fill="#fff"></rect><g id="ee6xQd9b0zw5_ts" transform="translate(69.5,756) scale(1,1)"><g transform="translate(-69.5,-756)"><rect width="107" height="44" rx="12" ry="12" transform="translate(16 734)" fill="url(#ee6xQd9b0zw6-fill)"></rect><path d="M80,765h-21v1.5h21v-1.5Zm-2.2-12.7c.204352.002098.399415-.085212.533989-.23901s.195216-.358725.166011-.56099v-2.3c-.016361-.310712-.21139-.583752-.5-.7l-8.2-3h-.6l-8.2,3c-.348318.097444-.565044.444205-.5.8v2.2c-.029205.202265.031438.407192.166011.56099s.329637.241108.533989.23901h.8v9.7h-1.5v1.5h18v-1.5h-1.5v-9.8h.7ZM62,749.8l7.5-2.8l7.5,2.8v1h-15v-1ZM71,762h-3v-9.8h3v9.8Zm-7.5-9.8h3v9.8h-3v-9.8Zm12,9.8h-3v-9.8h3v9.8Z" fill="#fff"></path></g></g><path d="M195,763.5v-16.5h-6v4.5h-4.5v4.5h-4.5v7.5h-3v1.5h21v-1.5h-3Zm-13.5,0v-6h3v6h-3Zm4.5,0v-10.5h3v10.5h-3Zm4.5,0v-15h3v15h-3Zm115-4.7c-1.780875.006233-3.441072-.899329-4.4-2.4l1.3-.8c.682892,1.048053,1.849098,1.680099,3.1,1.680099s2.417108-.632046,3.1-1.680099l1.3.8c-.958928,1.500671-2.619125,2.406233-4.4,2.4Zm3-8.3c-.455714-.009228-.8909.189255-1.182701.539416s-.408554.814005-.317299,1.260584c.112239.411823.394613.756323.776393.947214s.826806.210088,1.223607.052786c.565618-.309224.870419-.945252.757099-1.579839s-.619415-1.125813-1.257099-1.220161Zm-6,0c-.455714-.009228-.8909.189255-1.182701.539416s-.408554.814005-.317299,1.260584c.112239.411823.394613.756323.776393.947214s.826806.210088,1.223607.052786c.565618-.309224.870419-.945252.757099-1.579839s-.619415-1.125813-1.257099-1.220161Z" fill="#8e8e93"></path><path d="M306.8,767l-1.3-.8l3-5.2h4.5c.630451-.005984,1.189869-.405568,1.4-1l.1-.5v-10.5c-.005984-.630451-.405568-1.189869-1-1.4l-.5-.1h-15c-.630451.005984-1.189869.405568-1.4,1l-.1.5v10.5c.005984.630451.405568,1.189869,1,1.4l.5.1h6.8v1.5h-6.8c-1.656854,0-3-1.343146-3-3v-10.5c0-1.656854,1.343146-3,3-3h15c1.656854,0,3,1.343146,3,3v10.5c0,1.656854-1.343146,3-3,3h-3.6l-2.6,4.5Z" fill="#8e8e93"></path><path d="M0,666c0-13.254834,10.745166-24,24-24h327c13.254834,0,24,10.745166,24,24v52h-375v-52Z" fill="#fff"></path><path d="M40,675.5l7.5,7.5-1,1-6.5-6.4-6.5,6.5-1-1.1l7.5-7.5ZM88,673v14h-2.8v-6h-6v6h-2.8v-14h2.8v5.8h6v-5.8h2.8Zm4.1,1.6c-.5,0-.9-.2-1.2-.5s-.5-.7-.5-1.1.2-.9.5-1.2.7-.5,1.2-.5s1,.2,1.3.5.5.7.5,1.2-.2.8-.5,1.1c-.4.3-.8.5-1.3.5Zm1.4,1.3v11.1h-2.8v-11h2.8Zm7,11.3c-.825886.000287-1.642938-.169932-2.4-.5-.7-.3-1.3-.8-1.7-1.3-.5-.6-.7-1.2-.7-1.9h2.8c0,.4.3.8.6,1c.4.3.9.5,1.4.5s1-.1,1.2-.3c.3-.3.5-.5.5-.9c0-.3-.2-.6-.6-.8l-1.7-.6-2-.6c-.6-.2-1-.5-1.4-1-.4-.4-.6-1-.6-1.7s.2-1.2.6-1.7c.3-.5.8-1,1.5-1.2.6-.3,1.4-.5,2.3-.5c1.3,0,2.4.4,3.2,1c.8.7,1.2,1.6,1.3,2.7h-2.8c0-.4-.2-.8-.6-1-.373296-.281113-.833243-.422635-1.3-.4-.5,0-.9,0-1.1.2-.3.2-.4.5-.4.8c0,.4.1.7.5.9l1.8.6l2,.6c.5.2,1,.5,1.3,1c.4.4.6,1,.6,1.7s-.2,1.3-.6,1.8c-.3.5-.8.9-1.5,1.2-.6.2-1.4.4-2.3.4Zm10-9v5.4c0,.4,0,.6.2.8s.5.2,1,.2h1.2v2.4h-1.7c-2.4,0-3.6-1.1-3.6-3.4v-5.4h-1.3v-2.2h1.3v-2.7h2.8v2.7h2.5v2.3h-2.5Zm9.4,9c-1.1,0-2-.3-3-.7-.838653-.469069-1.530931-1.161347-2-2-.4-1-.7-2-.7-3s.3-2.2.8-3c.5-1,1.2-1.6,2-2c.9-.5,1.9-.8,3-.8c1,0,2,.3,2.8.8.845264.46028,1.53972,1.154736,2,2c.6.8.8,1.8.8,3c.027393,1.519966-.56434,2.985754-1.639293,4.060707s-2.540741,1.666686-4.060707,1.639293Zm0-2.5c.5,0,1,0,1.4-.3s.8-.6,1-1.1c.3-.5.5-1.1.5-1.8c0-1-.3-1.9-.9-2.5-.5-.5-1.2-.8-2-.8s-1.5.3-2,.8c-.6.6-.8,1.4-.8,2.5s.2,1.8.8,2.4c.5.6,1.2.8,2,.8Zm10.6-7c.3-.6.8-1.1,1.4-1.4.611529-.338551,1.301098-.510943,2-.5v2.9h-.8c-.8,0-1.5.2-2,.6-.4.4-.6,1.2-.6,2.2v5.5h-2.8v-11h2.8v1.6Zm15.9-1.8l-6.9,16.3h-3l2.4-5.5-4.4-10.8h3.1l2.9,7.8l2.9-7.8h3Zm9.5,2.3v5.4c0,.4.1.6.3.8s.5.2.9.2h1.3v2.4h-1.8c-2.3,0-3.5-1.1-3.5-3.4v-5.4h-1.3v-2.2h1.3v-2.7h2.8v2.7h2.5v2.3h-2.5Zm7.3-.6c.4-.5.8-1,1.4-1.3.611529-.338551,1.301098-.510943,2-.5v2.9h-.7c-1,0-1.6.2-2,.6-.5.4-.7,1.2-.7,2.2v5.5h-2.8v-11h2.8v1.6Zm4.6,3.8c0-1.1.2-2,.6-3c.405977-.818619,1.02852-1.510334,1.8-2c.8-.4,1.7-.7,2.6-.7c1.451488-.031999,2.829248.638263,3.7,1.8v-1.6h2.8v11.1h-2.8v-1.6c-.4.5-.9,1-1.5,1.3s-1.4.5-2.2.5c-1,0-1.8-.3-2.6-.7-.765078-.497198-1.385861-1.186957-1.8-2-.4-1-.6-2-.6-3Zm8.7,0c0-.6-.1-1.2-.4-1.7s-.6-.8-1-1.1c-.5-.3-1-.4-1.6-.4s-1,.1-1.4.4-.8.6-1,1.1c-.3.5-.5,1-.5,1.7s.2,1.3.4,1.8c.3.5.7.9,1.1,1.1.5.3,1,.4,1.4.4c1.042365-.01432,1.99684-.587005,2.5-1.5.4-.5.5-1,.5-1.7Zm11.7-5.6c1.3,0,2.4.4,3.2,1.2s1.2,2,1.2,3.5v6.5h-2.8v-6.1c0-.9-.2-1.6-.7-2-.4-.5-1-.8-1.8-.8-.7,0-1.3.3-1.8.8-.4.4-.7,1.1-.7,2v6.1h-2.8v-11h2.8v1.3c.4-.5.9-.9,1.5-1.1.6-.3,1.2-.4,1.9-.4Zm11.3,11.4c-.825886.000287-1.642938-.169932-2.4-.5-.8-.3-1.3-.8-1.8-1.3-.4-.6-.6-1.2-.6-1.9h2.8c0,.4.2.8.6,1c.4.3.8.5,1.4.5.5,0,1-.1,1.2-.3.3-.3.5-.5.5-.9c0-.3-.2-.6-.6-.8l-1.7-.6-2-.6c-.6-.2-1-.5-1.4-1-.4-.4-.6-1-.6-1.7s.2-1.2.5-1.7c.4-.5,1-1,1.6-1.2.6-.3,1.4-.5,2.3-.5c1.3,0,2.4.4,3.2,1c.8.7,1.2,1.6,1.3,2.7h-2.8c0-.4-.2-.8-.6-1-.373296-.281113-.833243-.422635-1.3-.4-.5,0-.9,0-1.2.2-.2.2-.4.5-.4.8c0,.4.2.7.6.9l1.7.6l2,.6c.5.2,1,.5,1.4,1c.4.4.6,1,.6,1.7s-.2,1.3-.6,1.8c-.3.5-.8.9-1.5,1.2-.6.2-1.4.4-2.3.4Zm6-5.8c0-1.1.2-2,.6-3c.405977-.818619,1.02852-1.510334,1.8-2c.8-.4,1.7-.7,2.6-.7c1.451488-.031999,2.829248.638263,3.7,1.8v-1.6h2.8v11.1h-2.8v-1.6c-.4.5-.9,1-1.5,1.3-.7.3-1.4.5-2.2.5-1,0-1.8-.3-2.6-.7-.768217-.493515-1.389853-1.184222-1.8-2-.4-1-.7-2-.7-3Zm8.7,0c0-.6-.2-1.2-.4-1.7-.3-.5-.7-.8-1.1-1.1-.5-.3-1-.4-1.5-.4s-1,.1-1.4.4-.8.6-1.1,1.1-.4,1-.4,1.7.1,1.3.4,1.8.6.9,1,1.1c.5.3,1,.4,1.5.4s1-.1,1.5-.4c.40826-.24888.75112-.59174,1-1c.3-.6.5-1.2.5-1.8Zm4.8,0c0-1,.2-2,.7-3c.46028-.845264,1.154736-1.53972,2-2c.8-.4,1.7-.7,2.8-.7c1.4,0,2.5.4,3.4,1c.941695.750607,1.58085,1.815866,1.8,3h-3c-.2-.5-.5-.9-.8-1.2-.4-.2-.9-.4-1.4-.4-.8,0-1.5.3-2,.9-.4.6-.6,1.4-.6,2.5c0,1,.2,1.8.7,2.4.4.6,1,.9,1.9.9c1,0,1.8-.5,2.2-1.5h3c-.3,1.2-1,2.1-1.8,2.8s-2,1-3.4,1c-1,0-2-.2-2.9-.6-.80835-.475307-1.466744-1.168354-1.9-2-.5-.9-.7-1.9-.7-3Zm16-3.2v5.4c0,.4.1.6.3.8s.5.2.9.2h1.3v2.4h-1.8c-2.3,0-3.5-1.1-3.5-3.4v-5.4h-1.3v-2.2h1.3v-2.7h2.8v2.7h2.5v2.3h-2.5Zm6-3.6c-.6,0-1-.2-1.3-.5s-.5-.7-.5-1.1.2-.9.5-1.2.7-.5,1.2-.5s1,.2,1.2.5c.4.3.5.7.5,1.2s-.1.8-.5,1.1c-.3.3-.7.5-1.2.5Zm1.3,1.3v11.1h-2.8v-11h2.8Zm7.7,11.3c-1,0-2-.3-2.9-.7-.835531-.473185-1.526815-1.164469-2-2-.5-1-.7-2-.7-3s.2-2.2.7-3c.5-1,1.2-1.6,2-2c1-.5,1.9-.8,3-.8c1,0,2,.3,2.9.8.845264.46028,1.53972,1.154736,2,2c.5.8.8,1.8.8,3c.028456,1.537799-.576835,3.01961-1.673825,4.097687s-2.589103,1.657507-4.126175,1.602313Zm0-2.5c.5,0,1,0,1.4-.3.5-.3.8-.6,1-1.1.4-.5.5-1.1.5-1.8c0-1-.3-1.9-.8-2.5-.6-.5-1.3-.8-2-.8s-1.5.3-2,.8c-.6.6-.9,1.4-.9,2.5s.3,1.8.8,2.4s1.2.8,2,.8Zm14-9c1.3,0,2.4.5,3.2,1.3s1.2,2,1.2,3.5v6.5h-2.8v-6.1c0-.9-.2-1.6-.7-2-.4-.5-1-.8-1.8-.8-.7,0-1.4.3-1.8.8-.5.4-.7,1.1-.7,2v6.1h-2.8v-11h2.8v1.3c.4-.5.9-.9,1.4-1.1.6-.3,1.3-.4,2-.4Zm11.3,11.5c-.85953.014351-1.712108-.156164-2.5-.5-.7-.3-1.2-.8-1.7-1.3-.4-.6-.6-1.2-.7-1.9h2.9c0,.4.2.8.6,1c.4.3.8.5,1.4.5.5,0,1-.1,1.2-.3.3-.3.5-.5.5-.9c0-.3-.2-.6-.6-.8l-1.7-.6-2-.6c-.6-.2-1-.5-1.4-1-.4-.4-.6-1-.6-1.7s.2-1.2.5-1.7c.4-.5.9-1,1.5-1.2.7-.3,1.5-.5,2.4-.5c1.3,0,2.4.4,3.1,1c.8.7,1.3,1.6,1.3,2.7h-2.5c0-.4-.3-.8-.6-1-.373296-.281113-.833243-.422635-1.3-.4-.5,0-.9,0-1.2.2-.2.2-.4.5-.4.8c0,.4.2.7.6.9l1.7.6l2,.6c.5.2,1,.5,1.3,1c.4.4.6,1,.6,1.7s-.1,1.3-.5,1.8c-.3.5-.8.9-1.5,1.2-.7.2-1.4.4-2.3.4Z"></path><g transform="translate(.3 0)" clip-path="url(#ee6xQd9b0zw18)"><rect width="225" height="44" rx="12" ry="12" transform="translate(16 414)" fill="#fff"></rect><rect width="225" height="4" rx="0" ry="0" transform="translate(16 454)" opacity="0.2" fill="#8e8e93"></rect><g id="ee6xQd9b0zw15_ts" transform="translate(20,454) scale(1,1)"><rect width="113" height="4" rx="0" ry="0" transform="translate(0,0)" fill="url(#ee6xQd9b0zw15-fill)"></rect></g><path d="M39,440c.7,0,1.2,0,1.7-.4s.8-.6,1-1.1h2.6c-.335247,1.103764-1.041834,2.057657-2,2.7-.9.6-2,.9-3.2.9-2.454961.10959-4.674325-1.452185-5.4-3.8h-1.3v-1.3h1c-.031628-.399375-.031628-.800625,0-1.2h-1v-1.3h1.3c.4-1.2,1-2.1,2-2.8s2.1-1,3.4-1s2.3.3,3.3,1c.940075.617103,1.644678,1.533087,2,2.6h-2.6c-.3-.5-.7-.9-1.1-1.1-.5-.3-1-.4-1.6-.4-.7,0-1.2.1-1.8.4-.484541.317983-.866603.769511-1.1,1.3h3v1.3h-3.4c-.030815.399407-.030815.800593,0,1.2h3.4v1.3h-3c.2.5.6,1,1.1,1.3s1.1.4,1.8.4Zm10.2-7.6v-2h3.8v11.6h-2.3v-9.6h-1.5Zm8.7,7.2l-1.8,4.5h-1.5l1-4.5h2.4Zm8.8-7.6l-4.2,10h-2.3l4.3-9.7h-5.5v-2h7.7v1.7Zm1.4,4c-.076581-1.498756.269949-2.988833,1-4.3.6-1,1.7-1.6,3.3-1.6s2.6.5,3.3,1.6c.730051,1.311167,1.076581,2.801244,1,4.3c0,1.9-.3,3.3-1,4.4-.7,1-1.8,1.6-3.3,1.6s-2.7-.6-3.3-1.6c-.7-1-1-2.5-1-4.4Zm6.4,0c0-.8,0-1.4-.2-2c0-.5-.3-1-.6-1.3s-.7-.5-1.3-.5-1,.2-1.4.5c-.3.3-.5.8-.6,1.3l-.1,2l.1,2c.1.6.3,1,.6,1.4.3.3.8.5,1.4.5s1-.2,1.3-.5c.4-.3.6-.8.7-1.3l.1-2Zm4,0c-.107145-1.489235.204612-2.978737.9-4.3.7-1,1.8-1.6,3.3-1.6s2.7.5,3.3,1.6c.730051,1.311167,1.076581,2.801244,1,4.3c0,1.9-.3,3.3-1,4.4-.6,1-1.7,1.6-3.3,1.6s-2.6-.6-3.3-1.6-1-2.5-1-4.4Zm6.3,0l-.1-2c-.1-.5-.3-1-.6-1.3s-.8-.5-1.4-.5-1,.2-1.3.5-.5.8-.6,1.3l-.2,2c0,.8,0,1.5.2,2c0,.6.3,1,.6,1.4.3.3.7.5,1.3.5s1-.2,1.4-.5c.3-.3.5-.8.6-1.3l.1-2Z" fill="url(#ee6xQd9b0zw16-fill)"></path><path d="M170.4,440c.6,0,1.1,0,1.6-.4s.8-.6,1-1.1h2.6c-.335247,1.103764-1.041834,2.057657-2,2.7-.9.6-2,.9-3.2.9-2.454961.10959-4.674325-1.452185-5.4-3.8h-1.3v-1.3h1c-.030815-.399407-.030815-.800593,0-1.2h-1v-1.3h1.3c.4-1.2,1-2.1,2-2.8s2.1-1,3.4-1c1.2,0,2.3.3,3.3,1c.940075.617103,1.644678,1.533087,2,2.6h-2.7c-.3-.5-.7-.9-1.1-1.1-.5-.3-1-.4-1.6-.4-.7,0-1.2.1-1.8.4-.484541.317983-.866603.769511-1.1,1.3h3v1.3h-3.4c-.030042.399436-.030042.800564,0,1.2h3.4v1.3h-3c.2.5.6,1,1.1,1.3s1.1.4,1.8.4Zm15.1-5.2c1,.1,1.8.5,2.4,1.1s.9,1.5.9,2.5c0,.7-.2,1.4-.5,2-.4.5-.8,1-1.4,1.2-.6.3-1.4.5-2.2.5-1.2,0-2.1-.3-2.9-1-.7-.5-1-1.4-1.1-2.6h2.2c0,.5.2,1,.5,1.2.3.4.8.5,1.4.5.5,0,1-.2,1.3-.5s.5-.8.5-1.4-.2-1-.5-1.4-.9-.5-1.5-.5h-1.6v-1.5l2.6-2.6h-4.3v-2h7v1.8l-2.8,2.7Zm7.7,4.8l-1.8,4.5h-1.5l1-4.5h2.3Zm1.3.1v-1.7l5.2-7.5h2.6v7.3h1.4v2h-1.4v2.2h-2.2v-2.3h-5.6Zm5.7-6.8l-3.2,4.9h3.2v-5Zm5,3.1c-.076581-1.498756.269949-2.988833,1-4.3.6-1,1.7-1.6,3.3-1.6c1.5,0,2.6.5,3.3,1.6.730051,1.311167,1.076581,2.801244,1,4.3c0,1.9-.3,3.3-1,4.4-.7,1-1.8,1.6-3.3,1.6-1.6,0-2.7-.6-3.3-1.6-.7-1-1-2.5-1-4.4Zm6.4,0c0-.8,0-1.4-.2-2c0-.5-.3-1-.6-1.3s-.7-.5-1.3-.5-1,.2-1.4.5c-.3.3-.5.8-.6,1.3l-.1,2l.1,2c.1.6.3,1,.6,1.4.3.3.8.5,1.4.5s1-.2,1.3-.5c.4-.3.6-.8.6-1.3l.2-2Zm3.9,0c-.076581-1.498756.269949-2.988833,1-4.3.7-1,1.8-1.6,3.3-1.6c1.6,0,2.7.5,3.3,1.6.730051,1.311167,1.076581,2.801244,1,4.3c0,1.9-.3,3.3-1,4.4-.6,1-1.7,1.6-3.3,1.6-1.5,0-2.6-.6-3.3-1.6s-1-2.5-1-4.4Zm6.4,0l-.1-2c-.1-.5-.3-1-.6-1.3s-.8-.5-1.4-.5-1,.2-1.3.5-.5.8-.6,1.3l-.2,2c0,.8,0,1.5.2,2c0,.6.3,1,.6,1.4.3.3.7.5,1.3.5s1-.2,1.4-.5c.3-.3.5-.8.6-1.3l.1-2Z"></path><clipPath id="ee6xQd9b0zw18"><rect width="225" height="44" rx="12" ry="12" transform="translate(16 414)" fill="#fff"></rect></clipPath></g><path d="M96.9,473v11h-1.5v-8.8L91.9,484h-1.3L87,475.2v8.8h-1.4v-11h1.7l4,9.2L95,473h2Zm6.3,2.1c.8,0,1.6.2,2.2.5.7.4,1.2,1,1.6,1.6.4.7.6,1.5.6,2.4s-.2,1.7-.6,2.4-.9,1.2-1.6,1.6c-.6.3-1.4.5-2.2.5-.9,0-1.6-.2-2.3-.5-.676211-.368224-1.231776-.923789-1.6-1.6-.4-.7-.5-1.5-.5-2.4s.1-1.7.5-2.4s1-1.2,1.6-1.6c.7-.3,1.4-.5,2.3-.5Zm0,1.3c-.517523-.031297-1.034324.072063-1.5.3-.4.3-.8.6-1,1.1-.3.5-.5,1.1-.5,1.8s.2,1.3.4,1.8c.3.5.7.8,1.1,1c.5.3,1,.4,1.5.4s1,0,1.4-.3c.5-.3.8-.6,1-1c.4-.6.5-1.2.5-1.9s-.1-1.3-.4-1.8-.6-.8-1-1c-.456244-.262633-.973565-.400585-1.5-.4ZM114,475c1,0,1.8.3,2.5,1c.6.6,1,1.6,1,2.8v5.1h-1.5v-5c0-.9-.3-1.5-.7-2s-1-.7-1.8-.7-1.5.3-2,.8c-.4.5-.7,1.3-.7,2.2v4.7h-1.4v-8.8h1.4v2.1c.184369-.691686.60999-1.294649,1.2-1.7.6-.3,1.2-.5,2-.5Zm9.8,7.6v1.3h-1c-1,0-1.6-.2-2-.6-.5-.5-.7-1.2-.7-2.2v-4.7h-1.3v-1.3h1.3v-2.1h1.4v2.2h2.3v1.3h-2.3v4.7c0,.6.2,1,.4,1.2s.5.3,1,.3h1Zm6.4-7.6c1,0,1.9.3,2.5,1c.6.6,1,1.6,1,2.8v5.1h-1.5v-5c0-.9-.2-1.5-.7-2s-1-.7-1.8-.7-1.4.3-2,.8c-.4.5-.6,1.3-.6,2.2v4.7h-1.5v-11.8h1.5v5.1c.184369-.691686.60999-1.294649,1.2-1.7.5-.3,1.2-.5,2-.5Zm11.1-3v12h-1.3v-11.8h1.5Zm2,.5c0-.2.2-.4.4-.6.1-.2.4-.3.7-.3s.5.1.7.3l.3.6c0,.2-.1.5-.3.7s-.4.2-.7.2l-.7-.2c-.19866-.177442-.308514-.433769-.3-.7Zm1.8,2.6v8.8h-1.5v-8.8h1.5Zm13.1-.1c1,0,1.9.3,2.5,1c.6.6,1,1.6,1,2.8v5.1h-1.5v-5c0-.8-.2-1.5-.6-2-.5-.4-1-.6-1.8-.6-.7,0-1.4.2-1.8.7-.5.5-.7,1.3-.7,2.2v4.7h-1.5v-5c0-.8-.2-1.5-.6-2s-1-.6-1.7-.6c-.8,0-1.4.2-2,.7-.4.5-.6,1.3-.6,2.2v4.7h-1.5v-8.8h1.5v2c.2-.7.6-1.2,1.1-1.6.6-.3,1.2-.5,2-.5.7,0,1.3.2,1.9.5.5.4,1,1,1.2,1.7.2-.7.6-1.3,1.2-1.6.6-.4,1.2-.6,2-.6Zm5.5-2.5c0-.2,0-.4.2-.6s.4-.3.7-.3.6.1.8.3l.2.6c0,.2,0,.5-.2.7-.225487.178631-.516979.251504-.8.2-.250174.023653-.500084-.04775-.7-.2-.162275-.194754-.234892-.448913-.2-.7Zm1.7,2.6v8.8h-1.4v-8.8h1.5Zm6.5,7.5v1.3h-1c-1,0-1.7-.2-2.1-.6-.4-.5-.7-1.2-.7-2.2v-4.7h-1.1v-1.3h1.3v-2.1h1.5v2.2h2.3v1.3h-2.3v4.7c0,.6.1,1,.3,1.2s.6.3,1.1.3h.9Z" fill="#8e8e93"></path><g id="ee6xQd9b0zw21_to" transform="translate(132.5,455.5)"><circle r="5.5" transform="translate(0,0)" fill="#32d74b"></circle></g><rect width="107" height="44" rx="12" ry="12" transform="translate(252 414)" fill="#fff"></rect><path d="M314.5,443.5h-2.3v-1.5h2.3v-12h-2.3v-1.5h2.3c.4,0,.8.2,1,.4s.5.7.5,1.1v12c0,.4-.2.8-.4,1s-.7.5-1.1.5Z"></path><path d="M310.8,437.5c.828427,0,1.5-.671573,1.5-1.5s-.671573-1.5-1.5-1.5-1.5.671573-1.5,1.5.671573,1.5,1.5,1.5Zm-5.3,0c.828427,0,1.5-.671573,1.5-1.5s-.671573-1.5-1.5-1.5-1.5.671573-1.5,1.5.671573,1.5,1.5,1.5Zm-5.2,0c.828427,0,1.5-.671573,1.5-1.5s-.671573-1.5-1.5-1.5-1.5.671573-1.5,1.5.671573,1.5,1.5,1.5Z"></path><path d="M298.8,443.5h-2.3c-.4,0-.8-.2-1-.4s-.5-.7-.5-1.1v-12c0-.4.2-.8.4-1s.7-.5,1.1-.5h2.3v1.5h-2.3v12h2.3v1.5Z"></path><circle r="5" transform="translate(355 418)" fill="#32d74b" stroke="#f5f5f5" stroke-width="2"></circle><path d="M259.6,478.4c0-1,.3-2,.8-3c.970108-1.725892,2.821288-2.767181,4.8-2.7c1.2,0,2.3.3,3.2.9s1.6,1.4,2,2.5h-1.8c-.3-.7-.7-1.2-1.3-1.6-.6-.3-1.3-.5-2-.5-.9,0-1.6.2-2.2.5s-1,1-1.4,1.6-.6,1.4-.6,2.3.2,1.7.6,2.4c.3.6.8,1.1,1.4,1.5s1.3.5,2.1.5c1.436861.096288,2.786044-.697349,3.4-2h1.8c-.393211.993084-1.094102,1.834154-2,2.4-1,.6-2,.9-3.2.9-1.994309.024712-3.839857-1.051857-4.8-2.8-.5-.8-.8-1.8-.8-2.9Zm17.3-3.3c.7,0,1.3.1,1.8.4s1,.7,1.2,1.3c.3.5.5,1.2.5,2v5.2h-1.4v-5c0-.8-.3-1.5-.7-2-.4-.4-1-.7-1.8-.7s-1.4.3-1.8.8c-.5.4-.7,1.1-.7,2v4.9h-1.5v-11.8h1.5v4.3c.3-.5.7-.8,1.2-1c.530287-.256921,1.110788-.393509,1.7-.4Zm5.3,4.5c0-1,.2-1.7.6-2.4.711722-1.319248,2.10131-2.129841,3.6-2.1.8,0,1.4.2,2,.5s1,.7,1.3,1.2v-1.6h1.4v8.8h-1.4v-1.6c-.3.5-.8,1-1.3,1.2-.6.4-1.3.5-2,.5-1.49869.029841-2.888278-.780752-3.6-2.1-.397876-.737112-.604191-1.562371-.6-2.4Zm7.5,0c0-.7-.2-1.2-.4-1.7s-.7-.9-1.1-1.1c-.928203-.535898-2.071797-.535898-3,0-.5.2-.8.6-1,1s-.5,1.1-.5,1.8.2,1.2.4,1.7c.3.5.6,1,1.1,1.2.4.2,1,.4,1.5.4s1-.2,1.5-.4c.4-.3.8-.7,1-1.2.3-.5.5-1,.5-1.7Zm8.2-4.5c1,0,1.9.3,2.6,1c.6.6,1,1.5,1,2.7v5.2h-1.5v-5c0-.8-.2-1.5-.6-2-.5-.4-1-.7-1.8-.7s-1.4.3-1.9.8c-.4.4-.7,1.1-.7,2v4.9h-1.4v-8.8h1.4v1.3c.3-.5.7-.8,1.2-1c.5-.3,1-.4,1.7-.4Zm9.5,0c.8,0,1.5.2,2,.5.6.3,1,.7,1.3,1.2v-1.6h1.5v9c0,.8-.2,1.5-.5,2.1-.4.6-.9,1.1-1.5,1.5-.6.3-1.4.5-2.2.5-1.2,0-2.1-.3-2.9-.8s-1.2-1.3-1.4-2.2h1.5c.1.5.5,1,1,1.3s1,.5,1.8.5s1.4-.3,2-.8c.4-.5.7-1.2.7-2.1v-1.8c-.3.5-.7.9-1.3,1.2-.5.4-1.2.5-2,.5-.698902.010943-1.388471-.161449-2-.5-.676211-.368224-1.231776-.923789-1.6-1.6-.363245-.746113-.535077-1.570903-.5-2.4c0-1,.2-1.7.5-2.4.711722-1.319248,2.10131-2.129841,3.6-2.1Zm3.3,4.5c0-.7-.1-1.2-.4-1.7s-.6-.9-1-1.1c-.5-.3-1-.4-1.6-.4s-1,0-1.5.3-.8.7-1,1.2c-.3.4-.4,1-.4,1.7s.1,1.2.4,1.7c.2.5.6,1,1,1.2.5.2,1,.4,1.5.4s1-.2,1.5-.4c.5-.3.8-.7,1.1-1.2s.4-1,.4-1.7Zm12-.3l-.1.9h-7c0,.8.3,1.5.9,2c.5.5,1.2.7,2,.7.6,0,1-.1,1.5-.4.4-.3.7-.7.9-1.2h1.6c-.3.8-.7,1.5-1.4,2-.7.6-1.6.8-2.7.8-.8,0-1.5-.1-2.2-.5-.639302-.383167-1.158832-.937332-1.5-1.6-.4-.7-.6-1.5-.6-2.4s.2-1.7.5-2.4c.4-.7,1-1.2,1.6-1.6.6-.3,1.4-.5,2.2-.5.9,0,1.6.2,2.2.5s1.2.9,1.5,1.5c.4.7.5,1.4.5,2.2Zm-1.6-.3c0-.6,0-1-.3-1.4-.3-.5-.6-.8-1-1-.435614-.211527-.91596-.314459-1.4-.3-.8,0-1.4.3-2,.7-.4.5-.7,1.1-.8,2h5.5Zm15.2-2.9c.018496.875905-.346819,1.716129-1,2.3-.6.6-1.6,1-2.9,1h-2.1v4.6h-1.5v-11.2h3.6c1.3,0,2.2.4,2.9,1c.653181.583871,1.018496,1.424095,1,2.3Zm-3.9,2c.8,0,1.4-.1,1.8-.5s.6-.8.6-1.5c0-1.4-.8-2-2.4-2h-2.1v4h2.1Zm7.1-5.3v11.2h-1.4v-11.2h1.4ZM350.8,484h-1.5l-5.8-8.9v8.9h-1.5v-11.2h1.5l5.8,8.9v-8.9h1.5v11.2Z" fill="#8e8e93"></path><rect width="107" height="44" rx="12" ry="12" transform="translate(16 512)" fill="#fff"></rect><path d="M73.6,531h4.9v-1.5h-3.4l3.4-3.4-1-1.1-3.5,3.4v-3.4h-1.5v5l-1,1h-1.3v-3h-1.5v3h-1.1l-1.1-1v-5h-1.5v3.4L61.6,525l-1.1,1l3.4,3.5h-3.4v1.5h5l1,1v1.3h-3v1.5h3v1.1l-1,1.1h-5v1.5h3.4l-3.4,3.4l1,1.1l3.5-3.4v3.4h1.5v-5l1-1h1.2v3h1.5v-3h1.2l1.1,1v5h1.5v-3.4l3.4,3.4l1.1-1-3.4-3.5h3.4v-1.5h-5l-1-1v-1.2h3v-1.5h-3v-1.3l1-1.1ZM71,535.5h-3v-3h3v3Z"></path><path d="M30.7,570.8v1.2h-4.7v3.8h3.9v1.2h-4v5h-1.4v-11.2h6.3Zm3.2,3.9c.3-.5.6-1,1.1-1.2.5-.3,1-.4,1.8-.4v1.5h-.4c-1.7,0-2.5.9-2.5,2.6v4.8h-1.4v-8.8h1.4v1.5Zm12.5,2.6v.9h-7c0,.8.3,1.5.9,2c.5.5,1.2.7,2,.7.6,0,1-.1,1.5-.4.4-.3.7-.7.9-1.2h1.6c-.3.8-.7,1.5-1.4,2-.8.6-1.6.8-2.7.8-.8,0-1.6-.1-2.2-.5-.639302-.383167-1.158832-.937332-1.5-1.6-.4-.7-.6-1.5-.6-2.4s.2-1.7.5-2.4c.4-.7.9-1.2,1.6-1.6.6-.3,1.4-.5,2.2-.5.9,0,1.6.2,2.2.5s1.2.9,1.5,1.5c.4.7.5,1.4.5,2.2ZM45,577c0-.6,0-1-.3-1.4-.3-.5-.6-.8-1-1-.435614-.211527-.91596-.314459-1.4-.3-.8,0-1.4.3-2,.7-.4.5-.7,1.1-.8,2h5.5Zm11.5.3v.9h-7.1c0,.8.3,1.5.9,2c.5.5,1.2.7,2,.7.6,0,1.1-.1,1.5-.4s.7-.7,1-1.2h1.5c-.3.8-.7,1.5-1.4,2-.7.6-1.6.8-2.7.8-.8,0-1.5-.1-2.2-.5-.639302-.383167-1.158832-.937332-1.5-1.6-.4-.7-.6-1.5-.6-2.4s.2-1.7.6-2.4.8-1.2,1.5-1.6c.6-.3,1.4-.5,2.2-.5.9,0,1.6.2,2.3.5s1,.9,1.4,1.5c.4.7.6,1.4.6,2.2ZM55,577c0-.6-.2-1-.4-1.4-.3-.5-.6-.8-1-1-.435614-.211527-.91596-.314459-1.4-.3-.8,0-1.4.3-1.9.7-.5.5-.8,1.1-.9,2h5.6Zm4.5,3.8h4.3v1.2h-6v-1.2l4.3-6.4h-4.3v-1.2h6v1.2l-4.3,6.4Zm14.2-3.5v.9h-7.1c0,.8.4,1.5.9,2s1.2.7,2,.7c.6,0,1.1-.1,1.5-.4s.7-.7,1-1.2h1.5c-.3.8-.7,1.5-1.4,2-.7.6-1.6.8-2.6.8-.9,0-1.6-.1-2.3-.5-.639302-.383167-1.158832-.937332-1.5-1.6-.4-.7-.6-1.5-.6-2.4s.2-1.7.6-2.4.8-1.2,1.5-1.6c.6-.3,1.4-.5,2.3-.5.8,0,1.5.2,2.2.5s1,.9,1.4,1.5c.4.7.6,1.4.6,2.2ZM72,577c0-.6-.2-1-.4-1.4-.3-.5-.6-.8-1-1-.435614-.211527-.91596-.314459-1.4-.3-.7,0-1.4.3-1.9.7-.5.5-.8,1.1-.9,2h5.6Zm7.1.6c0-1,.2-1.7.5-2.4.368224-.676211.923789-1.231776,1.6-1.6.6-.3,1.3-.5,2.2-.5c1,0,2,.2,2.6.8.7.5,1.2,1.2,1.4,2.1h-1.4c-.2-.5-.5-1-1-1.2-.4-.3-.9-.5-1.5-.5-.9,0-1.5.3-2,.9-.6.5-.8,1.4-.8,2.4s.2,1.9.8,2.4s1.1,1,2,1c.6,0,1.1-.2,1.6-.5.4-.3.7-.8.9-1.3h1.5c-.2.9-.7,1.6-1.4,2.1-.7.6-1.6.8-2.6.8-.9,0-1.6-.1-2.2-.5-.7-.4-1.2-1-1.6-1.6s-.5-1.5-.5-2.4Zm9.7,0c0-1,.2-1.7.6-2.4.711722-1.319248,2.10131-2.129841,3.6-2.1.8,0,1.4.2,2,.5.5.3,1,.7,1.2,1.2v-1.6h1.5v8.8h-1.5v-1.6c-.2.5-.7,1-1.2,1.2-.6.4-1.3.5-2,.5-1.49869.029841-2.888278-.780752-3.6-2.1-.397876-.737112-.604191-1.562371-.6-2.4Zm7.4,0c0-.7,0-1.2-.4-1.7-.2-.5-.6-.9-1-1.1-.928203-.535898-2.071797-.535898-3,0-.5.2-.8.6-1,1-.4.5-.5,1.1-.5,1.8s.1,1.2.4,1.7.6,1,1,1.2c.5.2,1,.4,1.6.4c1.070717-.011434,2.041156-.632514,2.5-1.6.3-.5.4-1,.4-1.7Zm5.4-3l1.1-1.1c.5-.3,1-.4,1.8-.4v1.5h-.4c-1.6,0-2.5.9-2.5,2.6v4.8h-1.4v-8.8h1.4v1.5Zm4,3c0-1,.2-1.7.5-2.4.727947-1.352231,2.165801-2.16831,3.7-2.1c1.276889.023334,2.46588.654985,3.2,1.7v-4.6h1.5v11.8h-1.5v-1.6c-.3.5-.7,1-1.3,1.2-.5.4-1.2.5-2,.5-.698902.010943-1.388471-.161449-2-.5-.676211-.368224-1.231776-.923789-1.6-1.6-.363245-.746113-.535077-1.570903-.5-2.4Zm7.4,0c0-.7-.1-1.2-.4-1.7-.2-.5-.6-.9-1-1.1-.928203-.535898-2.071797-.535898-3,0-.5.2-.8.6-1.1,1-.3.5-.4,1.1-.4,1.8s.1,1.2.4,1.7.6,1,1,1.2c.5.2,1,.4,1.6.4c1.070717-.011434,2.041156-.632514,2.5-1.6.3-.5.4-1,.4-1.7Z" fill="#8e8e93"></path><rect width="107" height="44" rx="12" ry="12" transform="translate(134 512)" fill="#fff"></rect><path d="M183,532.5c.828427,0,1.5-.671573,1.5-1.5s-.671573-1.5-1.5-1.5-1.5.671573-1.5,1.5.671573,1.5,1.5,1.5Zm4.5-2.2c.828427,0,1.5-.671573,1.5-1.5s-.671573-1.5-1.5-1.5-1.5.671573-1.5,1.5.671573,1.5,1.5,1.5Zm4.5,2.2c.828427,0,1.5-.671573,1.5-1.5s-.671573-1.5-1.5-1.5-1.5.671573-1.5,1.5.671573,1.5,1.5,1.5Zm.8,4.5c.828427,0,1.5-.671573,1.5-1.5s-.671573-1.5-1.5-1.5-1.5.671573-1.5,1.5.671573,1.5,1.5,1.5Zm-3,3.8c.828427,0,1.5-.671573,1.5-1.5s-.671573-1.5-1.5-1.5-1.5.671573-1.5,1.5.671573,1.5,1.5,1.5Z"></path><path d="M188,523.5c-2.87035-.13684-5.67136.908697-7.750002,2.892855s-3.253258,4.733537-3.249998,7.607145c-.013209,1.138976.513389,2.217009,1.419879,2.90673s2.085918.90975,3.180121.59327l.8-.2c.673585-.226088,1.414892-.112947,1.990368.303777s.914267,1.085723.909632,1.796223v2.8c-.027329.600602.192335,1.186222.607914,1.620691s.990863.67993,1.592086.679309c5.79899.110457,10.589543-4.50101,10.7-10.3s-4.50101-10.589543-10.3-10.7Zm6,16.7c-1.693374,1.78183-4.041873,2.793491-6.5,2.8-.220997.034658-.445249-.038394-.603427-.196573s-.231231-.38243-.196573-.603427v-2.8c-.027734-1.150039-.574947-2.225608-1.488203-2.925123s-2.094235-.947668-3.211797-.674877l-.8.2c-.63345.188871-1.318857.06847-1.850015-.32498s-.846066-1.014024-.849985-1.67502c-.002429-2.457897,1.000493-4.809853,2.775852-6.509666s4.168679-2.599575,6.624148-2.490334c4.642691.248797,8.351203,3.957309,8.6,8.6.099996,2.448615-.802848,4.832123-2.5,6.6Z"></path><circle r="4" transform="translate(216 376)" opacity="0.2" fill="#8e8e93"></circle><circle r="4" transform="translate(197 376)" fill="#32d74b"></circle><circle r="4" transform="translate(178 376)" opacity="0.2" fill="#8e8e93"></circle><circle r="4" transform="translate(159 376)" opacity="0.2" fill="#8e8e93"></circle><path d="M145.9,576.4c0-1,.2-2,.7-3c.970108-1.725892,2.821288-2.767181,4.8-2.7c1.3,0,2.3.3,3.2.9.922655.591603,1.625361,1.469984,2,2.5h-1.7c-.4-.7-.8-1.2-1.4-1.6-.6-.3-1.3-.5-2-.5-.766118-.047879-1.529834.125692-2.2.5-.6.4-1,1-1.4,1.6s-.5,1.4-.5,2.3.1,1.7.5,2.4c.3.6.8,1.1,1.4,1.5.640949.355973,1.367405.528939,2.1.5.732595.028939,1.459051-.144027,2.1-.5.6-.4,1-.9,1.4-1.5h1.7c-.393211.993084-1.094102,1.834154-2,2.4-.9.6-2,.9-3.2.9-1.994309.024712-3.839857-1.051857-4.8-2.8-.5-.8-.7-1.8-.7-2.9Zm20.6-3.2v8.8h-1.4v-1.3c-.3.5-.7.8-1.2,1-.5.3-1,.4-1.6.4-.622963.008667-1.239339-.128306-1.8-.4-.6-.3-1-.7-1.3-1.3-.4-.5-.5-1.2-.5-2v-5.2h1.4v5c0,.8.3,1.5.7,2c.4.4,1,.7,1.8.7s1.4-.3,1.8-.8.7-1.1.7-2v-4.9h1.4Zm5.6,9c-.7,0-1.3-.2-1.8-.4s-1-.5-1.3-1c-.3-.4-.4-.8-.5-1.4h1.5c0,.5.3.8.6,1.1.4.3.9.4,1.5.4.5,0,1-.1,1.3-.4s.5-.5.5-.9-.2-.7-.5-.8l-1.6-.6c-.543535-.132072-1.077979-.299085-1.6-.5-.387028-.191583-.728132-.464466-1-.8-.4-.3-.5-.8-.5-1.4c0-.4.1-.8.4-1.2s.6-.7,1.1-.9c.538077-.222543,1.118252-.324927,1.7-.3c1,0,1.8.2,2.4.7s.9,1.2,1,2h-1.5c0-.4-.2-.8-.6-1-.359426-.317048-.820755-.494482-1.3-.5-.466757-.022635-.926704.118887-1.3.4-.251806.188854-.4.485243-.4.8c0,.3,0,.6.2.8l.7.4l1.2.4l1.6.5l1,.7c.2.4.4.8.4,1.3s-.1,1-.4,1.3c-.3.4-.6.7-1.1,1-.545597.188553-1.12554.256782-1.7.2Zm7-7.8v5.2c0,.4.1.7.3,1l1,.2h1v1.2h-1.3c-.8,0-1.4-.2-1.8-.6-.4-.3-.6-1-.6-1.8v-5.2h-1.2v-1.2h1.2v-2.2h1.4v2.2h2.3v1.2h-2.3Zm8,7.7c-.9,0-1.7-.1-2.3-.5-.676211-.368224-1.231776-.923789-1.6-1.6-.397876-.737112-.604191-1.562371-.6-2.4c0-.9.2-1.7.6-2.4.368224-.676211.923789-1.231776,1.6-1.6.7-.3,1.4-.5,2.3-.5s1.6.2,2.2.5c.676211.368224,1.231776.923789,1.6,1.6.4.7.6,1.5.6,2.4s-.2,1.7-.6,2.4-1,1.2-1.6,1.6-1.5.5-2.3.5Zm0-1.2c.4,0,1-.2,1.4-.4s.8-.6,1-1.1c.4-.5.5-1.1.5-1.8s-.1-1.3-.4-1.8-.6-.8-1-1c-.456244-.262633-.973565-.400585-1.5-.4-.517523-.031297-1.034324.072063-1.5.3-.4.3-.8.6-1,1.1s-.5,1.1-.5,1.8.2,1.3.4,1.8c.3.5.6.9,1,1.1.5.2,1,.4,1.5.4ZM204,573c.7,0,1.3.1,1.8.4s1,.7,1.3,1.3c.3.5.4,1.2.4,2v5.2h-1.4v-5c0-.8-.2-1.5-.7-2-.4-.4-1-.7-1.7-.7-.8,0-1.4.3-1.8.8-.5.5-.7,1.2-.7,2v4.9h-1.4v-5c0-.8-.3-1.5-.7-2-.4-.4-1-.7-1.7-.7-.8,0-1.4.3-1.8.8-.5.5-.7,1.2-.7,2v4.9h-1.5v-8.8h1.5v1.3c.3-.5.7-.8,1.1-1c.5-.3,1-.4,1.7-.4s1.3.1,1.9.5c.6.3,1,.8,1.3,1.4.2-.6.6-1,1.2-1.4.5-.4,1.2-.5,1.9-.5Zm6.7-1.3c-.3,0-.5,0-.7-.3s-.3-.4-.3-.7s0-.5.3-.7.4-.3.7-.3c.2,0,.5.1.6.3.2.2.3.4.3.7s0,.5-.3.7c-.1.2-.4.3-.6.3Zm.7,1.4v8.8h-1.5v-8.8h1.5Zm3.5,7.6h4.3v1.2h-6v-1.2l4.3-6.4h-4.2v-1.2h6v1.2l-4.4,6.4Zm14.2-3.5v.9h-7c0,.8.3,1.5.9,2c.5.5,1.2.7,2,.7.6,0,1-.1,1.5-.4.4-.3.7-.7.9-1.2h1.6c-.3.8-.7,1.5-1.5,2-.7.6-1.5.8-2.6.8-.8,0-1.6-.1-2.2-.5-.676211-.368224-1.231776-.923789-1.6-1.6-.3-.7-.5-1.5-.5-2.4s.2-1.7.5-2.4c.4-.7.9-1.2,1.6-1.6.6-.3,1.4-.5,2.2-.5.9,0,1.6.2,2.2.5s1.2.9,1.5,1.5c.4.7.5,1.4.5,2.2Zm-1.5-.3c0-.6-.1-1-.3-1.4-.3-.5-.6-.8-1-1-.435614-.211527-.91596-.314459-1.4-.3-.8,0-1.4.3-2,.7-.4.5-.7,1.1-.8,2h5.5Z" fill="#8e8e93"></path><rect width="107" height="44" rx="12" ry="12" transform="translate(252 512)" fill="#fff"></rect><path d="M316,528h-3c-.4-1.7-2-3-3.7-3s-3.4,1.3-3.7,3h-10.6v1.5h10.6c.3,1.7,1.8,3,3.6,3s3.4-1.3,3.7-3h3.1v-1.5Zm-6.8,3c-1.2,0-2.2-1-2.2-2.3s1-2.2,2.3-2.2s2.2,1,2.2,2.3-1,2.2-2.3,2.2ZM295,540h3c.4,1.7,2,3,3.7,3s3.4-1.3,3.7-3h10.6v-1.5h-10.6c-.3-1.7-1.8-3-3.6-3s-3.4,1.3-3.7,3h-3.1v1.5Zm6.8-3c1.2,0,2.2,1,2.2,2.3s-1,2.2-2.3,2.2-2.2-1-2.2-2.3s1-2.2,2.3-2.2Z"></path><path d="M284.9,571v11h-1.5v-8.3l-3.7,8.3h-1l-3.7-8.3v8.3h-1.5v-11h1.6l4.1,9l4.1-9h1.6Zm1.9,6.6c0-1,.2-1.7.5-2.4.711722-1.319248,2.10131-2.129841,3.6-2.1.8,0,1.5.2,2,.5.6.3,1,.7,1.3,1.2v-1.6h1.5v8.8h-1.5v-1.6c-.3.5-.7,1-1.3,1.2-.6.4-1.2.5-2,.5-1.49869.029841-2.888278-.780752-3.6-2.1-.363245-.746113-.535077-1.570903-.5-2.4Zm7.4,0c0-.7-.1-1.2-.4-1.7s-.6-.9-1-1.1c-.5-.3-1-.4-1.6-.4s-1,0-1.5.3-.8.7-1,1.2c-.3.4-.4,1-.4,1.7s.1,1.2.4,1.7c.2.5.6,1,1,1.2.5.2,1,.4,1.5.4s1-.2,1.5-.4c.5-.3.8-.7,1.1-1.2s.4-1,.4-1.7Zm8.2-4.5c1,0,2,.3,2.6,1c.7.6,1,1.5,1,2.7v5.2h-1.4v-5c0-.8-.3-1.5-.7-2-.4-.4-1-.7-1.8-.7s-1.4.3-1.8.8c-.5.4-.7,1.1-.7,2v4.9h-1.6v-8.8h1.5v1.3c.3-.5.7-.8,1.2-1c.5-.3,1-.4,1.6-.4Zm5.4,4.5c0-1,.2-1.7.6-2.4.711722-1.319248,2.10131-2.129841,3.6-2.1.8,0,1.4.2,2,.5s1,.7,1.3,1.2v-1.6h1.4v8.8h-1.4v-1.6c-.3.5-.8,1-1.3,1.2-.6.4-1.3.5-2,.5-1.49869.029841-2.888278-.780752-3.6-2.1-.397876-.737112-.604191-1.562371-.6-2.4Zm7.5,0c0-.7-.2-1.2-.4-1.7-.3-.5-.7-.9-1.1-1.1-.928203-.535898-2.071797-.535898-3,0-.5.2-.8.6-1,1-.4.5-.5,1.1-.5,1.8s.1,1.2.4,1.7.6,1,1,1.2c.5.2,1,.4,1.6.4c1.106769.027585,2.125867-.599552,2.6-1.6.2-.5.4-1,.4-1.7Zm7.5-4.5c.8,0,1.4.2,2,.5s1,.7,1.3,1.2v-1.6h1.4v9c0,.8-.1,1.5-.5,2.1-.3.6-.8,1.1-1.4,1.5-.7.3-1.4.5-2.3.5-1.1,0-2-.3-2.8-.8s-1.3-1.3-1.4-2.2h1.4c.2.5.5,1,1,1.3s1.1.5,1.8.5c.8,0,1.5-.3,2-.8s.8-1.2.8-2.1v-1.8c-.732002,1.111683-1.96903,1.786425-3.3,1.8-.742105-.001325-1.469211-.209069-2.1-.6-.7-.4-1.2-1-1.5-1.6s-.6-1.5-.6-2.4c0-1,.2-1.7.6-2.4.711722-1.319248,2.10131-2.129841,3.6-2.1Zm3.3,4.5c0-.7-.2-1.2-.4-1.7s-.7-.9-1.1-1.1c-.928203-.535898-2.071797-.535898-3,0-.4.2-.8.6-1,1s-.5,1.1-.5,1.8.2,1.2.4,1.7c.3.5.7,1,1.1,1.2s1,.4,1.5.4s1-.2,1.5-.4c.4-.3.8-.7,1-1.2.3-.5.5-1,.5-1.7Zm11.9-.3v.9h-7c0,.8.3,1.5.8,2c.6.5,1.2.7,2,.7.6,0,1.1-.1,1.6-.4.4-.3.7-.7.9-1.2h1.5c-.2.8-.7,1.5-1.4,2-.7.6-1.6.8-2.6.8-.8,0-1.6-.1-2.3-.5-.639302-.383167-1.158832-.937332-1.5-1.6-.4-.7-.5-1.5-.5-2.4s.1-1.7.5-2.4.9-1.2,1.5-1.6c.7-.3,1.4-.5,2.3-.5.8,0,1.6.2,2.2.5s1.1.9,1.5,1.5c.3.7.5,1.4.5,2.2Zm-1.5-.3c0-.6-.1-1-.4-1.4-.2-.5-.6-.8-1-1-.435614-.211527-.91596-.314459-1.4-.3-.7,0-1.3.3-1.9.7-.5.5-.8,1.1-.8,2h5.5Z" fill="#8e8e93"></path><g clip-path="url(#ee6xQd9b0zw74)"><g id="ee6xQd9b0zw43_to" transform="translate(187.5,197.5)"><g transform="translate(-187.5,-197.5)"><g clip-path="url(#ee6xQd9b0zw49)"><rect width="311" height="214" rx="16" ry="16" transform="translate(32 124)" fill="url(#ee6xQd9b0zw45-fill)"></rect><circle r="85" transform="translate(343 271)" fill="url(#ee6xQd9b0zw46-fill)"></circle><circle r="85" transform="translate(32 124)" fill="url(#ee6xQd9b0zw47-fill)"></circle><rect width="311" height="214" rx="16" ry="16" transform="translate(32 124)" opacity="0.1" fill="none"></rect><clipPath id="ee6xQd9b0zw49"><rect width="311" height="214" rx="16" ry="16" transform="translate(32 124)" fill="#fff"></rect></clipPath></g><path d="M321,292.3h-5c-1.5,0-2.6.5-3.3,2l-9.4,21.4h6.6l1.4-3.6h8.1c.3.8.8,3.4.8,3.4h6l-5.3-23.2Zm-7.9,15c1.166706-2.886847,2.300115-5.787039,3.4-8.7l.4,2l1.5,6.8h-5.3Zm-9.3.7c0,4.8-4.4,8-11.1,8-2.9,0-5.6-.6-7.1-1.3l1-5.2.7.3c2,1,3.4,1.3,6,1.3c1.8,0,3.7-.7,3.7-2.3c0-1-.8-1.7-3.3-2.9-2.4-1.1-5.6-3-5.6-6.2c0-4.6,4.5-7.7,10.8-7.7c2.4,0,4.4.5,5.7,1l-1,5-.4-.4c-1.1-.5-2.6-1-4.8-1-2.4.2-3.5,1.2-3.5,2.1c0,1,1.3,1.9,3.5,2.9c3.7,1.7,5.4,3.7,5.4,6.4ZM248,292.6l.1-.5h9.8c1.4,0,2.4.5,2.8,2l2.2,10.2c-2.2-5.4-7.2-9.9-14.9-11.7Z" fill="#fff"></path><path d="M276.7,292.3l-10,23.2h-6.7l-5.7-19.4c4.1,2.6,7.5,6.8,8.8,9.6l.7,2.4l6.1-15.9h6.8v.1Zm2.6-.1h6.3l-4,23.3h-6.3l4-23.3Zm45.8-108.8h-1.1c0-3.810765-3.089235-6.9-6.9-6.9s-6.9,3.089235-6.9,6.9h-1.2c0-2.893851,1.543851-5.56788,4.05-7.014806s5.593851-1.446926,8.1,0s4.05,4.120955,4.05,7.014806Z" fill="#fff"></path><path d="M322.6,191.5h-1.2v-8.1c0-2.430053-1.969947-4.4-4.4-4.4s-4.4,1.969947-4.4,4.4v8.1h-1.2v-8.1c0-2.000687,1.067354-3.849399,2.8-4.849742s3.867354-1.000344,5.6,0s2.8,2.849055,2.8,4.849742v8.1Z" fill="#fff"></path><path d="M320.1,186.5h-6.1v-3.1c0-1.107523.590857-2.130917,1.55-2.684679s2.140857-.553762,3.1,0s1.55,1.577156,1.55,2.684679v3.1Zm-5-1.3h3.8v-1.8c0-1.049341-.850659-1.9-1.9-1.9s-1.9.850659-1.9,1.9v1.8ZM253.2,149c-.4717-.328898-.671275-.928622-.490707-1.47458s.69837-.90842,1.273156-.891209s1.069973.410005,1.217551.965789c1.933613,2.61468,1.933613,6.18532,0,8.8-.462421.350841-1.101397.352613-1.565757.004343s-.641572-.962184-.434243-1.504343c1.267089-1.725724,1.267089-4.074276,0-5.8Zm4.4-2.3c2.026698,3.242708,2.026698,7.357292,0,10.6-.243875.371452-.281131.841736-.098783,1.246953s.559035.689226.998783.753047c.53665.059262,1.054072-.21935,1.3-.7c1.2-2,1.8-4.3,1.8-6.6s-.6-4.6-1.8-6.6c-.27144-.468202-.80455-.719262-1.338382-.63029s-.9567.499362-1.061618,1.03029c-.072317.34666-.000085.70782.2,1Zm4.6-2.4c2.792877,4.753455,2.792877,10.646545,0,15.4-.27274.426816-.27274.973184,0,1.4.254767.367755.680733.578673,1.127653.558358s.851994-.269006,1.072347-.658358c3.300248-5.546182,3.300248-12.453818,0-18-.412079-.470571-1.100852-.58097-1.639359-.262762s-.774059.9748-.560641,1.562762Zm4.6-2.4c3.587882,6.255379,3.587882,13.944621,0,20.2-.344149.392999-.419631.953824-.191636,1.423829s.715179.757886,1.236866.730875.976533-.363666,1.15477-.854704c4.072828-7.054345,4.072828-15.745655,0-22.8-.276065-.404818-.756298-.620022-1.242171-.556647s-.894838.394561-1.057829.856647v1M315,140h-21c-6.627417,0-12,5.372583-12,12s5.372583,12,12,12h21c6.627417,0,12-5.372583,12-12s-5.372583-12-12-12Z" fill="#fff"></path><path d="M303.5,152.9v3.6h-1.1v-9h3c.8,0,1.5.3,2,.8s.8,1.1.8,1.9c0,.7-.3,1.4-.8,1.9s-1.2.7-2,.7h-1.9Zm0-4.3v3.1h2c.4,0,.8-.1,1-.4.306179-.283857.480196-.682483.480196-1.1s-.174017-.816143-.480196-1.1c-.2-.3-.6-.5-1-.5h-2Zm7.7,1.5c.9,0,1.6.3,2,.7s.8,1.1.8,1.9v3.8h-1.1v-.9c-.5.7-1.2,1-2,1-.6,0-1.2-.1-1.7-.5s-.6-1-.6-1.5c0-.7.2-1.2.7-1.5.546482-.410619,1.216806-.622301,1.9-.6.7,0,1.2.1,1.7.4v-.3c0-.4-.2-.7-.5-1s-.7-.4-1.1-.4c-.6,0-1.2.2-1.5.8l-1-.6c.5-.9,1.3-1.3,2.4-1.3Zm-1.5,4.5c0,.3.2.5.4.7.692832.444075,1.598605.361732,2.2-.2.4-.4.6-.8.6-1.3-.4-.2-.9-.4-1.5-.4-.43274,0-.853808.140356-1.2.4-.3.2-.5.5-.5.8Zm10.6-4.3l-3.9,8.9h-1.2l1.5-3.1-2.6-5.8h1.3l1.8,4.4l1.8-4.4h1.3Z" fill="#3c4043"></path><path d="M299,152.1l-.2-1h-4.8v2h2.8c-.1.6-.5,1.1-1,1.5v1.3h1.6c1.018274-.995298,1.563892-2.377532,1.5-3.8Z" fill="#4285f4"></path><path d="M295.8,154.6c-.531492.353996-1.162077.529158-1.8.5-1.32422.016822-2.502809-.836639-2.9-2.1h-1.7v1.3c.875432,1.732777,2.658721,2.818258,4.6,2.8c1.4,0,2.6-.4,3.4-1.2l-1.6-1.3Z" fill="#34a853"></path><path d="M291,152l.1-1v-1.3h-1.7c-.73077,1.446264-.73077,3.153736,0,4.6l1.7-1.3-.1-1Z" fill="#fabb05"></path><path d="M294,148.9c.8,0,1.4.3,2,.8l1.4-1.5c-1.182506-1.076682-2.80158-1.536336-4.373428-1.241615s-2.91443,1.309687-3.626572,2.741615l1.7,1.3c.407242-1.299928,1.6392-2.162298,3-2.1Z" fill="#e94235"></path><path d="M61.6,310.1c2.224271.079979,4.261547-1.238259,5.1-3.3h5.7c-.5,2.5-1.7,4.6-3.6,6.1-2.026322,1.570637-4.537619,2.384156-7.1,2.3-2.8,0-5-.7-7-2.2-1.8-1.4-3-3.4-3.7-5.9h-2.5v-2.5h2.2c-.05411-.59878-.05411-1.20122,0-1.8h-2.2v-2.6h2.5c.7-2.4,1.9-4.4,3.8-5.9c1.998627-1.455569,4.429353-2.195355,6.9-2.1c2.8,0,5.2.7,7.1,2.2s3.1,3.6,3.6,6.2h-5.7c-.805804-2.101114-2.850585-3.464301-5.1-3.4-1,0-2,.3-2.8.8-.9.5-1.5,1.3-2,2.2h5.7v2.6h-6.3c-.060151.598492-.060151,1.201508,0,1.8h6.3v2.5h-5.6c.4,1,1,1.7,1.9,2.2.8.5,1.7.8,2.8.8Zm34.2-13.9l-8,18.8h-5.8l8.2-18.1h-9.6v-4.7h15.2v4Zm6,15.4c.6,1.2,1,2.6,1,4c0,1.5-.5,2.7-1.2,3.7-.8,1-2,1.4-3.7,1.4v-2c.6,0,1-.1,1.3-.4.3-.2.4-.7.4-1.4v-.4h-2.3v-4.9h4.5Zm2.5-14.1v-5.1h9.2v22.6h-5.8v-17.5h-3.4Zm11.4,0v-5.1h9.2v22.6h-5.9v-17.5h-3.4Zm13.2,0c0-1.1.3-2.1,1-3.1.6-1,1.5-1.7,2.7-2.3s2.7-1,4.5-1s3.2.4,4.5,1c1.2.6,2.1,1.3,2.7,2.3s1,2,1,3c0,1.3-.3,2.3-.9,3.1-.5.9-1.4,1.5-2.4,2c2.5,1,3.8,3,3.8,5.7c0,1.5-.4,2.8-1.2,4-.7,1-1.8,1.9-3.1,2.4-1.3.6-2.8.9-4.4.9s-3.1-.3-4.4-.9c-1.269315-.486459-2.377591-1.317666-3.2-2.4-.774359-1.186208-1.158928-2.584638-1.1-4c0-2.7,1.3-4.6,3.8-5.7-1-.5-1.9-1.1-2.4-2-.6-.8-.9-1.8-.9-3Zm5.4.9c0,.9.2,1.5.7,2c.559325.468844,1.27038.717713,2,.7c1,0,1.6-.2,2.1-.7s.8-1.1.8-2-.3-1.5-.8-2-1.2-.8-2-.8-1.5.3-2,.8-.8,1.1-.8,2Zm-.6,9.5c0,1,.3,1.7.9,2.2.6.6,1.4.9,2.5.9c1,0,1.9-.3,2.4-.9.7-.5,1-1.3,1-2.2s-.3-1.7-1-2.3c-.6-.5-1.4-.8-2.4-.8s-1.8.3-2.5.8c-.6.6-1,1.3-1,2.3Zm16.7,7.3c-.5,0-1-.2-1.2-.5-.3-.3-.5-.7-.5-1.2s.2-.9.5-1.2.7-.4,1.2-.4c.4,0,.8.1,1,.4.4.3.6.7.6,1.2s-.2.9-.5,1.2-.7.5-1.1.5Zm12.5-14c2.3,0,4.1.6,5.4,1.8s2,3,2,5.2c0,2.1-.7,3.8-2,5-1.534944,1.370567-3.544096,2.088121-5.6,2-2.2,0-4-.6-5.4-1.8-1.444795-1.272356-2.310966-3.076879-2.4-5h2.3c.1,1.5.7,2.7,1.7,3.6c1,.8,2.2,1.3,3.8,1.3c1.7,0,3-.5,4-1.4.955478-.988424,1.461833-2.326648,1.4-3.7c0-1.7-.5-3-1.4-3.9-1-.9-2.2-1.3-3.8-1.3h-3.2v-1.7l6.9-7.4h-10.2v-2h12.9v1.8l-7,7.4h.6Zm11.4,2.1c0-3.6.6-6.5,1.7-8.5s3.2-3,6-3c3,0,5,1,6.2,3c1,2,1.7,4.9,1.7,8.5c0,3.8-.6,6.6-1.7,8.7-1.2,2-3.2,3-6.1,3-3,0-5-1-6.1-3s-1.7-5-1.7-8.7Zm13.3,0c0-2-.1-3.6-.4-5-.199996-1.232529-.756169-2.379634-1.6-3.3-.8-.8-2-1.2-3.5-1.2s-2.7.4-3.5,1.2c-.9.8-1.4,2-1.7,3.3-.3,1.4-.4,3-.4,5s.1,3.8.4,5.2c.3,1.3.8,2.4,1.7,3.3.8.8,2,1.2,3.5,1.2s2.7-.4,3.5-1.2c.8-.9,1.3-2,1.6-3.3.3-1.4.4-3.1.4-5.2ZM48.2,180v-1.3h3.2v11.3h-1.4v-10h-1.7Zm5.5,1.4c0-.6.2-1,.5-1.5s.7-.9,1.3-1.1c.6-.3,1.3-.4,2.1-.4s1.5.1,2,.4c.7.2,1.1.6,1.4,1s.5,1,.5,1.6-.2,1.1-.6,1.6-.8.8-1.5,1c.7.2,1.3.5,1.7,1s.7,1.2.7,1.9c0,1-.4,1.9-1.2,2.5s-1.7,1-3,1-2.3-.4-3-1c-.78426-.587365-1.232263-1.520704-1.2-2.5c0-.7.2-1.4.6-1.9.5-.5,1-.8,1.8-1-.7-.2-1.2-.5-1.6-1s-.5-1-.5-1.6Zm1.5.2c0,.6.2,1.1.6,1.5.5.3,1,.5,1.8.5s1.3-.2,1.8-.5c.4-.4.6-.9.6-1.5s-.2-1.1-.6-1.5c-.5-.3-1-.5-1.8-.5s-1.3.2-1.8.5c-.4.4-.6.8-.6,1.5Zm-.3,5.2c0,.7.2,1.3.7,1.7s1.2.6,2,.6s1.5-.2,2-.6.7-1,.7-1.7-.2-1.3-.7-1.6-1.2-.6-2-.6-1.5.2-2,.6-.7.9-.7,1.6Zm8.8-5.4c0-.6.2-1,.5-1.5s.7-.9,1.3-1.1s1.3-.4,2.1-.4s1.5.1,2,.4c.7.2,1.1.6,1.4,1s.5,1,.5,1.6-.2,1.1-.6,1.6c-.3.5-.8.8-1.5,1c.7.2,1.3.5,1.7,1s.7,1.2.7,1.9c.032263.979296-.41574,1.912635-1.2,2.5-.7.6-1.7,1-3,1s-2.3-.4-3-1-1.2-1.4-1.2-2.5c0-.7.2-1.4.6-1.9.5-.5,1-.8,1.8-1-.7-.2-1.2-.5-1.6-1s-.5-1-.5-1.6Zm1.5.2c0,.6.2,1.1.6,1.5.5.3,1,.5,1.8.5.7,0,1.3-.2,1.8-.5.4-.4.6-.9.6-1.5s-.2-1.1-.6-1.5c-.5-.3-1-.5-1.8-.5s-1.3.2-1.8.5c-.4.4-.6.8-.6,1.5Zm-.3,5.2c0,.7.2,1.3.7,1.7s1.2.6,2,.6c.717006.045945,1.42669-.166961,2-.6.5-.4.7-1,.7-1.7s-.2-1.3-.7-1.6-1.2-.6-2-.6-1.5.2-2,.6-.7.9-.7,1.6Zm8.4,2c1.8-1.1,3.2-2.3,4.3-3.5s1.6-2.4,1.6-3.4c0-.6-.1-1.1-.4-1.5-.4-.4-.9-.6-1.6-.6-.8,0-1.3.2-1.7.7s-.6,1.1-.7,2h-1.4c0-1.3.5-2.3,1.2-3c.7-.6,1.6-1,2.7-1c1,0,1.9.3,2.5.9s1,1.3,1,2.4c0,.8-.3,1.7-.9,2.6-.5.9-1.2,1.7-2,2.4-.795859.753981-1.667103,1.424168-2.6,2h5.7v1.1h-7.7v-1Zm13.5-7.4c0-.6.1-1,.4-1.5s.8-.9,1.3-1.1s1.3-.4,2.1-.4s1.5.1,2.1.4c1.118662.360249,1.856576,1.426125,1.8,2.6c0,.6-.2,1.1-.5,1.6s-.9.8-1.6,1c.8.2,1.4.5,1.8,1s.6,1.2.6,1.9c0,1-.4,1.9-1.1,2.5s-1.8,1-3,1-2.3-.4-3-1-1.2-1.4-1.2-2.5c0-.7.2-1.4.6-1.9s1-.8,1.7-1c-.7-.2-1.2-.5-1.5-1s-.5-1-.5-1.6Zm1.4.2c0,.6.2,1.1.7,1.5.4.3,1,.5,1.7.5s1.4-.2,1.8-.5c.4-.4.6-.9.6-1.5s-.2-1.1-.6-1.5c-.4-.3-1-.5-1.8-.5s-1.3.2-1.7.5c-.5.4-.7.8-.7,1.5Zm-.3,5.2c0,.7.2,1.3.7,1.7s1.2.6,2,.6c.9,0,1.5-.2,2-.6s.8-1,.8-1.7-.3-1.3-.8-1.6-1.2-.6-2-.6-1.4.2-2,.6-.7.9-.7,1.6Zm8.4,2c1.8-1.1,3.3-2.3,4.3-3.5c1.1-1.2,1.7-2.4,1.7-3.4c0-.6-.2-1.1-.5-1.5s-.9-.6-1.6-.6-1.3.2-1.7.7-.6,1.1-.6,2h-1.5c.1-1.3.5-2.3,1.2-3c.7-.6,1.6-1,2.7-1c1,0,2,.3,2.5.9s1,1.3,1,2.4c0,.8-.3,1.7-.9,2.6-.5.9-1.2,1.7-2,2.4-.795859.753981-1.667103,1.424168-2.6,2h5.8v1.1h-7.8v-1Zm8.9-1.4v-1.2l5.8-7.6h1.6v7.5h1.6v1.3h-1.6v2.6h-1.6v-2.6h-5.9Zm6-7l-4.5,5.7h4.5v-5.7Zm12-.5h-5.9v3.7c.3-.3.7-.6,1.2-.8s1-.3,1.6-.3c.8,0,1.5.1,2,.5.6.3,1,.7,1.2,1.3.3.5.4,1.2.4,1.8c0,1.2-.3,2.1-1,2.9s-1.6,1-2.9,1c-1,0-2-.2-2.7-.8-.727149-.632568-1.161271-1.53699-1.2-2.5h1.4c.1.6.4,1.2.8,1.5.5.4,1,.6,1.7.6.8,0,1.4-.3,1.8-.8s.7-1,.7-1.9c0-.8-.3-1.4-.7-1.8s-1-.7-1.8-.7c-.5,0-1,.2-1.4.4-.5.2-.8.6-1,1h-1.4v-6.4h7.1v1.3Zm7.8,7c0,.6.3,1.1.7,1.5.4.3.9.5,1.5.5c1,0,1.6-.3,2-1c.5-.7.8-1.8.8-3.3v-.7c-.2.7-.6,1.2-1.1,1.6s-1.3.5-2,.5c-1.2,0-2-.3-2.7-1s-1-1.6-1-2.8c0-.7.2-1.3.4-1.9.3-.6.7-1,1.3-1.4.6-.3,1.3-.5,2.1-.5c1.7,0,2.8.5,3.4,1.5s.9,2.4.9,4.1c.080676,1.594897-.264464,3.18254-1,4.6-.6,1-1.6,1.5-3,1.5-1.1,0-2-.3-2.6-.9s-1-1.4-1-2.4h1.3Zm4.8-4.5c0-.7-.2-1.4-.7-1.9-.4-.5-1.1-.8-2-.8-.8,0-1.4.2-1.8.7s-.7,1-.7,1.8c0,.9.2,1.5.7,2s1,.7,1.8.7c.5,0,.9-.1,1.3-.3s.8-.4,1-.8.4-.8.4-1.4Zm3.5-1c0-.6.2-1,.5-1.5s.7-.9,1.3-1.1s1.3-.4,2-.4s1.6.1,2.2.4c.5.2,1,.6,1.3,1s.4,1,.4,1.6-.1,1.1-.5,1.6-.8.8-1.5,1c.7.2,1.3.5,1.7,1s.6,1.2.6,1.9c0,1-.3,1.9-1.1,2.5s-1.8,1-3,1-2.3-.4-3-1-1.2-1.4-1.2-2.5c0-.7.2-1.4.6-1.9s1-.8,1.8-1c-.7-.2-1.2-.5-1.6-1s-.5-1-.5-1.6Zm1.4.2c0,.6.3,1.1.7,1.5.4.3,1,.5,1.8.5s1.3-.2,1.7-.5c.5-.4.7-.9.7-1.5s-.2-1.1-.7-1.5c-.4-.3-1-.5-1.7-.5s-1.3.2-1.8.5c-.4.4-.7.8-.7,1.5Zm-.3,5.2c0,.7.3,1.3.8,1.7s1.1.6,2,.6c.8,0,1.5-.2,2-.6s.7-1,.7-1.7-.3-1.3-.8-1.6-1.1-.6-2-.6c-.7,0-1.4.2-1.9.6s-.8.9-.8,1.6Zm12.6-8.4c.7,0,1.3.1,1.8.4s1,.6,1.2,1s.4,1,.4,1.6c0,.7-.2,1.3-.6,1.8-.4.4-1,.7-1.8.8v.1c.8.2,1.5.6,2,1c.4.5.6,1,.6,1.9s-.3,1.6-1,2.2-1.4,1-2.6,1-2-.4-2.8-1c-.752198-.666755-1.217915-1.598189-1.3-2.6h1.5c0,.7.3,1.2.8,1.6.4.5,1,.7,1.8.7.7,0,1.2-.2,1.6-.6s.6-.8.6-1.4c0-.7-.3-1.3-.8-1.6-.6-.4-1.4-.6-2.4-.6h-.4v-1.2h.4c2,0,3-.7,3-2c0-.5-.2-1-.6-1.3s-.8-.6-1.5-.6-1.2.2-1.6.6-.7,1-.8,1.6h-1.4c0-1,.5-1.9,1.1-2.5.785174-.644692,1.786241-.966463,2.8-.9Zm4.8,1.7v-1.4h3.2v11.3h-1.5v-10h-1.7Zm9.3,4.2c0,1.8.3,3.2.8,4.2.6,1,1.7,1.5,3.2,1.5s2.5-.5,3-1.5c.7-1,1-2.4,1-4.2s-.3-3.2-1-4.2c-.5-1-1.6-1.5-3-1.5s-2.6.5-3.2,1.5c-.5,1-.8,2.4-.8,4.2Zm6.5,0c0,1,0,1.7-.2,2.3-.1.6-.4,1.1-.7,1.5-.4.4-1,.6-1.6.6-.7,0-1.3-.2-1.6-.6-.405719-.412405-.683541-.933323-.8-1.5-.140433-.758457-.207409-1.528687-.2-2.3c0-1,0-1.7.2-2.3.1-.6.4-1.1.8-1.5.3-.4.9-.5,1.6-.5s1.2.1,1.6.5c.3.4.6.9.7,1.5.2.6.2,1.4.2,2.3Zm10.9-4.4h-5.8v3.7c.3-.3.6-.6,1.1-.8s1-.3,1.7-.3c.8,0,1.4.1,2,.5.5.3.9.7,1.1,1.3.3.5.4,1.2.4,1.8c0,1.2-.3,2.1-1,2.9-.6.7-1.6,1-2.8,1-1.1,0-2-.2-2.8-.8-.727149-.632568-1.161271-1.53699-1.2-2.5h1.5c0,.6.3,1.2.8,1.5.4.4,1,.6,1.6.6.8,0,1.5-.3,1.9-.8s.6-1,.6-1.9c0-.8-.2-1.4-.6-1.8-.916415-.810014-2.25254-.93148-3.3-.3-.4.2-.7.6-1,1h-1.4v-6.4h7.2v1.3Zm2.2,4.4c0,1.8.3,3.2,1,4.2s1.6,1.5,3,1.5s2.5-.5,3.1-1.5c.7-1,1-2.4,1-4.2s-.3-3.2-1-4.2c-.6-1-1.6-1.5-3-1.5s-2.6.5-3.2,1.5-.9,2.4-.9,4.2Zm6.6,0c0,1,0,1.7-.2,2.3-.1.6-.4,1.1-.7,1.5s-1,.6-1.7.6-1.2-.2-1.6-.6-.6-.9-.7-1.5c-.140433-.758457-.207409-1.528687-.2-2.3c0-1,0-1.7.2-2.3.1-.6.4-1.1.7-1.5.4-.4,1-.5,1.6-.5.7,0,1.3.1,1.7.5.3.4.6.9.7,1.5l.2,2.3Zm10.9-4.4h-5.8v3.7c.2-.3.6-.6,1.1-.8s1-.3,1.7-.3c.8,0,1.4.1,2,.5.5.3.9.7,1.1,1.3.3.5.4,1.2.4,1.8c0,1.2-.3,2.1-1,2.9-.6.7-1.6,1-2.8,1s-2-.2-2.8-.8c-.727149-.632568-1.161271-1.53699-1.2-2.5h1.4c.2.6.4,1.2.9,1.5.4.4,1,.6,1.6.6.8,0,1.4-.3,1.9-.8s.6-1,.6-1.9c0-.8-.2-1.4-.7-1.8-.4-.4-1-.7-1.8-.7-.5,0-1,.2-1.4.4s-.7.6-1,1h-1.4v-6.4h7.2v1.3ZM49,212.3c0,1.8.2,3.2.8,4.2s1.6,1.5,3.1,1.5s2.5-.5,3.1-1.5s1-2.4,1-4.2-.4-3.2-1-4.2-1.6-1.5-3-1.5-2.6.5-3.2,1.5-.9,2.4-.9,4.2Zm6.5,0c0,1,0,1.7-.2,2.3-.1.6-.4,1.1-.8,1.5s-.9.6-1.6.6-1.2-.2-1.6-.6-.6-.9-.8-1.5c-.106968-.76169-.140455-1.5319-.1-2.3l.1-2.3c.2-.6.4-1.1.8-1.5s1-.5,1.6-.5c.7,0,1.3.1,1.6.5.4.4.7.9.8,1.5l.2,2.3Zm10.8-4.4h-5.8v3.7c.3-.3.7-.6,1.2-.8s1-.3,1.6-.3c.8,0,1.5.1,2,.5.6.3,1,.7,1.2,1.3.3.5.4,1.2.4,1.8c0,1.2-.3,2.1-1,2.9s-1.6,1-2.9,1c-1,0-2-.2-2.7-.8-.727149-.632568-1.161271-1.53699-1.2-2.5h1.4c.1.6.4,1.2.8,1.5.5.4,1,.6,1.7.6.8,0,1.4-.3,1.8-.8s.7-1,.7-1.9c0-.8-.3-1.4-.7-1.8s-1-.7-1.8-.7c-.5,0-1,.2-1.4.4-.5.2-.8.6-1,1h-1.4v-6.4h7.1v1.3Zm11.2-5l-4.3,17.8h-1.4L76,203h1.4Zm4.7,14c1.8-1.2,3.3-2.4,4.4-3.6c1-1.2,1.6-2.4,1.6-3.4c0-.6-.1-1.1-.5-1.5-.3-.4-.8-.6-1.5-.6-.8,0-1.4.2-1.7.7-.4.5-.6,1.1-.7,2h-1.4c0-1.3.4-2.3,1.1-3c.8-.6,1.7-1,2.8-1c1,0,1.9.3,2.5.9s1,1.3,1,2.4c0,.8-.4,1.7-1,2.6-.5.9-1.2,1.7-2,2.4-.764371.748574-1.601896,1.418594-2.5,2h5.7v1.1h-7.8v-1Zm17-9h-5.8v3.7c.2-.3.6-.6,1.1-.8s1-.3,1.7-.3c.8,0,1.4.1,2,.5.5.3.9.7,1.1,1.3.3.5.4,1.2.4,1.8c0,1.2-.3,2.1-1,2.9s-1.6,1-2.8,1-2.1-.2-2.8-.8c-.727149-.632568-1.161271-1.53699-1.2-2.5h1.4c.1.6.4,1.2.8,1.5.5.4,1,.6,1.7.6.8,0,1.4-.3,1.8-.8s.7-1,.7-1.9c0-.8-.2-1.4-.7-1.8-.4-.4-1-.7-1.8-.7-.5,0-1,.2-1.4.4s-.8.6-1,1h-1.4v-6.4h7.2v1.3Zm-47-60.6v3.5h4.7v2.2h-4.7v3.7h5.3v2.3h-8.1v-14h8v2.3h-5.2Zm18.3.6v11.1h-2.8v-1.4c-.4.5-.9.9-1.5,1.1-.5.3-1.2.4-1.8.4-.9,0-1.7-.1-2.3-.5-.676211-.368224-1.231776-.923789-1.6-1.6-.4-.7-.6-1.6-.6-2.6v-6.4h2.8v6.1c0,.9.2,1.6.7,2c.4.5,1,.8,1.8.8s1.4-.3,1.8-.7c.468844-.559325.717713-1.27038.7-2v-6.2h2.8Zm5.5,1.7c.4-.5.9-1,1.4-1.3.611529-.338551,1.301098-.510943,2-.5v2.9h-.7c-.9,0-1.5.2-2,.6-.4.4-.7,1.2-.7,2.2v5.5h-2.8v-11h2.8v1.6Zm10.3,9.6c-1.1,0-2-.3-3-.7-.838653-.469069-1.530931-1.161347-2-2-.4-1-.7-2-.7-3s.3-2.2.8-3c.5-1,1.2-1.6,2-2c.9-.5,1.9-.8,3-.8s2,.3,2.8.8c.845264.46028,1.53972,1.154736,2,2c.6.8.8,1.8.8,3c.027393,1.519966-.56434,2.985754-1.639293,4.060707s-2.540741,1.666686-4.060707,1.639293Zm0-2.5c.5,0,1,0,1.4-.3s.8-.6,1-1.1c.3-.5.5-1.1.5-1.8c0-1-.3-1.9-.9-2.5-.5-.5-1.2-.8-2-.8s-1.5.3-2,.8c-.6.6-.8,1.4-.8,2.5s.2,1.8.8,2.4c.5.6,1.2.8,2,.8Zm10.6-7.2c.3-.5.8-1,1.5-1.2.6-.4,1.3-.6,2.1-.6c1.866987-.032443,3.583352,1.02078,4.4,2.7.5.9.7,1.9.7,3s-.2,2.2-.7,3c-.405977.818619-1.02852,1.510334-1.8,2-.8.5-1.6.8-2.6.8-1.416408,0-2.750155-.666874-3.6-1.8v6.9h-2.9v-16.4h2.8v1.6Zm5.8,4c0-.7,0-1.3-.4-1.8-.2-.5-.6-.9-1-1.1-.915636-.580909-2.084364-.580909-3,0-.420341.276962-.764233.655243-1,1.1-.3.5-.4,1-.4,1.8s.1,1.2.4,1.7.6.9,1,1.1c.5.3,1,.4,1.5.4s1-.1,1.4-.4c.5-.2.9-.6,1.1-1.1.3-.5.4-1.1.4-1.8Zm15.2-.3v1.1h-8.1c0,.8.3,1.4.8,1.9.5.4,1.1.7,1.8.7c1,0,1.8-.5,2.2-1.4h3c-.643766,2.26156-2.750316,3.789841-5.1,3.7-1,0-2-.3-2.9-.7-.841895-.464772-1.535228-1.158105-2-2-.4-1-.7-2-.7-3c0-1.2.3-2.2.7-3c.5-1,1.1-1.6,2-2s1.8-.8,2.9-.8c1,0,2,.3,2.8.7.8.5,1.5,1.1,2,2c.4.8.6,1.7.6,2.8Zm-2.9-.8c0-.7-.2-1.3-.7-1.7s-1.2-.7-1.9-.7-1.3.3-1.8.7c-.4.4-.7,1-.8,1.7h5.2Zm13-2.2v5.4c0,.4.1.6.3.8s.5.2.9.2h1.3v2.4h-1.8c-2.3,0-3.5-1.1-3.5-3.4v-5.4h-1.3v-2.2h1.3v-2.7h2.8v2.7h2.5v2.3h-2.5Zm7.3-.6c.727631-1.179598,2.014036-1.898472,3.4-1.9v3h-.7c-1,0-1.6.2-2,.6-.5.4-.7,1.2-.7,2.2v5.5h-2.8v-11h2.8v1.6Zm4.6,3.8c0-1.1.2-2,.6-3c.433256-.831646,1.09165-1.524693,1.9-2c.7-.4,1.6-.7,2.5-.7c1.451488-.031999,2.829248.638263,3.7,1.8v-1.6h2.8v11.1h-2.8v-1.6c-.4.5-.9,1-1.5,1.3s-1.4.5-2.2.5c-1,0-1.8-.3-2.5-.7-.805034-.479469-1.462418-1.171452-1.9-2-.4-1-.6-2-.6-3Zm8.7,0c0-.6-.1-1.2-.4-1.7s-.6-.8-1-1.1c-.5-.3-1-.4-1.5-.4s-1,.1-1.5.4-.8.6-1,1.1c-.3.5-.5,1-.5,1.7s.2,1.3.4,1.8c.3.5.7.9,1.1,1.1.5.3,1,.4,1.5.4s1-.1,1.4-.4c.40826-.24888.75112-.59174,1-1c.4-.6.5-1.2.5-1.8Zm10.2,3l2.8-8.5h3L160.4,159h-3.4l-4-11h3l2.8,8.4Zm17.6-3.2v1.1h-8.2c.1.8.4,1.4.9,1.9.5.4,1,.7,1.8.7c1,0,1.8-.5,2.2-1.4h3c-.611309,2.284065-2.738994,3.82768-5.1,3.7-1.1,0-2-.3-3-.7-.805034-.479469-1.462418-1.171452-1.9-2-.5-1-.7-2-.7-3c0-1.2.2-2.2.7-3c.5-1,1.1-1.6,2-2s1.8-.8,2.9-.8c1,0,2,.3,2.8.7.8.5,1.5,1.1,2,2c.4.8.6,1.7.6,2.8Zm-2.9-.8c0-.7-.3-1.3-.8-1.7s-1-.7-1.8-.7c-.7,0-1.3.3-1.8.7-.4.4-.7,1-.8,1.7h5.2Zm7.8-8.2v14.8h-2.8v-14.8h2.8Z" fill="#fff"></path></g></g><g clip-path="url(#ee6xQd9b0zw65)"><rect width="311" height="214" rx="16" ry="16" transform="translate(-295 124)" fill="url(#ee6xQd9b0zw62-fill)"></rect><circle r="85" transform="translate(16 271)" fill="url(#ee6xQd9b0zw63-fill)"></circle><rect width="311" height="214" rx="16" ry="16" transform="translate(-295 124)" opacity="0.1" fill="none"></rect><clipPath id="ee6xQd9b0zw65"><rect width="311" height="214" rx="16" ry="16" transform="translate(-295 124)" fill="#fff"></rect></clipPath></g><g clip-path="url(#ee6xQd9b0zw72)"><g transform="translate(359 124)"><rect width="311" height="214" rx="16" ry="16" fill="url(#ee6xQd9b0zw69-fill)"></rect><circle r="85" fill="url(#ee6xQd9b0zw70-fill)"></circle><rect width="311" height="214" rx="16" ry="16" opacity="0.1" fill="none"></rect></g><clipPath id="ee6xQd9b0zw72"><rect width="311" height="214" rx="16" ry="16" transform="translate(359 124)" fill="#fff"></rect></clipPath></g><clipPath id="ee6xQd9b0zw74"><rect width="375" height="290" rx="0" ry="0" transform="translate(0 108)" fill="#fff"></rect></clipPath></g><path d="M38.5,83.5l1-1-5.6-5.8h15.1v-1.5h-15.1l5.7-5.6-1.1-1.1L31,76l7.5,7.5ZM91.6,69v14h-2.8v-9l-3.7,9h-2.2l-3.7-9v9h-2.8v-14h3.2L84,79.4L88.4,69h3.2ZM105,72L98,88.1h-3l2.4-5.5L93.1,72h3.1l2.9,7.8L102,72h3Zm5.5,5.5c0-1.2.3-2.2.7-3c.46028-.845264,1.154736-1.53972,2-2c.8-.5,1.7-.8,2.8-.8c1.4,0,2.5.4,3.4,1c.941695.750607,1.58085,1.815866,1.8,3h-3c-.2-.5-.4-.9-.8-1.2-.4-.2-.9-.4-1.4-.4-.8,0-1.4.3-2,.9-.4.6-.6,1.4-.6,2.5c0,1,.2,1.8.7,2.4s1,.9,1.9.9c1.1,0,1.9-.5,2.2-1.5h3c-.3,1.2-.9,2.1-1.8,2.8s-2,1-3.4,1c-1,0-2-.2-2.8-.6-.841895-.464772-1.535228-1.158105-2-2-.4-.9-.7-1.9-.7-3Zm12,0c0-1.2.3-2.2.7-3c.405977-.818619,1.02852-1.510334,1.8-2c.8-.5,1.7-.8,2.6-.8c1.451488-.031999,2.829248.638263,3.7,1.8v-1.6h2.8v11.1h-2.8v-1.6c-.4.5-.9,1-1.5,1.3-.7.3-1.4.5-2.2.5-1,0-1.8-.3-2.6-.7-.768217-.493515-1.389853-1.184222-1.8-2-.4-1-.6-2-.6-3Zm8.8,0c0-.7-.2-1.3-.4-1.8-.3-.5-.7-.8-1.1-1.1-.5-.3-1-.4-1.5-.4s-1,.1-1.4.4-.8.6-1,1.1c-.4.5-.5,1-.5,1.7s.1,1.3.4,1.8.7.9,1,1.1c.5.3,1,.4,1.5.4c1.036598-.034233,1.981984-.601465,2.5-1.5.3-.5.5-1,.5-1.7Zm8.3-3.9c.4-.5.9-1,1.4-1.3.611529-.338551,1.301098-.510943,2-.5v2.9h-.7c-.9,0-1.6.2-2,.6-.5.4-.7,1.2-.7,2.2v5.5h-2.8v-11h2.8v1.6Zm4.6,3.8c0-1.1.2-2,.7-3c.4-.8,1-1.5,1.8-2s1.6-.7,2.6-.7c1.412749.015315,2.740099.67899,3.6,1.8v-5.3h2.8v14.8h-2.7v-1.6c-.4.5-.8,1-1.5,1.3s-1.3.5-2.1.5c-1,0-1.8-.3-2.6-.7s-1.4-1.2-1.8-2c-.5-1-.7-2-.7-3Zm8.7,0c0-.6-.1-1.2-.4-1.7s-.6-.8-1-1.1c-.5-.3-1-.4-1.5-.4s-1,.1-1.5.4-.8.6-1,1.1c-.3.5-.4,1-.4,1.7s0,1.3.4,1.8c.2.5.6.9,1,1.1.5.3,1,.4,1.5.4s1-.1,1.4-.4c.444757-.235767.823038-.579659,1.1-1c.3-.6.4-1.2.4-1.8Zm9.8,5.8c-.825886.000287-1.642938-.169932-2.4-.5-.8-.3-1.3-.8-1.8-1.3-.4-.6-.6-1.2-.6-1.9h2.8c0,.4.3.8.6,1c.4.3.8.5,1.4.5.5,0,1-.1,1.2-.3.3-.3.5-.5.5-.9c0-.3-.2-.6-.6-.8l-1.7-.6-2-.6c-.6-.2-1-.5-1.4-1-.4-.4-.6-1-.6-1.7s.2-1.2.6-1.7c.3-.5.8-1,1.5-1.2.6-.3,1.4-.5,2.3-.5c1.3,0,2.4.4,3.2,1c.8.7,1.2,1.6,1.3,2.7h-2.7c0-.4-.2-.8-.6-1-.373296-.281113-.833243-.422635-1.3-.4-.5,0-.9,0-1.1.2-.3.2-.5.5-.5.8c0,.4.2.7.6.9l1.7.6l2,.6c.5.2,1,.5,1.4,1c.4.4.6,1,.6,1.7s-.2,1.3-.6,1.8c-.3.5-.8.9-1.5,1.2-.6.2-1.4.4-2.3.4Z"></path><rect width="48" height="44" rx="12" ry="12" transform="translate(311 54)" fill="#fff"></rect><path d="M335,67c4.970563,0,9,4.029437,9,9s-4.029437,9-9,9-9-4.029437-9-9s4.029437-9,9-9Zm0-1.5c-5.79899,0-10.5,4.70101-10.5,10.5s4.70101,10.5,10.5,10.5s10.5-4.70101,10.5-10.5-4.70101-10.5-10.5-10.5Z"></path><path d="M341,75.3h-5.3v-5.3h-1.4v5.3h-5.3v1.5h5.3v5.2h1.4v-5.3h5.3v-1.5Z"></path><path d="M339.6,17.3h14.8c1.3,0,1.7,0,2.2.3.4.3.8.6,1,1s.4,1,.4,2.2v4.4c0,1.2-.1,1.7-.4,2.1s-.6.8-1,1c-.5.3-1,.4-2.2.4h-14.8c-1.3,0-1.7,0-2.2-.3-.4-.3-.8-.6-1-1s-.4-1-.4-2.2v-4.4c0-1.2.1-1.7.4-2.1s.6-.8,1-1c.5-.3,1-.5,2.2-.5Zm0,1c-1,0-1.3,0-1.7.2-.3.2-.5.4-.6.7-.2.3-.3.7-.3,1.6v4.4c0,1,0,1.3.3,1.6.1.3.3.5.6.7.4.2.7.3,1.7.3h14.8c1,0,1.3-.1,1.7-.3.3-.2.5-.4.6-.7.2-.3.3-.7.3-1.6v-4.4c0-1,0-1.3-.3-1.6-.1-.3-.3-.5-.6-.7-.4-.2-.7-.2-1.7-.2h-14.8Zm20.9,4.6c0,1.3-1.5,2-1.5,2v-4c0,0,1.5.8,1.5,2Z" opacity="0.4" clip-rule="evenodd" fill-rule="evenodd"></path><rect width="18" height="7.7" rx="1.6" ry="1.6" transform="translate(338 19.2)"></rect><path d="M323.3,19.8c2.2,0,4.4.8,6,2.4h.4L331,21l.1-.2-.1-.3c-4.2-4-11-4-15.2,0l-.1.3v.2l1.3,1.2h.4c1.617692-1.540659,3.766044-2.4,6-2.4Zm0,3.8c1.221901.015514,2.395819.477966,3.3,1.3h.5l1.1-1.2c.083794-.055582.134169-.149448.134169-.25s-.050375-.194418-.134169-.25c-2.762717-2.566114-7.037283-2.566114-9.8,0l-.1.3v.2l1.2,1.2h.5c.904181-.822034,2.078099-1.284486,3.3-1.3Zm2.2,2.8c.083794-.055582.134169-.149448.134169-.25s-.050375-.194418-.134169-.25c-1.3-1-3.1-1-4.4,0l-.1.3v.2l2,2c.055582.083794.149448.134169.25.134169s.194418-.050375.25-.134169l2-2Zm-17.9-7.8v8.8c.1.5.5.8,1,1h1c.5-.2.9-.5,1-1v-8.8c-.1-.5-.5-.8-1-1h-1c-.5.2-.9.5-1,1Zm-4.7,3v-.6c.1-.5.5-.8,1-1h1c.5.2.9.5,1,1v6.4c-.1.5-.5.8-1,1h-1c-.5-.2-.9-.5-1-1v-5.9Zm-4.6,1.7v4.1c.1.5.5.8,1,1h1c.5-.2.9-.5,1-1v-4.1c-.1-.5-.5-.8-1-1h-1c-.5.2-.9.5-1,1Zm-4.8,2v2.1c.1.5.5.8,1,1h1c.5-.2.9-.5,1-1v-2.1c-.1-.5-.5-.8-1-1h-1c-.5.2-.9.5-1,1Z" clip-rule="evenodd" fill-rule="evenodd"></path><path d="M33.5,16.4c-2.3,0-3.9,1.6-3.9,3.8c0,2,1.4,3.5,3.4,3.5c1.5,0,2.4-.8,2.8-1.6h.2v.2c-.1,2-.8,3.7-2.5,3.7-1,0-1.6-.5-1.9-1.2v-.1h-1.9c.4,1.7,1.8,2.8,3.8,2.8c2.6,0,4.2-2,4.2-5.6c0-3.8-2-5.4-4.2-5.4Zm0,5.8c-1.104569,0-2-.895431-2-2v-.2c0-1.132184.917816-2.05,2.05-2.05s2.05.917816,2.05,2.05c0,1.2-.9,2.1-2,2.1Zm7.4-1.8c.7,0,1.2-.5,1.2-1.1c0-.7-.5-1.2-1.2-1.2s-1.2.5-1.2,1.2c0,.6.5,1.1,1.2,1.1Zm0,5.5c.7,0,1.2-.5,1.2-1.2c0-.6-.5-1.1-1.2-1.1s-1.2.5-1.2,1.1c0,.7.5,1.2,1.2,1.2Zm8.3,1.4h1.8v-2h1.4v-1.6h-1.4v-7h-2.7c-1.4,2.2-3,4.6-4.3,7v1.6h5.2v2Zm-3.4-3.6c1-1.9,2.2-3.8,3.3-5.5h.1v5.5h-3.4Zm10.8,3.6h2v-10.6h-2l-2.7,2v1.7l2.6-1.8h.1v8.7Z"></path></svg>